<svg width="372" height="65" viewBox="0 0 372 65" fill="none" xmlns="http://www.w3.org/2000/svg">
<path fill-rule="evenodd" clip-rule="evenodd" d="M11.5 1C5.9772 1 1.5 5.4772 1.5 11V17.6615L5.5965 19.3483C6.3459 19.6569 6.8349 20.3873 6.8349 21.1977V44.0834C6.8349 44.9075 6.3295 45.6472 5.5618 45.9467L1.5 47.5312V54C1.5 59.523 5.9772 64 11.5 64H360.5C366.023 64 370.5 59.523 370.5 54V11C370.5 5.4772 366.023 1 360.5 1H11.5Z" fill="#1C195B"/>
<path d="M1.5 17.6615H0.5V18.3311L1.1192 18.5861L1.5 17.6615ZM1.5 47.5312L1.1366 46.5996L0.5 46.848V47.5312H1.5ZM2.5 11C2.5 6.0294 6.5294 2 11.5 2V0C5.4249 0 0.5 4.9249 0.5 11H2.5ZM2.5 17.6615V11H0.5V17.6615H2.5ZM1.1192 18.5861L5.2157 20.273L5.9772 18.4237L1.8808 16.7368L1.1192 18.5861ZM5.2157 20.273C5.5904 20.4273 5.8349 20.7925 5.8349 21.1977H7.8349C7.8349 19.982 7.1013 18.8866 5.9772 18.4237L5.2157 20.273ZM5.8349 21.1977V44.0834H7.8349V21.1977H5.8349ZM5.8349 44.0834C5.8349 44.4955 5.5822 44.8653 5.1984 45.015L5.9253 46.8783C7.0768 46.429 7.8349 45.3195 7.8349 44.0834H5.8349ZM5.1984 45.015L1.1366 46.5996L1.8634 48.4629L5.9253 46.8783L5.1984 45.015ZM2.5 54V47.5312H0.5V54H2.5ZM11.5 63C6.5294 63 2.5 58.971 2.5 54H0.5C0.5 60.075 5.4249 65 11.5 65V63ZM360.5 63H11.5V65H360.5V63ZM369.5 54C369.5 58.971 365.471 63 360.5 63V65C366.575 65 371.5 60.075 371.5 54H369.5ZM369.5 11V54H371.5V11H369.5ZM360.5 2C365.471 2 369.5 6.0294 369.5 11H371.5C371.5 4.9249 366.575 0 360.5 0V2ZM11.5 2H360.5V0H11.5V2Z" fill="#FFE70C"/>
</svg>
