<svg width="22" height="23" viewBox="0 0 22 23" fill="none" xmlns="http://www.w3.org/2000/svg">
<g clip-path="url(#clip0_888_1438)">
<path d="M17.1415 7.89795H16.7748C16.3698 7.89795 16.0415 8.22627 16.0415 8.63128V17.7063C16.0415 18.1113 16.3698 18.4396 16.7748 18.4396H17.1415C17.5465 18.4396 17.8748 18.1113 17.8748 17.7063V8.63128C17.8748 8.22627 17.5465 7.89795 17.1415 7.89795Z" fill="#1C195B" stroke="#FFE70C" stroke-width="1.26815"/>
<path d="M13.475 11.106H13.1083C12.7033 11.106 12.375 11.4343 12.375 11.8393V17.706C12.375 18.111 12.7033 18.4393 13.1083 18.4393H13.475C13.88 18.4393 14.2083 18.111 14.2083 17.706V11.8393C14.2083 11.4343 13.88 11.106 13.475 11.106Z" fill="#1C195B" stroke="#FFE70C" stroke-width="1.26815"/>
<path d="M9.8085 12.9395H9.44183C9.03682 12.9395 8.7085 13.2678 8.7085 13.6728V17.7061C8.7085 18.1111 9.03682 18.4395 9.44183 18.4395H9.8085C10.2135 18.4395 10.5418 18.1111 10.5418 17.7061V13.6728C10.5418 13.2678 10.2135 12.9395 9.8085 12.9395Z" fill="#1C195B" stroke="#FFE70C" stroke-width="1.26815"/>
<path d="M6.1415 15.6895H5.77484C5.36983 15.6895 5.0415 16.0178 5.0415 16.4228V17.7061C5.0415 18.1111 5.36983 18.4395 5.77484 18.4395H6.1415C6.54651 18.4395 6.87484 18.1111 6.87484 17.7061V16.4228C6.87484 16.0178 6.54651 15.6895 6.1415 15.6895Z" fill="#1C195B" stroke="#FFE70C" stroke-width="1.26815"/>
<path d="M19.25 17.981H2.75V18.8976H19.25V17.981Z" fill="#FFE70C"/>
<path d="M14.1062 5.22748L3.125 13.5024L3.67666 14.2345L14.6579 5.95957L14.1062 5.22748Z" fill="#FFE70C"/>
<path d="M14.9284 4.78125H14.0117V7.16458H14.9284V4.78125Z" fill="#FFE70C"/>
<path d="M14.9419 5.70426V4.7876H12.5586V5.70426H14.9419Z" fill="#FFE70C"/>
</g>
<defs>
<clipPath id="clip0_888_1438">
<rect width="22" height="22" fill="white" transform="translate(0 0.564453)"/>
</clipPath>
</defs>
</svg>
