<svg width="403" height="66" viewBox="0 0 403 66" fill="none" xmlns="http://www.w3.org/2000/svg">
<path fill-rule="evenodd" clip-rule="evenodd" d="M11 1.5C5.4772 1.5 1 5.9772 1 11.5V18.1615L5.5062 19.869C6.2835 20.1635 6.7976 20.9081 6.7976 21.7392V44.543C6.7976 45.387 6.2677 46.1402 5.4733 46.4254L1 48.0312V54.5C1 60.023 5.4771 64.5 11 64.5H392C397.523 64.5 402 60.023 402 54.5V11.5C402 5.9772 397.523 1.5 392 1.5H11Z" fill="#1C195B"/>
<path d="M1 18.1615H0V18.8519L0.645699 19.0966L1 18.1615ZM1 48.0312L0.662102 47.09L0 47.3277V48.0312H1ZM2 11.5C2 6.5294 6.0294 2.5 11 2.5V0.5C4.9249 0.5 0 5.4249 0 11.5H2ZM2 18.1615V11.5H0V18.1615H2ZM0.645699 19.0966L5.1519 20.8041L5.8606 18.9339L1.3543 17.2264L0.645699 19.0966ZM5.1519 20.8041C5.5405 20.9514 5.7976 21.3237 5.7976 21.7392H7.7976C7.7976 20.4925 7.0264 19.3757 5.8606 18.9339L5.1519 20.8041ZM5.7976 21.7392V44.543H7.7976V21.7392H5.7976ZM5.7976 44.543C5.7976 44.965 5.5326 45.3416 5.1354 45.4842L5.8112 47.3666C7.0028 46.9388 7.7976 45.809 7.7976 44.543H5.7976ZM5.1354 45.4842L0.662102 47.09L1.3379 48.9724L5.8112 47.3666L5.1354 45.4842ZM2 54.5V48.0312H0V54.5H2ZM11 63.5C6.0294 63.5 2 59.471 2 54.5H0C0 60.575 4.9249 65.5 11 65.5V63.5ZM392 63.5H11V65.5H392V63.5ZM401 54.5C401 59.471 396.971 63.5 392 63.5V65.5C398.075 65.5 403 60.575 403 54.5H401ZM401 11.5V54.5H403V11.5H401ZM392 2.5C396.971 2.5 401 6.5294 401 11.5H403C403 5.4249 398.075 0.5 392 0.5V2.5ZM11 2.5H392V0.5H11V2.5Z" fill="#FFE70C"/>
</svg>
