<svg width="555" height="207" viewBox="0 0 555 207" fill="none" xmlns="http://www.w3.org/2000/svg">
<mask id="path-1-inside-1_888_8895" fill="white">
<path fill-rule="evenodd" clip-rule="evenodd" d="M10 0C4.47715 0 0 4.47716 0 10V70.8315L14.13 78.4006C14.78 78.7487 15.1856 79.4263 15.1856 80.1636V128.08C15.1856 128.834 14.7624 129.523 14.0907 129.864L0 137.015V197C0 202.523 4.47715 207 9.99999 207H545C550.523 207 555 202.523 555 197V10C555 4.47715 550.523 0 545 0H10Z"/>
</mask>
<path d="M0 70.8315H-1V71.4302L-0.472194 71.713L0 70.8315ZM14.13 78.4006L14.6022 77.5191H14.6022L14.13 78.4006ZM14.0907 129.864L13.6382 128.972L13.6382 128.972L14.0907 129.864ZM0 137.015L-0.452543 136.123L-1 136.401V137.015H0ZM1 10C1 5.02944 5.02944 1 10 1V-1C3.92487 -1 -1 3.92487 -1 10H1ZM1 70.8315V10H-1V70.8315H1ZM-0.472194 71.713L13.6578 79.2821L14.6022 77.5191L0.472194 69.95L-0.472194 71.713ZM13.6578 79.2821C13.9828 79.4562 14.1856 79.7949 14.1856 80.1636H16.1856C16.1856 79.0576 15.5771 78.0413 14.6022 77.5191L13.6578 79.2821ZM14.1856 80.1636V128.08H16.1856V80.1636H14.1856ZM14.1856 128.08C14.1856 128.457 13.974 128.802 13.6382 128.972L14.5433 130.756C15.5508 130.244 16.1856 129.21 16.1856 128.08H14.1856ZM13.6382 128.972L-0.452543 136.123L0.452543 137.906L14.5433 130.756L13.6382 128.972ZM1 197V137.015H-1V197H1ZM9.99999 206C5.02943 206 1 201.971 1 197H-1C-1 203.075 3.92486 208 9.99999 208V206ZM545 206H9.99999V208H545V206ZM554 197C554 201.971 549.971 206 545 206V208C551.075 208 556 203.075 556 197H554ZM554 10V197H556V10H554ZM545 1C549.971 1 554 5.02944 554 10H556C556 3.92487 551.075 -1 545 -1V1ZM10 1H545V-1H10V1Z" fill="#7E78FF" mask="url(#path-1-inside-1_888_8895)"/>
</svg>
