<svg width="75" height="48" viewBox="0 0 75 48" fill="none" xmlns="http://www.w3.org/2000/svg">
<g filter="url(#filter0_d_355_18443)">
<path d="M25.1609 3.59432L4.71906 3.5946L69.6281 42.2228L69.6281 29.5731L25.1609 3.59432Z" fill="#2943DE"/>
<path d="M69.2998 41.6454L5.91263 3.92287L25.072 3.92262L69.2998 29.7615L69.2998 41.6454Z" stroke="#FFE70C" stroke-width="0.656588"/>
</g>
<path d="M23.2234 9.13353L23.3219 8.9652C23.486 8.68466 23.3907 8.32087 23.1102 8.15676L21.0699 6.96326L20.3747 8.15172L22.415 9.34522C22.6955 9.50933 23.0593 9.41406 23.2234 9.13353ZM23.8319 9.26358L23.7335 9.4319C23.4172 9.97257 22.6879 10.1895 22.1166 9.85529L19.5662 8.36341L21.6549 4.79293L24.7153 6.58318L24.4169 7.09325L21.8666 5.60137L21.3683 6.45319L23.4085 7.64669C23.9543 7.96595 24.1478 8.68845 23.8319 9.26358ZM26.1015 8.0787L25.5048 9.09884L28.0551 10.5907L27.7567 11.1008L25.2064 9.60891L24.6097 10.629L27.6701 12.4193L27.3717 12.9294L23.8012 10.8407L25.8898 7.27026L29.4603 9.35889L29.1619 9.86896L26.1015 8.0787ZM30.3595 12.6233L30.6579 12.1132L31.678 12.71C31.9585 12.8741 32.3223 12.7788 32.4864 12.4983C32.6506 12.2178 32.5553 11.854 32.2748 11.6899L30.7445 10.7947C30.464 10.6306 30.1002 10.7259 29.9361 11.0064L29.426 10.7081C29.7423 10.1674 30.4716 9.95048 31.0429 10.2847L32.5731 11.1798C33.1087 11.4931 33.3277 12.2305 32.9965 12.7967C32.8175 13.1027 32.551 13.2891 32.2021 13.3589C32.3123 13.6972 32.2804 14.0208 32.1014 14.3269C31.7851 14.8676 31.0558 15.0845 30.4845 14.7503L28.9543 13.8551C28.3983 13.5299 28.209 12.8236 28.5309 12.2383L29.041 12.5366C28.8769 12.8172 28.9721 13.181 29.2527 13.3451L30.7829 14.2402C31.0634 14.4043 31.4272 14.309 31.5913 14.0285C31.7554 13.748 31.6602 13.3842 31.3796 13.2201L30.3595 12.6233ZM37.8755 14.2815L35.0459 15.0224L35.7868 17.852L35.0676 17.4313L34.4325 15.0059L33.6215 14.5315L32.7264 16.0617L32.2163 15.7633L34.305 12.1929L34.815 12.4912L33.9199 14.0214L34.7309 14.4959L37.1563 13.8608L37.8755 14.2815ZM39.6988 18.7712L40.5939 17.241C40.7581 16.9604 40.6628 16.5966 40.3823 16.4325L38.852 15.5374C38.5715 15.3733 38.2077 15.4685 38.0436 15.7491L37.1485 17.2793C36.9844 17.5598 37.0796 17.9236 37.3602 18.0877L38.8904 18.9829C39.1709 19.147 39.5347 19.0517 39.6988 18.7712ZM41.104 17.5393L40.2089 19.0695C39.8807 19.6306 39.1531 19.8211 38.592 19.4929L37.0618 18.5978C36.4956 18.2666 36.3072 17.5471 36.6384 16.9809L37.5335 15.4507C37.8617 14.8896 38.5893 14.6991 39.1504 15.0273L40.6806 15.9224C41.2213 16.2387 41.4292 16.9834 41.104 17.5393ZM42.9263 17.2361L41.1361 20.2965L42.6663 21.1916L44.4565 18.1312L44.9666 18.4296L43.1763 21.49L44.7066 22.3851L46.4968 19.3247L47.0069 19.6231L44.9182 23.1936L40.3276 20.5082L42.4163 16.9377L42.9263 17.2361ZM50.789 22.5202L49.2588 21.6251L47.4686 24.6855L46.9585 24.3871L48.7488 21.3267L47.2186 20.4316L47.5169 19.9215L51.0874 22.0101L50.789 22.5202ZM53.0164 26.5615L53.9115 25.0313C54.0756 24.7508 53.9804 24.387 53.6998 24.2229L52.1696 23.3278C51.8891 23.1637 51.5253 23.2589 51.3612 23.5395L50.4661 25.0697C50.3019 25.3502 50.3972 25.714 50.6777 25.8781L52.208 26.7732C52.4885 26.9373 52.8523 26.8421 53.0164 26.5615ZM54.4216 25.3297L53.5265 26.8599C53.1983 27.421 52.4707 27.6115 51.9096 27.2833L50.3794 26.3882C49.8132 26.057 49.6248 25.3375 49.956 24.7713L50.8511 23.2411C51.1793 22.68 51.9069 22.4895 52.468 22.8177L53.9982 23.7128C54.5389 24.0291 54.7468 24.7737 54.4216 25.3297ZM56.1955 29.7905L53.6452 28.2986L55.7338 24.7281L58.2842 26.22C58.8197 26.5333 59.0388 27.2707 58.7076 27.8369C58.5285 28.1429 58.262 28.3293 57.9131 28.3991C58.0233 28.7374 57.9915 29.061 57.8124 29.3671C57.4902 29.918 56.7758 30.1094 56.1955 29.7905ZM57.0907 28.2603L55.0504 27.0668L54.4536 28.0869L56.4939 29.2804C56.7745 29.4445 57.1383 29.3493 57.3024 29.0687C57.4665 28.7882 57.3712 28.4244 57.0907 28.2603ZM55.9455 25.5366L55.3488 26.5567L57.389 27.7502C57.6696 27.9143 58.0334 27.819 58.1975 27.5385C58.3616 27.258 58.2663 26.8942 57.9858 26.7301L55.9455 25.5366ZM60.5287 27.533L59.6336 29.0632L62.1839 30.555L63.079 29.0248L63.5891 29.3232L61.5005 32.8937L60.9904 32.5953L61.8855 31.0651L59.3352 29.5732L58.4401 31.1034L57.93 30.8051L60.0186 27.2346L60.5287 27.533ZM65.8707 34.0809L66.7658 32.5507C66.93 32.2702 66.8347 31.9064 66.5542 31.7423L65.0239 30.8472C64.7434 30.6831 64.3796 30.7783 64.2155 31.0589L63.3204 32.5891C63.1563 32.8696 63.2515 33.2334 63.5321 33.3975L65.0623 34.2926C65.3428 34.4567 65.7066 34.3615 65.8707 34.0809ZM67.2759 32.8491L66.3808 34.3793C66.0526 34.9404 65.325 35.1309 64.7639 34.8027L63.2337 33.9076C62.6675 33.5764 62.4791 32.8569 62.8103 32.2907L63.7054 30.7605C64.0336 30.1994 64.7612 30.0089 65.3223 30.3371L66.8525 31.2322C67.3932 31.5485 67.6011 32.2931 67.2759 32.8491Z" fill="white"/>
<defs>
<filter id="filter0_d_355_18443" x="2.09271" y="3.59432" width="70.1617" height="43.8812" filterUnits="userSpaceOnUse" color-interpolation-filters="sRGB">
<feFlood flood-opacity="0" result="BackgroundImageFix"/>
<feColorMatrix in="SourceAlpha" type="matrix" values="0 0 0 0 0 0 0 0 0 0 0 0 0 0 0 0 0 0 127 0" result="hardAlpha"/>
<feOffset dy="2.62635"/>
<feGaussianBlur stdDeviation="1.31318"/>
<feComposite in2="hardAlpha" operator="out"/>
<feColorMatrix type="matrix" values="0 0 0 0 0.599691 0 0 0 0 0.599691 0 0 0 0 0.599691 0 0 0 0.25 0"/>
<feBlend mode="normal" in2="BackgroundImageFix" result="effect1_dropShadow_355_18443"/>
<feBlend mode="normal" in="SourceGraphic" in2="effect1_dropShadow_355_18443" result="shape"/>
</filter>
</defs>
</svg>
