<svg width="83" height="53" viewBox="0 0 83 53" fill="none" xmlns="http://www.w3.org/2000/svg">
<g filter="url(#filter0_d_355_18792)">
<path d="M32.1609 4.68779L5.49996 4.6878L76.6281 47.5935L76.6281 30.6666L32.1609 4.68779Z" fill="#2943DE"/>
<path d="M76.2998 47.012L6.67979 5.01609L32.072 5.01609L76.2998 30.855L76.2998 47.012Z" stroke="#FFE70C" stroke-width="0.656588"/>
</g>
<path d="M39.3363 14.8102L38.5284 16.1912L41.9811 18.2109L41.5771 18.9015L38.1245 16.8818L36.9126 18.9534L36.2221 18.5494L39.0497 13.7157L43.8834 16.5433L43.4795 17.2338L39.3363 14.8102ZM47.6402 21.5213L48.0441 20.8308C48.2663 20.451 48.1373 19.9585 47.7575 19.7363L44.9954 18.1206L43.7836 20.1922L46.5457 21.8079C46.9255 22.0301 47.418 21.9011 47.6402 21.5213ZM46.7149 24.6874L46.2247 24.4006L45.6515 22.2117L43.3796 20.8827L42.5718 22.2638L41.8812 21.8598L44.7088 17.0261L48.1615 19.0458C48.8865 19.47 49.183 20.4683 48.7346 21.2348L48.3307 21.9253C47.9873 22.5122 47.2896 22.8177 46.6034 22.6758L47.0017 24.1971L46.7149 24.6874ZM50.7961 21.5138L49.9882 22.8949L53.4409 24.9146L53.037 25.6051L49.5843 23.5854L48.7764 24.9665L52.9196 27.3901L52.5157 28.0807L47.6819 25.2531L50.5095 20.4194L55.3432 23.2469L54.9393 23.9375L50.7961 21.5138ZM56.5294 24.8676L55.7215 26.2487L59.1742 28.2684L58.7702 28.9589L55.3176 26.9392L54.5097 28.3203L58.6529 30.7439L58.249 31.4345L53.4152 28.6069L56.2428 23.7732L61.0765 26.6008L60.6726 27.2913L56.5294 24.8676Z" fill="white"/>
<defs>
<filter id="filter0_d_355_18792" x="2.87365" y="4.68779" width="76.3808" height="48.1584" filterUnits="userSpaceOnUse" color-interpolation-filters="sRGB">
<feFlood flood-opacity="0" result="BackgroundImageFix"/>
<feColorMatrix in="SourceAlpha" type="matrix" values="0 0 0 0 0 0 0 0 0 0 0 0 0 0 0 0 0 0 127 0" result="hardAlpha"/>
<feOffset dy="2.62635"/>
<feGaussianBlur stdDeviation="1.31318"/>
<feComposite in2="hardAlpha" operator="out"/>
<feColorMatrix type="matrix" values="0 0 0 0 0.599691 0 0 0 0 0.599691 0 0 0 0 0.599691 0 0 0 0.25 0"/>
<feBlend mode="normal" in2="BackgroundImageFix" result="effect1_dropShadow_355_18792"/>
<feBlend mode="normal" in="SourceGraphic" in2="effect1_dropShadow_355_18792" result="shape"/>
</filter>
</defs>
</svg>
