<svg width="273" height="51" viewBox="0 0 273 51" fill="none" xmlns="http://www.w3.org/2000/svg">
<path fill-rule="evenodd" clip-rule="evenodd" d="M11 1C5.4772 1 1 5.4772 1 11V13.9592L3.7174 15.1443C4.4465 15.4622 4.9179 16.1821 4.9179 16.9775V34.2348C4.9179 35.0444 4.4298 35.7741 3.6816 36.0832L1 37.1911V40C1 45.5228 5.4771 50 11 50H262C267.523 50 272 45.5228 272 40V11C272 5.4772 267.523 1 262 1H11Z" fill="#1C195B"/>
<path d="M1 13.9592H0V14.614L0.6003 14.8758L1 13.9592ZM1 37.1911L0.618198 36.2669L0 36.5223V37.1911H1ZM2 11C2 6.0294 6.0294 2 11 2V0C4.9249 0 0 4.9249 0 11H2ZM2 13.9592V11H0V13.9592H2ZM0.6003 14.8758L3.3177 16.0609L4.1171 14.2276L1.3997 13.0426L0.6003 14.8758ZM3.3177 16.0609C3.6822 16.2199 3.9179 16.5798 3.9179 16.9775H5.9179C5.9179 15.7843 5.2108 14.7046 4.1171 14.2276L3.3177 16.0609ZM3.9179 16.9775V34.2348H5.9179V16.9775H3.9179ZM3.9179 34.2348C3.9179 34.6396 3.6739 35.0044 3.2998 35.159L4.0635 37.0075C5.1858 36.5437 5.9179 35.4491 5.9179 34.2348H3.9179ZM3.2998 35.159L0.618198 36.2669L1.3818 38.1154L4.0635 37.0075L3.2998 35.159ZM2 40V37.1911H0V40H2ZM11 49C6.0294 49 2 44.9706 2 40H0C0 46.0751 4.9249 51 11 51V49ZM262 49H11V51H262V49ZM271 40C271 44.9706 266.971 49 262 49V51C268.075 51 273 46.0751 273 40H271ZM271 11V40H273V11H271ZM262 2C266.971 2 271 6.0294 271 11H273C273 4.9249 268.075 0 262 0V2ZM11 2H262V0H11V2Z" fill="#FFE70C"/>
</svg>
