<svg width="363" height="181" viewBox="0 0 363 181" fill="none" xmlns="http://www.w3.org/2000/svg">
<mask id="path-1-inside-1_888_8950" fill="white">
<path fill-rule="evenodd" clip-rule="evenodd" d="M10 0C4.47715 0 0 4.47715 0 10V61.9349L9.09664 68.4493C9.62107 68.8249 9.93217 69.4303 9.93217 70.0754V112.007C9.93217 112.67 9.60365 113.29 9.05503 113.662L0 119.805V171C0 176.523 4.47714 181 9.99999 181H353C358.523 181 363 176.523 363 171V10C363 4.47715 358.523 0 353 0H10Z"/>
</mask>
<path d="M0 61.9349H-1V62.4487L-0.582234 62.7479L0 61.9349ZM9.09664 68.4493L9.67888 67.6363H9.67887L9.09664 68.4493ZM9.05503 113.662L9.61646 114.489H9.61646L9.05503 113.662ZM0 119.805L-0.56143 118.978L-1 119.275V119.805H0ZM1 10C1 5.02944 5.02944 1 10 1V-1C3.92487 -1 -1 3.92487 -1 10H1ZM1 61.9349V10H-1V61.9349H1ZM-0.582234 62.7479L8.51441 69.2623L9.67887 67.6363L0.582234 61.1219L-0.582234 62.7479ZM8.51441 69.2623C8.77662 69.4501 8.93217 69.7528 8.93217 70.0754H10.9322C10.9322 69.1078 10.4655 68.1996 9.67888 67.6363L8.51441 69.2623ZM8.93217 70.0754V112.007H10.9322V70.0754H8.93217ZM8.93217 112.007C8.93217 112.338 8.76791 112.648 8.4936 112.834L9.61646 114.489C10.4394 113.931 10.9322 113.001 10.9322 112.007H8.93217ZM8.4936 112.834L-0.56143 118.978L0.56143 120.633L9.61646 114.489L8.4936 112.834ZM1 171V119.805H-1V171H1ZM9.99999 180C5.02943 180 1 175.971 1 171H-1C-1 177.075 3.92486 182 9.99999 182V180ZM353 180H9.99999V182H353V180ZM362 171C362 175.971 357.97 180 353 180V182C359.075 182 364 177.075 364 171H362ZM362 10V171H364V10H362ZM353 1C357.97 1 362 5.02944 362 10H364C364 3.92487 359.075 -1 353 -1V1ZM10 1H353V-1H10V1Z" fill="#7E78FF" mask="url(#path-1-inside-1_888_8950)"/>
</svg>
