<svg width="75" height="48" viewBox="0 0 75 48" fill="none" xmlns="http://www.w3.org/2000/svg">
<g filter="url(#filter0_d_888_8920)">
<path d="M25.1609 4.09431L4.71906 4.09459L69.6281 42.7228L69.6281 30.0731L25.1609 4.09431Z" fill="#2943DE"/>
<path d="M69.2998 42.1454L5.91263 4.42286L25.072 4.42261L69.2998 30.2615L69.2998 42.1454Z" stroke="#FFE70C" stroke-width="0.656588"/>
</g>
<path d="M27.2834 12.0085L27.3819 11.8401C27.546 11.5596 27.4507 11.1958 27.1702 11.0317L25.1299 9.8382L24.4347 11.0267L26.475 12.2202C26.7555 12.3843 27.1193 12.289 27.2834 12.0085ZM27.892 12.1385L27.7935 12.3068C27.4772 12.8475 26.7479 13.0644 26.1766 12.7302L23.6263 11.2384L25.7149 7.66787L28.7753 9.45812L28.4769 9.96819L25.9266 8.47631L25.4283 9.32813L27.4686 10.5216C28.0144 10.8409 28.2079 11.5634 27.892 12.1385ZM30.1616 10.9536L29.5648 11.9738L32.1151 13.4657L31.8168 13.9757L29.2664 12.4838L28.6697 13.504L31.7301 15.2942L31.4317 15.8043L27.8612 13.7157L29.9499 10.1452L33.5203 12.2338L33.222 12.7439L30.1616 10.9536ZM35.154 13.1894L36.6842 14.0846C37.2299 14.4038 37.4234 15.1263 37.1075 15.7015L36.5975 15.4031C36.7616 15.1225 36.6663 14.7587 36.3858 14.5946L34.8556 13.6995C34.575 13.5354 34.2112 13.6307 34.0471 13.9112L33.152 15.4414C32.9879 15.7219 33.0832 16.0857 33.3637 16.2499L34.8939 17.145C35.1744 17.3091 35.5382 17.2138 35.7024 16.9333L36.2124 17.2317C35.8961 17.7723 35.1668 17.9892 34.5955 17.655L33.0653 16.7599C32.5196 16.4407 32.3048 15.7194 32.6419 15.143L33.5371 13.6128C33.8593 13.062 34.5737 12.8706 35.154 13.1894ZM41.9355 17.1564L39.8469 20.7269L39.3368 20.4285L41.127 17.3681L38.5767 15.8763L36.7864 18.9367L36.2764 18.6383L38.365 15.0678L41.9355 17.1564ZM43.7197 18.2002L46.2701 19.692L44.1814 23.2625L43.6714 22.9641L45.4616 19.9037L43.4213 18.7102C43.1408 18.5461 42.777 18.6414 42.6129 18.9219L41.121 21.4723L40.611 21.1739L42.1028 18.6235C42.4251 18.0727 43.1395 17.8813 43.7197 18.2002ZM49.2861 22.141L47.7559 21.2458C47.4754 21.0817 47.1116 21.177 46.9475 21.4575L46.3507 22.4777L48.9011 23.9695L49.4978 22.9494C49.6619 22.6689 49.5667 22.3051 49.2861 22.141ZM50.0079 23.2478L48.516 25.7981L48.006 25.4997L48.6027 24.4796L46.0524 22.9877L45.4556 24.0079L44.9455 23.7095L46.4374 21.1592C46.7537 20.6185 47.483 20.4016 48.0543 20.7358L49.5845 21.6309C50.1303 21.9502 50.3238 22.6727 50.0079 23.2478ZM54.2862 25.0659L52.756 24.1707L50.9658 27.2311L50.4557 26.9328L52.2459 23.8724L50.7157 22.9772L51.0141 22.4672L54.5846 24.5558L54.2862 25.0659ZM55.6057 25.1531L54.7106 26.6833L57.2609 28.1752L58.1561 26.645L58.6661 26.9434L56.5775 30.5139L56.0674 30.2155L56.9626 28.6853L54.4122 27.1934L53.5171 28.7236L53.007 28.4252L55.0956 24.8547L55.6057 25.1531ZM60.9478 31.7011L61.8429 30.1709C62.007 29.8904 61.9117 29.5266 61.6312 29.3625L60.101 28.4673C59.8205 28.3032 59.4567 28.3985 59.2925 28.679L58.3974 30.2092C58.2333 30.4898 58.3286 30.8536 58.6091 31.0177L60.1393 31.9128C60.4199 32.0769 60.7837 31.9816 60.9478 31.7011ZM62.353 30.4693L61.4578 31.9995C61.1296 32.5606 60.402 32.7511 59.8409 32.4229L58.3107 31.5277C57.7446 31.1965 57.5562 30.477 57.8874 29.9109L58.7825 28.3806C59.1107 27.8196 59.8383 27.629 60.3994 27.9573L61.9296 28.8524C62.4702 29.1687 62.6782 29.9133 62.353 30.4693Z" fill="white"/>
<defs>
<filter id="filter0_d_888_8920" x="2.09288" y="4.0943" width="70.1614" height="43.8812" filterUnits="userSpaceOnUse" color-interpolation-filters="sRGB">
<feFlood flood-opacity="0" result="BackgroundImageFix"/>
<feColorMatrix in="SourceAlpha" type="matrix" values="0 0 0 0 0 0 0 0 0 0 0 0 0 0 0 0 0 0 127 0" result="hardAlpha"/>
<feOffset dy="2.62635"/>
<feGaussianBlur stdDeviation="1.31318"/>
<feComposite in2="hardAlpha" operator="out"/>
<feColorMatrix type="matrix" values="0 0 0 0 0.599691 0 0 0 0 0.599691 0 0 0 0 0.599691 0 0 0 0.25 0"/>
<feBlend mode="normal" in2="BackgroundImageFix" result="effect1_dropShadow_888_8920"/>
<feBlend mode="normal" in="SourceGraphic" in2="effect1_dropShadow_888_8920" result="shape"/>
</filter>
</defs>
</svg>
