<svg width="23" height="18" viewBox="0 0 23 18" fill="none" xmlns="http://www.w3.org/2000/svg">
<path d="M22.3695 2.92813L8.36946 16.9281C8.24753 17.0505 8.10264 17.1476 7.9431 17.2138C7.78356 17.2801 7.61252 17.3142 7.43978 17.3142C7.26703 17.3142 7.09599 17.2801 6.93645 17.2138C6.77692 17.1476 6.63202 17.0505 6.51009 16.9281L0.385089 10.8031C0.263001 10.681 0.166155 10.5361 0.100081 10.3766C0.0340076 10.2171 1.81926e-09 10.0461 0 9.87344C-1.81926e-09 9.70078 0.0340076 9.52981 0.100081 9.3703C0.166155 9.21078 0.263001 9.06584 0.385089 8.94375C0.507177 8.82167 0.652117 8.72482 0.811633 8.65875C0.971149 8.59267 1.14212 8.55866 1.31478 8.55866C1.48744 8.55866 1.6584 8.59267 1.81792 8.65875C1.97744 8.72482 2.12238 8.82167 2.24446 8.94375L7.44087 14.1402L20.5123 1.07094C20.7588 0.824373 21.0933 0.685852 21.442 0.685852C21.7907 0.685852 22.1251 0.824373 22.3717 1.07094C22.6182 1.31751 22.7567 1.65193 22.7567 2.00063C22.7567 2.34933 22.6182 2.68375 22.3717 2.93032L22.3695 2.92813Z" fill="#FFE70C"/>
</svg>
