<svg width="32" height="32" viewBox="0 0 32 32" fill="none" xmlns="http://www.w3.org/2000/svg">
<path d="M15.999 7.99997V24M19.999 12.6666C19.999 10.8266 18.2084 9.3333 15.999 9.3333C13.7897 9.3333 11.999 10.8266 11.999 12.6666C11.999 14.5066 13.7897 16 15.999 16C18.2084 16 19.999 17.4933 19.999 19.3333C19.999 21.1733 18.2084 22.6666 15.999 22.6666C13.7897 22.6666 11.999 21.1733 11.999 19.3333" stroke="#FFE70C" stroke-width="1.83333" stroke-linecap="round"/>
<path d="M9.33268 4.45067C11.3587 3.27854 13.6587 2.66307 15.9993 2.66667C23.3633 2.66667 29.3327 8.63601 29.3327 16C29.3327 23.364 23.3633 29.3333 15.9993 29.3333C8.63535 29.3333 2.66602 23.364 2.66602 16C2.66602 13.572 3.31535 11.2933 4.45002 9.33334" stroke="#FFE70C" stroke-width="1.83333" stroke-linecap="round"/>
</svg>
