<svg width="28" height="28" viewBox="0 0 28 28" fill="none" xmlns="http://www.w3.org/2000/svg">
<path d="M28 7C28 5.76975 27.1626 4.718 25.9648 4.4415L14.5784 1.81387C14.3876 1.771 14.1934 1.75 14 1.75C13.8066 1.75 13.6124 1.771 13.4094 1.8165L2.03525 4.4415C0.8365 4.718 0 5.76975 0 7C0 8.23025 0.837375 9.282 2.03437 9.5585L4.375 10.0984V17.5C4.375 19.8223 7.03325 21.875 14 21.875C20.9667 21.875 23.625 19.8223 23.625 17.5V10.0984L25.9648 9.5585C27.1626 9.282 28 8.23025 28 7ZM21.875 17.5C21.875 18.4669 19.25 20.125 14 20.125C8.75 20.125 6.125 18.4669 6.125 17.5V10.5026L13.4208 12.1861C13.6115 12.229 13.8066 12.25 14 12.25C14.1934 12.25 14.3885 12.229 14.5898 12.1835L21.875 10.5026V17.5ZM14.1969 10.4781C14.1313 10.4921 14.0656 10.5 14 10.5C13.9344 10.5 13.8679 10.4921 13.8031 10.4781L2.42813 7.85313C2.03088 7.76125 1.75 7.40775 1.75 7C1.75 6.59225 2.03088 6.23875 2.42813 6.14687L13.8031 3.52188C13.8679 3.50788 13.9335 3.5 14 3.5C14.0665 3.5 14.1321 3.50788 14.1969 3.52188L25.5719 6.14687C25.9683 6.23875 26.25 6.59225 26.25 7C26.25 7.40775 25.9683 7.76125 25.5719 7.85313L14.1969 10.4781Z" fill="#FFE70C"/>
<path d="M25.375 11.375V19.25C25.375 19.7339 25.7661 20.125 26.25 20.125C26.733 20.125 27.125 19.7339 27.125 19.25V11.375C27.125 10.8911 26.733 10.5 26.25 10.5C25.7661 10.5 25.375 10.8911 25.375 11.375Z" fill="#FFE70C"/>
<path d="M26.25 21C25.2831 21 24.5 23.534 24.5 24.5C24.5 25.466 25.2831 26.25 26.25 26.25C27.216 26.25 28 25.466 28 24.5C28 23.534 27.216 21 26.25 21Z" fill="#FFE70C"/>
</svg>
