<svg width="555" height="242" viewBox="0 0 555 242" fill="none" xmlns="http://www.w3.org/2000/svg">
<mask id="path-1-inside-1_888_1161" fill="white">
<path fill-rule="evenodd" clip-rule="evenodd" d="M10 0C4.47715 0 0 4.47715 0 9.99999V82.8078L14.2472 91.7301C14.8311 92.0957 15.1856 92.7362 15.1856 93.4251V150.033C15.1856 150.739 14.8134 151.393 14.2061 151.753L0 160.181V232C0 237.523 4.47715 242 9.99999 242H545C550.523 242 555 237.523 555 232V10C555 4.47715 550.523 0 545 0H10Z"/>
</mask>
<path d="M0 82.8078H-1V83.3615L-0.530759 83.6553L0 82.8078ZM14.2472 91.7301L13.7164 92.5776L13.7164 92.5776L14.2472 91.7301ZM14.2061 151.753L13.6959 150.893H13.6959L14.2061 151.753ZM0 160.181L-0.510244 159.321L-1 159.612V160.181H0ZM1 9.99999C1 5.02943 5.02944 1 10 1V-1C3.92487 -1 -1 3.92486 -1 9.99999H1ZM1 82.8078V9.99999H-1V82.8078H1ZM-0.530759 83.6553L13.7164 92.5776L14.7779 90.8826L0.530759 81.9603L-0.530759 83.6553ZM13.7164 92.5776C14.0083 92.7604 14.1856 93.0807 14.1856 93.4251H16.1856C16.1856 92.3917 15.6538 91.4311 14.7779 90.8826L13.7164 92.5776ZM14.1856 93.4251V150.033H16.1856V93.4251H14.1856ZM14.1856 150.033C14.1856 150.386 13.9995 150.713 13.6959 150.893L14.7164 152.613C15.6272 152.073 16.1856 151.092 16.1856 150.033H14.1856ZM13.6959 150.893L-0.510244 159.321L0.510244 161.041L14.7164 152.613L13.6959 150.893ZM1 232V160.181H-1V232H1ZM9.99999 241C5.02943 241 1 236.971 1 232H-1C-1 238.075 3.92486 243 9.99999 243V241ZM545 241H9.99999V243H545V241ZM554 232C554 236.971 549.971 241 545 241V243C551.075 243 556 238.075 556 232H554ZM554 10V232H556V10H554ZM545 1C549.971 1 554 5.02944 554 10H556C556 3.92487 551.075 -1 545 -1V1ZM10 1H545V-1H10V1Z" fill="#7E78FF" mask="url(#path-1-inside-1_888_1161)"/>
</svg>
