<svg width="28" height="28" viewBox="0 0 28 28" fill="none" xmlns="http://www.w3.org/2000/svg">
<path d="M27.6183 11.9L24.8282 6.31642C24.7383 6.13652 24.6139 5.97608 24.4621 5.84425C24.3102 5.71243 24.1339 5.6118 23.9432 5.54812C23.7524 5.48444 23.551 5.45895 23.3504 5.47311C23.1498 5.48727 22.954 5.5408 22.7741 5.63064L19.9785 7.02845L14.1674 5.49064C14.0576 5.4622 13.9425 5.4622 13.8327 5.49064L8.02161 7.02845L5.22708 5.63064C5.04713 5.54063 4.8512 5.48696 4.65049 5.47272C4.44979 5.45847 4.24824 5.48392 4.05737 5.54761C3.86651 5.6113 3.69007 5.71198 3.53814 5.8439C3.38621 5.97581 3.26176 6.13638 3.17192 6.31642L0.381766 11.9C0.200242 12.2632 0.170397 12.6836 0.298795 13.0688C0.427193 13.454 0.703319 13.7724 1.06645 13.9541L4.03599 15.4394L10.1183 19.7838C10.1843 19.8313 10.2584 19.8661 10.3371 19.8866L17.3371 21.6366C17.3904 21.6499 17.4451 21.6565 17.5 21.6563C17.674 21.6561 17.8408 21.5869 17.9638 21.4638L24.0133 15.4142L26.9336 13.9541C27.2968 13.7724 27.5729 13.454 27.7013 13.0688C27.8297 12.6836 27.7999 12.2632 27.6183 11.9ZM21.8215 15.7456L17.9058 12.6088C17.7796 12.5077 17.6204 12.4568 17.4589 12.4659C17.2974 12.475 17.145 12.5434 17.0308 12.658C14.991 14.7131 12.7105 14.4539 11.2569 13.5242C11.2283 13.5066 11.2042 13.4826 11.1864 13.4542C11.1685 13.4257 11.1575 13.3936 11.1541 13.3602C11.1502 13.3295 11.1532 13.2984 11.1629 13.2691C11.1725 13.2398 11.1886 13.213 11.2099 13.1906L16.0158 8.53127H19.7193L22.8266 14.746L21.8215 15.7456ZM1.54333 12.6536C1.52524 12.5988 1.52957 12.539 1.55536 12.4874L4.34661 6.90267C4.36496 6.86626 4.39311 6.83571 4.4279 6.81445C4.46268 6.79319 4.50272 6.78208 4.54349 6.78236C4.57727 6.7824 4.61059 6.79026 4.64083 6.80533L7.07005 8.01939L4.08192 14L1.6527 12.786C1.62649 12.7724 1.60329 12.7537 1.58449 12.731C1.56569 12.7082 1.55169 12.6819 1.54333 12.6536ZM17.2988 20.2738L10.78 18.6441L5.21286 14.6672L8.40442 8.28517L14 6.80423L15.6188 7.23298C15.495 7.25694 15.3809 7.31663 15.2907 7.4047L10.2922 12.2555C10.1299 12.4177 10.0062 12.6143 9.93008 12.8307C9.85398 13.0472 9.8275 13.278 9.8526 13.5061C9.8777 13.7341 9.95372 13.9536 10.0751 14.1484C10.1964 14.3431 10.36 14.5081 10.5536 14.6311C12.7652 16.0442 15.4482 15.7785 17.5318 13.9869L20.8907 16.6797L17.2988 20.2738ZM26.4568 12.6536C26.4478 12.6809 26.4335 12.7062 26.4147 12.7279C26.3959 12.7497 26.3731 12.7676 26.3474 12.7805L23.9182 14L20.93 8.01939L23.3593 6.80533C23.385 6.79241 23.413 6.7847 23.4417 6.78263C23.4705 6.78057 23.4993 6.78419 23.5266 6.7933C23.5539 6.8023 23.5792 6.81659 23.6009 6.83536C23.6227 6.85413 23.6406 6.877 23.6535 6.90267L26.4447 12.4874C26.4705 12.539 26.4749 12.5988 26.4568 12.6536ZM14.2068 23.7836C14.1647 23.9524 14.0572 24.0976 13.9081 24.1872C13.759 24.2768 13.5804 24.3036 13.4116 24.2616L8.84739 23.1208C8.76865 23.1006 8.69443 23.0657 8.62864 23.018L5.74442 20.9606C5.60272 20.8591 5.50715 20.7055 5.47874 20.5335C5.45033 20.3615 5.49141 20.1852 5.59294 20.0435C5.69447 19.9018 5.84813 19.8063 6.02012 19.7779C6.19211 19.7494 6.36834 19.7905 6.51005 19.892L9.28708 21.875L13.7288 22.9852C13.8126 23.0061 13.8915 23.0434 13.9609 23.0949C14.0303 23.1464 14.0888 23.2112 14.1331 23.2853C14.1774 23.3595 14.2066 23.4417 14.2191 23.5272C14.2315 23.6127 14.227 23.6999 14.2057 23.7836H14.2068Z" fill="#FFE70C"/>
</svg>
