<svg width="454" height="242" viewBox="0 0 454 242" fill="none" xmlns="http://www.w3.org/2000/svg">
<mask id="path-1-inside-1_888_1131" fill="white">
<path fill-rule="evenodd" clip-rule="evenodd" d="M10 0C4.47715 0 0 4.47715 0 9.99999V82.8079L11.2917 91.7172C11.7724 92.0965 12.0529 92.6751 12.0529 93.2874V150.17C12.0529 150.801 11.7554 151.394 11.2503 151.772L0 160.181V232C0 237.523 4.47715 242 9.99999 242H444C449.523 242 454 237.523 454 232V10C454 4.47715 449.523 0 444 0H10Z"/>
</mask>
<path d="M0 82.8079H-1V83.2927L-0.619423 83.5929L0 82.8079ZM11.2917 91.7172L11.9111 90.9322L11.9111 90.9322L11.2917 91.7172ZM11.2503 151.772L10.6516 150.971L10.6516 150.971L11.2503 151.772ZM0 160.181L-0.598713 159.38L-1 159.68V160.181H0ZM1 9.99999C1 5.02943 5.02944 1 10 1V-1C3.92487 -1 -1 3.92486 -1 9.99999H1ZM1 82.8079V9.99999H-1V82.8079H1ZM-0.619423 83.5929L10.6723 92.5023L11.9111 90.9322L0.619423 82.0228L-0.619423 83.5929ZM10.6723 92.5023C10.9126 92.6919 11.0529 92.9812 11.0529 93.2874H13.0529C13.0529 92.3689 12.6322 91.5011 11.9111 90.9322L10.6723 92.5023ZM11.0529 93.2874V150.17H13.0529V93.2874H11.0529ZM11.0529 150.17C11.0529 150.485 10.9041 150.782 10.6516 150.971L11.849 152.573C12.6067 152.006 13.0529 151.116 13.0529 150.17H11.0529ZM10.6516 150.971L-0.598713 159.38L0.598713 160.982L11.849 152.573L10.6516 150.971ZM1 232V160.181H-1V232H1ZM9.99999 241C5.02943 241 1 236.971 1 232H-1C-1 238.075 3.92486 243 9.99999 243V241ZM444 241H9.99999V243H444V241ZM453 232C453 236.971 448.971 241 444 241V243C450.075 243 455 238.075 455 232H453ZM453 10V232H455V10H453ZM444 1C448.971 1 453 5.02944 453 10H455C455 3.92487 450.075 -1 444 -1V1ZM10 1H444V-1H10V1Z" fill="#7E78FF" mask="url(#path-1-inside-1_888_1131)"/>
</svg>
