<svg width="31" height="31" viewBox="0 0 31 31" fill="none" xmlns="http://www.w3.org/2000/svg">
<path d="M8.39583 17.4375H17.4375V16.1458H8.39583V17.4375ZM8.39583 13.5625H22.6042V12.2708H8.39583V13.5625ZM8.39583 9.6875H22.6042V8.39583H8.39583V9.6875ZM3.875 25.9328V5.96233C3.875 5.36731 4.07435 4.87088 4.47304 4.47304C4.87174 4.07521 5.36774 3.87586 5.96104 3.875H25.039C25.6331 3.875 26.1291 4.07435 26.527 4.47304C26.9248 4.87174 27.1241 5.36817 27.125 5.96233V19.8723C27.125 20.4665 26.9257 20.9629 26.527 21.3616C26.1283 21.7603 25.6323 21.9592 25.039 21.9583H7.84946L3.875 25.9328ZM7.29792 20.6667H25.039C25.237 20.6667 25.4191 20.584 25.5853 20.4187C25.7515 20.2533 25.8342 20.0712 25.8333 19.8723V5.96104C25.8333 5.76299 25.7507 5.58086 25.5853 5.41467C25.42 5.24847 25.2379 5.16581 25.039 5.16667H5.96104C5.76299 5.16667 5.58086 5.24933 5.41467 5.41467C5.24847 5.58 5.16581 5.76212 5.16667 5.96104V22.7915L7.29792 20.6667Z" fill="#FFE70C"/>
</svg>
