<svg width="27" height="27" viewBox="0 0 27 27" fill="none" xmlns="http://www.w3.org/2000/svg">
<path d="M13.4995 6.75V20.25M16.8745 10.6875C16.8745 9.135 15.3636 7.875 13.4995 7.875C11.6354 7.875 10.1245 9.135 10.1245 10.6875C10.1245 12.24 11.6354 13.5 13.4995 13.5C15.3636 13.5 16.8745 14.76 16.8745 16.3125C16.8745 17.865 15.3636 19.125 13.4995 19.125C11.6354 19.125 10.1245 17.865 10.1245 16.3125" stroke="#FFE70C" stroke-width="1.83333" stroke-linecap="round"/>
<path d="M7.87451 3.75526C9.58397 2.76628 11.5246 2.24697 13.4995 2.25001C19.7129 2.25001 24.7495 7.28664 24.7495 13.5C24.7495 19.7134 19.7129 24.75 13.4995 24.75C7.28614 24.75 2.24951 19.7134 2.24951 13.5C2.24951 11.4514 2.79739 9.52876 3.75476 7.87501" stroke="#FFE70C" stroke-width="1.83333" stroke-linecap="round"/>
</svg>
