<svg width="29" height="30" viewBox="0 0 29 30" fill="none" xmlns="http://www.w3.org/2000/svg">
<path d="M20.1641 5.03125C17.8248 5.03125 15.7767 6.03719 14.5 7.73754C13.2233 6.03719 11.1752 5.03125 8.83594 5.03125C6.97385 5.03335 5.18863 5.77399 3.87194 7.09069C2.55524 8.40738 1.8146 10.1926 1.8125 12.0547C1.8125 19.9844 13.57 26.4029 14.0707 26.668C14.2026 26.739 14.3501 26.7761 14.5 26.7761C14.6499 26.7761 14.7974 26.739 14.9293 26.668C15.43 26.4029 27.1875 19.9844 27.1875 12.0547C27.1854 10.1926 26.4448 8.40738 25.1281 7.09069C23.8114 5.77399 22.0261 5.03335 20.1641 5.03125ZM14.5 24.8328C12.4315 23.6275 3.625 18.1368 3.625 12.0547C3.6268 10.6732 4.17638 9.34884 5.15323 8.37198C6.13009 7.39513 7.45446 6.84555 8.83594 6.84375C11.0393 6.84375 12.8891 8.01734 13.6617 9.90234C13.73 10.0686 13.8461 10.2107 13.9954 10.3108C14.1447 10.4108 14.3203 10.4642 14.5 10.4642C14.6797 10.4642 14.8553 10.4108 15.0046 10.3108C15.1539 10.2107 15.27 10.0686 15.3383 9.90234C16.1109 8.01395 17.9607 6.84375 20.1641 6.84375C21.5455 6.84555 22.8699 7.39513 23.8468 8.37198C24.8236 9.34884 25.3732 10.6732 25.375 12.0547C25.375 18.1277 16.5662 23.6264 14.5 24.8328Z" fill="#FFE70C"/>
</svg>
