<svg width="31" height="31" viewBox="0 0 31 31" fill="none" xmlns="http://www.w3.org/2000/svg">
<path d="M28.0938 20.5859H26.8828V8.71875C26.8828 8.0122 26.6021 7.33458 26.1025 6.83497C25.6029 6.33536 24.9253 6.05469 24.2188 6.05469H6.78125C6.0747 6.05469 5.39708 6.33536 4.89747 6.83497C4.39786 7.33458 4.11719 8.0122 4.11719 8.71875V20.5859H2.90625C2.71355 20.5859 2.52875 20.6625 2.39249 20.7987C2.25624 20.935 2.17969 21.1198 2.17969 21.3125V23.25C2.17969 23.9566 2.46036 24.6342 2.95997 25.1338C3.45958 25.6334 4.1372 25.9141 4.84375 25.9141H26.1562C26.8628 25.9141 27.5404 25.6334 28.04 25.1338C28.5396 24.6342 28.8203 23.9566 28.8203 23.25V21.3125C28.8203 21.1198 28.7438 20.935 28.6075 20.7987C28.4713 20.6625 28.2864 20.5859 28.0938 20.5859ZM5.57031 8.71875C5.57031 8.39759 5.69789 8.08958 5.92499 7.86249C6.15208 7.63539 6.46009 7.50781 6.78125 7.50781H24.2188C24.5399 7.50781 24.8479 7.63539 25.075 7.86249C25.3021 8.08958 25.4297 8.39759 25.4297 8.71875V20.5859H5.57031V8.71875ZM27.3672 23.25C27.3672 23.5712 27.2396 23.8792 27.0125 24.1063C26.7854 24.3334 26.4774 24.4609 26.1562 24.4609H4.84375C4.52259 24.4609 4.21458 24.3334 3.98749 24.1063C3.76039 23.8792 3.63281 23.5712 3.63281 23.25V22.0391H27.3672V23.25ZM18.1641 10.6562C18.1641 10.8489 18.0875 11.0338 17.9513 11.17C17.815 11.3063 17.6302 11.3828 17.4375 11.3828H13.5625C13.3698 11.3828 13.185 11.3063 13.0487 11.17C12.9125 11.0338 12.8359 10.8489 12.8359 10.6562C12.8359 10.4636 12.9125 10.2787 13.0487 10.1425C13.185 10.0062 13.3698 9.92969 13.5625 9.92969H17.4375C17.6302 9.92969 17.815 10.0062 17.9513 10.1425C18.0875 10.2787 18.1641 10.4636 18.1641 10.6562Z" fill="#FFE70C"/>
</svg>
