<svg width="1388" height="904" viewBox="0 0 1388 904" fill="none" xmlns="http://www.w3.org/2000/svg">
<path d="M1365.73 0H22.2674C9.96946 0 0 9.96946 0 22.2674V881.733C0 894.031 9.96946 904 22.2674 904H1365.73C1378.03 904 1388 894.031 1388 881.733V22.2674C1388 9.96946 1378.03 0 1365.73 0Z" fill="#FCF9EC"/>
<g opacity="0.56" filter="url(#filter0_f_35_41)">
<path d="M1051.58 345.969C1069.53 165.143 1250.28 373.655 1341.12 -5.97363C1454.29 5.25998 1531.48 160.955 1513.53 341.781C1495.58 522.607 1389.29 660.089 1276.12 648.856C1162.95 637.622 1033.63 526.795 1051.58 345.969Z" fill="#2943DE"/>
</g>
<g opacity="0.56" filter="url(#filter1_f_35_41)">
<path d="M330.108 -96.5896C275.994 254.936 594.216 1109.64 90.7704 864.036C-254.568 1174.12 -68.8839 547.739 -14.7701 196.214C39.3436 -155.312 174.332 -426.252 286.734 -408.949C399.136 -391.646 384.222 -448.115 330.108 -96.5896Z" fill="#FFE70C"/>
</g>
<defs>
<filter id="filter0_f_35_41" x="904.9" y="-150.974" width="756.222" height="945.472" filterUnits="userSpaceOnUse" color-interpolation-filters="sRGB">
<feFlood flood-opacity="0" result="BackgroundImageFix"/>
<feBlend mode="normal" in="SourceGraphic" in2="BackgroundImageFix" result="shape"/>
<feGaussianBlur stdDeviation="72.5" result="effect1_foregroundBlur_35_41"/>
</filter>
<filter id="filter1_f_35_41" x="-258.227" y="-554.734" width="783.377" height="1647.41" filterUnits="userSpaceOnUse" color-interpolation-filters="sRGB">
<feFlood flood-opacity="0" result="BackgroundImageFix"/>
<feBlend mode="normal" in="SourceGraphic" in2="BackgroundImageFix" result="shape"/>
<feGaussianBlur stdDeviation="72.5" result="effect1_foregroundBlur_35_41"/>
</filter>
</defs>
</svg>
