<svg width="572" height="157" viewBox="0 0 572 157" fill="none" xmlns="http://www.w3.org/2000/svg">
<mask id="path-1-inside-1_888_1334" fill="white">
<path fill-rule="evenodd" clip-rule="evenodd" d="M10 0C4.47715 0 0 4.47715 0 10V53.7224L13.9389 59.3856C14.6929 59.6919 15.1861 60.4246 15.1861 61.2385V96.7013C15.1861 97.5287 14.6767 98.2706 13.9046 98.5678L0 103.92V147C0 152.523 4.47715 157 10 157H562C567.523 157 572 152.523 572 147V10C572 4.47715 567.523 0 562 0H10Z"/>
</mask>
<path fill-rule="evenodd" clip-rule="evenodd" d="M10 0C4.47715 0 0 4.47715 0 10V53.7224L13.9389 59.3856C14.6929 59.6919 15.1861 60.4246 15.1861 61.2385V96.7013C15.1861 97.5287 14.6767 98.2706 13.9046 98.5678L0 103.92V147C0 152.523 4.47715 157 10 157H562C567.523 157 572 152.523 572 147V10C572 4.47715 567.523 0 562 0H10Z" fill="white"/>
<path d="M0 53.7224H-1V54.3955L-0.376404 54.6489L0 53.7224ZM13.9389 59.3856L13.5625 60.312H13.5625L13.9389 59.3856ZM13.9046 98.5678L14.2638 99.5011L14.2638 99.5011L13.9046 98.5678ZM0 103.92L-0.359211 102.986L-1 103.233V103.92H0ZM1 10C1 5.02943 5.02944 1 10 1V-1C3.92487 -1 -1 3.92486 -1 10H1ZM1 53.7224V10H-1V53.7224H1ZM-0.376404 54.6489L13.5625 60.312L14.3153 58.4591L0.376404 52.796L-0.376404 54.6489ZM13.5625 60.312C13.9395 60.4652 14.1861 60.8316 14.1861 61.2385H16.1861C16.1861 60.0177 15.4464 58.9186 14.3153 58.4591L13.5625 60.312ZM14.1861 61.2385V96.7013H16.1861V61.2385H14.1861ZM14.1861 96.7013C14.1861 97.115 13.9314 97.486 13.5453 97.6346L14.2638 99.5011C15.422 99.0553 16.1861 97.9423 16.1861 96.7013H14.1861ZM13.5453 97.6346L-0.359211 102.986L0.359211 104.853L14.2638 99.5011L13.5453 97.6346ZM1 147V103.92H-1V147H1ZM10 156C5.02944 156 1 151.971 1 147H-1C-1 153.075 3.92487 158 10 158V156ZM562 156H10V158H562V156ZM571 147C571 151.971 566.971 156 562 156V158C568.075 158 573 153.075 573 147H571ZM571 10V147H573V10H571ZM562 1C566.971 1 571 5.02944 571 10H573C573 3.92487 568.075 -1 562 -1V1ZM10 1H562V-1H10V1Z" fill="#2943DE" mask="url(#path-1-inside-1_888_1334)"/>
</svg>
