<svg width="557" height="247" viewBox="0 0 557 247" fill="none" xmlns="http://www.w3.org/2000/svg">
<mask id="path-1-inside-1_888_1304" fill="white">
<path fill-rule="evenodd" clip-rule="evenodd" d="M10 0C4.47715 0 0 4.47716 0 10V84.5187L13.1655 93.6288C13.7053 94.0024 14.0274 94.617 14.0274 95.2735V153.215C14.0274 153.889 13.6877 154.518 13.1239 154.888L0 163.491V237C0 242.523 4.47716 247 10 247H547C552.523 247 557 242.523 557 237V10C557 4.47715 552.523 0 547 0H10Z"/>
</mask>
<path d="M0 84.5187H-1V85.0428L-0.569025 85.341L0 84.5187ZM13.1655 93.6288L12.5964 94.4511H12.5964L13.1655 93.6288ZM13.1239 154.888L12.5757 154.051H12.5757L13.1239 154.888ZM0 163.491L-0.54825 162.655L-1 162.951V163.491H0ZM1 10C1 5.02944 5.02944 1 10 1V-1C3.92487 -1 -1 3.92488 -1 10H1ZM1 84.5187V10H-1V84.5187H1ZM-0.569025 85.341L12.5964 94.4511L13.7345 92.8065L0.569025 83.6964L-0.569025 85.341ZM12.5964 94.4511C12.8663 94.6379 13.0274 94.9452 13.0274 95.2735H15.0274C15.0274 94.2888 14.5442 93.3668 13.7345 92.8065L12.5964 94.4511ZM13.0274 95.2735V153.215H15.0274V95.2735H13.0274ZM13.0274 153.215C13.0274 153.552 12.8576 153.867 12.5757 154.051L13.6721 155.724C14.5179 155.17 15.0274 154.226 15.0274 153.215H13.0274ZM12.5757 154.051L-0.54825 162.655L0.54825 164.327L13.6722 155.724L12.5757 154.051ZM1 237V163.491H-1V237H1ZM10 246C5.02944 246 1 241.971 1 237H-1C-1 243.075 3.92488 248 10 248V246ZM547 246H10V248H547V246ZM556 237C556 241.971 551.971 246 547 246V248C553.075 248 558 243.075 558 237H556ZM556 10V237H558V10H556ZM547 1C551.971 1 556 5.02944 556 10H558C558 3.92487 553.075 -1 547 -1V1ZM10 1H547V-1H10V1Z" fill="#7E78FF" mask="url(#path-1-inside-1_888_1304)"/>
</svg>
