<svg width="557" height="172" viewBox="0 0 557 172" fill="none" xmlns="http://www.w3.org/2000/svg">
<mask id="path-1-inside-1_888_1276" fill="white">
<path fill-rule="evenodd" clip-rule="evenodd" d="M10 0C4.47715 0 0 4.47716 0 10V58.8551L12.8956 65.069C13.5875 65.4024 14.0274 66.1027 14.0274 66.8707V106.159C14.0274 106.942 13.5703 107.653 12.858 107.978L0 113.848V162C0 167.523 4.47716 172 10 172H547C552.523 172 557 167.523 557 162V10C557 4.47715 552.523 0 547 0H10Z"/>
</mask>
<path d="M0 58.8551H-1V59.4833L-0.434093 59.756L0 58.8551ZM12.8956 65.069L12.4615 65.9699H12.4615L12.8956 65.069ZM12.858 107.978L13.2732 108.888H13.2732L12.858 107.978ZM0 113.848L-0.415275 112.938L-1 113.205V113.848H0ZM1 10C1 5.02944 5.02944 1 10 1V-1C3.92487 -1 -1 3.92487 -1 10H1ZM1 58.8551V10H-1V58.8551H1ZM-0.434093 59.756L12.4615 65.9699L13.3297 64.1681L0.434093 57.9543L-0.434093 59.756ZM12.4615 65.9699C12.8075 66.1366 13.0274 66.4867 13.0274 66.8707H15.0274C15.0274 65.7186 14.3676 64.6683 13.3297 64.1681L12.4615 65.9699ZM13.0274 66.8707V106.159H15.0274V66.8707H13.0274ZM13.0274 106.159C13.0274 106.551 12.7989 106.906 12.4427 107.069L13.2732 108.888C14.3418 108.4 15.0274 107.334 15.0274 106.159H13.0274ZM12.4427 107.069L-0.415275 112.938L0.415275 114.758L13.2732 108.888L12.4427 107.069ZM1 162V113.848H-1V162H1ZM10 171C5.02944 171 1 166.971 1 162H-1C-1 168.075 3.92488 173 10 173V171ZM547 171H10V173H547V171ZM556 162C556 166.971 551.971 171 547 171V173C553.075 173 558 168.075 558 162H556ZM556 10V162H558V10H556ZM547 1C551.971 1 556 5.02944 556 10H558C558 3.92487 553.075 -1 547 -1V1ZM10 1H547V-1H10V1Z" fill="#7E78FF" mask="url(#path-1-inside-1_888_1276)"/>
</svg>
