<svg width="761" height="852" viewBox="0 0 761 852" fill="none" xmlns="http://www.w3.org/2000/svg">
<mask id="path-1-inside-1_888_1402" fill="white">
<path fill-rule="evenodd" clip-rule="evenodd" d="M10 0C4.47715 0 0 4.47717 0 10V291.538L18.9007 324.559C19.0738 324.861 19.1649 325.204 19.1649 325.552V531.669C19.1649 532.033 19.0652 532.391 18.8767 532.703L0 563.945V842C0 847.523 4.47716 852 10 852H751C756.523 852 761 847.523 761 842V10C761 4.47715 756.523 0 751 0H10Z"/>
</mask>
<path d="M0 291.538H-1V291.804L-0.867881 292.035L0 291.538ZM18.9007 324.559L18.0328 325.055L18.0328 325.055L18.9007 324.559ZM18.8767 532.703L18.0208 532.186H18.0208L18.8767 532.703ZM0 563.945L-0.855904 563.428L-1 563.667V563.945H0ZM1 10C1 5.02945 5.02944 1 10 1V-1C3.92487 -1 -1 3.92489 -1 10H1ZM1 291.538V10H-1V291.538H1ZM-0.867881 292.035L18.0328 325.055L19.7685 324.062L0.867881 291.042L-0.867881 292.035ZM18.0328 325.055C18.1194 325.207 18.1649 325.378 18.1649 325.552H20.1649C20.1649 325.029 20.0283 324.516 19.7685 324.062L18.0328 325.055ZM18.1649 325.552V531.669H20.1649V325.552H18.1649ZM18.1649 531.669C18.1649 531.851 18.1151 532.03 18.0208 532.186L19.7326 533.22C20.0154 532.752 20.1649 532.215 20.1649 531.669H18.1649ZM18.0208 532.186L-0.855904 563.428L0.855904 564.463L19.7326 533.22L18.0208 532.186ZM1 842V563.945H-1V842H1ZM10 851C5.02945 851 1 846.971 1 842H-1C-1 848.075 3.92488 853 10 853V851ZM751 851H10V853H751V851ZM760 842C760 846.971 755.971 851 751 851V853C757.075 853 762 848.075 762 842H760ZM760 10V842H762V10H760ZM751 1C755.971 1 760 5.02944 760 10H762C762 3.92487 757.075 -1 751 -1V1ZM10 1H751V-1H10V1Z" fill="#7E78FF" mask="url(#path-1-inside-1_888_1402)"/>
</svg>
