<svg width="107" height="106" viewBox="0 0 107 106" fill="none" xmlns="http://www.w3.org/2000/svg">
<path d="M35.6667 6.42426H32.4243V9.63638H35.6667V6.42426Z" fill="#1C195B"/>
<path d="M38.9094 6.42426H35.667V9.63638H38.9094V6.42426Z" fill="#1C195B"/>
<path d="M42.1516 6.42426H38.9092V9.63638H42.1516V6.42426Z" fill="#1C195B"/>
<path d="M45.3943 6.42426H42.1519V9.63638H45.3943V6.42426Z" fill="#1C195B"/>
<path d="M58.364 6.42426H55.1216V9.63638H58.364V6.42426Z" fill="#1C195B"/>
<path d="M61.6062 6.42426H58.3638V9.63638H61.6062V6.42426Z" fill="#1C195B"/>
<path d="M64.8489 6.42426H61.6064V9.63638H64.8489V6.42426Z" fill="#1C195B"/>
<path d="M35.6667 9.63636H32.4243V12.8485H35.6667V9.63636Z" fill="#1C195B"/>
<path d="M38.9094 9.63636H35.667V12.8485H38.9094V9.63636Z" fill="#1C195B"/>
<path d="M42.1516 9.63636H38.9092V12.8485H42.1516V9.63636Z" fill="#1C195B"/>
<path d="M45.3943 9.63636H42.1519V12.8485H45.3943V9.63636Z" fill="#1C195B"/>
<path d="M48.6365 9.63636H45.394V12.8485H48.6365V9.63636Z" fill="#1C195B"/>
<path d="M61.6062 9.63636H58.3638V12.8485H61.6062V9.63636Z" fill="#1C195B"/>
<path d="M71.3337 9.63636H68.0913V12.8485H71.3337V9.63636Z" fill="#1C195B"/>
<path d="M35.6667 12.8485H32.4243V16.0606H35.6667V12.8485Z" fill="#1C195B"/>
<path d="M38.9094 12.8485H35.667V16.0606H38.9094V12.8485Z" fill="#1C195B"/>
<path d="M48.6365 12.8485H45.394V16.0606H48.6365V12.8485Z" fill="#1C195B"/>
<path d="M58.364 12.8485H55.1216V16.0606H58.364V12.8485Z" fill="#1C195B"/>
<path d="M61.6062 12.8485H58.3638V16.0606H61.6062V12.8485Z" fill="#1C195B"/>
<path d="M74.5759 12.8485H71.3335V16.0606H74.5759V12.8485Z" fill="#1C195B"/>
<path d="M45.3943 16.0606H42.1519V19.2727H45.3943V16.0606Z" fill="#1C195B"/>
<path d="M48.6365 16.0606H45.394V19.2727H48.6365V16.0606Z" fill="#1C195B"/>
<path d="M61.6062 16.0606H58.3638V19.2727H61.6062V16.0606Z" fill="#1C195B"/>
<path d="M64.8489 16.0606H61.6064V19.2727H64.8489V16.0606Z" fill="#1C195B"/>
<path d="M71.3337 16.0606H68.0913V19.2727H71.3337V16.0606Z" fill="#1C195B"/>
<path d="M74.5759 16.0606H71.3335V19.2727H74.5759V16.0606Z" fill="#1C195B"/>
<path d="M35.6667 19.2727H32.4243V22.4849H35.6667V19.2727Z" fill="#1C195B"/>
<path d="M38.9094 19.2727H35.667V22.4849H38.9094V19.2727Z" fill="#1C195B"/>
<path d="M42.1516 19.2727H38.9092V22.4849H42.1516V19.2727Z" fill="#1C195B"/>
<path d="M45.3943 19.2727H42.1519V22.4849H45.3943V19.2727Z" fill="#1C195B"/>
<path d="M48.6365 19.2727H45.394V22.4849H48.6365V19.2727Z" fill="#1C195B"/>
<path d="M55.1213 19.2727H51.8789V22.4849H55.1213V19.2727Z" fill="#1C195B"/>
<path d="M58.364 19.2727H55.1216V22.4849H58.364V19.2727Z" fill="#1C195B"/>
<path d="M61.6062 19.2727H58.3638V22.4849H61.6062V19.2727Z" fill="#1C195B"/>
<path d="M64.8489 19.2727H61.6064V22.4849H64.8489V19.2727Z" fill="#1C195B"/>
<path d="M71.3337 19.2727H68.0913V22.4849H71.3337V19.2727Z" fill="#1C195B"/>
<path d="M42.1516 22.4849H38.9092V25.697H42.1516V22.4849Z" fill="#1C195B"/>
<path d="M48.6365 22.4849H45.394V25.697H48.6365V22.4849Z" fill="#1C195B"/>
<path d="M58.364 22.4849H55.1216V25.697H58.364V22.4849Z" fill="#1C195B"/>
<path d="M61.6062 22.4849H58.3638V25.697H61.6062V22.4849Z" fill="#1C195B"/>
<path d="M64.8489 22.4849H61.6064V25.697H64.8489V22.4849Z" fill="#1C195B"/>
<path d="M35.6667 25.697H32.4243V28.9091H35.6667V25.697Z" fill="#1C195B"/>
<path d="M42.1516 25.697H38.9092V28.9091H42.1516V25.697Z" fill="#1C195B"/>
<path d="M48.6365 25.697H45.394V28.9091H48.6365V25.697Z" fill="#1C195B"/>
<path d="M55.1213 25.697H51.8789V28.9091H55.1213V25.697Z" fill="#1C195B"/>
<path d="M61.6062 25.697H58.3638V28.9091H61.6062V25.697Z" fill="#1C195B"/>
<path d="M68.0911 25.697H64.8486V28.9091H68.0911V25.697Z" fill="#1C195B"/>
<path d="M74.5759 25.697H71.3335V28.9091H74.5759V25.697Z" fill="#1C195B"/>
<path d="M42.1516 28.9091H38.9092V32.1212H42.1516V28.9091Z" fill="#1C195B"/>
<path d="M45.3943 28.9091H42.1519V32.1212H45.3943V28.9091Z" fill="#1C195B"/>
<path d="M48.6365 28.9091H45.394V32.1212H48.6365V28.9091Z" fill="#1C195B"/>
<path d="M51.8791 28.9091H48.6367V32.1212H51.8791V28.9091Z" fill="#1C195B"/>
<path d="M58.364 28.9091H55.1216V32.1212H58.364V28.9091Z" fill="#1C195B"/>
<path d="M61.6062 28.9091H58.3638V32.1212H61.6062V28.9091Z" fill="#1C195B"/>
<path d="M68.0911 28.9091H64.8486V32.1212H68.0911V28.9091Z" fill="#1C195B"/>
<path d="M74.5759 28.9091H71.3335V32.1212H74.5759V28.9091Z" fill="#1C195B"/>
<path d="M9.72729 32.1212H6.48486V35.3333H9.72729V32.1212Z" fill="#1C195B"/>
<path d="M19.4548 32.1212H16.2124V35.3333H19.4548V32.1212Z" fill="#1C195B"/>
<path d="M22.697 32.1212H19.4546V35.3333H22.697V32.1212Z" fill="#1C195B"/>
<path d="M25.9397 32.1212H22.6973V35.3333H25.9397V32.1212Z" fill="#1C195B"/>
<path d="M29.1819 32.1212H25.9395V35.3333H29.1819V32.1212Z" fill="#1C195B"/>
<path d="M32.4246 32.1212H29.1821V35.3333H32.4246V32.1212Z" fill="#1C195B"/>
<path d="M35.6667 32.1212H32.4243V35.3333H35.6667V32.1212Z" fill="#1C195B"/>
<path d="M38.9094 32.1212H35.667V35.3333H38.9094V32.1212Z" fill="#1C195B"/>
<path d="M45.3943 32.1212H42.1519V35.3333H45.3943V32.1212Z" fill="#1C195B"/>
<path d="M51.8791 32.1212H48.6367V35.3333H51.8791V32.1212Z" fill="#1C195B"/>
<path d="M71.3337 32.1212H68.0913V35.3333H71.3337V32.1212Z" fill="#1C195B"/>
<path d="M77.8186 32.1212H74.5762V35.3333H77.8186V32.1212Z" fill="#1C195B"/>
<path d="M87.5456 32.1212H84.3032V35.3333H87.5456V32.1212Z" fill="#1C195B"/>
<path d="M94.0305 32.1212H90.7881V35.3333H94.0305V32.1212Z" fill="#1C195B"/>
<path d="M97.2727 32.1212H94.0303V35.3333H97.2727V32.1212Z" fill="#1C195B"/>
<path d="M100.515 32.1212H97.2729V35.3333H100.515V32.1212Z" fill="#1C195B"/>
<path d="M9.72729 35.3333H6.48486V38.5455H9.72729V35.3333Z" fill="#1C195B"/>
<path d="M22.697 35.3333H19.4546V38.5455H22.697V35.3333Z" fill="#1C195B"/>
<path d="M25.9397 35.3333H22.6973V38.5455H25.9397V35.3333Z" fill="#1C195B"/>
<path d="M35.6667 35.3333H32.4243V38.5455H35.6667V35.3333Z" fill="#1C195B"/>
<path d="M42.1516 35.3333H38.9092V38.5455H42.1516V35.3333Z" fill="#1C195B"/>
<path d="M45.3943 35.3333H42.1519V38.5455H45.3943V35.3333Z" fill="#1C195B"/>
<path d="M51.8791 35.3333H48.6367V38.5455H51.8791V35.3333Z" fill="#1C195B"/>
<path d="M61.6062 35.3333H58.3638V38.5455H61.6062V35.3333Z" fill="#1C195B"/>
<path d="M64.8489 35.3333H61.6064V38.5455H64.8489V35.3333Z" fill="#1C195B"/>
<path d="M71.3337 35.3333H68.0913V38.5455H71.3337V35.3333Z" fill="#1C195B"/>
<path d="M77.8186 35.3333H74.5762V38.5455H77.8186V35.3333Z" fill="#1C195B"/>
<path d="M87.5456 35.3333H84.3032V38.5455H87.5456V35.3333Z" fill="#1C195B"/>
<path d="M94.0305 35.3333H90.7881V38.5455H94.0305V35.3333Z" fill="#1C195B"/>
<path d="M97.2727 35.3333H94.0303V38.5455H97.2727V35.3333Z" fill="#1C195B"/>
<path d="M9.72729 38.5455H6.48486V41.7576H9.72729V38.5455Z" fill="#1C195B"/>
<path d="M16.2122 38.5455H12.9697V41.7576H16.2122V38.5455Z" fill="#1C195B"/>
<path d="M19.4548 38.5455H16.2124V41.7576H19.4548V38.5455Z" fill="#1C195B"/>
<path d="M29.1819 38.5455H25.9395V41.7576H29.1819V38.5455Z" fill="#1C195B"/>
<path d="M35.6667 38.5455H32.4243V41.7576H35.6667V38.5455Z" fill="#1C195B"/>
<path d="M45.3943 38.5455H42.1519V41.7576H45.3943V38.5455Z" fill="#1C195B"/>
<path d="M51.8791 38.5455H48.6367V41.7576H51.8791V38.5455Z" fill="#1C195B"/>
<path d="M58.364 38.5455H55.1216V41.7576H58.364V38.5455Z" fill="#1C195B"/>
<path d="M61.6062 38.5455H58.3638V41.7576H61.6062V38.5455Z" fill="#1C195B"/>
<path d="M77.8186 38.5455H74.5762V41.7576H77.8186V38.5455Z" fill="#1C195B"/>
<path d="M84.303 38.5455H81.0605V41.7576H84.303V38.5455Z" fill="#1C195B"/>
<path d="M87.5456 38.5455H84.3032V41.7576H87.5456V38.5455Z" fill="#1C195B"/>
<path d="M94.0305 38.5455H90.7881V41.7576H94.0305V38.5455Z" fill="#1C195B"/>
<path d="M9.72729 41.7576H6.48486V44.9697H9.72729V41.7576Z" fill="#1C195B"/>
<path d="M32.4246 41.7576H29.1821V44.9697H32.4246V41.7576Z" fill="#1C195B"/>
<path d="M42.1516 41.7576H38.9092V44.9697H42.1516V41.7576Z" fill="#1C195B"/>
<path d="M51.8791 41.7576H48.6367V44.9697H51.8791V41.7576Z" fill="#1C195B"/>
<path d="M61.6062 41.7576H58.3638V44.9697H61.6062V41.7576Z" fill="#1C195B"/>
<path d="M64.8489 41.7576H61.6064V44.9697H64.8489V41.7576Z" fill="#1C195B"/>
<path d="M81.0608 41.7576H77.8184V44.9697H81.0608V41.7576Z" fill="#1C195B"/>
<path d="M84.303 41.7576H81.0605V44.9697H84.303V41.7576Z" fill="#1C195B"/>
<path d="M87.5456 41.7576H84.3032V44.9697H87.5456V41.7576Z" fill="#1C195B"/>
<path d="M90.7878 41.7576H87.5454V44.9697H90.7878V41.7576Z" fill="#1C195B"/>
<path d="M100.515 41.7576H97.2729V44.9697H100.515V41.7576Z" fill="#1C195B"/>
<path d="M9.72729 44.9697H6.48486V48.1818H9.72729V44.9697Z" fill="#1C195B"/>
<path d="M12.97 44.9697H9.72754V48.1818H12.97V44.9697Z" fill="#1C195B"/>
<path d="M16.2122 44.9697H12.9697V48.1818H16.2122V44.9697Z" fill="#1C195B"/>
<path d="M19.4548 44.9697H16.2124V48.1818H19.4548V44.9697Z" fill="#1C195B"/>
<path d="M22.697 44.9697H19.4546V48.1818H22.697V44.9697Z" fill="#1C195B"/>
<path d="M29.1819 44.9697H25.9395V48.1818H29.1819V44.9697Z" fill="#1C195B"/>
<path d="M38.9094 44.9697H35.667V48.1818H38.9094V44.9697Z" fill="#1C195B"/>
<path d="M45.3943 44.9697H42.1519V48.1818H45.3943V44.9697Z" fill="#1C195B"/>
<path d="M48.6365 44.9697H45.394V48.1818H48.6365V44.9697Z" fill="#1C195B"/>
<path d="M51.8791 44.9697H48.6367V48.1818H51.8791V44.9697Z" fill="#1C195B"/>
<path d="M58.364 44.9697H55.1216V48.1818H58.364V44.9697Z" fill="#1C195B"/>
<path d="M61.6062 44.9697H58.3638V48.1818H61.6062V44.9697Z" fill="#1C195B"/>
<path d="M71.3337 44.9697H68.0913V48.1818H71.3337V44.9697Z" fill="#1C195B"/>
<path d="M74.5759 44.9697H71.3335V48.1818H74.5759V44.9697Z" fill="#1C195B"/>
<path d="M81.0608 44.9697H77.8184V48.1818H81.0608V44.9697Z" fill="#1C195B"/>
<path d="M100.515 44.9697H97.2729V48.1818H100.515V44.9697Z" fill="#1C195B"/>
<path d="M9.72729 48.1818H6.48486V51.3939H9.72729V48.1818Z" fill="#1C195B"/>
<path d="M16.2122 48.1818H12.9697V51.3939H16.2122V48.1818Z" fill="#1C195B"/>
<path d="M22.697 48.1818H19.4546V51.3939H22.697V48.1818Z" fill="#1C195B"/>
<path d="M25.9397 48.1818H22.6973V51.3939H25.9397V48.1818Z" fill="#1C195B"/>
<path d="M32.4246 48.1818H29.1821V51.3939H32.4246V48.1818Z" fill="#1C195B"/>
<path d="M38.9094 48.1818H35.667V51.3939H38.9094V48.1818Z" fill="#1C195B"/>
<path d="M48.6365 48.1818H45.394V51.3939H48.6365V48.1818Z" fill="#1C195B"/>
<path d="M51.8791 48.1818H48.6367V51.3939H51.8791V48.1818Z" fill="#1C195B"/>
<path d="M55.1213 48.1818H51.8789V51.3939H55.1213V48.1818Z" fill="#1C195B"/>
<path d="M61.6062 48.1818H58.3638V51.3939H61.6062V48.1818Z" fill="#1C195B"/>
<path d="M64.8489 48.1818H61.6064V51.3939H64.8489V48.1818Z" fill="#1C195B"/>
<path d="M68.0911 48.1818H64.8486V51.3939H68.0911V48.1818Z" fill="#1C195B"/>
<path d="M81.0608 48.1818H77.8184V51.3939H81.0608V48.1818Z" fill="#1C195B"/>
<path d="M87.5456 48.1818H84.3032V51.3939H87.5456V48.1818Z" fill="#1C195B"/>
<path d="M90.7878 48.1818H87.5454V51.3939H90.7878V48.1818Z" fill="#1C195B"/>
<path d="M94.0305 48.1818H90.7881V51.3939H94.0305V48.1818Z" fill="#1C195B"/>
<path d="M97.2727 48.1818H94.0303V51.3939H97.2727V48.1818Z" fill="#1C195B"/>
<path d="M100.515 48.1818H97.2729V51.3939H100.515V48.1818Z" fill="#1C195B"/>
<path d="M9.72729 51.3939H6.48486V54.6061H9.72729V51.3939Z" fill="#1C195B"/>
<path d="M16.2122 51.3939H12.9697V54.6061H16.2122V51.3939Z" fill="#1C195B"/>
<path d="M19.4548 51.3939H16.2124V54.6061H19.4548V51.3939Z" fill="#1C195B"/>
<path d="M22.697 51.3939H19.4546V54.6061H22.697V51.3939Z" fill="#1C195B"/>
<path d="M25.9397 51.3939H22.6973V54.6061H25.9397V51.3939Z" fill="#1C195B"/>
<path d="M29.1819 51.3939H25.9395V54.6061H29.1819V51.3939Z" fill="#1C195B"/>
<path d="M32.4246 51.3939H29.1821V54.6061H32.4246V51.3939Z" fill="#1C195B"/>
<path d="M35.6667 51.3939H32.4243V54.6061H35.6667V51.3939Z" fill="#1C195B"/>
<path d="M38.9094 51.3939H35.667V54.6061H38.9094V51.3939Z" fill="#1C195B"/>
<path d="M51.8791 51.3939H48.6367V54.6061H51.8791V51.3939Z" fill="#1C195B"/>
<path d="M61.6062 51.3939H58.3638V54.6061H61.6062V51.3939Z" fill="#1C195B"/>
<path d="M64.8489 51.3939H61.6064V54.6061H64.8489V51.3939Z" fill="#1C195B"/>
<path d="M68.0911 51.3939H64.8486V54.6061H68.0911V51.3939Z" fill="#1C195B"/>
<path d="M71.3337 51.3939H68.0913V54.6061H71.3337V51.3939Z" fill="#1C195B"/>
<path d="M74.5759 51.3939H71.3335V54.6061H74.5759V51.3939Z" fill="#1C195B"/>
<path d="M81.0608 51.3939H77.8184V54.6061H81.0608V51.3939Z" fill="#1C195B"/>
<path d="M84.303 51.3939H81.0605V54.6061H84.303V51.3939Z" fill="#1C195B"/>
<path d="M87.5456 51.3939H84.3032V54.6061H87.5456V51.3939Z" fill="#1C195B"/>
<path d="M94.0305 51.3939H90.7881V54.6061H94.0305V51.3939Z" fill="#1C195B"/>
<path d="M100.515 51.3939H97.2729V54.6061H100.515V51.3939Z" fill="#1C195B"/>
<path d="M12.97 54.6061H9.72754V57.8182H12.97V54.6061Z" fill="#1C195B"/>
<path d="M25.9397 54.6061H22.6973V57.8182H25.9397V54.6061Z" fill="#1C195B"/>
<path d="M32.4246 54.6061H29.1821V57.8182H32.4246V54.6061Z" fill="#1C195B"/>
<path d="M35.6667 54.6061H32.4243V57.8182H35.6667V54.6061Z" fill="#1C195B"/>
<path d="M45.3943 54.6061H42.1519V57.8182H45.3943V54.6061Z" fill="#1C195B"/>
<path d="M48.6365 54.6061H45.394V57.8182H48.6365V54.6061Z" fill="#1C195B"/>
<path d="M58.364 54.6061H55.1216V57.8182H58.364V54.6061Z" fill="#1C195B"/>
<path d="M71.3337 54.6061H68.0913V57.8182H71.3337V54.6061Z" fill="#1C195B"/>
<path d="M87.5456 54.6061H84.3032V57.8182H87.5456V54.6061Z" fill="#1C195B"/>
<path d="M94.0305 54.6061H90.7881V57.8182H94.0305V54.6061Z" fill="#1C195B"/>
<path d="M100.515 54.6061H97.2729V57.8182H100.515V54.6061Z" fill="#1C195B"/>
<path d="M12.97 57.8182H9.72754V61.0303H12.97V57.8182Z" fill="#1C195B"/>
<path d="M16.2122 57.8182H12.9697V61.0303H16.2122V57.8182Z" fill="#1C195B"/>
<path d="M19.4548 57.8182H16.2124V61.0303H19.4548V57.8182Z" fill="#1C195B"/>
<path d="M25.9397 57.8182H22.6973V61.0303H25.9397V57.8182Z" fill="#1C195B"/>
<path d="M29.1819 57.8182H25.9395V61.0303H29.1819V57.8182Z" fill="#1C195B"/>
<path d="M42.1516 57.8182H38.9092V61.0303H42.1516V57.8182Z" fill="#1C195B"/>
<path d="M55.1213 57.8182H51.8789V61.0303H55.1213V57.8182Z" fill="#1C195B"/>
<path d="M61.6062 57.8182H58.3638V61.0303H61.6062V57.8182Z" fill="#1C195B"/>
<path d="M71.3337 57.8182H68.0913V61.0303H71.3337V57.8182Z" fill="#1C195B"/>
<path d="M74.5759 57.8182H71.3335V61.0303H74.5759V57.8182Z" fill="#1C195B"/>
<path d="M77.8186 57.8182H74.5762V61.0303H77.8186V57.8182Z" fill="#1C195B"/>
<path d="M90.7878 57.8182H87.5454V61.0303H90.7878V57.8182Z" fill="#1C195B"/>
<path d="M9.72729 61.0303H6.48486V64.2424H9.72729V61.0303Z" fill="#1C195B"/>
<path d="M16.2122 61.0303H12.9697V64.2424H16.2122V61.0303Z" fill="#1C195B"/>
<path d="M19.4548 61.0303H16.2124V64.2424H19.4548V61.0303Z" fill="#1C195B"/>
<path d="M35.6667 61.0303H32.4243V64.2424H35.6667V61.0303Z" fill="#1C195B"/>
<path d="M42.1516 61.0303H38.9092V64.2424H42.1516V61.0303Z" fill="#1C195B"/>
<path d="M48.6365 61.0303H45.394V64.2424H48.6365V61.0303Z" fill="#1C195B"/>
<path d="M51.8791 61.0303H48.6367V64.2424H51.8791V61.0303Z" fill="#1C195B"/>
<path d="M55.1213 61.0303H51.8789V64.2424H55.1213V61.0303Z" fill="#1C195B"/>
<path d="M61.6062 61.0303H58.3638V64.2424H61.6062V61.0303Z" fill="#1C195B"/>
<path d="M68.0911 61.0303H64.8486V64.2424H68.0911V61.0303Z" fill="#1C195B"/>
<path d="M71.3337 61.0303H68.0913V64.2424H71.3337V61.0303Z" fill="#1C195B"/>
<path d="M84.303 61.0303H81.0605V64.2424H84.303V61.0303Z" fill="#1C195B"/>
<path d="M87.5456 61.0303H84.3032V64.2424H87.5456V61.0303Z" fill="#1C195B"/>
<path d="M94.0305 61.0303H90.7881V64.2424H94.0305V61.0303Z" fill="#1C195B"/>
<path d="M97.2727 61.0303H94.0303V64.2424H97.2727V61.0303Z" fill="#1C195B"/>
<path d="M9.72729 64.2424H6.48486V67.4545H9.72729V64.2424Z" fill="#1C195B"/>
<path d="M12.97 64.2424H9.72754V67.4545H12.97V64.2424Z" fill="#1C195B"/>
<path d="M29.1819 64.2424H25.9395V67.4545H29.1819V64.2424Z" fill="#1C195B"/>
<path d="M32.4246 64.2424H29.1821V67.4545H32.4246V64.2424Z" fill="#1C195B"/>
<path d="M35.6667 64.2424H32.4243V67.4545H35.6667V64.2424Z" fill="#1C195B"/>
<path d="M38.9094 64.2424H35.667V67.4545H38.9094V64.2424Z" fill="#1C195B"/>
<path d="M48.6365 64.2424H45.394V67.4545H48.6365V64.2424Z" fill="#1C195B"/>
<path d="M58.364 64.2424H55.1216V67.4545H58.364V64.2424Z" fill="#1C195B"/>
<path d="M64.8489 64.2424H61.6064V67.4545H64.8489V64.2424Z" fill="#1C195B"/>
<path d="M68.0911 64.2424H64.8486V67.4545H68.0911V64.2424Z" fill="#1C195B"/>
<path d="M71.3337 64.2424H68.0913V67.4545H71.3337V64.2424Z" fill="#1C195B"/>
<path d="M84.303 64.2424H81.0605V67.4545H84.303V64.2424Z" fill="#1C195B"/>
<path d="M90.7878 64.2424H87.5454V67.4545H90.7878V64.2424Z" fill="#1C195B"/>
<path d="M100.515 64.2424H97.2729V67.4545H100.515V64.2424Z" fill="#1C195B"/>
<path d="M9.72729 67.4546H6.48486V70.6667H9.72729V67.4546Z" fill="#1C195B"/>
<path d="M12.97 67.4546H9.72754V70.6667H12.97V67.4546Z" fill="#1C195B"/>
<path d="M19.4548 67.4546H16.2124V70.6667H19.4548V67.4546Z" fill="#1C195B"/>
<path d="M22.697 67.4546H19.4546V70.6667H22.697V67.4546Z" fill="#1C195B"/>
<path d="M38.9094 67.4546H35.667V70.6667H38.9094V67.4546Z" fill="#1C195B"/>
<path d="M42.1516 67.4546H38.9092V70.6667H42.1516V67.4546Z" fill="#1C195B"/>
<path d="M45.3943 67.4546H42.1519V70.6667H45.3943V67.4546Z" fill="#1C195B"/>
<path d="M48.6365 67.4546H45.394V70.6667H48.6365V67.4546Z" fill="#1C195B"/>
<path d="M55.1213 67.4546H51.8789V70.6667H55.1213V67.4546Z" fill="#1C195B"/>
<path d="M71.3337 67.4546H68.0913V70.6667H71.3337V67.4546Z" fill="#1C195B"/>
<path d="M81.0608 67.4546H77.8184V70.6667H81.0608V67.4546Z" fill="#1C195B"/>
<path d="M84.303 67.4546H81.0605V70.6667H84.303V67.4546Z" fill="#1C195B"/>
<path d="M90.7878 67.4546H87.5454V70.6667H90.7878V67.4546Z" fill="#1C195B"/>
<path d="M94.0305 67.4546H90.7881V70.6667H94.0305V67.4546Z" fill="#1C195B"/>
<path d="M9.72729 70.6667H6.48486V73.8788H9.72729V70.6667Z" fill="#1C195B"/>
<path d="M12.97 70.6667H9.72754V73.8788H12.97V70.6667Z" fill="#1C195B"/>
<path d="M25.9397 70.6667H22.6973V73.8788H25.9397V70.6667Z" fill="#1C195B"/>
<path d="M29.1819 70.6667H25.9395V73.8788H29.1819V70.6667Z" fill="#1C195B"/>
<path d="M38.9094 70.6667H35.667V73.8788H38.9094V70.6667Z" fill="#1C195B"/>
<path d="M45.3943 70.6667H42.1519V73.8788H45.3943V70.6667Z" fill="#1C195B"/>
<path d="M51.8791 70.6667H48.6367V73.8788H51.8791V70.6667Z" fill="#1C195B"/>
<path d="M55.1213 70.6667H51.8789V73.8788H55.1213V70.6667Z" fill="#1C195B"/>
<path d="M58.364 70.6667H55.1216V73.8788H58.364V70.6667Z" fill="#1C195B"/>
<path d="M61.6062 70.6667H58.3638V73.8788H61.6062V70.6667Z" fill="#1C195B"/>
<path d="M64.8489 70.6667H61.6064V73.8788H64.8489V70.6667Z" fill="#1C195B"/>
<path d="M74.5759 70.6667H71.3335V73.8788H74.5759V70.6667Z" fill="#1C195B"/>
<path d="M77.8186 70.6667H74.5762V73.8788H77.8186V70.6667Z" fill="#1C195B"/>
<path d="M81.0608 70.6667H77.8184V73.8788H81.0608V70.6667Z" fill="#1C195B"/>
<path d="M84.303 70.6667H81.0605V73.8788H84.303V70.6667Z" fill="#1C195B"/>
<path d="M87.5456 70.6667H84.3032V73.8788H87.5456V70.6667Z" fill="#1C195B"/>
<path d="M90.7878 70.6667H87.5454V73.8788H90.7878V70.6667Z" fill="#1C195B"/>
<path d="M94.0305 70.6667H90.7881V73.8788H94.0305V70.6667Z" fill="#1C195B"/>
<path d="M97.2727 70.6667H94.0303V73.8788H97.2727V70.6667Z" fill="#1C195B"/>
<path d="M35.6667 73.8788H32.4243V77.0909H35.6667V73.8788Z" fill="#1C195B"/>
<path d="M42.1516 73.8788H38.9092V77.0909H42.1516V73.8788Z" fill="#1C195B"/>
<path d="M48.6365 73.8788H45.394V77.0909H48.6365V73.8788Z" fill="#1C195B"/>
<path d="M55.1213 73.8788H51.8789V77.0909H55.1213V73.8788Z" fill="#1C195B"/>
<path d="M74.5759 73.8788H71.3335V77.0909H74.5759V73.8788Z" fill="#1C195B"/>
<path d="M87.5456 73.8788H84.3032V77.0909H87.5456V73.8788Z" fill="#1C195B"/>
<path d="M90.7878 73.8788H87.5454V77.0909H90.7878V73.8788Z" fill="#1C195B"/>
<path d="M35.6667 77.0909H32.4243V80.303H35.6667V77.0909Z" fill="#1C195B"/>
<path d="M42.1516 77.0909H38.9092V80.303H42.1516V77.0909Z" fill="#1C195B"/>
<path d="M55.1213 77.0909H51.8789V80.303H55.1213V77.0909Z" fill="#1C195B"/>
<path d="M68.0911 77.0909H64.8486V80.303H68.0911V77.0909Z" fill="#1C195B"/>
<path d="M71.3337 77.0909H68.0913V80.303H71.3337V77.0909Z" fill="#1C195B"/>
<path d="M74.5759 77.0909H71.3335V80.303H74.5759V77.0909Z" fill="#1C195B"/>
<path d="M81.0608 77.0909H77.8184V80.303H81.0608V77.0909Z" fill="#1C195B"/>
<path d="M87.5456 77.0909H84.3032V80.303H87.5456V77.0909Z" fill="#1C195B"/>
<path d="M90.7878 77.0909H87.5454V80.303H90.7878V77.0909Z" fill="#1C195B"/>
<path d="M35.6667 80.303H32.4243V83.5152H35.6667V80.303Z" fill="#1C195B"/>
<path d="M42.1516 80.303H38.9092V83.5152H42.1516V80.303Z" fill="#1C195B"/>
<path d="M45.3943 80.303H42.1519V83.5152H45.3943V80.303Z" fill="#1C195B"/>
<path d="M48.6365 80.303H45.394V83.5152H48.6365V80.303Z" fill="#1C195B"/>
<path d="M55.1213 80.303H51.8789V83.5152H55.1213V80.303Z" fill="#1C195B"/>
<path d="M58.364 80.303H55.1216V83.5152H58.364V80.303Z" fill="#1C195B"/>
<path d="M64.8489 80.303H61.6064V83.5152H64.8489V80.303Z" fill="#1C195B"/>
<path d="M68.0911 80.303H64.8486V83.5152H68.0911V80.303Z" fill="#1C195B"/>
<path d="M71.3337 80.303H68.0913V83.5152H71.3337V80.303Z" fill="#1C195B"/>
<path d="M74.5759 80.303H71.3335V83.5152H74.5759V80.303Z" fill="#1C195B"/>
<path d="M87.5456 80.303H84.3032V83.5152H87.5456V80.303Z" fill="#1C195B"/>
<path d="M100.515 80.303H97.2729V83.5152H100.515V80.303Z" fill="#1C195B"/>
<path d="M35.6667 83.5152H32.4243V86.7273H35.6667V83.5152Z" fill="#1C195B"/>
<path d="M42.1516 83.5152H38.9092V86.7273H42.1516V83.5152Z" fill="#1C195B"/>
<path d="M48.6365 83.5152H45.394V86.7273H48.6365V83.5152Z" fill="#1C195B"/>
<path d="M51.8791 83.5152H48.6367V86.7273H51.8791V83.5152Z" fill="#1C195B"/>
<path d="M55.1213 83.5152H51.8789V86.7273H55.1213V83.5152Z" fill="#1C195B"/>
<path d="M64.8489 83.5152H61.6064V86.7273H64.8489V83.5152Z" fill="#1C195B"/>
<path d="M68.0911 83.5152H64.8486V86.7273H68.0911V83.5152Z" fill="#1C195B"/>
<path d="M71.3337 83.5152H68.0913V86.7273H71.3337V83.5152Z" fill="#1C195B"/>
<path d="M74.5759 83.5152H71.3335V86.7273H74.5759V83.5152Z" fill="#1C195B"/>
<path d="M77.8186 83.5152H74.5762V86.7273H77.8186V83.5152Z" fill="#1C195B"/>
<path d="M81.0608 83.5152H77.8184V86.7273H81.0608V83.5152Z" fill="#1C195B"/>
<path d="M84.303 83.5152H81.0605V86.7273H84.303V83.5152Z" fill="#1C195B"/>
<path d="M87.5456 83.5152H84.3032V86.7273H87.5456V83.5152Z" fill="#1C195B"/>
<path d="M90.7878 83.5152H87.5454V86.7273H90.7878V83.5152Z" fill="#1C195B"/>
<path d="M35.6667 86.7273H32.4243V89.9394H35.6667V86.7273Z" fill="#1C195B"/>
<path d="M42.1516 86.7273H38.9092V89.9394H42.1516V86.7273Z" fill="#1C195B"/>
<path d="M45.3943 86.7273H42.1519V89.9394H45.3943V86.7273Z" fill="#1C195B"/>
<path d="M64.8489 86.7273H61.6064V89.9394H64.8489V86.7273Z" fill="#1C195B"/>
<path d="M68.0911 86.7273H64.8486V89.9394H68.0911V86.7273Z" fill="#1C195B"/>
<path d="M77.8186 86.7273H74.5762V89.9394H77.8186V86.7273Z" fill="#1C195B"/>
<path d="M97.2727 86.7273H94.0303V89.9394H97.2727V86.7273Z" fill="#1C195B"/>
<path d="M42.1516 89.9394H38.9092V93.1515H42.1516V89.9394Z" fill="#1C195B"/>
<path d="M45.3943 89.9394H42.1519V93.1515H45.3943V89.9394Z" fill="#1C195B"/>
<path d="M55.1213 89.9394H51.8789V93.1515H55.1213V89.9394Z" fill="#1C195B"/>
<path d="M58.364 89.9394H55.1216V93.1515H58.364V89.9394Z" fill="#1C195B"/>
<path d="M64.8489 89.9394H61.6064V93.1515H64.8489V89.9394Z" fill="#1C195B"/>
<path d="M74.5759 89.9394H71.3335V93.1515H74.5759V89.9394Z" fill="#1C195B"/>
<path d="M77.8186 89.9394H74.5762V93.1515H77.8186V89.9394Z" fill="#1C195B"/>
<path d="M87.5456 89.9394H84.3032V93.1515H87.5456V89.9394Z" fill="#1C195B"/>
<path d="M94.0305 89.9394H90.7881V93.1515H94.0305V89.9394Z" fill="#1C195B"/>
<path d="M97.2727 89.9394H94.0303V93.1515H97.2727V89.9394Z" fill="#1C195B"/>
<path d="M100.515 89.9394H97.2729V93.1515H100.515V89.9394Z" fill="#1C195B"/>
<path d="M38.9094 93.1515H35.667V96.3636H38.9094V93.1515Z" fill="#1C195B"/>
<path d="M42.1516 93.1515H38.9092V96.3636H42.1516V93.1515Z" fill="#1C195B"/>
<path d="M45.3943 93.1515H42.1519V96.3636H45.3943V93.1515Z" fill="#1C195B"/>
<path d="M48.6365 93.1515H45.394V96.3636H48.6365V93.1515Z" fill="#1C195B"/>
<path d="M55.1213 93.1515H51.8789V96.3636H55.1213V93.1515Z" fill="#1C195B"/>
<path d="M61.6062 93.1515H58.3638V96.3636H61.6062V93.1515Z" fill="#1C195B"/>
<path d="M64.8489 93.1515H61.6064V96.3636H64.8489V93.1515Z" fill="#1C195B"/>
<path d="M68.0911 93.1515H64.8486V96.3636H68.0911V93.1515Z" fill="#1C195B"/>
<path d="M81.0608 93.1515H77.8184V96.3636H81.0608V93.1515Z" fill="#1C195B"/>
<path d="M87.5456 93.1515H84.3032V96.3636H87.5456V93.1515Z" fill="#1C195B"/>
<path d="M94.0305 93.1515H90.7881V96.3636H94.0305V93.1515Z" fill="#1C195B"/>
<path d="M100.515 93.1515H97.2729V96.3636H100.515V93.1515Z" fill="#1C195B"/>
<path d="M35.6667 96.3636H32.4243V99.5758H35.6667V96.3636Z" fill="#1C195B"/>
<path d="M38.9094 96.3636H35.667V99.5758H38.9094V96.3636Z" fill="#1C195B"/>
<path d="M42.1516 96.3636H38.9092V99.5758H42.1516V96.3636Z" fill="#1C195B"/>
<path d="M45.3943 96.3636H42.1519V99.5758H45.3943V96.3636Z" fill="#1C195B"/>
<path d="M55.1213 96.3636H51.8789V99.5758H55.1213V96.3636Z" fill="#1C195B"/>
<path d="M58.364 96.3636H55.1216V99.5758H58.364V96.3636Z" fill="#1C195B"/>
<path d="M64.8489 96.3636H61.6064V99.5758H64.8489V96.3636Z" fill="#1C195B"/>
<path d="M71.3337 96.3636H68.0913V99.5758H71.3337V96.3636Z" fill="#1C195B"/>
<path d="M74.5759 96.3636H71.3335V99.5758H74.5759V96.3636Z" fill="#1C195B"/>
<path d="M81.0608 96.3636H77.8184V99.5758H81.0608V96.3636Z" fill="#1C195B"/>
<path d="M87.5456 96.3636H84.3032V99.5758H87.5456V96.3636Z" fill="#1C195B"/>
<path d="M90.7878 96.3636H87.5454V99.5758H90.7878V96.3636Z" fill="#1C195B"/>
<path d="M25.7773 6.42425H9.88941H6.48486V9.79698V25.5364V28.9091H9.88941H25.7773H29.1818V25.5364V9.79698V6.42425H25.7773ZM25.7773 25.5364H9.88941V9.79698H25.7773V25.5364Z" fill="#1C195B"/>
<path d="M97.1108 6.42426H81.2229H77.8184V9.79698V25.5364V28.9091H81.2229H97.1108H100.515V25.5364V9.79698V6.42426H97.1108ZM97.1108 25.5364H81.2229V9.79698H97.1108V25.5364Z" fill="#1C195B"/>
<path d="M25.7773 77.0909H9.88941H6.48486V80.4636V96.203V99.5758H9.88941H25.7773H29.1818V96.203V80.4636V77.0909H25.7773ZM25.7773 96.203H9.88941V80.4636H25.7773V96.203Z" fill="#1C195B"/>
<path d="M22.697 12.8485H12.9697V22.4849H22.697V12.8485Z" fill="#1C195B"/>
<path d="M94.0305 12.8485H84.3032V22.4849H94.0305V12.8485Z" fill="#1C195B"/>
<path d="M22.697 83.5152H12.9697V93.1515H22.697V83.5152Z" fill="#1C195B"/>
</svg>
