<svg width="135" height="135" viewBox="0 0 135 135" fill="none" xmlns="http://www.w3.org/2000/svg">
<path d="M45.0001 8.18182H40.9092V12.2727H45.0001V8.18182Z" fill="#1C195B"/>
<path d="M49.0909 8.18182H45V12.2727H49.0909V8.18182Z" fill="#1C195B"/>
<path d="M53.1817 8.18182H49.0908V12.2727H53.1817V8.18182Z" fill="#1C195B"/>
<path d="M57.2725 8.18182H53.1816V12.2727H57.2725V8.18182Z" fill="#1C195B"/>
<path d="M73.6363 8.18182H69.5454V12.2727H73.6363V8.18182Z" fill="#1C195B"/>
<path d="M77.7271 8.18182H73.6362V12.2727H77.7271V8.18182Z" fill="#1C195B"/>
<path d="M81.818 8.18182H77.7271V12.2727H81.818V8.18182Z" fill="#1C195B"/>
<path d="M45.0001 12.2727H40.9092V16.3636H45.0001V12.2727Z" fill="#1C195B"/>
<path d="M49.0909 12.2727H45V16.3636H49.0909V12.2727Z" fill="#1C195B"/>
<path d="M53.1817 12.2727H49.0908V16.3636H53.1817V12.2727Z" fill="#1C195B"/>
<path d="M57.2725 12.2727H53.1816V16.3636H57.2725V12.2727Z" fill="#1C195B"/>
<path d="M61.3639 12.2727H57.2729V16.3636H61.3639V12.2727Z" fill="#1C195B"/>
<path d="M77.7271 12.2727H73.6362V16.3636H77.7271V12.2727Z" fill="#1C195B"/>
<path d="M90.0001 12.2727H85.9092V16.3636H90.0001V12.2727Z" fill="#1C195B"/>
<path d="M45.0001 16.3636H40.9092V20.4546H45.0001V16.3636Z" fill="#1C195B"/>
<path d="M49.0909 16.3636H45V20.4546H49.0909V16.3636Z" fill="#1C195B"/>
<path d="M61.3639 16.3636H57.2729V20.4546H61.3639V16.3636Z" fill="#1C195B"/>
<path d="M73.6363 16.3636H69.5454V20.4546H73.6363V16.3636Z" fill="#1C195B"/>
<path d="M77.7271 16.3636H73.6362V20.4546H77.7271V16.3636Z" fill="#1C195B"/>
<path d="M94.0909 16.3636H90V20.4546H94.0909V16.3636Z" fill="#1C195B"/>
<path d="M57.2725 20.4546H53.1816V24.5455H57.2725V20.4546Z" fill="#1C195B"/>
<path d="M61.3639 20.4546H57.2729V24.5455H61.3639V20.4546Z" fill="#1C195B"/>
<path d="M77.7271 20.4546H73.6362V24.5455H77.7271V20.4546Z" fill="#1C195B"/>
<path d="M81.818 20.4546H77.7271V24.5455H81.818V20.4546Z" fill="#1C195B"/>
<path d="M90.0001 20.4546H85.9092V24.5455H90.0001V20.4546Z" fill="#1C195B"/>
<path d="M94.0909 20.4546H90V24.5455H94.0909V20.4546Z" fill="#1C195B"/>
<path d="M45.0001 24.5455H40.9092V28.6364H45.0001V24.5455Z" fill="#1C195B"/>
<path d="M49.0909 24.5455H45V28.6364H49.0909V24.5455Z" fill="#1C195B"/>
<path d="M53.1817 24.5455H49.0908V28.6364H53.1817V24.5455Z" fill="#1C195B"/>
<path d="M57.2725 24.5455H53.1816V28.6364H57.2725V24.5455Z" fill="#1C195B"/>
<path d="M61.3639 24.5455H57.2729V28.6364H61.3639V24.5455Z" fill="#1C195B"/>
<path d="M69.5455 24.5455H65.4546V28.6364H69.5455V24.5455Z" fill="#1C195B"/>
<path d="M73.6363 24.5455H69.5454V28.6364H73.6363V24.5455Z" fill="#1C195B"/>
<path d="M77.7271 24.5455H73.6362V28.6364H77.7271V24.5455Z" fill="#1C195B"/>
<path d="M81.818 24.5455H77.7271V28.6364H81.818V24.5455Z" fill="#1C195B"/>
<path d="M90.0001 24.5455H85.9092V28.6364H90.0001V24.5455Z" fill="#1C195B"/>
<path d="M53.1817 28.6364H49.0908V32.7273H53.1817V28.6364Z" fill="#1C195B"/>
<path d="M61.3639 28.6364H57.2729V32.7273H61.3639V28.6364Z" fill="#1C195B"/>
<path d="M73.6363 28.6364H69.5454V32.7273H73.6363V28.6364Z" fill="#1C195B"/>
<path d="M77.7271 28.6364H73.6362V32.7273H77.7271V28.6364Z" fill="#1C195B"/>
<path d="M81.818 28.6364H77.7271V32.7273H81.818V28.6364Z" fill="#1C195B"/>
<path d="M45.0001 32.7273H40.9092V36.8182H45.0001V32.7273Z" fill="#1C195B"/>
<path d="M53.1817 32.7273H49.0908V36.8182H53.1817V32.7273Z" fill="#1C195B"/>
<path d="M61.3639 32.7273H57.2729V36.8182H61.3639V32.7273Z" fill="#1C195B"/>
<path d="M69.5455 32.7273H65.4546V36.8182H69.5455V32.7273Z" fill="#1C195B"/>
<path d="M77.7271 32.7273H73.6362V36.8182H77.7271V32.7273Z" fill="#1C195B"/>
<path d="M85.9093 32.7273H81.8184V36.8182H85.9093V32.7273Z" fill="#1C195B"/>
<path d="M94.0909 32.7273H90V36.8182H94.0909V32.7273Z" fill="#1C195B"/>
<path d="M53.1817 36.8182H49.0908V40.9091H53.1817V36.8182Z" fill="#1C195B"/>
<path d="M57.2725 36.8182H53.1816V40.9091H57.2725V36.8182Z" fill="#1C195B"/>
<path d="M61.3639 36.8182H57.2729V40.9091H61.3639V36.8182Z" fill="#1C195B"/>
<path d="M65.4547 36.8182H61.3638V40.9091H65.4547V36.8182Z" fill="#1C195B"/>
<path d="M73.6363 36.8182H69.5454V40.9091H73.6363V36.8182Z" fill="#1C195B"/>
<path d="M77.7271 36.8182H73.6362V40.9091H77.7271V36.8182Z" fill="#1C195B"/>
<path d="M85.9093 36.8182H81.8184V40.9091H85.9093V36.8182Z" fill="#1C195B"/>
<path d="M94.0909 36.8182H90V40.9091H94.0909V36.8182Z" fill="#1C195B"/>
<path d="M12.2725 40.9091H8.18164V45H12.2725V40.9091Z" fill="#1C195B"/>
<path d="M24.5455 40.9091H20.4546V45H24.5455V40.9091Z" fill="#1C195B"/>
<path d="M28.6363 40.9091H24.5454V45H28.6363V40.9091Z" fill="#1C195B"/>
<path d="M32.7271 40.9091H28.6362V45H32.7271V40.9091Z" fill="#1C195B"/>
<path d="M36.8184 40.9091H32.7275V45H36.8184V40.9091Z" fill="#1C195B"/>
<path d="M40.9093 40.9091H36.8184V45H40.9093V40.9091Z" fill="#1C195B"/>
<path d="M45.0001 40.9091H40.9092V45H45.0001V40.9091Z" fill="#1C195B"/>
<path d="M49.0909 40.9091H45V45H49.0909V40.9091Z" fill="#1C195B"/>
<path d="M57.2725 40.9091H53.1816V45H57.2725V40.9091Z" fill="#1C195B"/>
<path d="M65.4547 40.9091H61.3638V45H65.4547V40.9091Z" fill="#1C195B"/>
<path d="M90.0001 40.9091H85.9092V45H90.0001V40.9091Z" fill="#1C195B"/>
<path d="M98.1817 40.9091H94.0908V45H98.1817V40.9091Z" fill="#1C195B"/>
<path d="M110.455 40.9091H106.364V45H110.455V40.9091Z" fill="#1C195B"/>
<path d="M118.636 40.9091H114.545V45H118.636V40.9091Z" fill="#1C195B"/>
<path d="M122.727 40.9091H118.636V45H122.727V40.9091Z" fill="#1C195B"/>
<path d="M126.818 40.9091H122.727V45H126.818V40.9091Z" fill="#1C195B"/>
<path d="M12.2725 45H8.18164V49.0909H12.2725V45Z" fill="#1C195B"/>
<path d="M28.6363 45H24.5454V49.0909H28.6363V45Z" fill="#1C195B"/>
<path d="M32.7271 45H28.6362V49.0909H32.7271V45Z" fill="#1C195B"/>
<path d="M45.0001 45H40.9092V49.0909H45.0001V45Z" fill="#1C195B"/>
<path d="M53.1817 45H49.0908V49.0909H53.1817V45Z" fill="#1C195B"/>
<path d="M57.2725 45H53.1816V49.0909H57.2725V45Z" fill="#1C195B"/>
<path d="M65.4547 45H61.3638V49.0909H65.4547V45Z" fill="#1C195B"/>
<path d="M77.7271 45H73.6362V49.0909H77.7271V45Z" fill="#1C195B"/>
<path d="M81.818 45H77.7271V49.0909H81.818V45Z" fill="#1C195B"/>
<path d="M90.0001 45H85.9092V49.0909H90.0001V45Z" fill="#1C195B"/>
<path d="M98.1817 45H94.0908V49.0909H98.1817V45Z" fill="#1C195B"/>
<path d="M110.455 45H106.364V49.0909H110.455V45Z" fill="#1C195B"/>
<path d="M118.636 45H114.545V49.0909H118.636V45Z" fill="#1C195B"/>
<path d="M122.727 45H118.636V49.0909H122.727V45Z" fill="#1C195B"/>
<path d="M12.2725 49.0909H8.18164V53.1818H12.2725V49.0909Z" fill="#1C195B"/>
<path d="M20.4547 49.0909H16.3638V53.1818H20.4547V49.0909Z" fill="#1C195B"/>
<path d="M24.5455 49.0909H20.4546V53.1818H24.5455V49.0909Z" fill="#1C195B"/>
<path d="M36.8184 49.0909H32.7275V53.1818H36.8184V49.0909Z" fill="#1C195B"/>
<path d="M45.0001 49.0909H40.9092V53.1818H45.0001V49.0909Z" fill="#1C195B"/>
<path d="M57.2725 49.0909H53.1816V53.1818H57.2725V49.0909Z" fill="#1C195B"/>
<path d="M65.4547 49.0909H61.3638V53.1818H65.4547V49.0909Z" fill="#1C195B"/>
<path d="M73.6363 49.0909H69.5454V53.1818H73.6363V49.0909Z" fill="#1C195B"/>
<path d="M77.7271 49.0909H73.6362V53.1818H77.7271V49.0909Z" fill="#1C195B"/>
<path d="M98.1817 49.0909H94.0908V53.1818H98.1817V49.0909Z" fill="#1C195B"/>
<path d="M106.363 49.0909H102.272V53.1818H106.363V49.0909Z" fill="#1C195B"/>
<path d="M110.455 49.0909H106.364V53.1818H110.455V49.0909Z" fill="#1C195B"/>
<path d="M118.636 49.0909H114.545V53.1818H118.636V49.0909Z" fill="#1C195B"/>
<path d="M12.2725 53.1818H8.18164V57.2727H12.2725V53.1818Z" fill="#1C195B"/>
<path d="M40.9093 53.1818H36.8184V57.2727H40.9093V53.1818Z" fill="#1C195B"/>
<path d="M53.1817 53.1818H49.0908V57.2727H53.1817V53.1818Z" fill="#1C195B"/>
<path d="M65.4547 53.1818H61.3638V57.2727H65.4547V53.1818Z" fill="#1C195B"/>
<path d="M77.7271 53.1818H73.6362V57.2727H77.7271V53.1818Z" fill="#1C195B"/>
<path d="M81.818 53.1818H77.7271V57.2727H81.818V53.1818Z" fill="#1C195B"/>
<path d="M102.273 53.1818H98.1816V57.2727H102.273V53.1818Z" fill="#1C195B"/>
<path d="M106.363 53.1818H102.272V57.2727H106.363V53.1818Z" fill="#1C195B"/>
<path d="M110.455 53.1818H106.364V57.2727H110.455V53.1818Z" fill="#1C195B"/>
<path d="M114.545 53.1818H110.455V57.2727H114.545V53.1818Z" fill="#1C195B"/>
<path d="M126.818 53.1818H122.727V57.2727H126.818V53.1818Z" fill="#1C195B"/>
<path d="M12.2725 57.2727H8.18164V61.3636H12.2725V57.2727Z" fill="#1C195B"/>
<path d="M16.3639 57.2727H12.2729V61.3636H16.3639V57.2727Z" fill="#1C195B"/>
<path d="M20.4547 57.2727H16.3638V61.3636H20.4547V57.2727Z" fill="#1C195B"/>
<path d="M24.5455 57.2727H20.4546V61.3636H24.5455V57.2727Z" fill="#1C195B"/>
<path d="M28.6363 57.2727H24.5454V61.3636H28.6363V57.2727Z" fill="#1C195B"/>
<path d="M36.8184 57.2727H32.7275V61.3636H36.8184V57.2727Z" fill="#1C195B"/>
<path d="M49.0909 57.2727H45V61.3636H49.0909V57.2727Z" fill="#1C195B"/>
<path d="M57.2725 57.2727H53.1816V61.3636H57.2725V57.2727Z" fill="#1C195B"/>
<path d="M61.3639 57.2727H57.2729V61.3636H61.3639V57.2727Z" fill="#1C195B"/>
<path d="M65.4547 57.2727H61.3638V61.3636H65.4547V57.2727Z" fill="#1C195B"/>
<path d="M73.6363 57.2727H69.5454V61.3636H73.6363V57.2727Z" fill="#1C195B"/>
<path d="M77.7271 57.2727H73.6362V61.3636H77.7271V57.2727Z" fill="#1C195B"/>
<path d="M90.0001 57.2727H85.9092V61.3636H90.0001V57.2727Z" fill="#1C195B"/>
<path d="M94.0909 57.2727H90V61.3636H94.0909V57.2727Z" fill="#1C195B"/>
<path d="M102.273 57.2727H98.1816V61.3636H102.273V57.2727Z" fill="#1C195B"/>
<path d="M126.818 57.2727H122.727V61.3636H126.818V57.2727Z" fill="#1C195B"/>
<path d="M12.2725 61.3636H8.18164V65.4545H12.2725V61.3636Z" fill="#1C195B"/>
<path d="M20.4547 61.3636H16.3638V65.4545H20.4547V61.3636Z" fill="#1C195B"/>
<path d="M28.6363 61.3636H24.5454V65.4545H28.6363V61.3636Z" fill="#1C195B"/>
<path d="M32.7271 61.3636H28.6362V65.4545H32.7271V61.3636Z" fill="#1C195B"/>
<path d="M40.9093 61.3636H36.8184V65.4545H40.9093V61.3636Z" fill="#1C195B"/>
<path d="M49.0909 61.3636H45V65.4545H49.0909V61.3636Z" fill="#1C195B"/>
<path d="M61.3639 61.3636H57.2729V65.4545H61.3639V61.3636Z" fill="#1C195B"/>
<path d="M65.4547 61.3636H61.3638V65.4545H65.4547V61.3636Z" fill="#1C195B"/>
<path d="M69.5455 61.3636H65.4546V65.4545H69.5455V61.3636Z" fill="#1C195B"/>
<path d="M77.7271 61.3636H73.6362V65.4545H77.7271V61.3636Z" fill="#1C195B"/>
<path d="M81.818 61.3636H77.7271V65.4545H81.818V61.3636Z" fill="#1C195B"/>
<path d="M85.9093 61.3636H81.8184V65.4545H85.9093V61.3636Z" fill="#1C195B"/>
<path d="M102.273 61.3636H98.1816V65.4545H102.273V61.3636Z" fill="#1C195B"/>
<path d="M110.455 61.3636H106.364V65.4545H110.455V61.3636Z" fill="#1C195B"/>
<path d="M114.545 61.3636H110.455V65.4545H114.545V61.3636Z" fill="#1C195B"/>
<path d="M118.636 61.3636H114.545V65.4545H118.636V61.3636Z" fill="#1C195B"/>
<path d="M122.727 61.3636H118.636V65.4545H122.727V61.3636Z" fill="#1C195B"/>
<path d="M126.818 61.3636H122.727V65.4545H126.818V61.3636Z" fill="#1C195B"/>
<path d="M12.2725 65.4545H8.18164V69.5454H12.2725V65.4545Z" fill="#1C195B"/>
<path d="M20.4547 65.4545H16.3638V69.5454H20.4547V65.4545Z" fill="#1C195B"/>
<path d="M24.5455 65.4545H20.4546V69.5454H24.5455V65.4545Z" fill="#1C195B"/>
<path d="M28.6363 65.4545H24.5454V69.5454H28.6363V65.4545Z" fill="#1C195B"/>
<path d="M32.7271 65.4545H28.6362V69.5454H32.7271V65.4545Z" fill="#1C195B"/>
<path d="M36.8184 65.4545H32.7275V69.5454H36.8184V65.4545Z" fill="#1C195B"/>
<path d="M40.9093 65.4545H36.8184V69.5454H40.9093V65.4545Z" fill="#1C195B"/>
<path d="M45.0001 65.4545H40.9092V69.5454H45.0001V65.4545Z" fill="#1C195B"/>
<path d="M49.0909 65.4545H45V69.5454H49.0909V65.4545Z" fill="#1C195B"/>
<path d="M65.4547 65.4545H61.3638V69.5454H65.4547V65.4545Z" fill="#1C195B"/>
<path d="M77.7271 65.4545H73.6362V69.5454H77.7271V65.4545Z" fill="#1C195B"/>
<path d="M81.818 65.4545H77.7271V69.5454H81.818V65.4545Z" fill="#1C195B"/>
<path d="M85.9093 65.4545H81.8184V69.5454H85.9093V65.4545Z" fill="#1C195B"/>
<path d="M90.0001 65.4545H85.9092V69.5454H90.0001V65.4545Z" fill="#1C195B"/>
<path d="M94.0909 65.4545H90V69.5454H94.0909V65.4545Z" fill="#1C195B"/>
<path d="M102.273 65.4545H98.1816V69.5454H102.273V65.4545Z" fill="#1C195B"/>
<path d="M106.363 65.4545H102.272V69.5454H106.363V65.4545Z" fill="#1C195B"/>
<path d="M110.455 65.4545H106.364V69.5454H110.455V65.4545Z" fill="#1C195B"/>
<path d="M118.636 65.4545H114.545V69.5454H118.636V65.4545Z" fill="#1C195B"/>
<path d="M126.818 65.4545H122.727V69.5454H126.818V65.4545Z" fill="#1C195B"/>
<path d="M16.3639 69.5455H12.2729V73.6364H16.3639V69.5455Z" fill="#1C195B"/>
<path d="M32.7271 69.5455H28.6362V73.6364H32.7271V69.5455Z" fill="#1C195B"/>
<path d="M40.9093 69.5455H36.8184V73.6364H40.9093V69.5455Z" fill="#1C195B"/>
<path d="M45.0001 69.5455H40.9092V73.6364H45.0001V69.5455Z" fill="#1C195B"/>
<path d="M57.2725 69.5455H53.1816V73.6364H57.2725V69.5455Z" fill="#1C195B"/>
<path d="M61.3639 69.5455H57.2729V73.6364H61.3639V69.5455Z" fill="#1C195B"/>
<path d="M73.6363 69.5455H69.5454V73.6364H73.6363V69.5455Z" fill="#1C195B"/>
<path d="M90.0001 69.5455H85.9092V73.6364H90.0001V69.5455Z" fill="#1C195B"/>
<path d="M110.455 69.5455H106.364V73.6364H110.455V69.5455Z" fill="#1C195B"/>
<path d="M118.636 69.5455H114.545V73.6364H118.636V69.5455Z" fill="#1C195B"/>
<path d="M126.818 69.5455H122.727V73.6364H126.818V69.5455Z" fill="#1C195B"/>
<path d="M16.3639 73.6364H12.2729V77.7273H16.3639V73.6364Z" fill="#1C195B"/>
<path d="M20.4547 73.6364H16.3638V77.7273H20.4547V73.6364Z" fill="#1C195B"/>
<path d="M24.5455 73.6364H20.4546V77.7273H24.5455V73.6364Z" fill="#1C195B"/>
<path d="M32.7271 73.6364H28.6362V77.7273H32.7271V73.6364Z" fill="#1C195B"/>
<path d="M36.8184 73.6364H32.7275V77.7273H36.8184V73.6364Z" fill="#1C195B"/>
<path d="M53.1817 73.6364H49.0908V77.7273H53.1817V73.6364Z" fill="#1C195B"/>
<path d="M69.5455 73.6364H65.4546V77.7273H69.5455V73.6364Z" fill="#1C195B"/>
<path d="M77.7271 73.6364H73.6362V77.7273H77.7271V73.6364Z" fill="#1C195B"/>
<path d="M90.0001 73.6364H85.9092V77.7273H90.0001V73.6364Z" fill="#1C195B"/>
<path d="M94.0909 73.6364H90V77.7273H94.0909V73.6364Z" fill="#1C195B"/>
<path d="M98.1817 73.6364H94.0908V77.7273H98.1817V73.6364Z" fill="#1C195B"/>
<path d="M114.545 73.6364H110.455V77.7273H114.545V73.6364Z" fill="#1C195B"/>
<path d="M12.2725 77.7273H8.18164V81.8182H12.2725V77.7273Z" fill="#1C195B"/>
<path d="M20.4547 77.7273H16.3638V81.8182H20.4547V77.7273Z" fill="#1C195B"/>
<path d="M24.5455 77.7273H20.4546V81.8182H24.5455V77.7273Z" fill="#1C195B"/>
<path d="M45.0001 77.7273H40.9092V81.8182H45.0001V77.7273Z" fill="#1C195B"/>
<path d="M53.1817 77.7273H49.0908V81.8182H53.1817V77.7273Z" fill="#1C195B"/>
<path d="M61.3639 77.7273H57.2729V81.8182H61.3639V77.7273Z" fill="#1C195B"/>
<path d="M65.4547 77.7273H61.3638V81.8182H65.4547V77.7273Z" fill="#1C195B"/>
<path d="M69.5455 77.7273H65.4546V81.8182H69.5455V77.7273Z" fill="#1C195B"/>
<path d="M77.7271 77.7273H73.6362V81.8182H77.7271V77.7273Z" fill="#1C195B"/>
<path d="M85.9093 77.7273H81.8184V81.8182H85.9093V77.7273Z" fill="#1C195B"/>
<path d="M90.0001 77.7273H85.9092V81.8182H90.0001V77.7273Z" fill="#1C195B"/>
<path d="M106.363 77.7273H102.272V81.8182H106.363V77.7273Z" fill="#1C195B"/>
<path d="M110.455 77.7273H106.364V81.8182H110.455V77.7273Z" fill="#1C195B"/>
<path d="M118.636 77.7273H114.545V81.8182H118.636V77.7273Z" fill="#1C195B"/>
<path d="M122.727 77.7273H118.636V81.8182H122.727V77.7273Z" fill="#1C195B"/>
<path d="M12.2725 81.8182H8.18164V85.9091H12.2725V81.8182Z" fill="#1C195B"/>
<path d="M16.3639 81.8182H12.2729V85.9091H16.3639V81.8182Z" fill="#1C195B"/>
<path d="M36.8184 81.8182H32.7275V85.9091H36.8184V81.8182Z" fill="#1C195B"/>
<path d="M40.9093 81.8182H36.8184V85.9091H40.9093V81.8182Z" fill="#1C195B"/>
<path d="M45.0001 81.8182H40.9092V85.9091H45.0001V81.8182Z" fill="#1C195B"/>
<path d="M49.0909 81.8182H45V85.9091H49.0909V81.8182Z" fill="#1C195B"/>
<path d="M61.3639 81.8182H57.2729V85.9091H61.3639V81.8182Z" fill="#1C195B"/>
<path d="M73.6363 81.8182H69.5454V85.9091H73.6363V81.8182Z" fill="#1C195B"/>
<path d="M81.818 81.8182H77.7271V85.9091H81.818V81.8182Z" fill="#1C195B"/>
<path d="M85.9093 81.8182H81.8184V85.9091H85.9093V81.8182Z" fill="#1C195B"/>
<path d="M90.0001 81.8182H85.9092V85.9091H90.0001V81.8182Z" fill="#1C195B"/>
<path d="M106.363 81.8182H102.272V85.9091H106.363V81.8182Z" fill="#1C195B"/>
<path d="M114.545 81.8182H110.455V85.9091H114.545V81.8182Z" fill="#1C195B"/>
<path d="M126.818 81.8182H122.727V85.9091H126.818V81.8182Z" fill="#1C195B"/>
<path d="M12.2725 85.9091H8.18164V90H12.2725V85.9091Z" fill="#1C195B"/>
<path d="M16.3639 85.9091H12.2729V90H16.3639V85.9091Z" fill="#1C195B"/>
<path d="M24.5455 85.9091H20.4546V90H24.5455V85.9091Z" fill="#1C195B"/>
<path d="M28.6363 85.9091H24.5454V90H28.6363V85.9091Z" fill="#1C195B"/>
<path d="M49.0909 85.9091H45V90H49.0909V85.9091Z" fill="#1C195B"/>
<path d="M53.1817 85.9091H49.0908V90H53.1817V85.9091Z" fill="#1C195B"/>
<path d="M57.2725 85.9091H53.1816V90H57.2725V85.9091Z" fill="#1C195B"/>
<path d="M61.3639 85.9091H57.2729V90H61.3639V85.9091Z" fill="#1C195B"/>
<path d="M69.5455 85.9091H65.4546V90H69.5455V85.9091Z" fill="#1C195B"/>
<path d="M90.0001 85.9091H85.9092V90H90.0001V85.9091Z" fill="#1C195B"/>
<path d="M102.273 85.9091H98.1816V90H102.273V85.9091Z" fill="#1C195B"/>
<path d="M106.363 85.9091H102.272V90H106.363V85.9091Z" fill="#1C195B"/>
<path d="M114.545 85.9091H110.455V90H114.545V85.9091Z" fill="#1C195B"/>
<path d="M118.636 85.9091H114.545V90H118.636V85.9091Z" fill="#1C195B"/>
<path d="M12.2725 90H8.18164V94.0909H12.2725V90Z" fill="#1C195B"/>
<path d="M16.3639 90H12.2729V94.0909H16.3639V90Z" fill="#1C195B"/>
<path d="M32.7271 90H28.6362V94.0909H32.7271V90Z" fill="#1C195B"/>
<path d="M36.8184 90H32.7275V94.0909H36.8184V90Z" fill="#1C195B"/>
<path d="M49.0909 90H45V94.0909H49.0909V90Z" fill="#1C195B"/>
<path d="M57.2725 90H53.1816V94.0909H57.2725V90Z" fill="#1C195B"/>
<path d="M65.4547 90H61.3638V94.0909H65.4547V90Z" fill="#1C195B"/>
<path d="M69.5455 90H65.4546V94.0909H69.5455V90Z" fill="#1C195B"/>
<path d="M73.6363 90H69.5454V94.0909H73.6363V90Z" fill="#1C195B"/>
<path d="M77.7271 90H73.6362V94.0909H77.7271V90Z" fill="#1C195B"/>
<path d="M81.818 90H77.7271V94.0909H81.818V90Z" fill="#1C195B"/>
<path d="M94.0909 90H90V94.0909H94.0909V90Z" fill="#1C195B"/>
<path d="M98.1817 90H94.0908V94.0909H98.1817V90Z" fill="#1C195B"/>
<path d="M102.273 90H98.1816V94.0909H102.273V90Z" fill="#1C195B"/>
<path d="M106.363 90H102.272V94.0909H106.363V90Z" fill="#1C195B"/>
<path d="M110.455 90H106.364V94.0909H110.455V90Z" fill="#1C195B"/>
<path d="M114.545 90H110.455V94.0909H114.545V90Z" fill="#1C195B"/>
<path d="M118.636 90H114.545V94.0909H118.636V90Z" fill="#1C195B"/>
<path d="M122.727 90H118.636V94.0909H122.727V90Z" fill="#1C195B"/>
<path d="M45.0001 94.0909H40.9092V98.1818H45.0001V94.0909Z" fill="#1C195B"/>
<path d="M53.1817 94.0909H49.0908V98.1818H53.1817V94.0909Z" fill="#1C195B"/>
<path d="M61.3639 94.0909H57.2729V98.1818H61.3639V94.0909Z" fill="#1C195B"/>
<path d="M69.5455 94.0909H65.4546V98.1818H69.5455V94.0909Z" fill="#1C195B"/>
<path d="M94.0909 94.0909H90V98.1818H94.0909V94.0909Z" fill="#1C195B"/>
<path d="M110.455 94.0909H106.364V98.1818H110.455V94.0909Z" fill="#1C195B"/>
<path d="M114.545 94.0909H110.455V98.1818H114.545V94.0909Z" fill="#1C195B"/>
<path d="M45.0001 98.1818H40.9092V102.273H45.0001V98.1818Z" fill="#1C195B"/>
<path d="M53.1817 98.1818H49.0908V102.273H53.1817V98.1818Z" fill="#1C195B"/>
<path d="M69.5455 98.1818H65.4546V102.273H69.5455V98.1818Z" fill="#1C195B"/>
<path d="M85.9093 98.1818H81.8184V102.273H85.9093V98.1818Z" fill="#1C195B"/>
<path d="M90.0001 98.1818H85.9092V102.273H90.0001V98.1818Z" fill="#1C195B"/>
<path d="M94.0909 98.1818H90V102.273H94.0909V98.1818Z" fill="#1C195B"/>
<path d="M102.273 98.1818H98.1816V102.273H102.273V98.1818Z" fill="#1C195B"/>
<path d="M110.455 98.1818H106.364V102.273H110.455V98.1818Z" fill="#1C195B"/>
<path d="M114.545 98.1818H110.455V102.273H114.545V98.1818Z" fill="#1C195B"/>
<path d="M45.0001 102.273H40.9092V106.364H45.0001V102.273Z" fill="#1C195B"/>
<path d="M53.1817 102.273H49.0908V106.364H53.1817V102.273Z" fill="#1C195B"/>
<path d="M57.2725 102.273H53.1816V106.364H57.2725V102.273Z" fill="#1C195B"/>
<path d="M61.3639 102.273H57.2729V106.364H61.3639V102.273Z" fill="#1C195B"/>
<path d="M69.5455 102.273H65.4546V106.364H69.5455V102.273Z" fill="#1C195B"/>
<path d="M73.6363 102.273H69.5454V106.364H73.6363V102.273Z" fill="#1C195B"/>
<path d="M81.818 102.273H77.7271V106.364H81.818V102.273Z" fill="#1C195B"/>
<path d="M85.9093 102.273H81.8184V106.364H85.9093V102.273Z" fill="#1C195B"/>
<path d="M90.0001 102.273H85.9092V106.364H90.0001V102.273Z" fill="#1C195B"/>
<path d="M94.0909 102.273H90V106.364H94.0909V102.273Z" fill="#1C195B"/>
<path d="M110.455 102.273H106.364V106.364H110.455V102.273Z" fill="#1C195B"/>
<path d="M126.818 102.273H122.727V106.364H126.818V102.273Z" fill="#1C195B"/>
<path d="M45.0001 106.364H40.9092V110.455H45.0001V106.364Z" fill="#1C195B"/>
<path d="M53.1817 106.364H49.0908V110.455H53.1817V106.364Z" fill="#1C195B"/>
<path d="M61.3639 106.364H57.2729V110.455H61.3639V106.364Z" fill="#1C195B"/>
<path d="M65.4547 106.364H61.3638V110.455H65.4547V106.364Z" fill="#1C195B"/>
<path d="M69.5455 106.364H65.4546V110.455H69.5455V106.364Z" fill="#1C195B"/>
<path d="M81.818 106.364H77.7271V110.455H81.818V106.364Z" fill="#1C195B"/>
<path d="M85.9093 106.364H81.8184V110.455H85.9093V106.364Z" fill="#1C195B"/>
<path d="M90.0001 106.364H85.9092V110.455H90.0001V106.364Z" fill="#1C195B"/>
<path d="M94.0909 106.364H90V110.455H94.0909V106.364Z" fill="#1C195B"/>
<path d="M98.1817 106.364H94.0908V110.455H98.1817V106.364Z" fill="#1C195B"/>
<path d="M102.273 106.364H98.1816V110.455H102.273V106.364Z" fill="#1C195B"/>
<path d="M106.363 106.364H102.272V110.455H106.363V106.364Z" fill="#1C195B"/>
<path d="M110.455 106.364H106.364V110.455H110.455V106.364Z" fill="#1C195B"/>
<path d="M114.545 106.364H110.455V110.455H114.545V106.364Z" fill="#1C195B"/>
<path d="M45.0001 110.455H40.9092V114.545H45.0001V110.455Z" fill="#1C195B"/>
<path d="M53.1817 110.455H49.0908V114.545H53.1817V110.455Z" fill="#1C195B"/>
<path d="M57.2725 110.455H53.1816V114.545H57.2725V110.455Z" fill="#1C195B"/>
<path d="M81.818 110.455H77.7271V114.545H81.818V110.455Z" fill="#1C195B"/>
<path d="M85.9093 110.455H81.8184V114.545H85.9093V110.455Z" fill="#1C195B"/>
<path d="M98.1817 110.455H94.0908V114.545H98.1817V110.455Z" fill="#1C195B"/>
<path d="M122.727 110.455H118.636V114.545H122.727V110.455Z" fill="#1C195B"/>
<path d="M53.1817 114.545H49.0908V118.636H53.1817V114.545Z" fill="#1C195B"/>
<path d="M57.2725 114.545H53.1816V118.636H57.2725V114.545Z" fill="#1C195B"/>
<path d="M69.5455 114.545H65.4546V118.636H69.5455V114.545Z" fill="#1C195B"/>
<path d="M73.6363 114.545H69.5454V118.636H73.6363V114.545Z" fill="#1C195B"/>
<path d="M81.818 114.545H77.7271V118.636H81.818V114.545Z" fill="#1C195B"/>
<path d="M94.0909 114.545H90V118.636H94.0909V114.545Z" fill="#1C195B"/>
<path d="M98.1817 114.545H94.0908V118.636H98.1817V114.545Z" fill="#1C195B"/>
<path d="M110.455 114.545H106.364V118.636H110.455V114.545Z" fill="#1C195B"/>
<path d="M118.636 114.545H114.545V118.636H118.636V114.545Z" fill="#1C195B"/>
<path d="M122.727 114.545H118.636V118.636H122.727V114.545Z" fill="#1C195B"/>
<path d="M126.818 114.545H122.727V118.636H126.818V114.545Z" fill="#1C195B"/>
<path d="M49.0909 118.636H45V122.727H49.0909V118.636Z" fill="#1C195B"/>
<path d="M53.1817 118.636H49.0908V122.727H53.1817V118.636Z" fill="#1C195B"/>
<path d="M57.2725 118.636H53.1816V122.727H57.2725V118.636Z" fill="#1C195B"/>
<path d="M61.3639 118.636H57.2729V122.727H61.3639V118.636Z" fill="#1C195B"/>
<path d="M69.5455 118.636H65.4546V122.727H69.5455V118.636Z" fill="#1C195B"/>
<path d="M77.7271 118.636H73.6362V122.727H77.7271V118.636Z" fill="#1C195B"/>
<path d="M81.818 118.636H77.7271V122.727H81.818V118.636Z" fill="#1C195B"/>
<path d="M85.9093 118.636H81.8184V122.727H85.9093V118.636Z" fill="#1C195B"/>
<path d="M102.273 118.636H98.1816V122.727H102.273V118.636Z" fill="#1C195B"/>
<path d="M110.455 118.636H106.364V122.727H110.455V118.636Z" fill="#1C195B"/>
<path d="M118.636 118.636H114.545V122.727H118.636V118.636Z" fill="#1C195B"/>
<path d="M126.818 118.636H122.727V122.727H126.818V118.636Z" fill="#1C195B"/>
<path d="M45.0001 122.727H40.9092V126.818H45.0001V122.727Z" fill="#1C195B"/>
<path d="M49.0909 122.727H45V126.818H49.0909V122.727Z" fill="#1C195B"/>
<path d="M53.1817 122.727H49.0908V126.818H53.1817V122.727Z" fill="#1C195B"/>
<path d="M57.2725 122.727H53.1816V126.818H57.2725V122.727Z" fill="#1C195B"/>
<path d="M69.5455 122.727H65.4546V126.818H69.5455V122.727Z" fill="#1C195B"/>
<path d="M73.6363 122.727H69.5454V126.818H73.6363V122.727Z" fill="#1C195B"/>
<path d="M81.818 122.727H77.7271V126.818H81.818V122.727Z" fill="#1C195B"/>
<path d="M90.0001 122.727H85.9092V126.818H90.0001V122.727Z" fill="#1C195B"/>
<path d="M94.0909 122.727H90V126.818H94.0909V122.727Z" fill="#1C195B"/>
<path d="M102.273 122.727H98.1816V126.818H102.273V122.727Z" fill="#1C195B"/>
<path d="M110.455 122.727H106.364V126.818H110.455V122.727Z" fill="#1C195B"/>
<path d="M114.545 122.727H110.455V126.818H114.545V122.727Z" fill="#1C195B"/>
<path d="M32.5225 8.18182H12.4771H8.18164V12.4773V32.5227V36.8182H12.4771H32.5225H36.818V32.5227V12.4773V8.18182H32.5225ZM32.5225 32.5227H12.4771V12.4773H32.5225V32.5227Z" fill="#1C195B"/>
<path d="M122.523 8.18182H102.477H98.1816V12.4773V32.5227V36.8182H102.477H122.523H126.818V32.5227V12.4773V8.18182H122.523ZM122.523 32.5227H102.477V12.4773H122.523V32.5227Z" fill="#1C195B"/>
<path d="M32.5225 98.1818H12.4771H8.18164V102.477V122.523V126.818H12.4771H32.5225H36.818V122.523V102.477V98.1818H32.5225ZM32.5225 122.523H12.4771V102.477H32.5225V122.523Z" fill="#1C195B"/>
<path d="M28.6365 16.3636H16.3638V28.6364H28.6365V16.3636Z" fill="#1C195B"/>
<path d="M118.636 16.3636H106.364V28.6364H118.636V16.3636Z" fill="#1C195B"/>
<path d="M28.6365 106.364H16.3638V118.636H28.6365V106.364Z" fill="#1C195B"/>
</svg>
