<svg width="22" height="22" viewBox="0 0 22 22" fill="none" xmlns="http://www.w3.org/2000/svg">
<g clip-path="url(#clip0_888_1426)">
<path d="M16.9608 16.8722V21.1965C16.9608 21.6832 16.3671 21.9121 16.0371 21.5678L10.9402 16.8722H6.6429C5.30314 16.8722 4.20919 15.7782 4.20919 14.4385V5.07188C4.20919 3.73238 5.30314 2.63843 6.6429 2.63843H18.8548C20.1946 2.63843 21.2885 3.73212 21.2885 5.07188V14.4385C21.2885 15.7782 20.1946 16.8722 18.8548 16.8722H16.9608ZM8.27316 8.48026C8.78064 8.48026 9.19197 8.89159 9.19197 9.39907C9.19197 9.90654 8.78064 10.3179 8.27316 10.3179C7.76569 10.3179 7.35435 9.90654 7.35435 9.39907C7.35435 8.89159 7.76569 8.48026 8.27316 8.48026ZM17.2245 8.48026C17.732 8.48026 18.1434 8.89159 18.1434 9.39907C18.1434 9.90654 17.732 10.3179 17.2245 10.3179C16.7171 10.3179 16.3057 9.90654 16.3057 9.39907C16.3057 8.89159 16.7171 8.48026 17.2245 8.48026ZM14.2408 8.48026C14.7482 8.48026 15.1596 8.89159 15.1596 9.39907C15.1596 9.90654 14.7482 10.3179 14.2408 10.3179C13.7333 10.3179 13.3219 9.90654 13.3219 9.39907C13.3219 8.89159 13.7333 8.48026 14.2408 8.48026ZM11.257 8.48026C11.7644 8.48026 12.1758 8.89159 12.1758 9.39907C12.1758 9.90654 11.7644 10.3179 11.257 10.3179C10.7495 10.3179 10.3381 9.90654 10.3381 9.39907C10.3381 8.89159 10.7495 8.48026 11.257 8.48026ZM3.14513 13.4274C3.85087 13.4274 3.85087 14.5009 3.14513 14.5009C1.80537 14.5009 0.711426 13.4069 0.711426 12.0672V2.70053C0.711426 1.36104 1.80537 0.26709 3.14513 0.26709H15.3573C16.063 0.26709 16.063 1.34025 15.3573 1.34025H3.14513C2.39808 1.34025 1.78484 1.95348 1.78484 2.70053V12.0672C1.78484 12.8142 2.39808 13.4274 3.14513 13.4274ZM15.8876 19.974V16.3354C15.8876 16.0391 16.128 15.7988 16.4242 15.7988H18.8548C19.6019 15.7988 20.2154 15.1855 20.2154 14.4385V5.07188C20.2154 4.32482 19.6019 3.71159 18.8548 3.71159H6.6429C5.89559 3.71159 5.28235 4.32482 5.28235 5.07188V14.4385C5.28235 15.1855 5.89559 15.7988 6.6429 15.7988L11.1481 15.8001C11.2777 15.8001 11.4079 15.8466 11.5108 15.9414L15.8876 19.974Z" fill="#FFE70C"/>
</g>
<defs>
<clipPath id="clip0_888_1426">
<rect width="22" height="22" fill="white"/>
</clipPath>
</defs>
</svg>
