<svg width="22" height="22" viewBox="0 0 22 22" fill="none" xmlns="http://www.w3.org/2000/svg">
<path d="M9.24013 7.62667C9.3868 7.99333 8.65346 8.8 8.87346 9.02C9.1668 9.31333 9.97346 8.50667 10.2668 8.65333C10.6335 8.8 10.6335 9.9 11.0001 9.9C11.3668 9.9 11.4401 8.8 11.7335 8.65333C12.1001 8.50667 12.9068 9.24 13.1268 9.02C13.4201 8.72667 12.6135 7.92 12.7601 7.62667C12.9068 7.26 14.0068 7.26 14.0068 6.89333C14.0068 6.52667 12.9068 6.45333 12.7601 6.16C12.6135 5.79333 13.3468 4.98667 13.1268 4.76667C12.8335 4.47333 12.0268 5.28 11.7335 5.13333C11.3668 4.98667 11.3668 3.88667 11.0001 3.88667C10.6335 3.88667 10.5601 4.98667 10.2668 5.13333C9.90013 5.28 9.09346 4.54667 8.87346 4.76667C8.58013 5.06 9.3868 5.86667 9.24013 6.16C9.09346 6.52667 7.99346 6.52667 7.99346 6.89333C7.99346 7.26 9.09346 7.26 9.24013 7.62667ZM17.6001 2.93333V0.586667C17.6001 0.293333 17.3801 0 17.0135 0H4.91346C4.62013 0.0733333 4.40013 0.293333 4.40013 0.586667V2.93333C3.37346 2.93333 1.4668 3.22667 1.4668 5.35333C1.4668 6.96667 2.64013 9.38667 4.40013 9.68C4.69346 12.9067 7.04013 15.1067 9.1668 15.1067H9.46013V17.82H7.92013C7.1868 17.82 6.5268 18.4067 6.5268 19.2133V21.4133C6.5268 21.7067 6.7468 22 7.11346 22H14.9601C15.2535 22 15.5468 21.78 15.5468 21.4133V19.2133C15.5468 18.48 14.9601 17.82 14.1535 17.82H12.6135V15.1067C15.5468 14.96 17.3801 12.3933 17.6735 9.75333C19.4335 9.53333 20.6068 7.04 20.6068 5.42667C20.5335 3.22667 18.6268 2.93333 17.6001 2.93333ZM4.40013 8.58C3.4468 8.21333 2.5668 6.6 2.5668 5.35333C2.5668 4.62 2.93346 4.10667 4.40013 4.03333V8.58ZM14.0801 18.92C14.2268 18.92 14.3735 19.0667 14.3735 19.2133V20.9H7.6268V19.2133C7.6268 19.0667 7.77346 18.92 7.92013 18.92H14.0801ZM10.5601 17.82V15.1067H11.4401V17.82H10.5601ZM16.5001 9.02C16.5001 11.0733 15.1801 14.0067 12.3201 14.0067H9.1668C7.4068 14.0067 5.4268 11.9533 5.4268 9.02V1.17333H16.5001V9.02ZM17.6001 8.58V4.03333C19.0668 4.10667 19.3601 4.62 19.3601 5.42667C19.4335 6.67333 18.5535 8.28667 17.6001 8.58Z" fill="#FFE70C"/>
</svg>
