<svg width="22" height="23" viewBox="0 0 22 23" fill="none" xmlns="http://www.w3.org/2000/svg">
<path fill-rule="evenodd" clip-rule="evenodd" d="M21.0835 17.394H0.916829C0.663371 17.394 0.458496 17.1892 0.458496 16.9357V4.10238C0.458496 3.84938 0.663371 3.64404 0.916829 3.64404H21.0835C21.337 3.64404 21.5418 3.84938 21.5418 4.10238V16.9357C21.5418 17.1892 21.337 17.394 21.0835 17.394ZM20.6252 4.56071H1.37516V16.4774H20.6252V4.56071ZM9.62516 7.76904C9.72325 7.76904 9.8085 7.80663 9.8832 7.85888L13.4449 10.0919C13.6218 10.1547 13.7502 10.3201 13.7502 10.519C13.7502 10.668 13.6745 10.7945 13.5645 10.8779L9.90979 13.1609C9.83095 13.225 9.73425 13.269 9.62516 13.269C9.3717 13.269 9.16683 13.0642 9.16683 12.8107V8.22738C9.16683 7.97438 9.3717 7.76904 9.62516 7.76904ZM6.87516 18.3107H15.1252C15.3786 18.3107 15.5835 18.5156 15.5835 18.769C15.5835 19.0225 15.3786 19.2274 15.1252 19.2274H6.87516C6.6217 19.2274 6.41683 19.0225 6.41683 18.769C6.41683 18.5156 6.6217 18.3107 6.87516 18.3107Z" fill="#FFE70C"/>
</svg>
