<svg width="24" height="24" viewBox="0 0 24 24" fill="none" xmlns="http://www.w3.org/2000/svg">
<path d="M11.9995 6V18M14.9995 9.5C14.9995 8.12 13.6565 7 11.9995 7C10.3425 7 8.99951 8.12 8.99951 9.5C8.99951 10.88 10.3425 12 11.9995 12C13.6565 12 14.9995 13.12 14.9995 14.5C14.9995 15.88 13.6565 17 11.9995 17C10.3425 17 8.99951 15.88 8.99951 14.5" stroke="#2943DE" stroke-width="1.83333" stroke-linecap="round"/>
<path d="M6.99951 3.33801C8.51903 2.45891 10.244 1.99731 11.9995 2.00001C17.5225 2.00001 21.9995 6.47701 21.9995 12C21.9995 17.523 17.5225 22 11.9995 22C6.47651 22 1.99951 17.523 1.99951 12C1.99951 10.179 2.48651 8.47001 3.33751 7.00001" stroke="#2943DE" stroke-width="1.83333" stroke-linecap="round"/>
</svg>
