<svg width="572" height="191" viewBox="0 0 572 191" fill="none" xmlns="http://www.w3.org/2000/svg">
<mask id="path-1-inside-1_888_1233" fill="white">
<path fill-rule="evenodd" clip-rule="evenodd" d="M10 0C4.47715 0 0 4.47715 0 10V65.3566L14.0721 72.312C14.7542 72.6491 15.1859 73.3441 15.1859 74.1049V118.042C15.1859 118.818 14.7369 119.524 14.034 119.853L0 126.424V181C0 186.523 4.47715 191 10 191H562C567.523 191 572 186.523 572 181V10C572 4.47715 567.523 0 562 0H10Z"/>
</mask>
<path fill-rule="evenodd" clip-rule="evenodd" d="M10 0C4.47715 0 0 4.47715 0 10V65.3566L14.0721 72.312C14.7542 72.6491 15.1859 73.3441 15.1859 74.1049V118.042C15.1859 118.818 14.7369 119.524 14.034 119.853L0 126.424V181C0 186.523 4.47715 191 10 191H562C567.523 191 572 186.523 572 181V10C572 4.47715 567.523 0 562 0H10Z" fill="white"/>
<path d="M0 65.3566H-1V65.9778L-0.443099 66.2531L0 65.3566ZM14.0721 72.312L13.629 73.2085L13.629 73.2085L14.0721 72.312ZM14.034 119.853L13.61 118.947H13.61L14.034 119.853ZM0 126.424L-0.424067 125.519L-1 125.788V126.424H0ZM1 10C1 5.02943 5.02944 1 10 1V-1C3.92487 -1 -1 3.92486 -1 10H1ZM1 65.3566V10H-1V65.3566H1ZM-0.443099 66.2531L13.629 73.2085L14.5152 71.4155L0.443099 64.4601L-0.443099 66.2531ZM13.629 73.2085C13.97 73.377 14.1859 73.7245 14.1859 74.1049H16.1859C16.1859 72.9637 15.5383 71.9212 14.5152 71.4155L13.629 73.2085ZM14.1859 74.1049V118.042H16.1859V74.1049H14.1859ZM14.1859 118.042C14.1859 118.43 13.9614 118.783 13.61 118.947L14.4581 120.758C15.5124 120.265 16.1859 119.206 16.1859 118.042H14.1859ZM13.61 118.947L-0.424067 125.519L0.424067 127.33L14.4581 120.758L13.61 118.947ZM1 181V126.424H-1V181H1ZM10 190C5.02944 190 1 185.971 1 181H-1C-1 187.075 3.92487 192 10 192V190ZM562 190H10V192H562V190ZM571 181C571 185.971 566.971 190 562 190V192C568.075 192 573 187.075 573 181H571ZM571 10V181H573V10H571ZM562 1C566.971 1 571 5.02944 571 10H573C573 3.92487 568.075 -1 562 -1V1ZM10 1H562V-1H10V1Z" fill="#2943DE" mask="url(#path-1-inside-1_888_1233)"/>
</svg>
