<svg width="18" height="22" viewBox="0 0 18 22" fill="none" xmlns="http://www.w3.org/2000/svg">
<path d="M8.99902 11C11.531 11 13.583 8.94799 13.583 6.41699C13.583 3.88499 11.531 1.83301 8.99902 1.83301C6.46802 1.83301 4.41602 3.88499 4.41602 6.41699C4.41602 8.94799 6.46802 11 8.99902 11Z" stroke="#FFE70C" stroke-width="2"/>
<path d="M13.5832 12.833H13.9062C14.5762 12.834 15.2231 13.078 15.7251 13.522C16.2281 13.966 16.5511 14.577 16.6341 15.242L16.9922 18.106C17.0242 18.364 17.0011 18.626 16.9251 18.874C16.8481 19.123 16.7192 19.352 16.5472 19.547C16.3752 19.742 16.1642 19.898 15.9272 20.005C15.6902 20.111 15.4331 20.167 15.1731 20.167H2.82715C2.56715 20.167 2.31016 20.111 2.07316 20.005C1.83616 19.898 1.62415 19.742 1.45215 19.547C1.28015 19.352 1.15117 19.123 1.07517 18.874C0.998171 18.626 0.975148 18.364 1.00715 18.106L1.36515 15.242C1.44815 14.577 1.77115 13.965 2.27415 13.521C2.77715 13.078 3.42416 12.833 4.09516 12.833H4.41614" stroke="#FFE70C" stroke-width="2" stroke-linecap="round" stroke-linejoin="round"/>
</svg>
