<svg width="34" height="34" viewBox="0 0 34 34" fill="none" xmlns="http://www.w3.org/2000/svg">
<path d="M22.7604 12.743C22.8619 12.645 22.9429 12.5278 22.9987 12.3982C23.0544 12.2686 23.0838 12.1292 23.0851 11.9881C23.0864 11.8471 23.0596 11.7071 23.0062 11.5765C22.9528 11.4459 22.874 11.3273 22.7743 11.2275C22.6746 11.1276 22.556 11.0487 22.4254 10.9952C22.2949 10.9417 22.155 10.9148 22.0139 10.9159C21.8728 10.9171 21.7334 10.9463 21.6037 11.002C21.4741 11.0576 21.3568 11.1385 21.2587 11.2399L17.0002 15.497L12.7432 11.2399C12.6459 11.1355 12.5286 11.0518 12.3983 10.9937C12.2679 10.9356 12.1272 10.9044 11.9846 10.9019C11.8419 10.8994 11.7002 10.9256 11.5679 10.9791C11.4356 11.0325 11.3154 11.112 11.2145 11.2129C11.1136 11.3138 11.0341 11.434 10.9807 11.5663C10.9272 11.6986 10.901 11.8403 10.9035 11.983C10.906 12.1256 10.9372 12.2663 10.9953 12.3967C11.0534 12.527 11.1371 12.6443 11.2415 12.7416L15.4957 17.0001L11.2387 21.2572C11.051 21.4586 10.9488 21.725 10.9537 22.0002C10.9585 22.2755 11.07 22.5381 11.2647 22.7328C11.4594 22.9275 11.722 23.039 11.9972 23.0438C12.2725 23.0487 12.5389 22.9465 12.7403 22.7588L17.0002 18.5017L21.2573 22.7602C21.4587 22.9479 21.7251 23.0501 22.0004 23.0452C22.2757 23.0404 22.5383 22.9289 22.733 22.7342C22.9276 22.5395 23.0391 22.2769 23.044 22.0016C23.0488 21.7264 22.9467 21.46 22.759 21.2586L18.5047 17.0001L22.7604 12.743Z" fill="white"/>
</svg>
