<svg width="22" height="22" viewBox="0 0 22 22" fill="none" xmlns="http://www.w3.org/2000/svg">
<path d="M5.95833 12.375H12.375V11.4583H5.95833V12.375ZM5.95833 9.625H16.0417V8.70833H5.95833V9.625ZM5.95833 6.875H16.0417V5.95833H5.95833V6.875ZM2.75 18.4039V4.23133C2.75 3.80906 2.89147 3.45675 3.17442 3.17442C3.45736 2.89208 3.80936 2.75061 4.23042 2.75H17.7696C18.1913 2.75 18.5433 2.89147 18.8256 3.17442C19.1079 3.45736 19.2494 3.80967 19.25 4.23133V14.1029C19.25 14.5246 19.1085 14.8769 18.8256 15.1598C18.5426 15.4428 18.1906 15.5839 17.7696 15.5833H5.57058L2.75 18.4039ZM5.17917 14.6667H17.7696C17.9101 14.6667 18.0394 14.608 18.1573 14.4907C18.2753 14.3733 18.3339 14.2441 18.3333 14.1029V4.23042C18.3333 4.08986 18.2747 3.96061 18.1573 3.84267C18.04 3.72472 17.9108 3.66606 17.7696 3.66667H4.23042C4.08986 3.66667 3.96061 3.72533 3.84267 3.84267C3.72472 3.96 3.66606 4.08925 3.66667 4.23042V16.1746L5.17917 14.6667Z" fill="#FFE70C"/>
</svg>
