<svg width="22" height="20" viewBox="0 0 22 20" fill="none" xmlns="http://www.w3.org/2000/svg">
<path d="M22 4.5C22 3.533 21.342 2.70701 20.401 2.49001L11.454 0.425003C11.305 0.391003 11.152 0.375 11 0.375C10.848 0.375 10.695 0.391002 10.536 0.427002L1.599 2.49001C0.656999 2.70701 0 3.533 0 4.5C0 5.467 0.657992 6.29299 1.59799 6.50999L3.43799 6.93401V12.75C3.43799 14.575 5.526 16.188 11 16.188C16.474 16.188 18.562 14.575 18.562 12.75V6.93401L20.401 6.50999C21.342 6.29299 22 5.467 22 4.5ZM17.188 12.75C17.188 13.51 15.125 14.812 11 14.812C6.875 14.812 4.81201 13.51 4.81201 12.75V7.252L10.545 8.575C10.695 8.609 10.848 8.625 11 8.625C11.152 8.625 11.305 8.608 11.463 8.573L17.188 7.252V12.75ZM11.155 7.233C11.103 7.244 11.052 7.25 11 7.25C10.948 7.25 10.896 7.244 10.845 7.233L1.90799 5.17C1.59599 5.098 1.375 4.82 1.375 4.5C1.375 4.18 1.59599 3.902 1.90799 3.83L10.845 1.767C10.896 1.756 10.948 1.75 11 1.75C11.052 1.75 11.104 1.756 11.155 1.767L20.092 3.83C20.404 3.902 20.625 4.18 20.625 4.5C20.625 4.82 20.404 5.098 20.092 5.17L11.155 7.233Z" fill="#FFE70C"/>
<path d="M19.938 7.938V14.125C19.938 14.505 20.245 14.812 20.625 14.812C21.005 14.812 21.312 14.505 21.312 14.125V7.938C21.312 7.557 21.005 7.25 20.625 7.25C20.245 7.25 19.938 7.557 19.938 7.938Z" fill="#FFE70C"/>
<path d="M20.625 15.5C19.865 15.5 19.25 17.491 19.25 18.25C19.25 19.009 19.865 19.625 20.625 19.625C21.384 19.625 22 19.009 22 18.25C22 17.491 21.384 15.5 20.625 15.5Z" fill="#FFE70C"/>
</svg>
