<svg width="19" height="19" viewBox="0 0 19 19" fill="none" xmlns="http://www.w3.org/2000/svg">
<path d="M5.53188 4.77186C5.47963 4.04353 5.9285 2.60111 7.16034 1.99865C7.66859 1.6899 9.06271 1.21174 10.3959 2.06357C11.71 2.90274 11.7987 4.13932 11.881 4.76315" stroke="#FFE70C" stroke-width="1.5" stroke-linecap="round" stroke-linejoin="round"/>
<path d="M13.5896 17.418C13.5532 16.1229 13.6347 15.9946 13.7297 15.7065C13.8247 15.4183 14.4866 14.3796 14.7209 13.637C15.4793 11.2351 14.7724 10.7237 13.8303 10.0429C12.7853 9.28762 10.9059 8.91237 9.92816 8.99549V5.16462C9.92816 4.51308 9.30354 3.97949 8.63616 3.97949C7.96879 3.97949 7.35604 4.51308 7.35604 5.16462V11.745L5.99437 10.5654C5.55183 10.0951 4.84012 10.0476 4.35404 10.4743C4.13246 10.6666 3.99292 10.9364 3.96407 11.2284C3.93521 11.5203 4.01923 11.8123 4.19887 12.0442L5.09425 13.2032M5.09425 13.2032C5.28741 13.4486 5.50275 13.7257 5.74816 14.0503M5.09425 13.2032L5.74816 14.0503M5.09425 13.2032C4.69841 12.7013 4.39995 12.3363 4.14266 11.9737M7.31883 17.418V16.7427C7.34812 15.9091 6.72745 15.3652 5.91837 14.2775L5.74816 14.0503M5.74816 14.0503L6.55804 15.1" stroke="#FFE70C" stroke-width="1.5" stroke-linecap="round" stroke-linejoin="round"/>
</svg>
