<svg width="298" height="218" viewBox="0 0 298 218" fill="none" xmlns="http://www.w3.org/2000/svg">
<path fill-rule="evenodd" clip-rule="evenodd" d="M105.43 168.114L119 159L106.129 173.361L106 173.325V177.76C106 180.102 104.102 182 101.76 182H12.24C9.89836 182 8.00006 180.102 8.00006 177.76V170.24C8.00006 167.898 9.89836 166 12.24 166H101.76C103.327 166 104.696 166.85 105.43 168.114Z" fill="#140D83"/>
<path d="M13.5902 176.389V169.389H16.1252C16.6218 169.389 17.0602 169.476 17.4402 169.649C17.8235 169.819 18.1235 170.066 18.3402 170.389C18.5568 170.709 18.6652 171.094 18.6652 171.544C18.6652 172.008 18.5652 172.399 18.3652 172.719C18.1652 173.036 17.8735 173.278 17.4902 173.444C17.1102 173.608 16.6468 173.689 16.1002 173.689H14.7102V176.389H13.5902ZM14.7102 172.729H16.1152C16.5685 172.729 16.9202 172.634 17.1702 172.444C17.4202 172.251 17.5452 171.959 17.5452 171.569C17.5452 171.183 17.4168 170.886 17.1602 170.679C16.9035 170.473 16.5585 170.369 16.1252 170.369H14.7102V172.729ZM19.7831 176.389V171.439H20.8831V172.124C21.0697 171.814 21.2964 171.598 21.5631 171.474C21.8297 171.348 22.1164 171.284 22.4231 171.284C22.5231 171.284 22.6181 171.289 22.7081 171.299C22.7981 171.309 22.8847 171.324 22.9681 171.344L22.8231 172.479C22.7231 172.449 22.6214 172.426 22.5181 172.409C22.4147 172.393 22.3114 172.384 22.2081 172.384C21.8247 172.384 21.5081 172.503 21.2581 172.739C21.0081 172.973 20.8831 173.291 20.8831 173.694V176.389H19.7831ZM26.042 176.539C25.5253 176.539 25.0636 176.421 24.657 176.184C24.2536 175.944 23.937 175.626 23.707 175.229C23.477 174.829 23.362 174.391 23.362 173.914C23.362 173.561 23.427 173.228 23.557 172.914C23.6903 172.598 23.877 172.318 24.117 172.074C24.3603 171.831 24.6453 171.639 24.972 171.499C25.2986 171.359 25.657 171.289 26.047 171.289C26.5636 171.289 27.0236 171.409 27.427 171.649C27.8336 171.886 28.152 172.204 28.382 172.604C28.612 173.001 28.727 173.438 28.727 173.914C28.727 174.264 28.6603 174.598 28.527 174.914C28.397 175.231 28.212 175.511 27.972 175.754C27.732 175.998 27.4486 176.189 27.122 176.329C26.7953 176.469 26.4353 176.539 26.042 176.539ZM26.042 175.564C26.3486 175.564 26.6203 175.498 26.857 175.364C27.097 175.228 27.2853 175.036 27.422 174.789C27.5586 174.543 27.627 174.251 27.627 173.914C27.627 173.578 27.5586 173.286 27.422 173.039C27.2853 172.789 27.097 172.598 26.857 172.464C26.6203 172.331 26.3486 172.264 26.042 172.264C25.7353 172.264 25.462 172.331 25.222 172.464C24.9853 172.598 24.7986 172.789 24.662 173.039C24.5286 173.286 24.462 173.578 24.462 173.914C24.462 174.251 24.5303 174.543 24.667 174.789C24.8036 175.036 24.9903 175.228 25.227 175.364C25.467 175.498 25.7386 175.564 26.042 175.564ZM29.4469 178.639C29.2302 178.639 29.0402 178.618 28.8769 178.574C28.7136 178.534 28.5619 178.478 28.4219 178.404L28.6769 177.559C28.7602 177.599 28.8436 177.631 28.9269 177.654C29.0102 177.681 29.1102 177.694 29.2269 177.694C29.4469 177.694 29.6019 177.633 29.6919 177.509C29.7852 177.386 29.8319 177.203 29.8319 176.959V171.439H30.9319V177.064C30.9319 177.384 30.8702 177.661 30.7469 177.894C30.6269 178.131 30.4552 178.314 30.2319 178.444C30.0086 178.574 29.7469 178.639 29.4469 178.639ZM30.3819 170.554C30.1852 170.554 30.0152 170.491 29.8719 170.364C29.7286 170.238 29.6569 170.071 29.6569 169.864C29.6569 169.661 29.7286 169.496 29.8719 169.369C30.0152 169.239 30.1852 169.174 30.3819 169.174C30.5786 169.174 30.7486 169.239 30.8919 169.369C31.0352 169.496 31.1069 169.661 31.1069 169.864C31.1069 170.071 31.0352 170.238 30.8919 170.364C30.7486 170.491 30.5786 170.554 30.3819 170.554ZM34.7188 176.539C34.1855 176.539 33.7172 176.431 33.3138 176.214C32.9105 175.994 32.5955 175.688 32.3688 175.294C32.1455 174.901 32.0338 174.444 32.0338 173.924C32.0338 173.544 32.0988 173.194 32.2288 172.874C32.3588 172.551 32.5422 172.271 32.7788 172.034C33.0155 171.798 33.2922 171.614 33.6088 171.484C33.9288 171.354 34.2772 171.289 34.6538 171.289C35.0638 171.289 35.4288 171.363 35.7488 171.509C36.0688 171.653 36.3338 171.854 36.5438 172.114C36.7572 172.374 36.9072 172.679 36.9938 173.029C37.0838 173.376 37.0988 173.753 37.0388 174.159H33.0888C33.0822 174.456 33.1472 174.716 33.2838 174.939C33.4205 175.159 33.6155 175.331 33.8688 175.454C34.1255 175.578 34.4272 175.639 34.7738 175.639C35.0538 175.639 35.3238 175.598 35.5838 175.514C35.8472 175.428 36.0855 175.301 36.2988 175.134L36.7238 175.924C36.5638 176.054 36.3705 176.166 36.1438 176.259C35.9172 176.349 35.6805 176.418 35.4338 176.464C35.1872 176.514 34.9488 176.539 34.7188 176.539ZM33.1538 173.349H35.9588C35.9488 172.976 35.8288 172.683 35.5988 172.469C35.3722 172.256 35.0488 172.149 34.6288 172.149C34.2222 172.149 33.8838 172.256 33.6138 172.469C33.3472 172.683 33.1938 172.976 33.1538 173.349ZM40.5003 176.539C39.9803 176.539 39.517 176.426 39.1103 176.199C38.7037 175.969 38.3837 175.658 38.1503 175.264C37.9203 174.868 37.8053 174.418 37.8053 173.914C37.8053 173.534 37.8737 173.186 38.0103 172.869C38.147 172.549 38.3403 172.271 38.5903 172.034C38.8403 171.798 39.1337 171.614 39.4703 171.484C39.8103 171.354 40.1787 171.289 40.5753 171.289C40.9087 171.289 41.217 171.334 41.5003 171.424C41.787 171.511 42.0503 171.646 42.2903 171.829L41.7603 172.669C41.607 172.533 41.4303 172.431 41.2303 172.364C41.0337 172.298 40.8237 172.264 40.6003 172.264C40.2537 172.264 39.9553 172.329 39.7053 172.459C39.4553 172.589 39.2603 172.778 39.1203 173.024C38.9837 173.268 38.9153 173.563 38.9153 173.909C38.9153 174.426 39.0653 174.831 39.3653 175.124C39.6687 175.418 40.0803 175.564 40.6003 175.564C40.847 175.564 41.0803 175.519 41.3003 175.429C41.5203 175.336 41.7037 175.214 41.8503 175.064L42.3753 175.899C42.112 176.099 41.8187 176.256 41.4953 176.369C41.172 176.483 40.8403 176.539 40.5003 176.539ZM45.4666 176.539C44.9832 176.539 44.5966 176.399 44.3066 176.119C44.0166 175.839 43.8716 175.411 43.8716 174.834V169.994H44.9716V171.439H46.3466V172.349H44.9716V174.594C44.9716 174.941 45.0366 175.186 45.1666 175.329C45.2999 175.469 45.4866 175.539 45.7266 175.539C45.8432 175.539 45.9532 175.526 46.0566 175.499C46.1599 175.473 46.2532 175.438 46.3366 175.394L46.5316 176.284C46.3882 176.358 46.2232 176.418 46.0366 176.464C45.8532 176.514 45.6632 176.539 45.4666 176.539ZM42.7866 172.349V171.439H44.0166V172.349H42.7866ZM50.1346 176.389V171.439H51.2346V172.119C51.368 171.926 51.5213 171.769 51.6946 171.649C51.868 171.526 52.0513 171.436 52.2446 171.379C52.438 171.319 52.6346 171.289 52.8346 171.289C53.238 171.289 53.573 171.378 53.8396 171.554C54.1096 171.731 54.2996 171.958 54.4096 172.234C54.6563 171.874 54.943 171.628 55.2696 171.494C55.5963 171.358 55.9246 171.289 56.2546 171.289C56.7113 171.289 57.0763 171.379 57.3496 171.559C57.623 171.739 57.8196 171.971 57.9396 172.254C58.063 172.538 58.1246 172.829 58.1246 173.129V176.389H57.0246V173.449C57.0246 173.106 56.9296 172.829 56.7396 172.619C56.553 172.406 56.2796 172.299 55.9196 172.299C55.683 172.299 55.4713 172.351 55.2846 172.454C55.098 172.558 54.9496 172.701 54.8396 172.884C54.733 173.064 54.6796 173.273 54.6796 173.509V176.389H53.5796V173.449C53.5796 173.106 53.4863 172.829 53.2996 172.619C53.113 172.406 52.838 172.299 52.4746 172.299C52.2413 172.299 52.0296 172.351 51.8396 172.454C51.653 172.558 51.5046 172.701 51.3946 172.884C51.288 173.064 51.2346 173.273 51.2346 173.509V176.389H50.1346ZM60.9823 176.539C60.639 176.539 60.3373 176.476 60.0773 176.349C59.8173 176.219 59.614 176.038 59.4673 175.804C59.324 175.568 59.2523 175.289 59.2523 174.969C59.2523 174.699 59.3206 174.456 59.4573 174.239C59.594 174.019 59.8056 173.838 60.0923 173.694C60.3823 173.551 60.754 173.456 61.2073 173.409C61.6606 173.359 62.2056 173.366 62.8423 173.429L62.8623 174.189C62.409 174.126 62.019 174.099 61.6923 174.109C61.3656 174.119 61.0973 174.161 60.8873 174.234C60.6806 174.304 60.5273 174.399 60.4273 174.519C60.3306 174.636 60.2823 174.771 60.2823 174.924C60.2823 175.164 60.3673 175.349 60.5373 175.479C60.7106 175.609 60.9473 175.674 61.2473 175.674C61.504 175.674 61.734 175.628 61.9373 175.534C62.1406 175.441 62.3006 175.309 62.4173 175.139C62.5373 174.969 62.5973 174.769 62.5973 174.539V173.224C62.5973 173.004 62.5506 172.814 62.4573 172.654C62.364 172.491 62.2223 172.364 62.0323 172.274C61.8423 172.184 61.6056 172.139 61.3223 172.139C61.0623 172.139 60.8056 172.179 60.5523 172.259C60.299 172.336 60.0573 172.458 59.8273 172.624L59.5173 171.814C59.8273 171.604 60.1506 171.456 60.4873 171.369C60.824 171.283 61.1473 171.239 61.4573 171.239C61.9173 171.239 62.3106 171.313 62.6373 171.459C62.9673 171.603 63.2206 171.821 63.3973 172.114C63.574 172.404 63.6623 172.771 63.6623 173.214V176.389H62.6723V175.804C62.5056 176.041 62.274 176.223 61.9773 176.349C61.6806 176.476 61.349 176.539 60.9823 176.539ZM65.1249 176.389V171.439H66.2249V172.124C66.4115 171.814 66.6382 171.598 66.9049 171.474C67.1715 171.348 67.4582 171.284 67.7649 171.284C67.8649 171.284 67.9599 171.289 68.0499 171.299C68.1399 171.309 68.2265 171.324 68.3099 171.344L68.1649 172.479C68.0649 172.449 67.9632 172.426 67.8599 172.409C67.7565 172.393 67.6532 172.384 67.5499 172.384C67.1665 172.384 66.8499 172.503 66.5999 172.739C66.3499 172.973 66.2249 173.291 66.2249 173.694V176.389H65.1249ZM69.2264 176.389V169.189H70.3264V173.449L72.2764 171.439H73.5764L71.8264 173.334L73.8314 176.389H72.5164L71.0264 174.049L70.3264 174.759V176.389H69.2264ZM76.9649 176.539C76.4316 176.539 75.9633 176.431 75.5599 176.214C75.1566 175.994 74.8416 175.688 74.6149 175.294C74.3916 174.901 74.2799 174.444 74.2799 173.924C74.2799 173.544 74.3449 173.194 74.4749 172.874C74.6049 172.551 74.7883 172.271 75.0249 172.034C75.2616 171.798 75.5383 171.614 75.8549 171.484C76.1749 171.354 76.5233 171.289 76.8999 171.289C77.3099 171.289 77.6749 171.363 77.9949 171.509C78.3149 171.653 78.5799 171.854 78.7899 172.114C79.0033 172.374 79.1533 172.679 79.2399 173.029C79.3299 173.376 79.3449 173.753 79.2849 174.159H75.3349C75.3283 174.456 75.3933 174.716 75.5299 174.939C75.6666 175.159 75.8616 175.331 76.1149 175.454C76.3716 175.578 76.6733 175.639 77.0199 175.639C77.2999 175.639 77.5699 175.598 77.8299 175.514C78.0933 175.428 78.3316 175.301 78.5449 175.134L78.9699 175.924C78.8099 176.054 78.6166 176.166 78.3899 176.259C78.1633 176.349 77.9266 176.418 77.6799 176.464C77.4333 176.514 77.1949 176.539 76.9649 176.539ZM75.3999 173.349H78.2049C78.1949 172.976 78.0749 172.683 77.8449 172.469C77.6183 172.256 77.2949 172.149 76.8749 172.149C76.4683 172.149 76.1299 172.256 75.8599 172.469C75.5933 172.683 75.4399 172.976 75.3999 173.349ZM82.4588 176.539C81.9754 176.539 81.5888 176.399 81.2988 176.119C81.0088 175.839 80.8638 175.411 80.8638 174.834V169.994H81.9638V171.439H83.3388V172.349H81.9638V174.594C81.9638 174.941 82.0288 175.186 82.1588 175.329C82.2921 175.469 82.4788 175.539 82.7188 175.539C82.8354 175.539 82.9454 175.526 83.0488 175.499C83.1521 175.473 83.2454 175.438 83.3288 175.394L83.5238 176.284C83.3804 176.358 83.2154 176.418 83.0288 176.464C82.8454 176.514 82.6554 176.539 82.4588 176.539ZM79.7788 172.349V171.439H81.0088V172.349H79.7788ZM84.6756 176.389V171.439H85.7756V176.389H84.6756ZM85.2256 170.554C85.029 170.554 84.859 170.491 84.7156 170.364C84.5723 170.238 84.5006 170.071 84.5006 169.864C84.5006 169.661 84.5723 169.496 84.7156 169.369C84.859 169.239 85.029 169.174 85.2256 169.174C85.4223 169.174 85.5923 169.239 85.7356 169.369C85.879 169.496 85.9506 169.661 85.9506 169.864C85.9506 170.071 85.879 170.238 85.7356 170.364C85.5923 170.491 85.4223 170.554 85.2256 170.554ZM87.3026 176.389V171.439H88.4026V172.069C88.6093 171.793 88.8493 171.594 89.1226 171.474C89.3959 171.351 89.6793 171.289 89.9726 171.289C90.4259 171.289 90.8009 171.379 91.0976 171.559C91.3943 171.739 91.6143 171.971 91.7576 172.254C91.9043 172.538 91.9776 172.829 91.9776 173.129V176.389H90.8776V173.469C90.8776 173.116 90.7709 172.833 90.5576 172.619C90.3476 172.406 90.0543 172.299 89.6776 172.299C89.4309 172.299 89.2109 172.354 89.0176 172.464C88.8276 172.574 88.6776 172.728 88.5676 172.924C88.4576 173.118 88.4026 173.344 88.4026 173.604V176.389H87.3026ZM95.4049 178.639C95.0349 178.639 94.7016 178.606 94.4049 178.539C94.1083 178.476 93.8549 178.383 93.6449 178.259C93.4383 178.136 93.2799 177.988 93.1699 177.814C93.0599 177.641 93.0049 177.448 93.0049 177.234C93.0049 177.064 93.0499 176.904 93.1399 176.754C93.2333 176.604 93.3699 176.476 93.5499 176.369C93.7333 176.259 93.9566 176.178 94.2199 176.124C94.0233 176.024 93.8766 175.911 93.7799 175.784C93.6866 175.658 93.6399 175.513 93.6399 175.349C93.6399 175.209 93.6799 175.078 93.7599 174.954C93.8433 174.828 93.9599 174.716 94.1099 174.619C94.2633 174.519 94.4433 174.438 94.6499 174.374C94.8566 174.311 95.0849 174.274 95.3349 174.264L95.5749 174.744C95.3683 174.741 95.1916 174.758 95.0449 174.794C94.9016 174.828 94.7899 174.876 94.7099 174.939C94.6333 174.999 94.5949 175.073 94.5949 175.159C94.5949 175.273 94.6599 175.356 94.7899 175.409C94.9199 175.459 95.1033 175.494 95.3399 175.514L96.1899 175.579C96.6066 175.613 96.9616 175.681 97.2549 175.784C97.5516 175.888 97.7783 176.033 97.9349 176.219C98.0949 176.406 98.1749 176.643 98.1749 176.929C98.1749 177.173 98.1083 177.398 97.9749 177.604C97.8449 177.814 97.6566 177.996 97.4099 178.149C97.1666 178.303 96.8749 178.423 96.5349 178.509C96.1949 178.596 95.8183 178.639 95.4049 178.639ZM95.5149 177.879C96.0116 177.879 96.4016 177.804 96.6849 177.654C96.9716 177.508 97.1149 177.316 97.1149 177.079C97.1149 176.899 97.0199 176.759 96.8299 176.659C96.6399 176.559 96.3499 176.496 95.9599 176.469L95.0499 176.399C94.8366 176.416 94.6516 176.456 94.4949 176.519C94.3416 176.583 94.2249 176.664 94.1449 176.764C94.0649 176.864 94.0249 176.978 94.0249 177.104C94.0249 177.258 94.0849 177.393 94.2049 177.509C94.3249 177.626 94.4966 177.716 94.7199 177.779C94.9433 177.846 95.2083 177.879 95.5149 177.879ZM95.4799 174.819C95.0666 174.819 94.6949 174.741 94.3649 174.584C94.0383 174.428 93.7799 174.216 93.5899 173.949C93.3999 173.683 93.3049 173.384 93.3049 173.054C93.3049 172.724 93.3999 172.426 93.5899 172.159C93.7833 171.893 94.0433 171.681 94.3699 171.524C94.6999 171.368 95.0699 171.289 95.4799 171.289C95.8899 171.289 96.2583 171.368 96.5849 171.524C96.9116 171.681 97.1699 171.893 97.3599 172.159C97.5533 172.426 97.6499 172.724 97.6499 173.054C97.6499 173.381 97.5549 173.678 97.3649 173.944C97.1749 174.211 96.9166 174.424 96.5899 174.584C96.2633 174.741 95.8933 174.819 95.4799 174.819ZM95.4799 173.994C95.7066 173.994 95.9083 173.956 96.0849 173.879C96.2616 173.799 96.3999 173.689 96.4999 173.549C96.5999 173.406 96.6499 173.241 96.6499 173.054C96.6499 172.774 96.5399 172.548 96.3199 172.374C96.1033 172.198 95.8233 172.109 95.4799 172.109C95.2499 172.109 95.0466 172.149 94.8699 172.229C94.6966 172.309 94.5599 172.421 94.4599 172.564C94.3599 172.704 94.3099 172.868 94.3099 173.054C94.3099 173.331 94.4183 173.558 94.6349 173.734C94.8549 173.908 95.1366 173.994 95.4799 173.994ZM96.2499 172.309L95.8399 171.544L98.4949 171.439L98.4849 172.349L96.2499 172.309Z" fill="white"/>
<g clip-path="url(#clip0_1146_83)">
<mask id="mask0_1146_83" style="mask-type:luminance" maskUnits="userSpaceOnUse" x="84" y="0" width="172" height="92">
<path d="M255.216 68.8572C250.819 47.5559 238.519 28.71 220.791 16.1094C203.063 3.50873 181.221 -1.91206 159.658 0.937235C138.096 3.78644 118.411 14.6945 104.565 31.4675C90.7178 48.2404 83.7354 69.6342 85.0217 91.3462L170.932 86.2572L255.216 68.8572Z" fill="white"/>
</mask>
<g mask="url(#mask0_1146_83)">
<path d="M255.216 68.8572C250.819 47.5559 238.519 28.71 220.791 16.1094C203.063 3.50873 181.221 -1.91206 159.658 0.937235C138.096 3.78644 118.411 14.6945 104.565 31.4675C90.7178 48.2404 83.7354 69.6342 85.0217 91.3462L170.932 86.2572L255.216 68.8572Z" fill="#4BE05A" stroke="url(#paint0_linear_1146_83)" stroke-width="0.424994"/>
</g>
<mask id="mask1_1146_83" style="mask-type:luminance" maskUnits="userSpaceOnUse" x="171" y="71" width="87" height="85">
<path d="M224.417 155.478C236.762 145.706 246.19 132.733 251.673 117.973C257.157 103.214 258.486 87.2325 255.516 71.7695L171 88.0005L224.417 155.478Z" fill="white"/>
</mask>
<g mask="url(#mask1_1146_83)">
<path d="M224.417 155.478C236.762 145.706 246.19 132.733 251.673 117.973C257.157 103.214 258.486 87.2325 255.516 71.7695L171 88.0005L224.417 155.478Z" fill="#05E9F0" stroke="url(#paint1_linear_1146_83)" stroke-width="0.424994"/>
</g>
<mask id="mask2_1146_83" style="mask-type:luminance" maskUnits="userSpaceOnUse" x="171" y="88" width="49" height="86">
<path d="M179.181 173.672C193.758 172.28 207.738 167.192 219.799 158.889L171 88L179.181 173.672Z" fill="white"/>
</mask>
<g mask="url(#mask2_1146_83)">
<path d="M179.181 173.672C193.758 172.28 207.738 167.192 219.799 158.889L171 88L179.181 173.672Z" fill="#2943DE" stroke="url(#paint2_linear_1146_83)" stroke-width="0.424994"/>
</g>
<mask id="mask3_1146_83" style="mask-type:luminance" maskUnits="userSpaceOnUse" x="135" y="88" width="41" height="87">
<path d="M135.56 166.426C148.198 172.136 162.027 174.708 175.873 173.923L171 88L135.56 166.426Z" fill="white"/>
</mask>
<g mask="url(#mask3_1146_83)">
<path d="M135.56 166.426C148.198 172.136 162.027 174.708 175.873 173.923L171 88L135.56 166.426Z" fill="url(#paint3_linear_1146_83)" stroke="url(#paint4_linear_1146_83)" stroke-width="0.424994"/>
</g>
<mask id="mask4_1146_83" style="mask-type:luminance" maskUnits="userSpaceOnUse" x="101" y="88" width="71" height="77">
<path d="M101.02 138.093C108.945 149.165 119.385 158.199 131.482 164.452L171 88.001L101.02 138.093Z" fill="white"/>
</mask>
<g mask="url(#mask4_1146_83)">
<path d="M101.02 138.093C108.945 149.165 119.385 158.199 131.482 164.452L171 88.001L101.02 138.093Z" fill="#8B86FF" stroke="url(#paint5_linear_1146_83)" stroke-width="0.424994"/>
</g>
<mask id="mask5_1146_83" style="mask-type:luminance" maskUnits="userSpaceOnUse" x="85" y="88" width="86" height="47">
<path d="M85.257 95.394C86.4578 109.318 91.0315 122.74 98.5828 134.5L171 88L85.257 95.394Z" fill="white"/>
</mask>
<g mask="url(#mask5_1146_83)">
<path d="M85.257 95.394C86.4578 109.318 91.0315 122.74 98.5828 134.5L171 88L85.257 95.394Z" fill="#544CF9" stroke="url(#paint6_linear_1146_83)" stroke-width="0.424994"/>
</g>
<path d="M152.484 55.8V54.6L158.484 48.6H159.684V54.6H160.884V55.8H159.684V57H158.484V55.8H152.484ZM158.484 54.6V50.292L154.176 54.6H158.484ZM168.921 54.6V51C168.921 50.34 168.381 49.8 167.721 49.8H164.121C163.461 49.8 162.921 50.34 162.921 51V54.6C162.921 55.26 163.461 55.8 164.121 55.8H167.721C168.381 55.8 168.921 55.26 168.921 54.6ZM170.121 51V54.6C170.121 55.872 169.065 57 167.721 57H164.121C162.837 57 161.721 55.956 161.721 54.6V51C161.721 49.728 162.777 48.6 164.121 48.6H167.721C169.005 48.6 170.085 49.668 170.121 51ZM179.364 48.6V49.572L173.568 57H172.764V56.076L178.608 48.6H179.364ZM173.364 52.2C174.024 52.2 174.564 51.66 174.564 51C174.564 50.34 174.024 49.8 173.364 49.8C172.704 49.8 172.164 50.34 172.164 51C172.164 51.66 172.704 52.2 173.364 52.2ZM175.764 51C175.764 52.272 174.708 53.4 173.364 53.4C172.08 53.4 170.964 52.356 170.964 51C170.964 49.728 172.02 48.6 173.364 48.6C174.648 48.6 175.728 49.668 175.764 51ZM178.764 55.8C179.424 55.8 179.964 55.26 179.964 54.6C179.964 53.94 179.424 53.4 178.764 53.4C178.104 53.4 177.564 53.94 177.564 54.6C177.564 55.26 178.104 55.8 178.764 55.8ZM181.164 54.6C181.164 55.872 180.108 57 178.764 57C177.48 57 176.364 55.956 176.364 54.6C176.364 53.328 177.42 52.2 178.764 52.2C180.048 52.2 181.128 53.268 181.164 54.6Z" fill="#1C195B"/>
<path d="M211.909 106.314V106.814H217.909V107.814H210.909V106.314C210.909 105.254 211.789 104.314 212.909 104.314H215.909C216.459 104.314 216.909 103.864 216.909 103.314V102.814C216.909 102.264 216.459 101.814 215.909 101.814H212.909C212.359 101.814 211.909 102.264 211.909 102.814H210.909C210.909 101.754 211.789 100.814 212.909 100.814H215.909C216.959 100.814 217.909 101.704 217.909 102.814V103.314C217.909 104.374 217.029 105.314 215.909 105.314H212.909C212.359 105.314 211.909 105.764 211.909 106.314ZM224.712 105.814V102.814C224.712 102.264 224.262 101.814 223.712 101.814H220.712C220.162 101.814 219.712 102.264 219.712 102.814V105.814C219.712 106.364 220.162 106.814 220.712 106.814H223.712C224.262 106.814 224.712 106.364 224.712 105.814ZM225.712 102.814V105.814C225.712 106.874 224.832 107.814 223.712 107.814H220.712C219.642 107.814 218.712 106.944 218.712 105.814V102.814C218.712 101.754 219.592 100.814 220.712 100.814H223.712C224.782 100.814 225.682 101.704 225.712 102.814ZM233.415 100.814V101.624L228.585 107.814H227.915V107.044L232.785 100.814H233.415ZM228.415 103.814C228.965 103.814 229.415 103.364 229.415 102.814C229.415 102.264 228.965 101.814 228.415 101.814C227.865 101.814 227.415 102.264 227.415 102.814C227.415 103.364 227.865 103.814 228.415 103.814ZM230.415 102.814C230.415 103.874 229.535 104.814 228.415 104.814C227.345 104.814 226.415 103.944 226.415 102.814C226.415 101.754 227.295 100.814 228.415 100.814C229.485 100.814 230.385 101.704 230.415 102.814ZM232.915 106.814C233.465 106.814 233.915 106.364 233.915 105.814C233.915 105.264 233.465 104.814 232.915 104.814C232.365 104.814 231.915 105.264 231.915 105.814C231.915 106.364 232.365 106.814 232.915 106.814ZM234.915 105.814C234.915 106.874 234.035 107.814 232.915 107.814C231.845 107.814 230.915 106.944 230.915 105.814C230.915 104.754 231.795 103.814 232.915 103.814C233.985 103.814 234.885 104.704 234.915 105.814Z" fill="#28368B"/>
<path d="M181.639 137.578L183.639 135.578H184.639V142.578H183.639V136.988L182.049 138.578H181.639V137.578ZM191.542 140.578V137.578C191.542 137.028 191.092 136.578 190.542 136.578H187.542C186.992 136.578 186.542 137.028 186.542 137.578V140.578C186.542 141.128 186.992 141.578 187.542 141.578H190.542C191.092 141.578 191.542 141.128 191.542 140.578ZM192.542 137.578V140.578C192.542 141.638 191.662 142.578 190.542 142.578H187.542C186.472 142.578 185.542 141.708 185.542 140.578V137.578C185.542 136.518 186.422 135.578 187.542 135.578H190.542C191.612 135.578 192.512 136.468 192.542 137.578ZM200.245 135.578V136.388L195.415 142.578H194.745V141.808L199.615 135.578H200.245ZM195.245 138.578C195.795 138.578 196.245 138.128 196.245 137.578C196.245 137.028 195.795 136.578 195.245 136.578C194.695 136.578 194.245 137.028 194.245 137.578C194.245 138.128 194.695 138.578 195.245 138.578ZM197.245 137.578C197.245 138.638 196.365 139.578 195.245 139.578C194.175 139.578 193.245 138.708 193.245 137.578C193.245 136.518 194.125 135.578 195.245 135.578C196.315 135.578 197.215 136.468 197.245 137.578ZM199.745 141.578C200.295 141.578 200.745 141.128 200.745 140.578C200.745 140.028 200.295 139.578 199.745 139.578C199.195 139.578 198.745 140.028 198.745 140.578C198.745 141.128 199.195 141.578 199.745 141.578ZM201.745 140.578C201.745 141.638 200.865 142.578 199.745 142.578C198.675 142.578 197.745 141.708 197.745 140.578C197.745 139.518 198.625 138.578 199.745 138.578C200.815 138.578 201.715 139.468 201.745 140.578Z" fill="white"/>
<path d="M119.1 135L121.1 133H122.1V140H121.1V134.41L119.51 136H119.1V135ZM129.004 138V135C129.004 134.45 128.554 134 128.004 134H125.004C124.454 134 124.004 134.45 124.004 135V138C124.004 138.55 124.454 139 125.004 139H128.004C128.554 139 129.004 138.55 129.004 138ZM130.004 135V138C130.004 139.06 129.124 140 128.004 140H125.004C123.934 140 123.004 139.13 123.004 138V135C123.004 133.94 123.884 133 125.004 133H128.004C129.074 133 129.974 133.89 130.004 135ZM137.706 133V133.81L132.876 140H132.206V139.23L137.076 133H137.706ZM132.706 136C133.256 136 133.706 135.55 133.706 135C133.706 134.45 133.256 134 132.706 134C132.156 134 131.706 134.45 131.706 135C131.706 135.55 132.156 136 132.706 136ZM134.706 135C134.706 136.06 133.826 137 132.706 137C131.636 137 130.706 136.13 130.706 135C130.706 133.94 131.586 133 132.706 133C133.776 133 134.676 133.89 134.706 135ZM137.206 139C137.756 139 138.206 138.55 138.206 138C138.206 137.45 137.756 137 137.206 137C136.656 137 136.206 137.45 136.206 138C136.206 138.55 136.656 139 137.206 139ZM139.206 138C139.206 139.06 138.326 140 137.206 140C136.136 140 135.206 139.13 135.206 138C135.206 136.94 136.086 136 137.206 136C138.276 136 139.176 136.89 139.206 138Z" fill="white"/>
<path d="M101.1 106L103.1 104H104.1V111H103.1V105.41L101.51 107H101.1V106ZM111.004 109V106C111.004 105.45 110.554 105 110.004 105H107.004C106.454 105 106.004 105.45 106.004 106V109C106.004 109.55 106.454 110 107.004 110H110.004C110.554 110 111.004 109.55 111.004 109ZM112.004 106V109C112.004 110.06 111.124 111 110.004 111H107.004C105.934 111 105.004 110.13 105.004 109V106C105.004 104.94 105.884 104 107.004 104H110.004C111.074 104 111.974 104.89 112.004 106ZM119.706 104V104.81L114.876 111H114.206V110.23L119.076 104H119.706ZM114.706 107C115.256 107 115.706 106.55 115.706 106C115.706 105.45 115.256 105 114.706 105C114.156 105 113.706 105.45 113.706 106C113.706 106.55 114.156 107 114.706 107ZM116.706 106C116.706 107.06 115.826 108 114.706 108C113.636 108 112.706 107.13 112.706 106C112.706 104.94 113.586 104 114.706 104C115.776 104 116.676 104.89 116.706 106ZM119.206 110C119.756 110 120.206 109.55 120.206 109C120.206 108.45 119.756 108 119.206 108C118.656 108 118.206 108.45 118.206 109C118.206 109.55 118.656 110 119.206 110ZM121.206 109C121.206 110.06 120.326 111 119.206 111C118.136 111 117.206 110.13 117.206 109C117.206 107.94 118.086 107 119.206 107C120.276 107 121.176 107.89 121.206 109Z" fill="white"/>
<path d="M149.1 150L151.1 148H152.1V155H151.1V149.41L149.51 151H149.1V150ZM159.004 153V150C159.004 149.45 158.554 149 158.004 149H155.004C154.454 149 154.004 149.45 154.004 150V153C154.004 153.55 154.454 154 155.004 154H158.004C158.554 154 159.004 153.55 159.004 153ZM160.004 150V153C160.004 154.06 159.124 155 158.004 155H155.004C153.934 155 153.004 154.13 153.004 153V150C153.004 148.94 153.884 148 155.004 148H158.004C159.074 148 159.974 148.89 160.004 150ZM167.706 148V148.81L162.876 155H162.206V154.23L167.076 148H167.706ZM162.706 151C163.256 151 163.706 150.55 163.706 150C163.706 149.45 163.256 149 162.706 149C162.156 149 161.706 149.45 161.706 150C161.706 150.55 162.156 151 162.706 151ZM164.706 150C164.706 151.06 163.826 152 162.706 152C161.636 152 160.706 151.13 160.706 150C160.706 148.94 161.586 148 162.706 148C163.776 148 164.676 148.89 164.706 150ZM167.206 154C167.756 154 168.206 153.55 168.206 153C168.206 152.45 167.756 152 167.206 152C166.656 152 166.206 152.45 166.206 153C166.206 153.55 166.656 154 167.206 154ZM169.206 153C169.206 154.06 168.326 155 167.206 155C166.136 155 165.206 154.13 165.206 153C165.206 151.94 166.086 151 167.206 151C168.276 151 169.176 151.89 169.206 153Z" fill="white"/>
</g>
<path fill-rule="evenodd" clip-rule="evenodd" d="M231.368 147.121L220 138L230 151.328V160.76C230 163.102 231.898 165 234.24 165H284.76C287.102 165 289 163.102 289 160.76V150.24C289 147.898 287.102 146 284.76 146H234.24C233.132 146 232.123 146.425 231.368 147.121Z" fill="#140D83"/>
<path d="M236.939 158.389V151.389H238.059V158.389H236.939ZM239.743 158.389V153.439H240.843V154.069C241.05 153.792 241.29 153.594 241.563 153.474C241.836 153.35 242.12 153.289 242.413 153.289C242.866 153.289 243.241 153.379 243.538 153.559C243.835 153.739 244.055 153.97 244.198 154.254C244.345 154.537 244.418 154.829 244.418 155.129V158.389H243.318V155.469C243.318 155.115 243.211 154.832 242.998 154.619C242.788 154.405 242.495 154.299 242.118 154.299C241.871 154.299 241.651 154.354 241.458 154.464C241.268 154.574 241.118 154.727 241.008 154.924C240.898 155.117 240.843 155.344 240.843 155.604V158.389H239.743ZM247.028 158.389L245.178 153.439H246.383L247.753 157.444H247.588L248.933 153.439H250.103L248.288 158.389H247.028ZM253.224 158.539C252.69 158.539 252.222 158.43 251.819 158.214C251.415 157.994 251.1 157.687 250.874 157.294C250.65 156.9 250.539 156.444 250.539 155.924C250.539 155.544 250.604 155.194 250.734 154.874C250.864 154.55 251.047 154.27 251.284 154.034C251.52 153.797 251.797 153.614 252.114 153.484C252.434 153.354 252.782 153.289 253.159 153.289C253.569 153.289 253.934 153.362 254.254 153.509C254.574 153.652 254.839 153.854 255.049 154.114C255.262 154.374 255.412 154.679 255.499 155.029C255.589 155.375 255.604 155.752 255.544 156.159H251.594C251.587 156.455 251.652 156.715 251.789 156.939C251.925 157.159 252.12 157.33 252.374 157.454C252.63 157.577 252.932 157.639 253.279 157.639C253.559 157.639 253.829 157.597 254.089 157.514C254.352 157.427 254.59 157.3 254.804 157.134L255.229 157.924C255.069 158.054 254.875 158.165 254.649 158.259C254.422 158.349 254.185 158.417 253.939 158.464C253.692 158.514 253.454 158.539 253.224 158.539ZM251.659 155.349H254.464C254.454 154.975 254.334 154.682 254.104 154.469C253.877 154.255 253.554 154.149 253.134 154.149C252.727 154.149 252.389 154.255 252.119 154.469C251.852 154.682 251.699 154.975 251.659 155.349ZM258.356 158.534C257.946 158.534 257.563 158.475 257.206 158.359C256.85 158.242 256.55 158.085 256.306 157.889L256.721 157.084C256.951 157.264 257.21 157.405 257.496 157.509C257.786 157.612 258.071 157.664 258.351 157.664C258.675 157.664 258.926 157.607 259.106 157.494C259.286 157.38 259.376 157.222 259.376 157.019C259.376 156.825 259.298 156.684 259.141 156.594C258.988 156.5 258.695 156.404 258.261 156.304C257.638 156.174 257.185 155.99 256.901 155.754C256.621 155.514 256.481 155.182 256.481 154.759C256.481 154.462 256.563 154.2 256.726 153.974C256.893 153.744 257.121 153.564 257.411 153.434C257.701 153.304 258.036 153.239 258.416 153.239C258.786 153.239 259.135 153.292 259.461 153.399C259.788 153.502 260.071 153.649 260.311 153.839L259.921 154.649C259.798 154.539 259.655 154.444 259.491 154.364C259.328 154.284 259.155 154.222 258.971 154.179C258.791 154.132 258.611 154.109 258.431 154.109C258.151 154.109 257.923 154.164 257.746 154.274C257.573 154.38 257.486 154.529 257.486 154.719C257.486 154.915 257.57 155.06 257.736 155.154C257.903 155.247 258.19 155.34 258.596 155.434C259.236 155.574 259.695 155.76 259.971 155.994C260.248 156.227 260.386 156.55 260.386 156.964C260.386 157.28 260.301 157.557 260.131 157.794C259.961 158.027 259.723 158.209 259.416 158.339C259.113 158.469 258.76 158.534 258.356 158.534ZM263.708 158.539C263.224 158.539 262.838 158.399 262.548 158.119C262.258 157.839 262.113 157.41 262.113 156.834V151.994H263.213V153.439H264.588V154.349H263.213V156.594C263.213 156.94 263.278 157.185 263.408 157.329C263.541 157.469 263.728 157.539 263.968 157.539C264.084 157.539 264.194 157.525 264.298 157.499C264.401 157.472 264.494 157.437 264.578 157.394L264.773 158.284C264.629 158.357 264.464 158.417 264.278 158.464C264.094 158.514 263.904 158.539 263.708 158.539ZM261.028 154.349V153.439H262.258V154.349H261.028ZM268.15 158.539C267.634 158.539 267.172 158.42 266.765 158.184C266.362 157.944 266.045 157.625 265.815 157.229C265.585 156.829 265.47 156.39 265.47 155.914C265.47 155.56 265.535 155.227 265.665 154.914C265.799 154.597 265.985 154.317 266.225 154.074C266.469 153.83 266.754 153.639 267.08 153.499C267.407 153.359 267.765 153.289 268.155 153.289C268.672 153.289 269.132 153.409 269.535 153.649C269.942 153.885 270.26 154.204 270.49 154.604C270.72 155 270.835 155.437 270.835 155.914C270.835 156.264 270.769 156.597 270.635 156.914C270.505 157.23 270.32 157.51 270.08 157.754C269.84 157.997 269.557 158.189 269.23 158.329C268.904 158.469 268.544 158.539 268.15 158.539ZM268.15 157.564C268.457 157.564 268.729 157.497 268.965 157.364C269.205 157.227 269.394 157.035 269.53 156.789C269.667 156.542 269.735 156.25 269.735 155.914C269.735 155.577 269.667 155.285 269.53 155.039C269.394 154.789 269.205 154.597 268.965 154.464C268.729 154.33 268.457 154.264 268.15 154.264C267.844 154.264 267.57 154.33 267.33 154.464C267.094 154.597 266.907 154.789 266.77 155.039C266.637 155.285 266.57 155.577 266.57 155.914C266.57 156.25 266.639 156.542 266.775 156.789C266.912 157.035 267.099 157.227 267.335 157.364C267.575 157.497 267.847 157.564 268.15 157.564ZM271.94 158.389V153.439H273.04V154.124C273.227 153.814 273.454 153.597 273.72 153.474C273.987 153.347 274.274 153.284 274.58 153.284C274.68 153.284 274.775 153.289 274.865 153.299C274.955 153.309 275.042 153.324 275.125 153.344L274.98 154.479C274.88 154.449 274.779 154.425 274.675 154.409C274.572 154.392 274.469 154.384 274.365 154.384C273.982 154.384 273.665 154.502 273.415 154.739C273.165 154.972 273.04 155.29 273.04 155.694V158.389H271.94ZM277.712 158.534C277.302 158.534 276.919 158.475 276.562 158.359C276.205 158.242 275.905 158.085 275.662 157.889L276.077 157.084C276.307 157.264 276.565 157.405 276.852 157.509C277.142 157.612 277.427 157.664 277.707 157.664C278.03 157.664 278.282 157.607 278.462 157.494C278.642 157.38 278.732 157.222 278.732 157.019C278.732 156.825 278.654 156.684 278.497 156.594C278.344 156.5 278.05 156.404 277.617 156.304C276.994 156.174 276.54 155.99 276.257 155.754C275.977 155.514 275.837 155.182 275.837 154.759C275.837 154.462 275.919 154.2 276.082 153.974C276.249 153.744 276.477 153.564 276.767 153.434C277.057 153.304 277.392 153.239 277.772 153.239C278.142 153.239 278.49 153.292 278.817 153.399C279.144 153.502 279.427 153.649 279.667 153.839L279.277 154.649C279.154 154.539 279.01 154.444 278.847 154.364C278.684 154.284 278.51 154.222 278.327 154.179C278.147 154.132 277.967 154.109 277.787 154.109C277.507 154.109 277.279 154.164 277.102 154.274C276.929 154.38 276.842 154.529 276.842 154.719C276.842 154.915 276.925 155.06 277.092 155.154C277.259 155.247 277.545 155.34 277.952 155.434C278.592 155.574 279.05 155.76 279.327 155.994C279.604 156.227 279.742 156.55 279.742 156.964C279.742 157.28 279.657 157.557 279.487 157.794C279.317 158.027 279.079 158.209 278.772 158.339C278.469 158.469 278.115 158.534 277.712 158.534Z" fill="white"/>
<path fill-rule="evenodd" clip-rule="evenodd" d="M186.102 177L202.919 163.996L192.796 177H231.76C234.102 177 236 178.898 236 181.24V191.76C236 194.101 234.102 196 231.76 196H160.24C157.898 196 156 194.101 156 191.76V181.24C156 178.898 157.898 177 160.24 177H186.102Z" fill="#140D83"/>
<path d="M164.769 189.096V182.096H169.294V183.086H165.889V184.976H168.829V185.911H165.889V188.096H169.324V189.096H164.769ZM170.132 189.101L171.922 186.611L170.237 184.146H171.622L172.677 185.821L173.697 184.146H175.047L173.412 186.581L175.187 189.096H173.777L172.637 187.356L171.482 189.086L170.132 189.101ZM176.108 191.196V184.146H177.098V184.841C177.295 184.591 177.547 184.388 177.853 184.231C178.16 184.075 178.538 183.996 178.988 183.996C179.472 183.996 179.9 184.111 180.273 184.341C180.65 184.568 180.943 184.88 181.153 185.276C181.363 185.67 181.468 186.118 181.468 186.621C181.468 186.985 181.408 187.326 181.288 187.646C181.168 187.963 180.997 188.241 180.773 188.481C180.553 188.721 180.29 188.91 179.983 189.046C179.68 189.18 179.343 189.246 178.973 189.246C178.587 189.246 178.247 189.176 177.953 189.036C177.66 188.896 177.41 188.708 177.203 188.471V191.196H176.108ZM178.788 188.271C179.095 188.271 179.367 188.205 179.603 188.071C179.843 187.935 180.03 187.743 180.163 187.496C180.3 187.25 180.368 186.958 180.368 186.621C180.368 186.285 180.3 185.993 180.163 185.746C180.027 185.496 179.838 185.305 179.598 185.171C179.362 185.038 179.092 184.971 178.788 184.971C178.482 184.971 178.208 185.038 177.968 185.171C177.732 185.305 177.545 185.496 177.408 185.746C177.272 185.993 177.203 186.285 177.203 186.621C177.203 186.958 177.272 187.25 177.408 187.496C177.545 187.743 177.732 187.935 177.968 188.071C178.208 188.205 178.482 188.271 178.788 188.271ZM184.882 189.246C184.349 189.246 183.88 189.138 183.477 188.921C183.074 188.701 182.759 188.395 182.532 188.001C182.309 187.608 182.197 187.151 182.197 186.631C182.197 186.251 182.262 185.901 182.392 185.581C182.522 185.258 182.705 184.978 182.942 184.741C183.179 184.505 183.455 184.321 183.772 184.191C184.092 184.061 184.44 183.996 184.817 183.996C185.227 183.996 185.592 184.07 185.912 184.216C186.232 184.36 186.497 184.561 186.707 184.821C186.92 185.081 187.07 185.386 187.157 185.736C187.247 186.083 187.262 186.46 187.202 186.866H183.252C183.245 187.163 183.31 187.423 183.447 187.646C183.584 187.866 183.779 188.038 184.032 188.161C184.289 188.285 184.59 188.346 184.937 188.346C185.217 188.346 185.487 188.305 185.747 188.221C186.01 188.135 186.249 188.008 186.462 187.841L186.887 188.631C186.727 188.761 186.534 188.873 186.307 188.966C186.08 189.056 185.844 189.125 185.597 189.171C185.35 189.221 185.112 189.246 184.882 189.246ZM183.317 186.056H186.122C186.112 185.683 185.992 185.39 185.762 185.176C185.535 184.963 185.212 184.856 184.792 184.856C184.385 184.856 184.047 184.963 183.777 185.176C183.51 185.39 183.357 185.683 183.317 186.056ZM188.345 189.096V184.146H189.445V184.831C189.631 184.521 189.858 184.305 190.125 184.181C190.391 184.055 190.678 183.991 190.985 183.991C191.085 183.991 191.18 183.996 191.27 184.006C191.36 184.016 191.446 184.031 191.53 184.051L191.385 185.186C191.285 185.156 191.183 185.133 191.08 185.116C190.976 185.1 190.873 185.091 190.77 185.091C190.386 185.091 190.07 185.21 189.82 185.446C189.57 185.68 189.445 185.998 189.445 186.401V189.096H188.345ZM194.565 189.246C194.082 189.246 193.695 189.106 193.405 188.826C193.115 188.546 192.97 188.118 192.97 187.541V182.701H194.07V184.146H195.445V185.056H194.07V187.301C194.07 187.648 194.135 187.893 194.265 188.036C194.399 188.176 194.585 188.246 194.825 188.246C194.942 188.246 195.052 188.233 195.155 188.206C195.259 188.18 195.352 188.145 195.435 188.101L195.63 188.991C195.487 189.065 195.322 189.125 195.135 189.171C194.952 189.221 194.762 189.246 194.565 189.246ZM191.885 185.056V184.146H193.115V185.056H191.885ZM201.313 189.246C200.83 189.246 200.443 189.106 200.153 188.826C199.863 188.546 199.718 188.118 199.718 187.541V182.701H200.818V184.146H202.193V185.056H200.818V187.301C200.818 187.648 200.883 187.893 201.013 188.036C201.147 188.176 201.333 188.246 201.573 188.246C201.69 188.246 201.8 188.233 201.903 188.206C202.007 188.18 202.1 188.145 202.183 188.101L202.378 188.991C202.235 189.065 202.07 189.125 201.883 189.171C201.7 189.221 201.51 189.246 201.313 189.246ZM198.633 185.056V184.146H199.863V185.056H198.633ZM205.761 189.246C205.228 189.246 204.759 189.138 204.356 188.921C203.953 188.701 203.638 188.395 203.411 188.001C203.188 187.608 203.076 187.151 203.076 186.631C203.076 186.251 203.141 185.901 203.271 185.581C203.401 185.258 203.584 184.978 203.821 184.741C204.058 184.505 204.334 184.321 204.651 184.191C204.971 184.061 205.319 183.996 205.696 183.996C206.106 183.996 206.471 184.07 206.791 184.216C207.111 184.36 207.376 184.561 207.586 184.821C207.799 185.081 207.949 185.386 208.036 185.736C208.126 186.083 208.141 186.46 208.081 186.866H204.131C204.124 187.163 204.189 187.423 204.326 187.646C204.463 187.866 204.658 188.038 204.911 188.161C205.168 188.285 205.469 188.346 205.816 188.346C206.096 188.346 206.366 188.305 206.626 188.221C206.889 188.135 207.128 188.008 207.341 187.841L207.766 188.631C207.606 188.761 207.413 188.873 207.186 188.966C206.959 189.056 206.723 189.125 206.476 189.171C206.229 189.221 205.991 189.246 205.761 189.246ZM204.196 186.056H207.001C206.991 185.683 206.871 185.39 206.641 185.176C206.414 184.963 206.091 184.856 205.671 184.856C205.264 184.856 204.926 184.963 204.656 185.176C204.389 185.39 204.236 185.683 204.196 186.056ZM210.598 189.246C210.255 189.246 209.953 189.183 209.693 189.056C209.433 188.926 209.23 188.745 209.083 188.511C208.94 188.275 208.868 187.996 208.868 187.676C208.868 187.406 208.937 187.163 209.073 186.946C209.21 186.726 209.422 186.545 209.708 186.401C209.998 186.258 210.37 186.163 210.823 186.116C211.277 186.066 211.822 186.073 212.458 186.136L212.478 186.896C212.025 186.833 211.635 186.806 211.308 186.816C210.982 186.826 210.713 186.868 210.503 186.941C210.297 187.011 210.143 187.106 210.043 187.226C209.947 187.343 209.898 187.478 209.898 187.631C209.898 187.871 209.983 188.056 210.153 188.186C210.327 188.316 210.563 188.381 210.863 188.381C211.12 188.381 211.35 188.335 211.553 188.241C211.757 188.148 211.917 188.016 212.033 187.846C212.153 187.676 212.213 187.476 212.213 187.246V185.931C212.213 185.711 212.167 185.521 212.073 185.361C211.98 185.198 211.838 185.071 211.648 184.981C211.458 184.891 211.222 184.846 210.938 184.846C210.678 184.846 210.422 184.886 210.168 184.966C209.915 185.043 209.673 185.165 209.443 185.331L209.133 184.521C209.443 184.311 209.767 184.163 210.103 184.076C210.44 183.99 210.763 183.946 211.073 183.946C211.533 183.946 211.927 184.02 212.253 184.166C212.583 184.31 212.837 184.528 213.013 184.821C213.19 185.111 213.278 185.478 213.278 185.921V189.096H212.288V188.511C212.122 188.748 211.89 188.93 211.593 189.056C211.297 189.183 210.965 189.246 210.598 189.246ZM214.741 189.096V184.146H215.841V184.826C215.974 184.633 216.128 184.476 216.301 184.356C216.474 184.233 216.658 184.143 216.851 184.086C217.044 184.026 217.241 183.996 217.441 183.996C217.844 183.996 218.179 184.085 218.446 184.261C218.716 184.438 218.906 184.665 219.016 184.941C219.263 184.581 219.549 184.335 219.876 184.201C220.203 184.065 220.531 183.996 220.861 183.996C221.318 183.996 221.683 184.086 221.956 184.266C222.229 184.446 222.426 184.678 222.546 184.961C222.669 185.245 222.731 185.536 222.731 185.836V189.096H221.631V186.156C221.631 185.813 221.536 185.536 221.346 185.326C221.159 185.113 220.886 185.006 220.526 185.006C220.289 185.006 220.078 185.058 219.891 185.161C219.704 185.265 219.556 185.408 219.446 185.591C219.339 185.771 219.286 185.98 219.286 186.216V189.096H218.186V186.156C218.186 185.813 218.093 185.536 217.906 185.326C217.719 185.113 217.444 185.006 217.081 185.006C216.848 185.006 216.636 185.058 216.446 185.161C216.259 185.265 216.111 185.408 216.001 185.591C215.894 185.771 215.841 185.98 215.841 186.216V189.096H214.741Z" fill="white"/>
<path fill-rule="evenodd" clip-rule="evenodd" d="M133.587 65.1671L145 57L135.509 68.2821C135.525 68.4305 135.533 68.5812 135.533 68.7337V76.759C135.533 79.1007 133.635 80.999 131.293 80.999H43.24C40.8983 80.999 39 79.1007 39 76.759V68.7337C39 66.3921 40.8983 64.4938 43.24 64.4938H131.293C132.138 64.4938 132.926 64.741 133.587 65.1671Z" fill="#79F585"/>
<path d="M46.5902 75.3883V68.3883H49.1252C49.6218 68.3883 50.0602 68.475 50.4402 68.6483C50.8235 68.8183 51.1235 69.065 51.3402 69.3883C51.5568 69.7083 51.6652 70.0933 51.6652 70.5433C51.6652 71.0066 51.5652 71.3983 51.3652 71.7183C51.1652 72.035 50.8735 72.2766 50.4902 72.4433C50.1102 72.6066 49.6468 72.6883 49.1002 72.6883H47.7102V75.3883H46.5902ZM47.7102 71.7283H49.1152C49.5685 71.7283 49.9202 71.6333 50.1702 71.4433C50.4202 71.25 50.5452 70.9583 50.5452 70.5683C50.5452 70.1816 50.4168 69.885 50.1602 69.6783C49.9035 69.4716 49.5585 69.3683 49.1252 69.3683H47.7102V71.7283ZM54.1581 75.5383C53.8147 75.5383 53.5131 75.475 53.2531 75.3483C52.9931 75.2183 52.7897 75.0366 52.6431 74.8033C52.4997 74.5666 52.4281 74.2883 52.4281 73.9683C52.4281 73.6983 52.4964 73.455 52.6331 73.2383C52.7697 73.0183 52.9814 72.8366 53.2681 72.6933C53.5581 72.55 53.9297 72.455 54.3831 72.4083C54.8364 72.3583 55.3814 72.365 56.0181 72.4283L56.0381 73.1883C55.5847 73.125 55.1947 73.0983 54.8681 73.1083C54.5414 73.1183 54.2731 73.16 54.0631 73.2333C53.8564 73.3033 53.7031 73.3983 53.6031 73.5183C53.5064 73.635 53.4581 73.77 53.4581 73.9233C53.4581 74.1633 53.5431 74.3483 53.7131 74.4783C53.8864 74.6083 54.1231 74.6733 54.4231 74.6733C54.6797 74.6733 54.9097 74.6266 55.1131 74.5333C55.3164 74.44 55.4764 74.3083 55.5931 74.1383C55.7131 73.9683 55.7731 73.7683 55.7731 73.5383V72.2233C55.7731 72.0033 55.7264 71.8133 55.6331 71.6533C55.5397 71.49 55.3981 71.3633 55.2081 71.2733C55.0181 71.1833 54.7814 71.1383 54.4981 71.1383C54.2381 71.1383 53.9814 71.1783 53.7281 71.2583C53.4747 71.335 53.2331 71.4566 53.0031 71.6233L52.6931 70.8133C53.0031 70.6033 53.3264 70.455 53.6631 70.3683C53.9997 70.2816 54.3231 70.2383 54.6331 70.2383C55.0931 70.2383 55.4864 70.3116 55.8131 70.4583C56.1431 70.6016 56.3964 70.82 56.5731 71.1133C56.7497 71.4033 56.8381 71.77 56.8381 72.2133V75.3883H55.8481V74.8033C55.6814 75.04 55.4497 75.2216 55.1531 75.3483C54.8564 75.475 54.5247 75.5383 54.1581 75.5383ZM58.3006 75.3883V70.4383H59.4006V71.1233C59.5873 70.8133 59.814 70.5966 60.0806 70.4733C60.3473 70.3466 60.634 70.2833 60.9406 70.2833C61.0406 70.2833 61.1356 70.2883 61.2256 70.2983C61.3156 70.3083 61.4023 70.3233 61.4856 70.3433L61.3406 71.4783C61.2406 71.4483 61.139 71.425 61.0356 71.4083C60.9323 71.3916 60.829 71.3833 60.7256 71.3833C60.3423 71.3833 60.0256 71.5016 59.7756 71.7383C59.5256 71.9716 59.4006 72.29 59.4006 72.6933V75.3883H58.3006ZM64.5213 75.5383C64.0379 75.5383 63.6513 75.3983 63.3613 75.1183C63.0713 74.8383 62.9263 74.41 62.9263 73.8333V68.9933H64.0263V70.4383H65.4013V71.3483H64.0263V73.5933C64.0263 73.94 64.0913 74.185 64.2213 74.3283C64.3546 74.4683 64.5413 74.5383 64.7813 74.5383C64.8979 74.5383 65.0079 74.525 65.1113 74.4983C65.2146 74.4716 65.3079 74.4366 65.3913 74.3933L65.5863 75.2833C65.4429 75.3566 65.2779 75.4166 65.0913 75.4633C64.9079 75.5133 64.7179 75.5383 64.5213 75.5383ZM61.8413 71.3483V70.4383H63.0713V71.3483H61.8413ZM66.7381 75.3883V70.4383H67.8381V75.3883H66.7381ZM67.2881 69.5533C67.0915 69.5533 66.9215 69.49 66.7781 69.3633C66.6348 69.2366 66.5631 69.07 66.5631 68.8633C66.5631 68.66 66.6348 68.495 66.7781 68.3683C66.9215 68.2383 67.0915 68.1733 67.2881 68.1733C67.4848 68.1733 67.6548 68.2383 67.7981 68.3683C67.9415 68.495 68.0131 68.66 68.0131 68.8633C68.0131 69.07 67.9415 69.2366 67.7981 69.3633C67.6548 69.49 67.4848 69.5533 67.2881 69.5533ZM71.6351 75.5383C71.1151 75.5383 70.6518 75.425 70.2451 75.1983C69.8384 74.9683 69.5184 74.6566 69.2851 74.2633C69.0551 73.8666 68.9401 73.4166 68.9401 72.9133C68.9401 72.5333 69.0084 72.185 69.1451 71.8683C69.2818 71.5483 69.4751 71.27 69.7251 71.0333C69.9751 70.7966 70.2684 70.6133 70.6051 70.4833C70.9451 70.3533 71.3134 70.2883 71.7101 70.2883C72.0434 70.2883 72.3518 70.3333 72.6351 70.4233C72.9218 70.51 73.1851 70.645 73.4251 70.8283L72.8951 71.6683C72.7418 71.5316 72.5651 71.43 72.3651 71.3633C72.1684 71.2966 71.9584 71.2633 71.7351 71.2633C71.3884 71.2633 71.0901 71.3283 70.8401 71.4583C70.5901 71.5883 70.3951 71.7766 70.2551 72.0233C70.1184 72.2666 70.0501 72.5616 70.0501 72.9083C70.0501 73.425 70.2001 73.83 70.5001 74.1233C70.8034 74.4166 71.2151 74.5633 71.7351 74.5633C71.9818 74.5633 72.2151 74.5183 72.4351 74.4283C72.6551 74.335 72.8384 74.2133 72.9851 74.0633L73.5101 74.8983C73.2468 75.0983 72.9534 75.255 72.6301 75.3683C72.3068 75.4816 71.9751 75.5383 71.6351 75.5383ZM74.5213 75.3883V70.4383H75.6213V75.3883H74.5213ZM75.0713 69.5533C74.8747 69.5533 74.7047 69.49 74.5613 69.3633C74.418 69.2366 74.3463 69.07 74.3463 68.8633C74.3463 68.66 74.418 68.495 74.5613 68.3683C74.7047 68.2383 74.8747 68.1733 75.0713 68.1733C75.268 68.1733 75.438 68.2383 75.5813 68.3683C75.7247 68.495 75.7963 68.66 75.7963 68.8633C75.7963 69.07 75.7247 69.2366 75.5813 69.3633C75.438 69.49 75.268 69.5533 75.0713 69.5533ZM77.1483 77.4883V70.4383H78.1383V71.1333C78.335 70.8833 78.5866 70.68 78.8933 70.5233C79.2 70.3666 79.5783 70.2883 80.0283 70.2883C80.5116 70.2883 80.94 70.4033 81.3133 70.6333C81.69 70.86 81.9833 71.1716 82.1933 71.5683C82.4033 71.9616 82.5083 72.41 82.5083 72.9133C82.5083 73.2766 82.4483 73.6183 82.3283 73.9383C82.2083 74.255 82.0366 74.5333 81.8133 74.7733C81.5933 75.0133 81.33 75.2016 81.0233 75.3383C80.72 75.4716 80.3833 75.5383 80.0133 75.5383C79.6266 75.5383 79.2866 75.4683 78.9933 75.3283C78.7 75.1883 78.45 75 78.2433 74.7633V77.4883H77.1483ZM79.8283 74.5633C80.135 74.5633 80.4066 74.4966 80.6433 74.3633C80.8833 74.2266 81.07 74.035 81.2033 73.7883C81.34 73.5416 81.4083 73.25 81.4083 72.9133C81.4083 72.5766 81.34 72.285 81.2033 72.0383C81.0666 71.7883 80.8783 71.5966 80.6383 71.4633C80.4016 71.33 80.1316 71.2633 79.8283 71.2633C79.5216 71.2633 79.2483 71.33 79.0083 71.4633C78.7716 71.5966 78.585 71.7883 78.4483 72.0383C78.3116 72.285 78.2433 72.5766 78.2433 72.9133C78.2433 73.25 78.3116 73.5416 78.4483 73.7883C78.585 74.035 78.7716 74.2266 79.0083 74.3633C79.2483 74.4966 79.5216 74.5633 79.8283 74.5633ZM84.9881 75.5383C84.6448 75.5383 84.3431 75.475 84.0831 75.3483C83.8231 75.2183 83.6198 75.0366 83.4731 74.8033C83.3298 74.5666 83.2581 74.2883 83.2581 73.9683C83.2581 73.6983 83.3265 73.455 83.4631 73.2383C83.5998 73.0183 83.8115 72.8366 84.0981 72.6933C84.3881 72.55 84.7598 72.455 85.2131 72.4083C85.6665 72.3583 86.2115 72.365 86.8481 72.4283L86.8681 73.1883C86.4148 73.125 86.0248 73.0983 85.6981 73.1083C85.3715 73.1183 85.1031 73.16 84.8931 73.2333C84.6865 73.3033 84.5331 73.3983 84.4331 73.5183C84.3365 73.635 84.2881 73.77 84.2881 73.9233C84.2881 74.1633 84.3731 74.3483 84.5431 74.4783C84.7165 74.6083 84.9531 74.6733 85.2531 74.6733C85.5098 74.6733 85.7398 74.6266 85.9431 74.5333C86.1465 74.44 86.3065 74.3083 86.4231 74.1383C86.5431 73.9683 86.6031 73.7683 86.6031 73.5383V72.2233C86.6031 72.0033 86.5565 71.8133 86.4631 71.6533C86.3698 71.49 86.2281 71.3633 86.0381 71.2733C85.8481 71.1833 85.6115 71.1383 85.3281 71.1383C85.0681 71.1383 84.8115 71.1783 84.5581 71.2583C84.3048 71.335 84.0631 71.4566 83.8331 71.6233L83.5231 70.8133C83.8331 70.6033 84.1565 70.455 84.4931 70.3683C84.8298 70.2816 85.1531 70.2383 85.4631 70.2383C85.9231 70.2383 86.3165 70.3116 86.6431 70.4583C86.9731 70.6016 87.2265 70.82 87.4031 71.1133C87.5798 71.4033 87.6681 71.77 87.6681 72.2133V75.3883H86.6781V74.8033C86.5115 75.04 86.2798 75.2216 85.9831 75.3483C85.6865 75.475 85.3548 75.5383 84.9881 75.5383ZM89.1307 75.3883V70.4383H90.2307V71.0683C90.4374 70.7916 90.6774 70.5933 90.9507 70.4733C91.2241 70.35 91.5074 70.2883 91.8007 70.2883C92.2541 70.2883 92.6291 70.3783 92.9257 70.5583C93.2224 70.7383 93.4424 70.97 93.5857 71.2533C93.7324 71.5366 93.8057 71.8283 93.8057 72.1283V75.3883H92.7057V72.4683C92.7057 72.115 92.5991 71.8316 92.3857 71.6183C92.1757 71.405 91.8824 71.2983 91.5057 71.2983C91.2591 71.2983 91.0391 71.3533 90.8457 71.4633C90.6557 71.5733 90.5057 71.7266 90.3957 71.9233C90.2857 72.1166 90.2307 72.3433 90.2307 72.6033V75.3883H89.1307ZM97.2654 75.5383C96.7821 75.5383 96.3954 75.3983 96.1054 75.1183C95.8154 74.8383 95.6704 74.41 95.6704 73.8333V68.9933H96.7704V70.4383H98.1454V71.3483H96.7704V73.5933C96.7704 73.94 96.8354 74.185 96.9654 74.3283C97.0987 74.4683 97.2854 74.5383 97.5254 74.5383C97.6421 74.5383 97.7521 74.525 97.8554 74.4983C97.9587 74.4716 98.0521 74.4366 98.1354 74.3933L98.3304 75.2833C98.1871 75.3566 98.0221 75.4166 97.8354 75.4633C97.6521 75.5133 97.4621 75.5383 97.2654 75.5383ZM94.5854 71.3483V70.4383H95.8154V71.3483H94.5854ZM101.152 75.5333C100.742 75.5333 100.359 75.475 100.002 75.3583C99.6456 75.2416 99.3456 75.085 99.1023 74.8883L99.5173 74.0833C99.7473 74.2633 100.006 74.405 100.292 74.5083C100.582 74.6116 100.867 74.6633 101.147 74.6633C101.471 74.6633 101.722 74.6066 101.902 74.4933C102.082 74.38 102.172 74.2216 102.172 74.0183C102.172 73.825 102.094 73.6833 101.937 73.5933C101.784 73.5 101.491 73.4033 101.057 73.3033C100.434 73.1733 99.9806 72.99 99.6973 72.7533C99.4173 72.5133 99.2773 72.1816 99.2773 71.7583C99.2773 71.4616 99.359 71.2 99.5223 70.9733C99.689 70.7433 99.9173 70.5633 100.207 70.4333C100.497 70.3033 100.832 70.2383 101.212 70.2383C101.582 70.2383 101.931 70.2916 102.257 70.3983C102.584 70.5016 102.867 70.6483 103.107 70.8383L102.717 71.6483C102.594 71.5383 102.451 71.4433 102.287 71.3633C102.124 71.2833 101.951 71.2216 101.767 71.1783C101.587 71.1316 101.407 71.1083 101.227 71.1083C100.947 71.1083 100.719 71.1633 100.542 71.2733C100.369 71.38 100.282 71.5283 100.282 71.7183C100.282 71.915 100.366 72.06 100.532 72.1533C100.699 72.2466 100.986 72.34 101.392 72.4333C102.032 72.5733 102.491 72.76 102.767 72.9933C103.044 73.2266 103.182 73.55 103.182 73.9633C103.182 74.28 103.097 74.5566 102.927 74.7933C102.757 75.0266 102.519 75.2083 102.212 75.3383C101.909 75.4683 101.556 75.5333 101.152 75.5333ZM108.145 76.5383C107.732 75.8416 107.422 75.1 107.215 74.3133C107.008 73.5266 106.905 72.7316 106.905 71.9283C106.905 71.3916 106.95 70.86 107.04 70.3333C107.133 69.8033 107.272 69.2866 107.455 68.7833C107.638 68.28 107.868 67.7983 108.145 67.3383L108.985 67.6783C108.802 67.9683 108.64 68.2816 108.5 68.6183C108.363 68.9516 108.248 69.2983 108.155 69.6583C108.062 70.0183 107.992 70.3883 107.945 70.7683C107.902 71.145 107.88 71.525 107.88 71.9083C107.88 72.675 107.972 73.4316 108.155 74.1783C108.342 74.9216 108.618 75.595 108.985 76.1983L108.145 76.5383ZM110.757 77.6283C110.577 77.6283 110.4 77.6083 110.227 77.5683C110.054 77.5283 109.884 77.46 109.717 77.3633L109.967 76.4233C110.07 76.49 110.184 76.54 110.307 76.5733C110.43 76.6066 110.54 76.6233 110.637 76.6233C110.87 76.6233 111.054 76.5683 111.187 76.4583C111.32 76.3483 111.425 76.1783 111.502 75.9483L111.667 75.4683L109.717 70.4383H110.922L112.292 74.2783L113.627 70.4383H114.792L112.652 76.1033C112.499 76.5 112.327 76.8083 112.137 77.0283C111.947 77.2516 111.737 77.4066 111.507 77.4933C111.277 77.5833 111.027 77.6283 110.757 77.6283ZM117.86 75.5383C117.344 75.5383 116.882 75.42 116.475 75.1833C116.072 74.9433 115.755 74.625 115.525 74.2283C115.295 73.8283 115.18 73.39 115.18 72.9133C115.18 72.56 115.245 72.2266 115.375 71.9133C115.509 71.5966 115.695 71.3166 115.935 71.0733C116.179 70.83 116.464 70.6383 116.79 70.4983C117.117 70.3583 117.475 70.2883 117.865 70.2883C118.382 70.2883 118.842 70.4083 119.245 70.6483C119.652 70.885 119.97 71.2033 120.2 71.6033C120.43 72 120.545 72.4366 120.545 72.9133C120.545 73.2633 120.479 73.5966 120.345 73.9133C120.215 74.23 120.03 74.51 119.79 74.7533C119.55 74.9966 119.267 75.1883 118.94 75.3283C118.614 75.4683 118.254 75.5383 117.86 75.5383ZM117.86 74.5633C118.167 74.5633 118.439 74.4966 118.675 74.3633C118.915 74.2266 119.104 74.035 119.24 73.7883C119.377 73.5416 119.445 73.25 119.445 72.9133C119.445 72.5766 119.377 72.285 119.24 72.0383C119.104 71.7883 118.915 71.5966 118.675 71.4633C118.439 71.33 118.167 71.2633 117.86 71.2633C117.554 71.2633 117.28 71.33 117.04 71.4633C116.804 71.5966 116.617 71.7883 116.48 72.0383C116.347 72.285 116.28 72.5766 116.28 72.9133C116.28 73.25 116.349 73.5416 116.485 73.7883C116.622 74.035 116.809 74.2266 117.045 74.3633C117.285 74.4966 117.557 74.5633 117.86 74.5633ZM123.56 75.5383C123.117 75.5383 122.75 75.45 122.46 75.2733C122.174 75.0933 121.959 74.8566 121.815 74.5633C121.672 74.27 121.6 73.95 121.6 73.6033V70.4383H122.7V73.3983C122.7 73.7383 122.8 74.0116 123 74.2183C123.204 74.4216 123.484 74.5233 123.84 74.5233C124.074 74.5233 124.282 74.4716 124.465 74.3683C124.649 74.2616 124.794 74.1133 124.9 73.9233C125.01 73.7333 125.065 73.5133 125.065 73.2633V70.4383H126.165V75.3883H125.175V74.8033C124.982 75.0366 124.752 75.2183 124.485 75.3483C124.222 75.475 123.914 75.5383 123.56 75.5383ZM128.35 76.5383L127.51 76.1983C127.694 75.905 127.854 75.5916 127.99 75.2583C128.13 74.925 128.247 74.5783 128.34 74.2183C128.434 73.8583 128.502 73.4883 128.545 73.1083C128.592 72.7283 128.615 72.3483 128.615 71.9683C128.615 71.1983 128.522 70.4416 128.335 69.6983C128.152 68.955 127.877 68.2816 127.51 67.6783L128.35 67.3383C128.767 68.0316 129.077 68.7716 129.28 69.5583C129.487 70.345 129.59 71.1416 129.59 71.9483C129.59 72.485 129.544 73.0183 129.45 73.5483C129.36 74.075 129.224 74.59 129.04 75.0933C128.857 75.5966 128.627 76.0783 128.35 76.5383Z" fill="#1C195B"/>
<path fill-rule="evenodd" clip-rule="evenodd" d="M85.2732 116.865L98.6382 106L86 123.068V144.76C86 147.101 84.1017 149 81.76 149H4.23997C1.8983 149 0 147.101 0 144.76V119.24C0 116.898 1.8983 115 4.23997 115H81.76C83.2218 115 84.5109 115.739 85.2732 116.865Z" fill="#140D83"/>
<path d="M10.19 128.15C9.70667 128.15 9.23333 128.081 8.77 127.945C8.31 127.805 7.92167 127.605 7.605 127.345L8.155 126.49C8.32167 126.633 8.515 126.756 8.735 126.86C8.95833 126.963 9.195 127.043 9.445 127.1C9.695 127.153 9.945 127.18 10.195 127.18C10.6517 127.18 11.02 127.093 11.3 126.92C11.5833 126.746 11.725 126.493 11.725 126.16C11.725 125.91 11.6283 125.698 11.435 125.525C11.245 125.351 10.8917 125.191 10.375 125.045L9.655 124.835C8.995 124.645 8.51333 124.393 8.21 124.08C7.91 123.766 7.76 123.376 7.76 122.91C7.76 122.6 7.82167 122.32 7.945 122.07C8.07167 121.82 8.24833 121.603 8.475 121.42C8.705 121.236 8.975 121.096 9.285 121C9.595 120.903 9.935 120.855 10.305 120.855C10.775 120.855 11.2117 120.923 11.615 121.06C12.0183 121.196 12.3517 121.38 12.615 121.61L12.045 122.44C11.9017 122.31 11.7333 122.198 11.54 122.105C11.35 122.011 11.145 121.94 10.925 121.89C10.705 121.84 10.4817 121.815 10.255 121.815C9.975 121.815 9.72667 121.856 9.51 121.94C9.29667 122.02 9.13 122.136 9.01 122.29C8.89 122.443 8.83 122.63 8.83 122.85C8.83 123.01 8.87 123.15 8.95 123.27C9.03 123.39 9.16667 123.5 9.36 123.6C9.55667 123.696 9.82667 123.795 10.17 123.895L10.93 124.12C11.5767 124.31 12.05 124.558 12.35 124.865C12.65 125.168 12.8 125.563 12.8 126.05C12.8 126.466 12.6967 126.833 12.49 127.15C12.2867 127.463 11.99 127.708 11.6 127.885C11.21 128.061 10.74 128.15 10.19 128.15ZM16.3043 128.15C15.771 128.15 15.3026 128.041 14.8993 127.825C14.496 127.605 14.181 127.298 13.9543 126.905C13.731 126.511 13.6193 126.055 13.6193 125.535C13.6193 125.155 13.6843 124.805 13.8143 124.485C13.9443 124.161 14.1276 123.881 14.3643 123.645C14.601 123.408 14.8776 123.225 15.1943 123.095C15.5143 122.965 15.8626 122.9 16.2393 122.9C16.6493 122.9 17.0143 122.973 17.3343 123.12C17.6543 123.263 17.9193 123.465 18.1293 123.725C18.3426 123.985 18.4926 124.29 18.5793 124.64C18.6693 124.986 18.6843 125.363 18.6243 125.77H14.6743C14.6676 126.066 14.7326 126.326 14.8693 126.55C15.006 126.77 15.201 126.941 15.4543 127.065C15.711 127.188 16.0126 127.25 16.3593 127.25C16.6393 127.25 16.9093 127.208 17.1693 127.125C17.4326 127.038 17.671 126.911 17.8843 126.745L18.3093 127.535C18.1493 127.665 17.956 127.776 17.7293 127.87C17.5026 127.96 17.266 128.028 17.0193 128.075C16.7726 128.125 16.5343 128.15 16.3043 128.15ZM14.7393 124.96H17.5443C17.5343 124.586 17.4143 124.293 17.1843 124.08C16.9576 123.866 16.6343 123.76 16.2143 123.76C15.8076 123.76 15.4693 123.866 15.1993 124.08C14.9326 124.293 14.7793 124.586 14.7393 124.96ZM22.0858 128.15C21.5658 128.15 21.1024 128.036 20.6958 127.81C20.2891 127.58 19.9691 127.268 19.7358 126.875C19.5058 126.478 19.3908 126.028 19.3908 125.525C19.3908 125.145 19.4591 124.796 19.5958 124.48C19.7324 124.16 19.9258 123.881 20.1758 123.645C20.4258 123.408 20.7191 123.225 21.0558 123.095C21.3958 122.965 21.7641 122.9 22.1608 122.9C22.4941 122.9 22.8024 122.945 23.0858 123.035C23.3724 123.121 23.6358 123.256 23.8758 123.44L23.3458 124.28C23.1924 124.143 23.0158 124.041 22.8158 123.975C22.6191 123.908 22.4091 123.875 22.1858 123.875C21.8391 123.875 21.5408 123.94 21.2908 124.07C21.0408 124.2 20.8458 124.388 20.7058 124.635C20.5691 124.878 20.5008 125.173 20.5008 125.52C20.5008 126.036 20.6508 126.441 20.9508 126.735C21.2541 127.028 21.6658 127.175 22.1858 127.175C22.4324 127.175 22.6658 127.13 22.8858 127.04C23.1058 126.946 23.2891 126.825 23.4358 126.675L23.9608 127.51C23.6974 127.71 23.4041 127.866 23.0808 127.98C22.7574 128.093 22.4258 128.15 22.0858 128.15ZM26.882 128.15C26.4387 128.15 26.072 128.061 25.782 127.885C25.4954 127.705 25.2804 127.468 25.137 127.175C24.9937 126.881 24.922 126.561 24.922 126.215V123.05H26.022V126.01C26.022 126.35 26.122 126.623 26.322 126.83C26.5254 127.033 26.8054 127.135 27.162 127.135C27.3954 127.135 27.6037 127.083 27.787 126.98C27.9704 126.873 28.1154 126.725 28.222 126.535C28.332 126.345 28.387 126.125 28.387 125.875V123.05H29.487V128H28.497V127.415C28.3037 127.648 28.0737 127.83 27.807 127.96C27.5437 128.086 27.2354 128.15 26.882 128.15ZM31.017 128V123.05H32.117V123.735C32.3036 123.425 32.5303 123.208 32.797 123.085C33.0636 122.958 33.3503 122.895 33.657 122.895C33.757 122.895 33.852 122.9 33.942 122.91C34.032 122.92 34.1186 122.935 34.202 122.955L34.057 124.09C33.957 124.06 33.8553 124.036 33.752 124.02C33.6486 124.003 33.5453 123.995 33.442 123.995C33.0586 123.995 32.742 124.113 32.492 124.35C32.242 124.583 32.117 124.901 32.117 125.305V128H31.017ZM35.1185 128V123.05H36.2185V128H35.1185ZM35.6685 122.165C35.4718 122.165 35.3018 122.101 35.1585 121.975C35.0152 121.848 34.9435 121.681 34.9435 121.475C34.9435 121.271 35.0152 121.106 35.1585 120.98C35.3018 120.85 35.4718 120.785 35.6685 120.785C35.8652 120.785 36.0352 120.85 36.1785 120.98C36.3218 121.106 36.3935 121.271 36.3935 121.475C36.3935 121.681 36.3218 121.848 36.1785 121.975C36.0352 122.101 35.8652 122.165 35.6685 122.165ZM39.8255 128.15C39.3421 128.15 38.9555 128.01 38.6655 127.73C38.3755 127.45 38.2305 127.021 38.2305 126.445V121.605H39.3305V123.05H40.7055V123.96H39.3305V126.205C39.3305 126.551 39.3955 126.796 39.5255 126.94C39.6588 127.08 39.8455 127.15 40.0855 127.15C40.2021 127.15 40.3121 127.136 40.4155 127.11C40.5188 127.083 40.6121 127.048 40.6955 127.005L40.8905 127.895C40.7471 127.968 40.5821 128.028 40.3955 128.075C40.2121 128.125 40.0221 128.15 39.8255 128.15ZM37.1455 123.96V123.05H38.3755V123.96H37.1455ZM42.4673 130.24C42.2873 130.24 42.1107 130.22 41.9373 130.18C41.764 130.14 41.594 130.071 41.4273 129.975L41.6773 129.035C41.7807 129.101 41.894 129.151 42.0173 129.185C42.1407 129.218 42.2507 129.235 42.3473 129.235C42.5807 129.235 42.764 129.18 42.8973 129.07C43.0307 128.96 43.1357 128.79 43.2123 128.56L43.3773 128.08L41.4273 123.05H42.6323L44.0023 126.89L45.3373 123.05H46.5023L44.3623 128.715C44.209 129.111 44.0373 129.42 43.8473 129.64C43.6573 129.863 43.4473 130.018 43.2173 130.105C42.9873 130.195 42.7373 130.24 42.4673 130.24ZM47.3293 129.15L46.4093 128.79L50.0493 119.95L50.9643 120.31L47.3293 129.15ZM7.91 141V134H9.03V141H7.91ZM10.7142 141V136.05H11.8142V136.68C12.0209 136.403 12.2609 136.205 12.5342 136.085C12.8076 135.961 13.0909 135.9 13.3842 135.9C13.8376 135.9 14.2126 135.99 14.5092 136.17C14.8059 136.35 15.0259 136.581 15.1692 136.865C15.3159 137.148 15.3892 137.44 15.3892 137.74V141H14.2892V138.08C14.2892 137.726 14.1826 137.443 13.9692 137.23C13.7592 137.016 13.4659 136.91 13.0892 136.91C12.8426 136.91 12.6226 136.965 12.4292 137.075C12.2392 137.185 12.0892 137.338 11.9792 137.535C11.8692 137.728 11.8142 137.955 11.8142 138.215V141H10.7142ZM17.2539 141V135.24C17.2539 134.746 17.3956 134.358 17.6789 134.075C17.9656 133.791 18.3606 133.65 18.8639 133.65C19.0472 133.65 19.2139 133.67 19.3639 133.71C19.5172 133.746 19.6589 133.8 19.7889 133.87L19.5839 134.74C19.4872 134.686 19.3939 134.65 19.3039 134.63C19.2139 134.61 19.1256 134.6 19.0389 134.6C18.8356 134.6 18.6689 134.651 18.5389 134.755C18.4122 134.858 18.3489 135.035 18.3489 135.285V136.05H19.6489V136.96H18.3489V141H17.2539ZM16.2589 136.96V136.05H17.3989V136.96H16.2589ZM20.6459 141V136.05H21.7459V136.735C21.9325 136.425 22.1592 136.208 22.4259 136.085C22.6925 135.958 22.9792 135.895 23.2859 135.895C23.3859 135.895 23.4809 135.9 23.5709 135.91C23.6609 135.92 23.7475 135.935 23.8309 135.955L23.6859 137.09C23.5859 137.06 23.4842 137.036 23.3809 137.02C23.2775 137.003 23.1742 136.995 23.0709 136.995C22.6875 136.995 22.3709 137.113 22.1209 137.35C21.8709 137.583 21.7459 137.901 21.7459 138.305V141H20.6459ZM26.1224 141.15C25.7791 141.15 25.4774 141.086 25.2174 140.96C24.9574 140.83 24.7541 140.648 24.6074 140.415C24.4641 140.178 24.3924 139.9 24.3924 139.58C24.3924 139.31 24.4608 139.066 24.5974 138.85C24.7341 138.63 24.9458 138.448 25.2324 138.305C25.5224 138.161 25.8941 138.066 26.3474 138.02C26.8008 137.97 27.3458 137.976 27.9824 138.04L28.0024 138.8C27.5491 138.736 27.1591 138.71 26.8324 138.72C26.5058 138.73 26.2374 138.771 26.0274 138.845C25.8208 138.915 25.6674 139.01 25.5674 139.13C25.4708 139.246 25.4224 139.381 25.4224 139.535C25.4224 139.775 25.5074 139.96 25.6774 140.09C25.8508 140.22 26.0874 140.285 26.3874 140.285C26.6441 140.285 26.8741 140.238 27.0774 140.145C27.2808 140.051 27.4408 139.92 27.5574 139.75C27.6774 139.58 27.7374 139.38 27.7374 139.15V137.835C27.7374 137.615 27.6908 137.425 27.5974 137.265C27.5041 137.101 27.3624 136.975 27.1724 136.885C26.9824 136.795 26.7458 136.75 26.4624 136.75C26.2024 136.75 25.9458 136.79 25.6924 136.87C25.4391 136.946 25.1974 137.068 24.9674 137.235L24.6574 136.425C24.9674 136.215 25.2908 136.066 25.6274 135.98C25.9641 135.893 26.2874 135.85 26.5974 135.85C27.0574 135.85 27.4508 135.923 27.7774 136.07C28.1074 136.213 28.3608 136.431 28.5374 136.725C28.7141 137.015 28.8024 137.381 28.8024 137.825V141H27.8124V140.415C27.6458 140.651 27.4141 140.833 27.1174 140.96C26.8208 141.086 26.4891 141.15 26.1224 141.15ZM31.935 141.145C31.525 141.145 31.1417 141.086 30.785 140.97C30.4283 140.853 30.1283 140.696 29.885 140.5L30.3 139.695C30.53 139.875 30.7883 140.016 31.075 140.12C31.365 140.223 31.65 140.275 31.93 140.275C32.2533 140.275 32.505 140.218 32.685 140.105C32.865 139.991 32.955 139.833 32.955 139.63C32.955 139.436 32.8767 139.295 32.72 139.205C32.5667 139.111 32.2733 139.015 31.84 138.915C31.2167 138.785 30.7633 138.601 30.48 138.365C30.2 138.125 30.06 137.793 30.06 137.37C30.06 137.073 30.1417 136.811 30.305 136.585C30.4717 136.355 30.7 136.175 30.99 136.045C31.28 135.915 31.615 135.85 31.995 135.85C32.365 135.85 32.7133 135.903 33.04 136.01C33.3667 136.113 33.65 136.26 33.89 136.45L33.5 137.26C33.3767 137.15 33.2333 137.055 33.07 136.975C32.9067 136.895 32.7333 136.833 32.55 136.79C32.37 136.743 32.19 136.72 32.01 136.72C31.73 136.72 31.5017 136.775 31.325 136.885C31.1517 136.991 31.065 137.14 31.065 137.33C31.065 137.526 31.1483 137.671 31.315 137.765C31.4817 137.858 31.7683 137.951 32.175 138.045C32.815 138.185 33.2733 138.371 33.55 138.605C33.8267 138.838 33.965 139.161 33.965 139.575C33.965 139.891 33.88 140.168 33.71 140.405C33.54 140.638 33.3017 140.82 32.995 140.95C32.6917 141.08 32.3383 141.145 31.935 141.145ZM37.2864 141.15C36.8031 141.15 36.4164 141.01 36.1264 140.73C35.8364 140.45 35.6914 140.021 35.6914 139.445V134.605H36.7914V136.05H38.1664V136.96H36.7914V139.205C36.7914 139.551 36.8564 139.796 36.9864 139.94C37.1197 140.08 37.3064 140.15 37.5464 140.15C37.6631 140.15 37.7731 140.136 37.8764 140.11C37.9797 140.083 38.0731 140.048 38.1564 140.005L38.3514 140.895C38.2081 140.968 38.0431 141.028 37.8564 141.075C37.6731 141.125 37.4831 141.15 37.2864 141.15ZM34.6064 136.96V136.05H35.8364V136.96H34.6064ZM39.5033 141V136.05H40.6033V136.735C40.7899 136.425 41.0166 136.208 41.2833 136.085C41.5499 135.958 41.8366 135.895 42.1433 135.895C42.2433 135.895 42.3383 135.9 42.4283 135.91C42.5183 135.92 42.6049 135.935 42.6883 135.955L42.5433 137.09C42.4433 137.06 42.3416 137.036 42.2383 137.02C42.1349 137.003 42.0316 136.995 41.9283 136.995C41.5449 136.995 41.2283 137.113 40.9783 137.35C40.7283 137.583 40.6033 137.901 40.6033 138.305V141H39.5033ZM45.5148 141.15C45.0715 141.15 44.7048 141.061 44.4148 140.885C44.1282 140.705 43.9132 140.468 43.7698 140.175C43.6265 139.881 43.5548 139.561 43.5548 139.215V136.05H44.6548V139.01C44.6548 139.35 44.7548 139.623 44.9548 139.83C45.1582 140.033 45.4382 140.135 45.7948 140.135C46.0282 140.135 46.2365 140.083 46.4198 139.98C46.6032 139.873 46.7482 139.725 46.8548 139.535C46.9648 139.345 47.0198 139.125 47.0198 138.875V136.05H48.1198V141H47.1298V140.415C46.9365 140.648 46.7065 140.83 46.4398 140.96C46.1765 141.086 45.8682 141.15 45.5148 141.15ZM51.9198 141.15C51.3998 141.15 50.9364 141.036 50.5298 140.81C50.1231 140.58 49.8031 140.268 49.5698 139.875C49.3398 139.478 49.2248 139.028 49.2248 138.525C49.2248 138.145 49.2931 137.796 49.4298 137.48C49.5664 137.16 49.7598 136.881 50.0098 136.645C50.2598 136.408 50.5531 136.225 50.8898 136.095C51.2298 135.965 51.5981 135.9 51.9948 135.9C52.3281 135.9 52.6364 135.945 52.9198 136.035C53.2064 136.121 53.4698 136.256 53.7098 136.44L53.1798 137.28C53.0264 137.143 52.8498 137.041 52.6498 136.975C52.4531 136.908 52.2431 136.875 52.0198 136.875C51.6731 136.875 51.3748 136.94 51.1248 137.07C50.8748 137.2 50.6798 137.388 50.5398 137.635C50.4031 137.878 50.3348 138.173 50.3348 138.52C50.3348 139.036 50.4848 139.441 50.7848 139.735C51.0881 140.028 51.4998 140.175 52.0198 140.175C52.2664 140.175 52.4998 140.13 52.7198 140.04C52.9398 139.946 53.1231 139.825 53.2698 139.675L53.7948 140.51C53.5314 140.71 53.2381 140.866 52.9148 140.98C52.5914 141.093 52.2598 141.15 51.9198 141.15ZM56.886 141.15C56.4027 141.15 56.016 141.01 55.726 140.73C55.436 140.45 55.291 140.021 55.291 139.445V134.605H56.391V136.05H57.766V136.96H56.391V139.205C56.391 139.551 56.456 139.796 56.586 139.94C56.7193 140.08 56.906 140.15 57.146 140.15C57.2627 140.15 57.3727 140.136 57.476 140.11C57.5793 140.083 57.6727 140.048 57.756 140.005L57.951 140.895C57.8077 140.968 57.6427 141.028 57.456 141.075C57.2727 141.125 57.0827 141.15 56.886 141.15ZM54.206 136.96V136.05H55.436V136.96H54.206ZM61.0129 141.15C60.5696 141.15 60.2029 141.061 59.9129 140.885C59.6262 140.705 59.4112 140.468 59.2679 140.175C59.1246 139.881 59.0529 139.561 59.0529 139.215V136.05H60.1529V139.01C60.1529 139.35 60.2529 139.623 60.4529 139.83C60.6562 140.033 60.9362 140.135 61.2929 140.135C61.5262 140.135 61.7346 140.083 61.9179 139.98C62.1012 139.873 62.2462 139.725 62.3529 139.535C62.4629 139.345 62.5179 139.125 62.5179 138.875V136.05H63.6179V141H62.6279V140.415C62.4346 140.648 62.2046 140.83 61.9379 140.96C61.6746 141.086 61.3662 141.15 61.0129 141.15ZM65.1478 141V136.05H66.2478V136.735C66.4345 136.425 66.6611 136.208 66.9278 136.085C67.1945 135.958 67.4811 135.895 67.7878 135.895C67.8878 135.895 67.9828 135.9 68.0728 135.91C68.1628 135.92 68.2495 135.935 68.3328 135.955L68.1878 137.09C68.0878 137.06 67.9861 137.036 67.8828 137.02C67.7795 137.003 67.6761 136.995 67.5728 136.995C67.1895 136.995 66.8728 137.113 66.6228 137.35C66.3728 137.583 66.2478 137.901 66.2478 138.305V141H65.1478ZM71.4117 141.15C70.8784 141.15 70.4101 141.041 70.0067 140.825C69.6034 140.605 69.2884 140.298 69.0617 139.905C68.8384 139.511 68.7267 139.055 68.7267 138.535C68.7267 138.155 68.7917 137.805 68.9217 137.485C69.0517 137.161 69.2351 136.881 69.4717 136.645C69.7084 136.408 69.9851 136.225 70.3017 136.095C70.6217 135.965 70.9701 135.9 71.3467 135.9C71.7567 135.9 72.1217 135.973 72.4417 136.12C72.7617 136.263 73.0267 136.465 73.2367 136.725C73.4501 136.985 73.6001 137.29 73.6867 137.64C73.7767 137.986 73.7917 138.363 73.7317 138.77H69.7817C69.7751 139.066 69.8401 139.326 69.9767 139.55C70.1134 139.77 70.3084 139.941 70.5617 140.065C70.8184 140.188 71.1201 140.25 71.4667 140.25C71.7467 140.25 72.0167 140.208 72.2767 140.125C72.5401 140.038 72.7784 139.911 72.9917 139.745L73.4167 140.535C73.2567 140.665 73.0634 140.776 72.8367 140.87C72.6101 140.96 72.3734 141.028 72.1267 141.075C71.8801 141.125 71.6417 141.15 71.4117 141.15ZM69.8467 137.96H72.6517C72.6417 137.586 72.5217 137.293 72.2917 137.08C72.0651 136.866 71.7417 136.76 71.3217 136.76C70.9151 136.76 70.5767 136.866 70.3067 137.08C70.0401 137.293 69.8867 137.586 69.8467 137.96Z" fill="white"/>
<path fill-rule="evenodd" clip-rule="evenodd" d="M138.157 187.502L144 173.999L140.29 188.241C141.399 189.006 142.126 190.285 142.126 191.734V213.76C142.126 216.101 140.227 218 137.886 218H80.24C77.8983 218 76 216.101 76 213.76V191.734C76 189.392 77.8983 187.494 80.24 187.494H137.886C137.977 187.494 138.067 187.497 138.157 187.502Z" fill="url(#paint7_linear_1146_83)"/>
<path d="M82.91 201V194H85.1C85.7967 194 86.4117 194.15 86.945 194.45C87.4783 194.746 87.895 195.158 88.195 195.685C88.4983 196.211 88.65 196.818 88.65 197.505C88.65 198.015 88.5633 198.485 88.39 198.915C88.22 199.341 87.9767 199.71 87.66 200.02C87.3433 200.33 86.9683 200.571 86.535 200.745C86.1017 200.915 85.6233 201 85.1 201H82.91ZM84.03 199.955H84.965C85.3417 199.955 85.6833 199.9 85.99 199.79C86.3 199.676 86.565 199.513 86.785 199.3C87.0083 199.086 87.18 198.83 87.3 198.53C87.42 198.226 87.48 197.885 87.48 197.505C87.48 196.995 87.375 196.556 87.165 196.19C86.9583 195.82 86.6667 195.536 86.29 195.34C85.9133 195.14 85.4717 195.04 84.965 195.04H84.03V199.955ZM92.1539 201.15C91.6206 201.15 91.1522 201.041 90.7489 200.825C90.3456 200.605 90.0306 200.298 89.8039 199.905C89.5806 199.511 89.4689 199.055 89.4689 198.535C89.4689 198.155 89.5339 197.805 89.6639 197.485C89.7939 197.161 89.9772 196.881 90.2139 196.645C90.4506 196.408 90.7272 196.225 91.0439 196.095C91.3639 195.965 91.7122 195.9 92.0889 195.9C92.4989 195.9 92.8639 195.973 93.1839 196.12C93.5039 196.263 93.7689 196.465 93.9789 196.725C94.1922 196.985 94.3422 197.29 94.4289 197.64C94.5189 197.986 94.5339 198.363 94.4739 198.77H90.5239C90.5172 199.066 90.5822 199.326 90.7189 199.55C90.8556 199.77 91.0506 199.941 91.3039 200.065C91.5606 200.188 91.8622 200.25 92.2089 200.25C92.4889 200.25 92.7589 200.208 93.0189 200.125C93.2822 200.038 93.5206 199.911 93.7339 199.745L94.1589 200.535C93.9989 200.665 93.8056 200.776 93.5789 200.87C93.3522 200.96 93.1156 201.028 92.8689 201.075C92.6222 201.125 92.3839 201.15 92.1539 201.15ZM90.5889 197.96H93.3939C93.3839 197.586 93.2639 197.293 93.0339 197.08C92.8072 196.866 92.4839 196.76 92.0639 196.76C91.6572 196.76 91.3189 196.866 91.0489 197.08C90.7822 197.293 90.6289 197.586 90.5889 197.96ZM96.0527 201V195.24C96.0527 194.746 96.1944 194.358 96.4777 194.075C96.7644 193.791 97.1594 193.65 97.6627 193.65C97.8461 193.65 98.0127 193.67 98.1627 193.71C98.3161 193.746 98.4577 193.8 98.5877 193.87L98.3827 194.74C98.2861 194.686 98.1927 194.65 98.1027 194.63C98.0127 194.61 97.9244 194.6 97.8377 194.6C97.6344 194.6 97.4677 194.651 97.3377 194.755C97.2111 194.858 97.1477 195.035 97.1477 195.285V196.05H98.4477V196.96H97.1477V201H96.0527ZM95.0577 196.96V196.05H96.1977V196.96H95.0577ZM101.656 201.15C101.123 201.15 100.654 201.041 100.251 200.825C99.8475 200.605 99.5325 200.298 99.3059 199.905C99.0825 199.511 98.9709 199.055 98.9709 198.535C98.9709 198.155 99.0359 197.805 99.1659 197.485C99.2959 197.161 99.4792 196.881 99.7159 196.645C99.9525 196.408 100.229 196.225 100.546 196.095C100.866 195.965 101.214 195.9 101.591 195.9C102.001 195.9 102.366 195.973 102.686 196.12C103.006 196.263 103.271 196.465 103.481 196.725C103.694 196.985 103.844 197.29 103.931 197.64C104.021 197.986 104.036 198.363 103.976 198.77H100.026C100.019 199.066 100.084 199.326 100.221 199.55C100.358 199.77 100.553 199.941 100.806 200.065C101.063 200.188 101.364 200.25 101.711 200.25C101.991 200.25 102.261 200.208 102.521 200.125C102.784 200.038 103.023 199.911 103.236 199.745L103.661 200.535C103.501 200.665 103.308 200.776 103.081 200.87C102.854 200.96 102.618 201.028 102.371 201.075C102.124 201.125 101.886 201.15 101.656 201.15ZM100.091 197.96H102.896C102.886 197.586 102.766 197.293 102.536 197.08C102.309 196.866 101.986 196.76 101.566 196.76C101.159 196.76 100.821 196.866 100.551 197.08C100.284 197.293 100.131 197.586 100.091 197.96ZM105.119 201V196.05H106.219V196.68C106.425 196.403 106.665 196.205 106.939 196.085C107.212 195.961 107.495 195.9 107.789 195.9C108.242 195.9 108.617 195.99 108.914 196.17C109.21 196.35 109.43 196.581 109.574 196.865C109.72 197.148 109.794 197.44 109.794 197.74V201H108.694V198.08C108.694 197.726 108.587 197.443 108.374 197.23C108.164 197.016 107.87 196.91 107.494 196.91C107.247 196.91 107.027 196.965 106.834 197.075C106.644 197.185 106.494 197.338 106.384 197.535C106.274 197.728 106.219 197.955 106.219 198.215V201H105.119ZM113.326 201.15C112.843 201.15 112.414 201.036 112.041 200.81C111.668 200.58 111.374 200.268 111.161 199.875C110.951 199.478 110.846 199.028 110.846 198.525C110.846 198.161 110.906 197.821 111.026 197.505C111.146 197.185 111.316 196.905 111.536 196.665C111.759 196.425 112.023 196.238 112.326 196.105C112.633 195.968 112.971 195.9 113.341 195.9C113.791 195.9 114.181 195.99 114.511 196.17C114.841 196.35 115.116 196.6 115.336 196.92L115.106 197.165V193.8H116.206V201H115.216V199.81L115.376 200.06C115.196 200.373 114.938 200.633 114.601 200.84C114.268 201.046 113.843 201.15 113.326 201.15ZM113.526 200.175C113.833 200.175 114.104 200.108 114.341 199.975C114.581 199.838 114.769 199.646 114.906 199.4C115.043 199.153 115.111 198.861 115.111 198.525C115.111 198.188 115.043 197.896 114.906 197.65C114.769 197.4 114.581 197.208 114.341 197.075C114.104 196.941 113.833 196.875 113.526 196.875C113.219 196.875 112.948 196.941 112.711 197.075C112.474 197.208 112.288 197.4 112.151 197.65C112.014 197.896 111.946 198.188 111.946 198.525C111.946 198.861 112.014 199.153 112.151 199.4C112.288 199.646 112.474 199.838 112.711 199.975C112.951 200.108 113.223 200.175 113.526 200.175ZM119.996 201.15C119.462 201.15 118.994 201.041 118.591 200.825C118.187 200.605 117.872 200.298 117.646 199.905C117.422 199.511 117.311 199.055 117.311 198.535C117.311 198.155 117.376 197.805 117.506 197.485C117.636 197.161 117.819 196.881 118.056 196.645C118.292 196.408 118.569 196.225 118.886 196.095C119.206 195.965 119.554 195.9 119.931 195.9C120.341 195.9 120.706 195.973 121.026 196.12C121.346 196.263 121.611 196.465 121.821 196.725C122.034 196.985 122.184 197.29 122.271 197.64C122.361 197.986 122.376 198.363 122.316 198.77H118.366C118.359 199.066 118.424 199.326 118.561 199.55C118.697 199.77 118.892 199.941 119.146 200.065C119.402 200.188 119.704 200.25 120.051 200.25C120.331 200.25 120.601 200.208 120.861 200.125C121.124 200.038 121.362 199.911 121.576 199.745L122.001 200.535C121.841 200.665 121.647 200.776 121.421 200.87C121.194 200.96 120.957 201.028 120.711 201.075C120.464 201.125 120.226 201.15 119.996 201.15ZM118.431 197.96H121.236C121.226 197.586 121.106 197.293 120.876 197.08C120.649 196.866 120.326 196.76 119.906 196.76C119.499 196.76 119.161 196.866 118.891 197.08C118.624 197.293 118.471 197.586 118.431 197.96ZM123.458 201V196.05H124.558V196.735C124.745 196.425 124.972 196.208 125.238 196.085C125.505 195.958 125.792 195.895 126.098 195.895C126.198 195.895 126.293 195.9 126.383 195.91C126.473 195.92 126.56 195.935 126.643 195.955L126.498 197.09C126.398 197.06 126.297 197.036 126.193 197.02C126.09 197.003 125.987 196.995 125.883 196.995C125.5 196.995 125.183 197.113 124.933 197.35C124.683 197.583 124.558 197.901 124.558 198.305V201H123.458ZM129.23 201.145C128.82 201.145 128.437 201.086 128.08 200.97C127.723 200.853 127.423 200.696 127.18 200.5L127.595 199.695C127.825 199.875 128.083 200.016 128.37 200.12C128.66 200.223 128.945 200.275 129.225 200.275C129.548 200.275 129.8 200.218 129.98 200.105C130.16 199.991 130.25 199.833 130.25 199.63C130.25 199.436 130.172 199.295 130.015 199.205C129.862 199.111 129.568 199.015 129.135 198.915C128.512 198.785 128.058 198.601 127.775 198.365C127.495 198.125 127.355 197.793 127.355 197.37C127.355 197.073 127.437 196.811 127.6 196.585C127.767 196.355 127.995 196.175 128.285 196.045C128.575 195.915 128.91 195.85 129.29 195.85C129.66 195.85 130.008 195.903 130.335 196.01C130.662 196.113 130.945 196.26 131.185 196.45L130.795 197.26C130.672 197.15 130.528 197.055 130.365 196.975C130.202 196.895 130.028 196.833 129.845 196.79C129.665 196.743 129.485 196.72 129.305 196.72C129.025 196.72 128.797 196.775 128.62 196.885C128.447 196.991 128.36 197.14 128.36 197.33C128.36 197.526 128.443 197.671 128.61 197.765C128.777 197.858 129.063 197.951 129.47 198.045C130.11 198.185 130.568 198.371 130.845 198.605C131.122 198.838 131.26 199.161 131.26 199.575C131.26 199.891 131.175 200.168 131.005 200.405C130.835 200.638 130.597 200.82 130.29 200.95C129.987 201.08 129.633 201.145 129.23 201.145ZM85.02 213.15C84.5033 213.15 84.0417 213.031 83.635 212.795C83.2317 212.555 82.915 212.236 82.685 211.84C82.455 211.44 82.34 211.001 82.34 210.525C82.34 210.171 82.405 209.838 82.535 209.525C82.6683 209.208 82.855 208.928 83.095 208.685C83.3383 208.441 83.6233 208.25 83.95 208.11C84.2767 207.97 84.635 207.9 85.025 207.9C85.5417 207.9 86.0017 208.02 86.405 208.26C86.8117 208.496 87.13 208.815 87.36 209.215C87.59 209.611 87.705 210.048 87.705 210.525C87.705 210.875 87.6383 211.208 87.505 211.525C87.375 211.841 87.19 212.121 86.95 212.365C86.71 212.608 86.4267 212.8 86.1 212.94C85.7733 213.08 85.4133 213.15 85.02 213.15ZM85.02 212.175C85.3267 212.175 85.5983 212.108 85.835 211.975C86.075 211.838 86.2633 211.646 86.4 211.4C86.5367 211.153 86.605 210.861 86.605 210.525C86.605 210.188 86.5367 209.896 86.4 209.65C86.2633 209.4 86.075 209.208 85.835 209.075C85.5983 208.941 85.3267 208.875 85.02 208.875C84.7133 208.875 84.44 208.941 84.2 209.075C83.9633 209.208 83.7767 209.4 83.64 209.65C83.5067 209.896 83.44 210.188 83.44 210.525C83.44 210.861 83.5083 211.153 83.645 211.4C83.7817 211.646 83.9683 211.838 84.205 211.975C84.445 212.108 84.7167 212.175 85.02 212.175ZM89.2461 213V207.24C89.2461 206.746 89.3878 206.358 89.6711 206.075C89.9578 205.791 90.3528 205.65 90.8561 205.65C91.0394 205.65 91.2061 205.67 91.3561 205.71C91.5094 205.746 91.6511 205.8 91.7811 205.87L91.5761 206.74C91.4794 206.686 91.3861 206.65 91.2961 206.63C91.2061 206.61 91.1178 206.6 91.0311 206.6C90.8278 206.6 90.6611 206.651 90.5311 206.755C90.4044 206.858 90.3411 207.035 90.3411 207.285V208.05H91.6411V208.96H90.3411V213H89.2461ZM88.2511 208.96V208.05H89.3911V208.96H88.2511ZM98.0192 213.15C97.3959 213.15 96.8742 213.023 96.4542 212.77C96.0376 212.516 95.7226 212.173 95.5092 211.74C95.2992 211.303 95.1942 210.813 95.1942 210.27V206H96.3142V210.26C96.3142 210.876 96.4676 211.336 96.7742 211.64C97.0809 211.94 97.4959 212.09 98.0192 212.09C98.5426 212.09 98.9576 211.94 99.2642 211.64C99.5709 211.336 99.7242 210.876 99.7242 210.26V206H100.849V210.27C100.849 210.81 100.743 211.298 100.529 211.735C100.319 212.168 100.004 212.513 99.5842 212.77C99.1676 213.023 98.6459 213.15 98.0192 213.15ZM102.482 213V205.8H103.582V210.06L105.532 208.05H106.832L105.082 209.945L107.087 213H105.772L104.282 210.66L103.582 211.37V213H102.482ZM108.058 213V208.05H109.158V208.735C109.345 208.425 109.571 208.208 109.838 208.085C110.105 207.958 110.391 207.895 110.698 207.895C110.798 207.895 110.893 207.9 110.983 207.91C111.073 207.92 111.16 207.935 111.243 207.955L111.098 209.09C110.998 209.06 110.896 209.036 110.793 209.02C110.69 209.003 110.586 208.995 110.483 208.995C110.1 208.995 109.783 209.113 109.533 209.35C109.283 209.583 109.158 209.901 109.158 210.305V213H108.058ZM113.535 213.15C113.191 213.15 112.89 213.086 112.63 212.96C112.37 212.83 112.166 212.648 112.02 212.415C111.876 212.178 111.805 211.9 111.805 211.58C111.805 211.31 111.873 211.066 112.01 210.85C112.146 210.63 112.358 210.448 112.645 210.305C112.935 210.161 113.306 210.066 113.76 210.02C114.213 209.97 114.758 209.976 115.395 210.04L115.415 210.8C114.961 210.736 114.571 210.71 114.245 210.72C113.918 210.73 113.65 210.771 113.44 210.845C113.233 210.915 113.08 211.01 112.98 211.13C112.883 211.246 112.835 211.381 112.835 211.535C112.835 211.775 112.92 211.96 113.09 212.09C113.263 212.22 113.5 212.285 113.8 212.285C114.056 212.285 114.286 212.238 114.49 212.145C114.693 212.051 114.853 211.92 114.97 211.75C115.09 211.58 115.15 211.38 115.15 211.15V209.835C115.15 209.615 115.103 209.425 115.01 209.265C114.916 209.101 114.775 208.975 114.585 208.885C114.395 208.795 114.158 208.75 113.875 208.75C113.615 208.75 113.358 208.79 113.105 208.87C112.851 208.946 112.61 209.068 112.38 209.235L112.07 208.425C112.38 208.215 112.703 208.066 113.04 207.98C113.376 207.893 113.7 207.85 114.01 207.85C114.47 207.85 114.863 207.923 115.19 208.07C115.52 208.213 115.773 208.431 115.95 208.725C116.126 209.015 116.215 209.381 116.215 209.825V213H115.225V212.415C115.058 212.651 114.826 212.833 114.53 212.96C114.233 213.086 113.901 213.15 113.535 213.15ZM117.677 213V208.05H118.777V213H117.677ZM118.227 207.165C118.03 207.165 117.86 207.101 117.717 206.975C117.574 206.848 117.502 206.681 117.502 206.475C117.502 206.271 117.574 206.106 117.717 205.98C117.86 205.85 118.03 205.785 118.227 205.785C118.424 205.785 118.594 205.85 118.737 205.98C118.88 206.106 118.952 206.271 118.952 206.475C118.952 206.681 118.88 206.848 118.737 206.975C118.594 207.101 118.424 207.165 118.227 207.165ZM120.304 213V208.05H121.404V208.68C121.611 208.403 121.851 208.205 122.124 208.085C122.397 207.961 122.681 207.9 122.974 207.9C123.427 207.9 123.802 207.99 124.099 208.17C124.396 208.35 124.616 208.581 124.759 208.865C124.906 209.148 124.979 209.44 124.979 209.74V213H123.879V210.08C123.879 209.726 123.772 209.443 123.559 209.23C123.349 209.016 123.056 208.91 122.679 208.91C122.432 208.91 122.212 208.965 122.019 209.075C121.829 209.185 121.679 209.338 121.569 209.535C121.459 209.728 121.404 209.955 121.404 210.215V213H120.304ZM128.716 213.15C128.183 213.15 127.715 213.041 127.311 212.825C126.908 212.605 126.593 212.298 126.366 211.905C126.143 211.511 126.031 211.055 126.031 210.535C126.031 210.155 126.096 209.805 126.226 209.485C126.356 209.161 126.54 208.881 126.776 208.645C127.013 208.408 127.29 208.225 127.606 208.095C127.926 207.965 128.275 207.9 128.651 207.9C129.061 207.9 129.426 207.973 129.746 208.12C130.066 208.263 130.331 208.465 130.541 208.725C130.755 208.985 130.905 209.29 130.991 209.64C131.081 209.986 131.096 210.363 131.036 210.77H127.086C127.08 211.066 127.145 211.326 127.281 211.55C127.418 211.77 127.613 211.941 127.866 212.065C128.123 212.188 128.425 212.25 128.771 212.25C129.051 212.25 129.321 212.208 129.581 212.125C129.845 212.038 130.083 211.911 130.296 211.745L130.721 212.535C130.561 212.665 130.368 212.776 130.141 212.87C129.915 212.96 129.678 213.028 129.431 213.075C129.185 213.125 128.946 213.15 128.716 213.15ZM127.151 209.96H129.956C129.946 209.586 129.826 209.293 129.596 209.08C129.37 208.866 129.046 208.76 128.626 208.76C128.22 208.76 127.881 208.866 127.611 209.08C127.345 209.293 127.191 209.586 127.151 209.96Z" fill="white"/>
<defs>
<linearGradient id="paint0_linear_1146_83" x1="91.9844" y1="31.1238" x2="262.413" y2="40.8278" gradientUnits="userSpaceOnUse">
<stop stop-color="#544CF9"/>
<stop offset="0.52" stop-color="#8B86FF"/>
<stop offset="1" stop-color="#5D56FF"/>
</linearGradient>
<linearGradient id="paint1_linear_1146_83" x1="92.2192" y1="143.373" x2="159.545" y2="-13.4947" gradientUnits="userSpaceOnUse">
<stop stop-color="#544CF9"/>
<stop offset="0.52" stop-color="#8B86FF"/>
<stop offset="1" stop-color="#5D56FF"/>
</linearGradient>
<linearGradient id="paint2_linear_1146_83" x1="97.8253" y1="25.4075" x2="266.487" y2="51.7397" gradientUnits="userSpaceOnUse">
<stop stop-color="#544CF9"/>
<stop offset="0.52" stop-color="#8B86FF"/>
<stop offset="1" stop-color="#5D56FF"/>
</linearGradient>
<linearGradient id="paint3_linear_1146_83" x1="162.45" y1="98.058" x2="144.511" y2="167.808" gradientUnits="userSpaceOnUse">
<stop stop-color="#FFE70C"/>
<stop offset="1" stop-color="#227AFF"/>
</linearGradient>
<linearGradient id="paint4_linear_1146_83" x1="138.565" y1="-2.66621" x2="271.888" y2="103.94" gradientUnits="userSpaceOnUse">
<stop stop-color="#544CF9"/>
<stop offset="0.52" stop-color="#8B86FF"/>
<stop offset="1" stop-color="#5D56FF"/>
</linearGradient>
<linearGradient id="paint5_linear_1146_83" x1="188.388" y1="-6.70982" x2="250.304" y2="152.371" gradientUnits="userSpaceOnUse">
<stop stop-color="#544CF9"/>
<stop offset="0.52" stop-color="#8B86FF"/>
<stop offset="1" stop-color="#5D56FF"/>
</linearGradient>
<linearGradient id="paint6_linear_1146_83" x1="234.262" y1="15.4026" x2="206.382" y2="183.815" gradientUnits="userSpaceOnUse">
<stop stop-color="#544CF9"/>
<stop offset="0.52" stop-color="#8B86FF"/>
<stop offset="1" stop-color="#5D56FF"/>
</linearGradient>
<linearGradient id="paint7_linear_1146_83" x1="76" y1="195.999" x2="144" y2="195.999" gradientUnits="userSpaceOnUse">
<stop stop-color="#2943DE"/>
<stop offset="1" stop-color="#FFE70C"/>
</linearGradient>
<clipPath id="clip0_1146_83">
<rect width="172" height="174" fill="white" transform="translate(85)"/>
</clipPath>
</defs>
</svg>
