<svg width="648" height="554" viewBox="0 0 648 554" fill="none" xmlns="http://www.w3.org/2000/svg">
<mask id="path-1-inside-1_888_1552" fill="white">
<path d="M555.526 210.83C544.681 158.296 514.346 111.816 470.623 80.7394C426.9 49.6625 373.032 36.2932 319.852 43.3203C266.672 50.3475 218.126 77.2499 183.975 118.617C149.825 159.984 132.604 212.748 135.777 266.296L347.658 253.743L555.526 210.83Z"/>
</mask>
<path d="M555.526 210.83C544.681 158.296 514.346 111.816 470.623 80.7394C426.9 49.6625 373.032 36.2932 319.852 43.3203C266.672 50.3475 218.126 77.2499 183.975 118.617C149.825 159.984 132.604 212.748 135.777 266.296L347.658 253.743L555.526 210.83Z" fill="#4BE05A" stroke="url(#paint0_linear_888_1552)" stroke-width="1.04816" mask="url(#path-1-inside-1_888_1552)"/>
<mask id="path-2-inside-2_888_1552" fill="white">
<path d="M479.566 424.464C510.013 400.361 533.264 368.367 546.788 331.966C560.312 295.564 563.591 256.15 556.267 218.014L347.824 258.045L479.566 424.464Z"/>
</mask>
<path d="M479.566 424.464C510.013 400.361 533.264 368.367 546.788 331.966C560.312 295.564 563.591 256.15 556.267 218.014L347.824 258.045L479.566 424.464Z" fill="#05E9F0" stroke="url(#paint1_linear_888_1552)" stroke-width="1.04816" mask="url(#path-2-inside-2_888_1552)"/>
<mask id="path-3-inside-3_888_1552" fill="white">
<path d="M368.002 469.336C403.951 465.903 438.43 453.354 468.177 432.877L347.825 258.045L368.002 469.336Z"/>
</mask>
<path d="M368.002 469.336C403.951 465.903 438.43 453.354 468.177 432.877L347.825 258.045L368.002 469.336Z" fill="#2943DE" stroke="url(#paint2_linear_888_1552)" stroke-width="1.04816" mask="url(#path-3-inside-3_888_1552)"/>
<mask id="path-4-inside-4_888_1552" fill="white">
<path d="M260.42 451.465C291.587 465.549 325.695 471.893 359.842 469.956L347.824 258.045L260.42 451.465Z"/>
</mask>
<path d="M260.42 451.465C291.587 465.549 325.695 471.893 359.842 469.956L347.824 258.045L260.42 451.465Z" fill="url(#paint3_linear_888_1552)" stroke="url(#paint4_linear_888_1552)" stroke-width="1.04816" mask="url(#path-4-inside-4_888_1552)"/>
<mask id="path-5-inside-5_888_1552" fill="white">
<path d="M175.231 381.587C194.779 408.896 220.527 431.176 250.361 446.597L347.825 258.045L175.231 381.587Z"/>
</mask>
<path d="M175.231 381.587C194.779 408.896 220.527 431.176 250.361 446.597L347.825 258.045L175.231 381.587Z" fill="#8B86FF" stroke="url(#paint5_linear_888_1552)" stroke-width="1.04816" mask="url(#path-5-inside-5_888_1552)"/>
<mask id="path-6-inside-6_888_1552" fill="white">
<path d="M136.357 276.28C139.318 310.621 150.599 343.724 169.222 372.728L347.825 258.045L136.357 276.28Z"/>
</mask>
<path d="M136.357 276.28C139.318 310.621 150.599 343.724 169.222 372.728L347.825 258.045L136.357 276.28Z" fill="#544CF9" stroke="url(#paint6_linear_888_1552)" stroke-width="1.04816" mask="url(#path-6-inside-6_888_1552)"/>
<path d="M302.942 172.593V170.393L313.942 159.393H316.142V170.393H318.342V172.593H316.142V174.793H313.942V172.593H302.942ZM313.942 170.393V162.495L306.044 170.393H313.942ZM333.077 170.393V163.793C333.077 162.583 332.087 161.593 330.877 161.593H324.277C323.067 161.593 322.077 162.583 322.077 163.793V170.393C322.077 171.603 323.067 172.593 324.277 172.593H330.877C332.087 172.593 333.077 171.603 333.077 170.393ZM335.277 163.793V170.393C335.277 172.725 333.341 174.793 330.877 174.793H324.277C321.923 174.793 319.877 172.879 319.877 170.393V163.793C319.877 161.461 321.813 159.393 324.277 159.393H330.877C333.231 159.393 335.211 161.351 335.277 163.793ZM352.223 159.393V161.175L341.597 174.793H340.123V173.099L350.837 159.393H352.223ZM341.223 165.993C342.433 165.993 343.423 165.003 343.423 163.793C343.423 162.583 342.433 161.593 341.223 161.593C340.013 161.593 339.023 162.583 339.023 163.793C339.023 165.003 340.013 165.993 341.223 165.993ZM345.623 163.793C345.623 166.125 343.687 168.193 341.223 168.193C338.869 168.193 336.823 166.279 336.823 163.793C336.823 161.461 338.759 159.393 341.223 159.393C343.577 159.393 345.557 161.351 345.623 163.793ZM351.123 172.593C352.333 172.593 353.323 171.603 353.323 170.393C353.323 169.183 352.333 168.193 351.123 168.193C349.913 168.193 348.923 169.183 348.923 170.393C348.923 171.603 349.913 172.593 351.123 172.593ZM355.523 170.393C355.523 172.725 353.587 174.793 351.123 174.793C348.769 174.793 346.723 172.879 346.723 170.393C346.723 168.061 348.659 165.993 351.123 165.993C353.477 165.993 355.457 167.951 355.523 170.393Z" fill="#1C195B"/>
<path d="M449.357 301.75V302.85H462.557V305.05H447.157V301.75C447.157 299.418 449.093 297.35 451.557 297.35H458.157C459.367 297.35 460.357 296.36 460.357 295.15V294.05C460.357 292.84 459.367 291.85 458.157 291.85H451.557C450.347 291.85 449.357 292.84 449.357 294.05H447.157C447.157 291.718 449.093 289.65 451.557 289.65H458.157C460.467 289.65 462.557 291.608 462.557 294.05V295.15C462.557 297.482 460.621 299.55 458.157 299.55H451.557C450.347 299.55 449.357 300.54 449.357 301.75ZM477.523 300.65V294.05C477.523 292.84 476.533 291.85 475.323 291.85H468.723C467.513 291.85 466.523 292.84 466.523 294.05V300.65C466.523 301.86 467.513 302.85 468.723 302.85H475.323C476.533 302.85 477.523 301.86 477.523 300.65ZM479.723 294.05V300.65C479.723 302.982 477.787 305.05 475.323 305.05H468.723C466.369 305.05 464.323 303.136 464.323 300.65V294.05C464.323 291.718 466.259 289.65 468.723 289.65H475.323C477.677 289.65 479.657 291.608 479.723 294.05ZM496.669 289.65V291.432L486.043 305.05H484.569V303.356L495.283 289.65H496.669ZM485.669 296.25C486.879 296.25 487.869 295.26 487.869 294.05C487.869 292.84 486.879 291.85 485.669 291.85C484.459 291.85 483.469 292.84 483.469 294.05C483.469 295.26 484.459 296.25 485.669 296.25ZM490.069 294.05C490.069 296.382 488.133 298.45 485.669 298.45C483.315 298.45 481.269 296.536 481.269 294.05C481.269 291.718 483.205 289.65 485.669 289.65C488.023 289.65 490.003 291.608 490.069 294.05ZM495.569 302.85C496.779 302.85 497.769 301.86 497.769 300.65C497.769 299.44 496.779 298.45 495.569 298.45C494.359 298.45 493.369 299.44 493.369 300.65C493.369 301.86 494.359 302.85 495.569 302.85ZM499.969 300.65C499.969 302.982 498.033 305.05 495.569 305.05C493.215 305.05 491.169 303.136 491.169 300.65C491.169 298.318 493.105 296.25 495.569 296.25C497.923 296.25 499.903 298.208 499.969 300.65Z" fill="#28368B"/>
<path d="M375.007 378.787L378.607 375.187H380.407V387.787H378.607V377.725L375.745 380.587H375.007V378.787ZM392.833 384.187V378.787C392.833 377.797 392.023 376.987 391.033 376.987H385.633C384.643 376.987 383.833 377.797 383.833 378.787V384.187C383.833 385.177 384.643 385.987 385.633 385.987H391.033C392.023 385.987 392.833 385.177 392.833 384.187ZM394.633 378.787V384.187C394.633 386.095 393.049 387.787 391.033 387.787H385.633C383.707 387.787 382.033 386.221 382.033 384.187V378.787C382.033 376.879 383.617 375.187 385.633 375.187H391.033C392.959 375.187 394.579 376.789 394.633 378.787ZM408.498 375.187V376.645L399.804 387.787H398.598V386.401L407.364 375.187H408.498ZM399.498 380.587C400.488 380.587 401.298 379.777 401.298 378.787C401.298 377.797 400.488 376.987 399.498 376.987C398.508 376.987 397.698 377.797 397.698 378.787C397.698 379.777 398.508 380.587 399.498 380.587ZM403.098 378.787C403.098 380.695 401.514 382.387 399.498 382.387C397.572 382.387 395.898 380.821 395.898 378.787C395.898 376.879 397.482 375.187 399.498 375.187C401.424 375.187 403.044 376.789 403.098 378.787ZM407.598 385.987C408.588 385.987 409.398 385.177 409.398 384.187C409.398 383.197 408.588 382.387 407.598 382.387C406.608 382.387 405.798 383.197 405.798 384.187C405.798 385.177 406.608 385.987 407.598 385.987ZM411.198 384.187C411.198 386.095 409.614 387.787 407.598 387.787C405.672 387.787 403.998 386.221 403.998 384.187C403.998 382.279 405.582 380.587 407.598 380.587C409.524 380.587 411.144 382.189 411.198 384.187Z" fill="white"/>
<path d="M233.211 366.694L236.811 363.094H238.611V375.694H236.811V365.632L233.949 368.494H233.211V366.694ZM251.038 372.094V366.694C251.038 365.704 250.228 364.894 249.238 364.894H243.838C242.848 364.894 242.038 365.704 242.038 366.694V372.094C242.038 373.084 242.848 373.894 243.838 373.894H249.238C250.228 373.894 251.038 373.084 251.038 372.094ZM252.838 366.694V372.094C252.838 374.002 251.254 375.694 249.238 375.694H243.838C241.912 375.694 240.238 374.128 240.238 372.094V366.694C240.238 364.786 241.822 363.094 243.838 363.094H249.238C251.164 363.094 252.784 364.696 252.838 366.694ZM266.703 363.094V364.552L258.009 375.694H256.803V374.308L265.569 363.094H266.703ZM257.703 368.494C258.693 368.494 259.503 367.684 259.503 366.694C259.503 365.704 258.693 364.894 257.703 364.894C256.713 364.894 255.903 365.704 255.903 366.694C255.903 367.684 256.713 368.494 257.703 368.494ZM261.303 366.694C261.303 368.602 259.719 370.294 257.703 370.294C255.777 370.294 254.103 368.728 254.103 366.694C254.103 364.786 255.687 363.094 257.703 363.094C259.629 363.094 261.249 364.696 261.303 366.694ZM265.803 373.894C266.793 373.894 267.603 373.084 267.603 372.094C267.603 371.104 266.793 370.294 265.803 370.294C264.812 370.294 264.003 371.104 264.003 372.094C264.003 373.084 264.812 373.894 265.803 373.894ZM269.403 372.094C269.403 374.002 267.819 375.694 265.803 375.694C263.877 375.694 262.203 374.128 262.203 372.094C262.203 370.186 263.787 368.494 265.803 368.494C267.729 368.494 269.349 370.096 269.403 372.094Z" fill="white"/>
<path d="M193.639 304.59L197.239 300.99H199.039V313.59H197.239V303.528L194.377 306.39H193.639V304.59ZM211.465 309.99V304.59C211.465 303.6 210.655 302.79 209.665 302.79H204.265C203.275 302.79 202.465 303.6 202.465 304.59V309.99C202.465 310.98 203.275 311.79 204.265 311.79H209.665C210.655 311.79 211.465 310.98 211.465 309.99ZM213.265 304.59V309.99C213.265 311.898 211.681 313.59 209.665 313.59H204.265C202.339 313.59 200.665 312.024 200.665 309.99V304.59C200.665 302.682 202.249 300.99 204.265 300.99H209.665C211.591 300.99 213.211 302.592 213.265 304.59ZM227.13 300.99V302.448L218.436 313.59H217.23V312.204L225.996 300.99H227.13ZM218.13 306.39C219.12 306.39 219.93 305.58 219.93 304.59C219.93 303.6 219.12 302.79 218.13 302.79C217.14 302.79 216.33 303.6 216.33 304.59C216.33 305.58 217.14 306.39 218.13 306.39ZM221.73 304.59C221.73 306.498 220.146 308.19 218.13 308.19C216.204 308.19 214.53 306.624 214.53 304.59C214.53 302.682 216.114 300.99 218.13 300.99C220.056 300.99 221.676 302.592 221.73 304.59ZM226.23 311.79C227.22 311.79 228.03 310.98 228.03 309.99C228.03 309 227.22 308.19 226.23 308.19C225.24 308.19 224.43 309 224.43 309.99C224.43 310.98 225.24 311.79 226.23 311.79ZM229.83 309.99C229.83 311.898 228.246 313.59 226.23 313.59C224.304 313.59 222.63 312.024 222.63 309.99C222.63 308.082 224.214 306.39 226.23 306.39C228.156 306.39 229.776 307.992 229.83 309.99Z" fill="white"/>
<path d="M302.462 411.763L306.062 408.163H307.862V420.763H306.062V410.701L303.2 413.563H302.462V411.763ZM320.288 417.163V411.763C320.288 410.773 319.478 409.963 318.488 409.963H313.088C312.098 409.963 311.288 410.773 311.288 411.763V417.163C311.288 418.153 312.098 418.963 313.088 418.963H318.488C319.478 418.963 320.288 418.153 320.288 417.163ZM322.088 411.763V417.163C322.088 419.071 320.504 420.763 318.488 420.763H313.088C311.162 420.763 309.488 419.197 309.488 417.163V411.763C309.488 409.855 311.072 408.163 313.088 408.163H318.488C320.414 408.163 322.034 409.765 322.088 411.763ZM335.953 408.163V409.621L327.259 420.763H326.053V419.377L334.819 408.163H335.953ZM326.953 413.563C327.943 413.563 328.753 412.753 328.753 411.763C328.753 410.773 327.943 409.963 326.953 409.963C325.963 409.963 325.153 410.773 325.153 411.763C325.153 412.753 325.963 413.563 326.953 413.563ZM330.553 411.763C330.553 413.671 328.969 415.363 326.953 415.363C325.027 415.363 323.353 413.797 323.353 411.763C323.353 409.855 324.937 408.163 326.953 408.163C328.879 408.163 330.499 409.765 330.553 411.763ZM335.053 418.963C336.043 418.963 336.853 418.153 336.853 417.163C336.853 416.173 336.043 415.363 335.053 415.363C334.063 415.363 333.253 416.173 333.253 417.163C333.253 418.153 334.063 418.963 335.053 418.963ZM338.653 417.163C338.653 419.071 337.069 420.763 335.053 420.763C333.127 420.763 331.453 419.197 331.453 417.163C331.453 415.255 333.037 413.563 335.053 413.563C336.979 413.563 338.599 415.165 338.653 417.163Z" fill="white"/>
<path fill-rule="evenodd" clip-rule="evenodd" d="M548.592 308.765L531.465 293.844L545.173 313.683C544.837 314.709 544.656 315.804 544.656 316.941V324.057C544.656 329.832 549.337 334.514 555.113 334.514H637.524C643.299 334.514 647.981 329.832 647.981 324.057V316.941C647.981 311.166 643.299 306.484 637.524 306.484H555.113C552.647 306.484 550.38 307.338 548.592 308.765Z" fill="#140D83"/>
<path d="M557.381 325.067V315.967H558.831V322.688L563.381 315.967H564.785V325.067H563.342V318.301L558.772 325.067H557.381ZM566.968 325.067V318.632H568.398V321.115H571.622V318.632H573.052V325.067H571.622V322.298H568.398V325.067H566.968ZM575.042 325.067V318.632H578.11C578.838 318.632 579.421 318.771 579.859 319.048C580.297 319.326 580.515 319.742 580.515 320.296C580.515 320.556 580.453 320.788 580.327 320.992C580.201 321.191 580.028 321.358 579.807 321.492C579.586 321.627 579.328 321.724 579.033 321.785L579.007 321.466C579.575 321.544 580.015 321.733 580.327 322.032C580.639 322.331 580.795 322.71 580.795 323.169C580.795 323.559 580.693 323.897 580.489 324.183C580.286 324.465 579.993 324.684 579.612 324.84C579.231 324.992 578.773 325.067 578.24 325.067H575.042ZM576.427 324.008H578.045C578.474 324.008 578.804 323.936 579.033 323.793C579.267 323.65 579.384 323.436 579.384 323.15C579.384 322.868 579.27 322.658 579.04 322.519C578.81 322.376 578.479 322.305 578.045 322.305H576.238V321.284H577.896C578.299 321.284 578.611 321.224 578.832 321.102C579.053 320.977 579.163 320.773 579.163 320.491C579.163 320.21 579.053 320.006 578.832 319.88C578.611 319.75 578.299 319.685 577.896 319.685H576.427V324.008ZM585.344 325.262C584.65 325.262 584.041 325.122 583.517 324.84C582.993 324.554 582.583 324.155 582.289 323.644C581.998 323.133 581.853 322.539 581.853 321.863C581.853 321.369 581.938 320.914 582.107 320.498C582.276 320.078 582.514 319.714 582.822 319.406C583.129 319.098 583.489 318.86 583.901 318.691C584.317 318.522 584.769 318.437 585.259 318.437C585.792 318.437 586.267 318.533 586.683 318.723C587.099 318.91 587.443 319.172 587.716 319.51C587.993 319.848 588.188 320.244 588.301 320.699C588.418 321.15 588.438 321.64 588.36 322.168H583.225C583.216 322.554 583.3 322.892 583.478 323.182C583.656 323.468 583.909 323.692 584.239 323.852C584.572 324.012 584.964 324.092 585.415 324.092C585.779 324.092 586.13 324.038 586.468 323.93C586.81 323.817 587.12 323.653 587.398 323.436L587.95 324.463C587.742 324.632 587.491 324.777 587.196 324.898C586.901 325.015 586.594 325.104 586.273 325.165C585.952 325.23 585.643 325.262 585.344 325.262ZM583.309 321.115H586.956C586.943 320.63 586.787 320.249 586.488 319.971C586.193 319.694 585.773 319.555 585.227 319.555C584.698 319.555 584.258 319.694 583.907 319.971C583.56 320.249 583.361 320.63 583.309 321.115ZM592.86 325.262C592.184 325.262 591.581 325.115 591.053 324.82C590.524 324.521 590.108 324.116 589.805 323.605C589.506 323.089 589.356 322.504 589.356 321.85C589.356 321.356 589.445 320.903 589.623 320.491C589.8 320.075 590.052 319.714 590.377 319.406C590.702 319.098 591.083 318.86 591.521 318.691C591.963 318.522 592.441 318.437 592.957 318.437C593.39 318.437 593.791 318.496 594.16 318.613C594.532 318.726 594.875 318.901 595.187 319.139L594.498 320.231C594.298 320.054 594.069 319.922 593.809 319.835C593.553 319.748 593.28 319.705 592.99 319.705C592.539 319.705 592.151 319.789 591.826 319.958C591.501 320.127 591.248 320.372 591.066 320.693C590.888 321.009 590.799 321.393 590.799 321.843C590.799 322.515 590.994 323.042 591.384 323.423C591.778 323.804 592.314 323.995 592.99 323.995C593.31 323.995 593.614 323.936 593.9 323.819C594.186 323.698 594.424 323.54 594.615 323.345L595.297 324.43C594.955 324.69 594.573 324.894 594.153 325.041C593.733 325.189 593.302 325.262 592.86 325.262ZM598.048 325.067V319.815H595.936V318.632H601.597V319.815H599.478V325.067H598.048ZM605.84 325.262C605.168 325.262 604.568 325.109 604.04 324.801C603.515 324.489 603.104 324.075 602.805 323.559C602.506 323.039 602.356 322.47 602.356 321.85C602.356 321.391 602.441 320.957 602.61 320.55C602.783 320.138 603.026 319.774 603.338 319.458C603.654 319.142 604.024 318.892 604.449 318.71C604.874 318.528 605.34 318.437 605.847 318.437C606.518 318.437 607.116 318.593 607.641 318.905C608.169 319.213 608.583 319.627 608.882 320.147C609.181 320.663 609.331 321.23 609.331 321.85C609.331 322.305 609.244 322.738 609.071 323.15C608.902 323.562 608.661 323.926 608.349 324.242C608.037 324.558 607.669 324.807 607.244 324.989C606.819 325.171 606.351 325.262 605.84 325.262ZM605.84 323.995C606.239 323.995 606.592 323.908 606.9 323.735C607.212 323.557 607.456 323.308 607.634 322.987C607.812 322.667 607.901 322.288 607.901 321.85C607.901 321.412 607.812 321.033 607.634 320.712C607.456 320.387 607.212 320.138 606.9 319.965C606.592 319.792 606.239 319.705 605.84 319.705C605.441 319.705 605.086 319.792 604.774 319.965C604.466 320.138 604.224 320.387 604.046 320.712C603.873 321.033 603.786 321.412 603.786 321.85C603.786 322.288 603.875 322.667 604.053 322.987C604.23 323.308 604.473 323.557 604.781 323.735C605.093 323.908 605.446 323.995 605.84 323.995ZM610.767 327.797V318.632H612.054V319.536C612.31 319.211 612.637 318.947 613.035 318.743C613.434 318.539 613.926 318.437 614.511 318.437C615.139 318.437 615.696 318.587 616.181 318.886C616.671 319.181 617.052 319.586 617.325 320.101C617.598 320.613 617.735 321.196 617.735 321.85C617.735 322.322 617.657 322.766 617.501 323.182C617.345 323.594 617.122 323.956 616.831 324.268C616.545 324.58 616.203 324.825 615.804 325.002C615.41 325.176 614.972 325.262 614.491 325.262C613.989 325.262 613.547 325.171 613.165 324.989C612.784 324.807 612.459 324.563 612.19 324.255V327.797H610.767ZM614.251 323.995C614.65 323.995 615.003 323.908 615.31 323.735C615.622 323.557 615.865 323.308 616.038 322.987C616.216 322.667 616.305 322.288 616.305 321.85C616.305 321.412 616.216 321.033 616.038 320.712C615.861 320.387 615.616 320.138 615.304 319.965C614.996 319.792 614.645 319.705 614.251 319.705C613.852 319.705 613.497 319.792 613.185 319.965C612.877 320.138 612.635 320.387 612.457 320.712C612.279 321.033 612.19 321.412 612.19 321.85C612.19 322.288 612.279 322.667 612.457 322.987C612.635 323.308 612.877 323.557 613.185 323.735C613.497 323.908 613.852 323.995 614.251 323.995ZM620.959 325.262C620.512 325.262 620.12 325.18 619.782 325.015C619.444 324.846 619.18 324.61 618.989 324.307C618.803 323.999 618.71 323.637 618.71 323.221C618.71 322.87 618.799 322.554 618.976 322.272C619.154 321.986 619.429 321.75 619.802 321.564C620.179 321.378 620.662 321.254 621.251 321.193C621.841 321.128 622.549 321.137 623.377 321.219L623.403 322.207C622.813 322.125 622.306 322.09 621.882 322.103C621.457 322.116 621.108 322.171 620.835 322.266C620.567 322.357 620.367 322.48 620.237 322.636C620.112 322.788 620.049 322.964 620.049 323.163C620.049 323.475 620.159 323.715 620.38 323.884C620.606 324.053 620.913 324.138 621.303 324.138C621.637 324.138 621.936 324.077 622.2 323.956C622.465 323.835 622.673 323.663 622.824 323.442C622.98 323.221 623.058 322.961 623.058 322.662V320.953C623.058 320.667 622.998 320.42 622.876 320.212C622.755 320 622.571 319.835 622.324 319.718C622.077 319.601 621.769 319.542 621.401 319.542C621.063 319.542 620.729 319.594 620.4 319.698C620.07 319.798 619.756 319.956 619.457 320.173L619.054 319.12C619.457 318.847 619.878 318.654 620.315 318.541C620.753 318.429 621.173 318.372 621.576 318.372C622.174 318.372 622.686 318.468 623.11 318.658C623.539 318.845 623.869 319.129 624.098 319.51C624.328 319.887 624.443 320.364 624.443 320.94V325.067H623.156V324.307C622.939 324.615 622.638 324.851 622.252 325.015C621.867 325.18 621.435 325.262 620.959 325.262ZM626.344 325.067V318.632H627.586H627.625L630.511 322.805L629.893 322.818L632.636 318.632H633.904V325.067H632.604L632.623 320.309L632.89 320.426L630.589 323.787H629.666L627.261 320.42L627.527 320.303L627.547 325.067H626.344Z" fill="white"/>
<path fill-rule="evenodd" clip-rule="evenodd" d="M422.181 460.454L405.054 445.533L418.762 465.372C418.426 466.397 418.245 467.492 418.245 468.629V492.233C418.245 498.008 422.927 502.69 428.702 502.69H511.663C517.438 502.69 522.12 498.008 522.12 492.233V468.629C522.12 462.854 517.438 458.172 511.663 458.172H428.702C426.236 458.172 423.969 459.026 422.181 460.454Z" fill="#140D83"/>
<path d="M433.564 476.952C432.927 476.952 432.307 476.863 431.705 476.685C431.107 476.503 430.585 476.239 430.139 475.892L430.828 474.729C431.231 475.032 431.666 475.255 432.134 475.398C432.606 475.537 433.092 475.606 433.59 475.606C434.249 475.606 434.819 475.476 435.3 475.216C435.785 474.952 436.158 474.562 436.418 474.046C436.678 473.531 436.808 472.887 436.808 472.116C436.808 471.401 436.675 470.796 436.411 470.302C436.151 469.808 435.783 469.434 435.306 469.178C434.834 468.922 434.279 468.794 433.642 468.794C433.135 468.794 432.669 468.862 432.245 468.996C431.824 469.13 431.449 469.332 431.12 469.6L430.425 468.528C430.81 468.194 431.28 467.934 431.835 467.748C432.39 467.557 433.005 467.462 433.681 467.462C434.591 467.462 435.386 467.657 436.067 468.047C436.751 468.433 437.282 468.974 437.659 469.672C438.04 470.37 438.231 471.182 438.231 472.109C438.231 472.846 438.118 473.513 437.893 474.111C437.672 474.709 437.354 475.221 436.938 475.645C436.526 476.066 436.034 476.389 435.462 476.614C434.894 476.839 434.262 476.952 433.564 476.952ZM431.926 472.59V471.414H437.165V472.59H431.926ZM444.124 476.757L441.992 473.338L443.974 470.322H445.502L443.532 473.273L445.833 476.757H444.124ZM439.847 476.757V470.322H441.277V472.805H443.214V473.988H441.277V476.757H439.847ZM449.92 476.952C449.244 476.952 448.641 476.805 448.113 476.51C447.584 476.211 447.168 475.806 446.865 475.294C446.566 474.779 446.416 474.194 446.416 473.539C446.416 473.045 446.505 472.593 446.683 472.181C446.86 471.765 447.112 471.403 447.437 471.095C447.762 470.788 448.143 470.549 448.581 470.38C449.023 470.211 449.501 470.127 450.017 470.127C450.45 470.127 450.851 470.185 451.22 470.302C451.592 470.415 451.935 470.591 452.247 470.829L451.558 471.921C451.358 471.743 451.129 471.611 450.869 471.524C450.613 471.438 450.34 471.394 450.05 471.394C449.599 471.394 449.211 471.479 448.886 471.648C448.561 471.817 448.308 472.062 448.126 472.382C447.948 472.699 447.859 473.082 447.859 473.533C447.859 474.205 448.054 474.731 448.444 475.112C448.838 475.494 449.374 475.684 450.05 475.684C450.37 475.684 450.674 475.626 450.96 475.509C451.246 475.388 451.484 475.229 451.675 475.034L452.357 476.12C452.015 476.38 451.633 476.584 451.213 476.731C450.793 476.878 450.362 476.952 449.92 476.952ZM453.672 476.757V470.322H459.749V476.757H458.319V471.505H455.102V476.757H453.672ZM464.671 476.952C463.978 476.952 463.369 476.811 462.845 476.529C462.32 476.243 461.911 475.845 461.616 475.333C461.326 474.822 461.181 474.228 461.181 473.552C461.181 473.058 461.265 472.603 461.434 472.187C461.603 471.767 461.842 471.403 462.149 471.095C462.457 470.788 462.817 470.549 463.228 470.38C463.644 470.211 464.097 470.127 464.587 470.127C465.12 470.127 465.594 470.222 466.01 470.413C466.426 470.599 466.771 470.861 467.044 471.199C467.321 471.537 467.516 471.934 467.629 472.389C467.746 472.84 467.765 473.329 467.687 473.858H462.552C462.544 474.244 462.628 474.582 462.806 474.872C462.983 475.158 463.237 475.381 463.566 475.541C463.9 475.702 464.292 475.782 464.743 475.782C465.107 475.782 465.458 475.728 465.796 475.619C466.138 475.507 466.448 475.342 466.725 475.125L467.278 476.152C467.07 476.321 466.818 476.467 466.524 476.588C466.229 476.705 465.921 476.794 465.601 476.854C465.28 476.919 464.97 476.952 464.671 476.952ZM462.637 472.805H466.283C466.27 472.32 466.114 471.938 465.815 471.661C465.521 471.384 465.1 471.245 464.554 471.245C464.026 471.245 463.586 471.384 463.235 471.661C462.888 471.938 462.689 472.32 462.637 472.805ZM469.173 479.487V470.322H470.46V471.225C470.715 470.9 471.043 470.636 471.441 470.432C471.84 470.229 472.332 470.127 472.917 470.127C473.545 470.127 474.102 470.276 474.587 470.575C475.077 470.87 475.458 471.275 475.731 471.791C476.004 472.302 476.141 472.885 476.141 473.539C476.141 474.012 476.063 474.456 475.907 474.872C475.751 475.284 475.528 475.645 475.237 475.957C474.951 476.269 474.609 476.514 474.21 476.692C473.816 476.865 473.378 476.952 472.897 476.952C472.395 476.952 471.953 476.861 471.571 476.679C471.19 476.497 470.865 476.252 470.596 475.944V479.487H469.173ZM472.657 475.684C473.055 475.684 473.409 475.598 473.716 475.424C474.028 475.247 474.271 474.998 474.444 474.677C474.622 474.356 474.711 473.977 474.711 473.539C474.711 473.102 474.622 472.723 474.444 472.402C474.267 472.077 474.022 471.828 473.71 471.654C473.402 471.481 473.051 471.394 472.657 471.394C472.258 471.394 471.903 471.481 471.591 471.654C471.283 471.828 471.04 472.077 470.863 472.402C470.685 472.723 470.596 473.102 470.596 473.539C470.596 473.977 470.685 474.356 470.863 474.677C471.04 474.998 471.283 475.247 471.591 475.424C471.903 475.598 472.258 475.684 472.657 475.684ZM479.014 476.757V471.505H476.901V470.322H482.563V471.505H480.444V476.757H479.014ZM483.874 476.757V470.322H485.304V472.805H488.528V470.322H489.958V476.757H488.528V473.988H485.304V476.757H483.874ZM494.88 476.952C494.208 476.952 493.608 476.798 493.079 476.49C492.555 476.178 492.143 475.765 491.844 475.249C491.545 474.729 491.396 474.159 491.396 473.539C491.396 473.08 491.48 472.647 491.649 472.239C491.822 471.828 492.065 471.464 492.377 471.147C492.693 470.831 493.064 470.582 493.489 470.4C493.913 470.218 494.379 470.127 494.886 470.127C495.558 470.127 496.156 470.283 496.68 470.595C497.209 470.903 497.623 471.316 497.922 471.836C498.221 472.352 498.37 472.92 498.37 473.539C498.37 473.994 498.283 474.428 498.11 474.839C497.941 475.251 497.701 475.615 497.389 475.931C497.077 476.248 496.708 476.497 496.284 476.679C495.859 476.861 495.391 476.952 494.88 476.952ZM494.88 475.684C495.278 475.684 495.631 475.598 495.939 475.424C496.251 475.247 496.496 474.998 496.674 474.677C496.851 474.356 496.94 473.977 496.94 473.539C496.94 473.102 496.851 472.723 496.674 472.402C496.496 472.077 496.251 471.828 495.939 471.654C495.631 471.481 495.278 471.394 494.88 471.394C494.481 471.394 494.126 471.481 493.814 471.654C493.506 471.828 493.263 472.077 493.086 472.402C492.912 472.723 492.826 473.102 492.826 473.539C492.826 473.977 492.914 474.356 493.092 474.677C493.27 474.998 493.512 475.247 493.82 475.424C494.132 475.598 494.485 475.684 494.88 475.684ZM499.807 476.757V470.322H501.191V474.664L504.682 470.322H505.93V476.757H504.552V472.363L501.029 476.757H499.807ZM502.868 469.217C502.387 469.217 501.965 469.117 501.601 468.918C501.237 468.719 500.955 468.443 500.756 468.092C500.556 467.741 500.463 467.338 500.476 466.883H501.672C501.655 467.282 501.754 467.605 501.971 467.852C502.192 468.095 502.491 468.216 502.868 468.216C503.245 468.216 503.542 468.095 503.759 467.852C503.975 467.605 504.073 467.282 504.051 466.883H505.254C505.262 467.334 505.165 467.735 504.961 468.086C504.762 468.437 504.48 468.714 504.116 468.918C503.756 469.117 503.34 469.217 502.868 469.217ZM435.059 492.757L432.927 489.338L434.91 486.322H436.437L434.468 489.273L436.769 492.757H435.059ZM430.782 492.757V486.322H432.212V488.805H434.149V489.988H432.212V492.757H430.782ZM440.836 492.952C440.164 492.952 439.564 492.798 439.035 492.49C438.511 492.178 438.099 491.765 437.8 491.249C437.501 490.729 437.352 490.159 437.352 489.539C437.352 489.08 437.436 488.647 437.605 488.239C437.779 487.828 438.021 487.464 438.333 487.147C438.65 486.831 439.02 486.582 439.445 486.4C439.869 486.218 440.335 486.127 440.842 486.127C441.514 486.127 442.112 486.283 442.636 486.595C443.165 486.903 443.579 487.316 443.878 487.836C444.177 488.352 444.326 488.92 444.326 489.539C444.326 489.994 444.24 490.428 444.066 490.839C443.897 491.251 443.657 491.615 443.345 491.931C443.033 492.248 442.664 492.497 442.24 492.679C441.815 492.861 441.347 492.952 440.836 492.952ZM440.836 491.684C441.234 491.684 441.588 491.598 441.895 491.424C442.207 491.247 442.452 490.998 442.63 490.677C442.807 490.356 442.896 489.977 442.896 489.539C442.896 489.102 442.807 488.723 442.63 488.402C442.452 488.077 442.207 487.828 441.895 487.654C441.588 487.481 441.234 487.394 440.836 487.394C440.437 487.394 440.082 487.481 439.77 487.654C439.462 487.828 439.219 488.077 439.042 488.402C438.868 488.723 438.782 489.102 438.782 489.539C438.782 489.977 438.871 490.356 439.048 490.677C439.226 490.998 439.469 491.247 439.776 491.424C440.088 491.598 440.441 491.684 440.836 491.684ZM445.763 492.757V486.322H447.004H447.043L449.929 490.495L449.312 490.508L452.055 486.322H453.322V492.757H452.022L452.042 487.999L452.308 488.116L450.007 491.476H449.084L446.679 488.109L446.946 487.992L446.965 492.757H445.763ZM457.097 492.952C456.651 492.952 456.258 492.87 455.92 492.705C455.582 492.536 455.318 492.3 455.127 491.996C454.941 491.689 454.848 491.327 454.848 490.911C454.848 490.56 454.937 490.244 455.114 489.962C455.292 489.676 455.567 489.44 455.94 489.253C456.317 489.067 456.8 488.944 457.389 488.883C457.979 488.818 458.687 488.827 459.515 488.909L459.541 489.897C458.952 489.815 458.445 489.78 458.02 489.793C457.595 489.806 457.246 489.86 456.973 489.955C456.705 490.046 456.505 490.17 456.375 490.326C456.25 490.478 456.187 490.653 456.187 490.852C456.187 491.164 456.297 491.405 456.518 491.574C456.744 491.743 457.051 491.827 457.441 491.827C457.775 491.827 458.074 491.767 458.338 491.645C458.603 491.524 458.811 491.353 458.962 491.132C459.118 490.911 459.196 490.651 459.196 490.352V488.642C459.196 488.356 459.136 488.109 459.014 487.901C458.893 487.689 458.709 487.524 458.462 487.407C458.215 487.29 457.907 487.232 457.539 487.232C457.201 487.232 456.867 487.284 456.538 487.388C456.209 487.488 455.894 487.646 455.595 487.862L455.192 486.809C455.595 486.536 456.016 486.344 456.453 486.231C456.891 486.118 457.311 486.062 457.714 486.062C458.312 486.062 458.824 486.157 459.248 486.348C459.677 486.534 460.007 486.818 460.236 487.199C460.466 487.576 460.581 488.053 460.581 488.629V492.757H459.294V491.996C459.077 492.304 458.776 492.54 458.39 492.705C458.005 492.87 457.574 492.952 457.097 492.952ZM462.482 492.757V486.322H463.912V488.805H467.136V486.322H468.566V492.757H467.136V489.988H463.912V492.757H462.482ZM475.23 492.757V487.505H472.63V488.356C472.63 488.941 472.595 489.47 472.526 489.942C472.457 490.415 472.333 490.831 472.156 491.19C471.978 491.546 471.729 491.84 471.408 492.074C471.092 492.308 470.687 492.48 470.193 492.588L469.842 491.619C470.253 491.52 470.563 491.333 470.771 491.06C470.979 490.787 471.118 490.428 471.187 489.981C471.261 489.531 471.298 488.989 471.298 488.356V486.322H476.66V492.757H475.23ZM469.842 494.707V491.619L470.726 491.71L470.947 491.574H477.954V494.707H476.647V492.757H471.148V494.707H469.842ZM482.051 492.952C481.358 492.952 480.749 492.811 480.225 492.529C479.7 492.243 479.291 491.845 478.996 491.333C478.706 490.822 478.561 490.228 478.561 489.552C478.561 489.058 478.645 488.603 478.814 488.187C478.983 487.767 479.221 487.403 479.529 487.095C479.837 486.788 480.196 486.549 480.608 486.38C481.024 486.211 481.477 486.127 481.967 486.127C482.5 486.127 482.974 486.222 483.39 486.413C483.806 486.599 484.151 486.861 484.424 487.199C484.701 487.537 484.896 487.934 485.009 488.389C485.126 488.84 485.145 489.329 485.067 489.858H479.932C479.923 490.244 480.008 490.582 480.186 490.872C480.363 491.158 480.617 491.381 480.946 491.541C481.28 491.702 481.672 491.782 482.123 491.782C482.487 491.782 482.838 491.728 483.176 491.619C483.518 491.507 483.828 491.342 484.105 491.125L484.658 492.152C484.45 492.321 484.198 492.467 483.904 492.588C483.609 492.705 483.301 492.794 482.981 492.854C482.66 492.919 482.35 492.952 482.051 492.952ZM480.017 488.805H483.663C483.65 488.32 483.494 487.938 483.195 487.661C482.9 487.384 482.48 487.245 481.934 487.245C481.405 487.245 480.966 487.384 480.615 487.661C480.268 487.938 480.069 488.32 480.017 488.805Z" fill="white"/>
<path fill-rule="evenodd" clip-rule="evenodd" d="M130.671 224.728L147.857 209.755L134.12 229.637C134.465 230.675 134.652 231.786 134.652 232.94V240.055C134.652 245.831 129.971 250.512 124.195 250.512H10.457C4.68176 250.512 0 245.831 0 240.055V232.94C0 227.165 4.68176 222.483 10.457 222.483H124.195C126.641 222.483 128.89 223.322 130.671 224.728Z" fill="#79F585"/>
<path d="M12.9275 241.135L12.3555 239.796C12.8581 239.674 13.311 239.494 13.714 239.256C14.1213 239.018 14.4918 238.701 14.8255 238.307C15.1591 237.913 15.4668 237.425 15.7485 236.845L18.173 231.879H19.8565L17.107 237.3C16.8036 237.898 16.4981 238.418 16.1905 238.86C15.8828 239.297 15.5621 239.668 15.2285 239.971C14.8948 240.274 14.5373 240.519 14.156 240.706C13.779 240.892 13.3695 241.035 12.9275 241.135ZM15.547 238.119L12.0825 231.879H13.857L16.522 236.832L15.547 238.119ZM24.2739 240.979V238.463C23.9706 238.541 23.6824 238.6 23.4094 238.639C23.1408 238.678 22.8569 238.697 22.5579 238.697C21.9816 238.697 21.4963 238.608 21.1019 238.431C20.7076 238.253 20.4108 237.984 20.2114 237.625C20.0121 237.265 19.9124 236.812 19.9124 236.266V234.544H21.3424V236.065C21.3424 236.524 21.4529 236.873 21.6739 237.111C21.8949 237.349 22.2719 237.469 22.8049 237.469C23.1126 237.469 23.3813 237.456 23.6109 237.43C23.8449 237.399 24.0659 237.362 24.2739 237.319V234.544H25.7039V240.979H24.2739ZM29.4832 241.174C29.0368 241.174 28.6447 241.091 28.3067 240.927C27.9687 240.758 27.7043 240.521 27.5137 240.218C27.3273 239.91 27.2342 239.549 27.2342 239.133C27.2342 238.782 27.323 238.465 27.5007 238.184C27.6783 237.898 27.9535 237.661 28.3262 237.475C28.7032 237.289 29.1863 237.165 29.7757 237.105C30.365 237.04 31.0735 237.048 31.9012 237.131L31.9272 238.119C31.3378 238.036 30.8308 238.002 30.4062 238.015C29.9815 238.028 29.6327 238.082 29.3597 238.177C29.091 238.268 28.8917 238.392 28.7617 238.548C28.636 238.699 28.5732 238.875 28.5732 239.074C28.5732 239.386 28.6837 239.627 28.9047 239.796C29.13 239.965 29.4377 240.049 29.8277 240.049C30.1613 240.049 30.4603 239.988 30.7247 239.867C30.989 239.746 31.197 239.575 31.3487 239.354C31.5047 239.133 31.5827 238.873 31.5827 238.574V236.864C31.5827 236.578 31.522 236.331 31.4007 236.123C31.2793 235.911 31.0952 235.746 30.8482 235.629C30.6012 235.512 30.2935 235.454 29.9252 235.454C29.5872 235.454 29.2535 235.506 28.9242 235.61C28.5948 235.709 28.2807 235.867 27.9817 236.084L27.5787 235.031C27.9817 234.758 28.402 234.565 28.8397 234.453C29.2773 234.34 29.6977 234.284 30.1007 234.284C30.6987 234.284 31.21 234.379 31.6347 234.57C32.0637 234.756 32.393 235.04 32.6227 235.421C32.8523 235.798 32.9672 236.275 32.9672 236.851V240.979H31.6802V240.218C31.4635 240.526 31.1623 240.762 30.7767 240.927C30.391 241.091 29.9598 241.174 29.4832 241.174ZM37.8195 241.174C37.1435 241.174 36.5412 241.026 36.0125 240.732C35.4839 240.433 35.0679 240.027 34.7645 239.516C34.4655 239 34.316 238.415 34.316 237.761C34.316 237.267 34.4049 236.814 34.5825 236.403C34.7602 235.987 35.0115 235.625 35.3365 235.317C35.6615 235.009 36.0429 234.771 36.4805 234.602C36.9225 234.433 37.4014 234.349 37.917 234.349C38.3504 234.349 38.7512 234.407 39.1195 234.524C39.4922 234.637 39.8345 234.812 40.1465 235.051L39.4575 236.143C39.2582 235.965 39.0285 235.833 38.7685 235.746C38.5129 235.659 38.2399 235.616 37.9495 235.616C37.4989 235.616 37.111 235.701 36.786 235.87C36.461 236.039 36.2075 236.283 36.0255 236.604C35.8479 236.92 35.759 237.304 35.759 237.755C35.759 238.426 35.954 238.953 36.344 239.334C36.7384 239.715 37.2735 239.906 37.9495 239.906C38.2702 239.906 38.5735 239.848 38.8595 239.731C39.1455 239.609 39.3839 239.451 39.5745 239.256L40.257 240.342C39.9147 240.602 39.5334 240.805 39.113 240.953C38.6927 241.1 38.2615 241.174 37.8195 241.174ZM43.0081 240.979V235.727H40.8956V234.544H46.5571V235.727H44.4381V240.979H43.0081ZM47.8685 240.979V234.544H49.2985V237.027H52.5225V234.544H53.9525V240.979H52.5225V238.21H49.2985V240.979H47.8685ZM55.9427 240.979V234.544H57.3272V238.886L60.8177 234.544H62.0657V240.979H60.6877V236.585L57.1647 240.979H55.9427ZM68.332 240.979L66.2 237.56L68.1825 234.544H69.71L67.7405 237.495L70.0415 240.979H68.332ZM64.055 240.979V234.544H65.485V237.027H67.422V238.21H65.485V240.979H64.055ZM73.0916 241.174C72.6452 241.174 72.2531 241.091 71.9151 240.927C71.5771 240.758 71.3127 240.521 71.1221 240.218C70.9357 239.91 70.8426 239.549 70.8426 239.133C70.8426 238.782 70.9314 238.465 71.1091 238.184C71.2867 237.898 71.5619 237.661 71.9346 237.475C72.3116 237.289 72.7947 237.165 73.3841 237.105C73.9734 237.04 74.6819 237.048 75.5096 237.131L75.5356 238.119C74.9462 238.036 74.4392 238.002 74.0146 238.015C73.5899 238.028 73.2411 238.082 72.9681 238.177C72.6994 238.268 72.5001 238.392 72.3701 238.548C72.2444 238.699 72.1816 238.875 72.1816 239.074C72.1816 239.386 72.2921 239.627 72.5131 239.796C72.7384 239.965 73.0461 240.049 73.4361 240.049C73.7697 240.049 74.0687 239.988 74.3331 239.867C74.5974 239.746 74.8054 239.575 74.9571 239.354C75.1131 239.133 75.1911 238.873 75.1911 238.574V236.864C75.1911 236.578 75.1304 236.331 75.0091 236.123C74.8877 235.911 74.7036 235.746 74.4566 235.629C74.2096 235.512 73.9019 235.454 73.5336 235.454C73.1956 235.454 72.8619 235.506 72.5326 235.61C72.2032 235.709 71.8891 235.867 71.5901 236.084L71.1871 235.031C71.5901 234.758 72.0104 234.565 72.4481 234.453C72.8857 234.34 73.3061 234.284 73.7091 234.284C74.3071 234.284 74.8184 234.379 75.2431 234.57C75.6721 234.756 76.0014 235.04 76.2311 235.421C76.4607 235.798 76.5756 236.275 76.5756 236.851V240.979H75.2886V240.218C75.0719 240.526 74.7707 240.762 74.3851 240.927C73.9994 241.091 73.5682 241.174 73.0916 241.174ZM78.4769 240.979V234.544H79.7184H79.7574L82.6434 238.717L82.0259 238.73L84.7689 234.544H86.0364V240.979H84.7364L84.7559 236.221L85.0224 236.338L82.7214 239.698H81.7984L79.3934 236.331L79.6599 236.214L79.6794 240.979H78.4769ZM92.8613 242.474C92.324 241.568 91.921 240.604 91.6523 239.581C91.3837 238.558 91.2493 237.525 91.2493 236.481C91.2493 235.783 91.3078 235.092 91.4248 234.407C91.5462 233.718 91.726 233.046 91.9643 232.392C92.2027 231.738 92.5017 231.112 92.8613 230.514L93.9533 230.956C93.715 231.333 93.5048 231.74 93.3228 232.178C93.1452 232.611 92.9957 233.062 92.8743 233.53C92.753 233.998 92.662 234.479 92.6013 234.973C92.545 235.462 92.5168 235.956 92.5168 236.455C92.5168 237.451 92.636 238.435 92.8743 239.406C93.117 240.372 93.4767 241.247 93.9533 242.032L92.8613 242.474ZM95.7045 240.979V234.544H98.7725C99.5005 234.544 100.083 234.682 100.521 234.96C100.959 235.237 101.177 235.653 101.177 236.208C101.177 236.468 101.115 236.699 100.989 236.903C100.863 237.102 100.69 237.269 100.469 237.404C100.248 237.538 99.9901 237.635 99.6955 237.696L99.6695 237.378C100.237 237.456 100.677 237.644 100.989 237.943C101.301 238.242 101.457 238.621 101.457 239.081C101.457 239.471 101.355 239.809 101.151 240.095C100.948 240.376 100.655 240.595 100.274 240.751C99.8926 240.903 99.4355 240.979 98.9025 240.979H95.7045ZM97.089 239.919H98.7075C99.1365 239.919 99.4658 239.848 99.6955 239.705C99.9295 239.562 100.046 239.347 100.046 239.061C100.046 238.779 99.9316 238.569 99.702 238.431C99.4723 238.288 99.1408 238.216 98.7075 238.216H96.9005V237.196H98.558C98.961 237.196 99.273 237.135 99.494 237.014C99.715 236.888 99.8255 236.684 99.8255 236.403C99.8255 236.121 99.715 235.917 99.494 235.792C99.273 235.662 98.961 235.597 98.558 235.597H97.089V239.919ZM104.855 241.174C104.409 241.174 104.017 241.091 103.679 240.927C103.341 240.758 103.076 240.521 102.886 240.218C102.699 239.91 102.606 239.549 102.606 239.133C102.606 238.782 102.695 238.465 102.873 238.184C103.05 237.898 103.326 237.661 103.698 237.475C104.075 237.289 104.558 237.165 105.148 237.105C105.737 237.04 106.446 237.048 107.273 237.131L107.299 238.119C106.71 238.036 106.203 238.002 105.778 238.015C105.354 238.028 105.005 238.082 104.732 238.177C104.463 238.268 104.264 238.392 104.134 238.548C104.008 238.699 103.945 238.875 103.945 239.074C103.945 239.386 104.056 239.627 104.277 239.796C104.502 239.965 104.81 240.049 105.2 240.049C105.533 240.049 105.832 239.988 106.097 239.867C106.361 239.746 106.569 239.575 106.721 239.354C106.877 239.133 106.955 238.873 106.955 238.574V236.864C106.955 236.578 106.894 236.331 106.773 236.123C106.651 235.911 106.467 235.746 106.22 235.629C105.973 235.512 105.666 235.454 105.297 235.454C104.959 235.454 104.626 235.506 104.296 235.61C103.967 235.709 103.653 235.867 103.354 236.084L102.951 235.031C103.354 234.758 103.774 234.565 104.212 234.453C104.649 234.34 105.07 234.284 105.473 234.284C106.071 234.284 106.582 234.379 107.007 234.57C107.436 234.756 107.765 235.04 107.995 235.421C108.224 235.798 108.339 236.275 108.339 236.851V240.979H107.052V240.218C106.836 240.526 106.534 240.762 106.149 240.927C105.763 241.091 105.332 241.174 104.855 241.174ZM110.241 240.979V234.544H111.482H111.521L114.407 238.717L113.79 238.73L116.533 234.544H117.8V240.979H116.5L116.52 236.221L116.786 236.338L114.485 239.698H113.562L111.157 236.331L111.424 236.214L111.443 240.979H110.241ZM120.639 242.474L119.547 242.032C119.785 241.65 119.993 241.243 120.171 240.81C120.353 240.376 120.505 239.926 120.626 239.458C120.747 238.99 120.836 238.509 120.892 238.015C120.953 237.521 120.983 237.027 120.983 236.533C120.983 235.532 120.862 234.548 120.619 233.582C120.381 232.615 120.024 231.74 119.547 230.956L120.639 230.514C121.181 231.415 121.584 232.377 121.848 233.4C122.117 234.422 122.251 235.458 122.251 236.507C122.251 237.204 122.19 237.898 122.069 238.587C121.952 239.271 121.774 239.941 121.536 240.595C121.298 241.249 120.999 241.876 120.639 242.474Z" fill="#1C195B"/>
<path fill-rule="evenodd" clip-rule="evenodd" d="M142.266 332.954L159.4 318.026L145.682 337.88C146.015 338.901 146.195 339.991 146.195 341.124V365.827C146.195 371.602 141.514 376.284 135.738 376.284H22C16.2247 376.284 11.543 371.602 11.543 365.827V341.124C11.543 335.348 16.2247 330.667 22 330.667H135.738C138.208 330.667 140.477 331.522 142.266 332.954Z" fill="#140D83"/>
<path d="M24.266 349.25V340.15H29.986V341.437H25.722V343.907H27.3795C28.3632 343.907 29.1518 344.134 29.7455 344.589C30.3392 345.04 30.636 345.703 30.636 346.578C30.636 347.15 30.506 347.636 30.246 348.034C29.9903 348.429 29.6177 348.73 29.128 348.938C28.6427 349.146 28.0577 349.25 27.373 349.25H24.266ZM25.722 348.106H27.295C27.8843 348.106 28.3372 347.976 28.6535 347.716C28.9742 347.456 29.1345 347.083 29.1345 346.598C29.1345 346.126 28.9763 345.751 28.66 345.473C28.3437 345.196 27.9082 345.057 27.3535 345.057H25.722V348.106ZM35.2548 349.445C34.5614 349.445 33.9526 349.304 33.4283 349.022C32.9039 348.736 32.4944 348.338 32.1998 347.826C31.9094 347.315 31.7643 346.721 31.7643 346.045C31.7643 345.551 31.8488 345.096 32.0178 344.68C32.1868 344.26 32.4251 343.896 32.7328 343.588C33.0404 343.281 33.4001 343.042 33.8118 342.873C34.2278 342.704 34.6806 342.62 35.1703 342.62C35.7033 342.62 36.1778 342.715 36.5938 342.906C37.0098 343.092 37.3543 343.354 37.6273 343.692C37.9046 344.03 38.0996 344.427 38.2123 344.882C38.3293 345.333 38.3488 345.822 38.2708 346.351H33.1358C33.1271 346.737 33.2116 347.075 33.3893 347.365C33.5669 347.651 33.8204 347.874 34.1498 348.034C34.4834 348.195 34.8756 348.275 35.3263 348.275C35.6903 348.275 36.0413 348.221 36.3793 348.112C36.7216 348 37.0314 347.835 37.3088 347.618L37.8613 348.645C37.6533 348.814 37.4019 348.96 37.1073 349.081C36.8126 349.198 36.5049 349.287 36.1843 349.348C35.8636 349.413 35.5538 349.445 35.2548 349.445ZM33.2203 345.298H36.8668C36.8538 344.813 36.6978 344.431 36.3988 344.154C36.1041 343.877 35.6838 343.738 35.1378 343.738C34.6091 343.738 34.1693 343.877 33.8183 344.154C33.4716 344.431 33.2723 344.813 33.2203 345.298ZM41.9272 349.406C41.5676 349.406 41.2209 349.378 40.8872 349.322C40.5536 349.27 40.2394 349.187 39.9447 349.074C39.6501 348.957 39.3836 348.804 39.1452 348.613L39.7692 347.644C40.0422 347.874 40.3651 348.041 40.7377 348.145C41.1104 348.245 41.4896 348.295 41.8752 348.295C42.3996 348.295 42.8134 348.219 43.1167 348.067C43.4201 347.911 43.5717 347.655 43.5717 347.3C43.5717 346.988 43.4114 346.765 43.0907 346.63C42.7744 346.496 42.3129 346.429 41.7062 346.429H40.5232V345.35H41.6672C42.2046 345.35 42.6184 345.289 42.9087 345.168C43.1991 345.042 43.3442 344.83 43.3442 344.531C43.3442 344.353 43.2814 344.206 43.1557 344.089C43.0344 343.972 42.8611 343.883 42.6357 343.822C42.4147 343.762 42.1547 343.731 41.8557 343.731C41.4874 343.731 41.1321 343.786 40.7897 343.894C40.4474 344.002 40.1484 344.169 39.8927 344.394L39.3597 343.439C39.6891 343.166 40.0877 342.958 40.5557 342.815C41.0237 342.668 41.4961 342.594 41.9727 342.594C42.5274 342.594 43.0041 342.663 43.4027 342.802C43.8014 342.941 44.1091 343.14 44.3257 343.4C44.5424 343.66 44.6507 343.974 44.6507 344.342C44.6507 344.672 44.5446 344.958 44.3322 345.2C44.1242 345.443 43.8209 345.619 43.4222 345.727C43.9076 345.835 44.2759 346.026 44.5272 346.299C44.7829 346.572 44.9107 346.914 44.9107 347.326C44.9107 347.759 44.7872 348.132 44.5402 348.444C44.2976 348.752 43.9509 348.99 43.5002 349.159C43.0539 349.324 42.5296 349.406 41.9272 349.406ZM49.4035 349.445C48.7319 349.445 48.1317 349.291 47.603 348.983C47.0787 348.671 46.667 348.258 46.368 347.742C46.069 347.222 45.9195 346.652 45.9195 346.032C45.9195 345.573 46.004 345.14 46.173 344.732C46.3464 344.321 46.589 343.957 46.901 343.64C47.2174 343.324 47.5879 343.075 48.0125 342.893C48.4372 342.711 48.903 342.62 49.41 342.62C50.0817 342.62 50.6797 342.776 51.204 343.088C51.7327 343.396 52.1465 343.809 52.4455 344.329C52.7445 344.845 52.894 345.413 52.894 346.032C52.894 346.487 52.8074 346.921 52.634 347.332C52.465 347.744 52.2245 348.108 51.9125 348.424C51.6005 348.741 51.2322 348.99 50.8075 349.172C50.3829 349.354 49.9149 349.445 49.4035 349.445ZM49.4035 348.177C49.8022 348.177 50.1554 348.091 50.463 347.917C50.775 347.74 51.0199 347.491 51.1975 347.17C51.3752 346.849 51.464 346.47 51.464 346.032C51.464 345.595 51.3752 345.216 51.1975 344.895C51.0199 344.57 50.775 344.321 50.463 344.147C50.1554 343.974 49.8022 343.887 49.4035 343.887C49.0049 343.887 48.6495 343.974 48.3375 344.147C48.0299 344.321 47.7872 344.57 47.6095 344.895C47.4362 345.216 47.3495 345.595 47.3495 346.032C47.3495 346.47 47.4384 346.849 47.616 347.17C47.7937 347.491 48.0364 347.74 48.344 347.917C48.656 348.091 49.0092 348.177 49.4035 348.177ZM54.3304 349.25V342.815H60.4079V349.25H58.9779V343.998H55.7604V349.25H54.3304ZM64.1795 349.445C63.7331 349.445 63.341 349.363 63.003 349.198C62.665 349.029 62.4006 348.793 62.21 348.489C62.0236 348.182 61.9305 347.82 61.9305 347.404C61.9305 347.053 62.0193 346.737 62.197 346.455C62.3746 346.169 62.6498 345.933 63.0225 345.746C63.3995 345.56 63.8826 345.437 64.472 345.376C65.0613 345.311 65.7698 345.32 66.5975 345.402L66.6235 346.39C66.0341 346.308 65.5271 346.273 65.1025 346.286C64.6778 346.299 64.329 346.353 64.056 346.448C63.7873 346.539 63.588 346.663 63.458 346.819C63.3323 346.971 63.2695 347.146 63.2695 347.345C63.2695 347.657 63.38 347.898 63.601 348.067C63.8263 348.236 64.134 348.32 64.524 348.32C64.8576 348.32 65.1566 348.26 65.421 348.138C65.6853 348.017 65.8933 347.846 66.045 347.625C66.201 347.404 66.279 347.144 66.279 346.845V345.135C66.279 344.849 66.2183 344.602 66.097 344.394C65.9756 344.182 65.7915 344.017 65.5445 343.9C65.2975 343.783 64.9898 343.725 64.6215 343.725C64.2835 343.725 63.9498 343.777 63.6205 343.881C63.2911 343.981 62.977 344.139 62.678 344.355L62.275 343.302C62.678 343.029 63.0983 342.837 63.536 342.724C63.9736 342.611 64.394 342.555 64.797 342.555C65.395 342.555 65.9063 342.65 66.331 342.841C66.76 343.027 67.0893 343.311 67.319 343.692C67.5486 344.069 67.6635 344.546 67.6635 345.122V349.25H66.3765V348.489C66.1598 348.797 65.8586 349.033 65.473 349.198C65.0873 349.363 64.6561 349.445 64.1795 349.445ZM72.5158 349.445C71.8398 349.445 71.2375 349.298 70.7088 349.003C70.1801 348.704 69.7641 348.299 69.4608 347.787C69.1618 347.272 69.0123 346.687 69.0123 346.032C69.0123 345.538 69.1011 345.086 69.2788 344.674C69.4565 344.258 69.7078 343.896 70.0328 343.588C70.3578 343.281 70.7391 343.042 71.1768 342.873C71.6188 342.704 72.0976 342.62 72.6133 342.62C73.0466 342.62 73.4475 342.678 73.8158 342.795C74.1885 342.908 74.5308 343.084 74.8428 343.322L74.1538 344.414C73.9545 344.236 73.7248 344.104 73.4648 344.017C73.2091 343.931 72.9361 343.887 72.6458 343.887C72.1951 343.887 71.8073 343.972 71.4823 344.141C71.1573 344.31 70.9038 344.555 70.7218 344.875C70.5441 345.192 70.4553 345.575 70.4553 346.026C70.4553 346.698 70.6503 347.224 71.0403 347.605C71.4346 347.987 71.9698 348.177 72.6458 348.177C72.9665 348.177 73.2698 348.119 73.5558 348.002C73.8418 347.881 74.0801 347.722 74.2708 347.527L74.9533 348.613C74.611 348.873 74.2296 349.077 73.8093 349.224C73.389 349.371 72.9578 349.445 72.5158 349.445ZM76.2679 349.25V342.815H77.6979V345.298H80.9219V342.815H82.3519V349.25H80.9219V346.481H77.6979V349.25H76.2679ZM87.2737 349.445C86.602 349.445 86.0018 349.291 85.4732 348.983C84.9488 348.671 84.5372 348.258 84.2382 347.742C83.9392 347.222 83.7897 346.652 83.7897 346.032C83.7897 345.573 83.8742 345.14 84.0432 344.732C84.2165 344.321 84.4592 343.957 84.7712 343.64C85.0875 343.324 85.458 343.075 85.8827 342.893C86.3073 342.711 86.7732 342.62 87.2802 342.62C87.9518 342.62 88.5498 342.776 89.0742 343.088C89.6028 343.396 90.0167 343.809 90.3157 344.329C90.6147 344.845 90.7642 345.413 90.7642 346.032C90.7642 346.487 90.6775 346.921 90.5042 347.332C90.3352 347.744 90.0947 348.108 89.7827 348.424C89.4707 348.741 89.1023 348.99 88.6777 349.172C88.253 349.354 87.785 349.445 87.2737 349.445ZM87.2737 348.177C87.6723 348.177 88.0255 348.091 88.3332 347.917C88.6452 347.74 88.89 347.491 89.0677 347.17C89.2453 346.849 89.3342 346.47 89.3342 346.032C89.3342 345.595 89.2453 345.216 89.0677 344.895C88.89 344.57 88.6452 344.321 88.3332 344.147C88.0255 343.974 87.6723 343.887 87.2737 343.887C86.875 343.887 86.5197 343.974 86.2077 344.147C85.9 344.321 85.6573 344.57 85.4797 344.895C85.3063 345.216 85.2197 345.595 85.2197 346.032C85.2197 346.47 85.3085 346.849 85.4862 347.17C85.6638 347.491 85.9065 347.74 86.2142 347.917C86.5262 348.091 86.8793 348.177 87.2737 348.177ZM95.215 349.445C94.539 349.445 93.9367 349.298 93.408 349.003C92.8794 348.704 92.4634 348.299 92.16 347.787C91.861 347.272 91.7115 346.687 91.7115 346.032C91.7115 345.538 91.8004 345.086 91.978 344.674C92.1557 344.258 92.407 343.896 92.732 343.588C93.057 343.281 93.4384 343.042 93.876 342.873C94.318 342.704 94.7969 342.62 95.3125 342.62C95.7459 342.62 96.1467 342.678 96.515 342.795C96.8877 342.908 97.23 343.084 97.542 343.322L96.853 344.414C96.6537 344.236 96.424 344.104 96.164 344.017C95.9084 343.931 95.6354 343.887 95.345 343.887C94.8944 343.887 94.5065 343.972 94.1815 344.141C93.8565 344.31 93.603 344.555 93.421 344.875C93.2434 345.192 93.1545 345.575 93.1545 346.026C93.1545 346.698 93.3495 347.224 93.7395 347.605C94.1339 347.987 94.669 348.177 95.345 348.177C95.6657 348.177 95.969 348.119 96.255 348.002C96.541 347.881 96.7794 347.722 96.97 347.527L97.6525 348.613C97.3102 348.873 96.9289 349.077 96.5085 349.224C96.0882 349.371 95.657 349.445 95.215 349.445ZM100.404 349.25V343.998H98.2912V342.815H103.953V343.998H101.834V349.25H100.404ZM105.264 349.25V342.815H106.694V348.164H107.923C108.391 348.164 108.744 348.073 108.982 347.891C109.22 347.709 109.34 347.439 109.34 347.079C109.34 346.724 109.229 346.451 109.008 346.26C108.787 346.069 108.462 345.974 108.033 345.974H106.499V344.901H108.144C108.976 344.901 109.63 345.088 110.107 345.46C110.583 345.833 110.822 346.373 110.822 347.079C110.822 347.534 110.707 347.924 110.477 348.249C110.247 348.57 109.925 348.817 109.509 348.99C109.097 349.163 108.614 349.25 108.059 349.25H105.264ZM112.531 350.745L111.335 350.277L116.067 338.785L117.256 339.253L112.531 350.745ZM24.0775 365.25V358.815H25.462V363.157L28.9525 358.815H30.2005V365.25H28.8225V360.856L25.2995 365.25H24.0775ZM32.1898 365.25V358.815H33.6198V361.298H36.8438V358.815H38.2738V365.25H36.8438V362.481H33.6198V365.25H32.1898ZM43.501 367.98V355.89H44.931V367.98H43.501ZM44.203 365.419C43.3017 365.419 42.513 365.291 41.837 365.036C41.1654 364.775 40.6432 364.394 40.2705 363.891C39.8979 363.384 39.7115 362.765 39.7115 362.032C39.7115 361.296 39.8979 360.676 40.2705 360.173C40.6475 359.671 41.1762 359.292 41.8565 359.036C42.5369 358.776 43.3299 358.646 44.2355 358.646C45.1499 358.646 45.9429 358.774 46.6145 359.029C47.2905 359.285 47.8149 359.664 48.1875 360.167C48.5602 360.67 48.7465 361.291 48.7465 362.032C48.7465 362.583 48.6382 363.07 48.4215 363.495C48.2049 363.915 47.895 364.268 47.492 364.554C47.089 364.84 46.6102 365.057 46.0555 365.204C45.5009 365.348 44.8834 365.419 44.203 365.419ZM44.229 364.236C44.892 364.236 45.451 364.154 45.906 363.989C46.3654 363.824 46.7142 363.579 46.9525 363.254C47.1909 362.929 47.31 362.522 47.31 362.032C47.31 361.543 47.1865 361.135 46.9395 360.81C46.6969 360.481 46.3437 360.236 45.88 360.076C45.4207 359.911 44.8639 359.829 44.2095 359.829C43.5595 359.829 43.0049 359.911 42.5455 360.076C42.0862 360.236 41.7352 360.481 41.4925 360.81C41.2499 361.135 41.1285 361.543 41.1285 362.032C41.1285 362.522 41.2499 362.929 41.4925 363.254C41.7395 363.579 42.0927 363.824 42.552 363.989C43.0157 364.154 43.5747 364.236 44.229 364.236ZM50.1791 367.98V358.815H51.4661V359.718C51.7217 359.393 52.0489 359.129 52.4476 358.925C52.8462 358.722 53.3381 358.62 53.9231 358.62C54.5514 358.62 55.1082 358.769 55.5936 359.068C56.0832 359.363 56.4646 359.768 56.7376 360.284C57.0106 360.795 57.1471 361.378 57.1471 362.032C57.1471 362.505 57.0691 362.949 56.9131 363.365C56.7571 363.777 56.5339 364.138 56.2436 364.45C55.9576 364.762 55.6152 365.007 55.2166 365.185C54.8222 365.358 54.3846 365.445 53.9036 365.445C53.4009 365.445 52.9589 365.354 52.5776 365.172C52.1962 364.99 51.8712 364.745 51.6026 364.438V367.98H50.1791ZM53.6631 364.177C54.0617 364.177 54.4149 364.091 54.7226 363.917C55.0346 363.74 55.2772 363.491 55.4506 363.17C55.6282 362.849 55.7171 362.47 55.7171 362.032C55.7171 361.595 55.6282 361.216 55.4506 360.895C55.2729 360.57 55.0281 360.321 54.7161 360.147C54.4084 359.974 54.0574 359.887 53.6631 359.887C53.2644 359.887 52.9091 359.974 52.5971 360.147C52.2894 360.321 52.0467 360.57 51.8691 360.895C51.6914 361.216 51.6026 361.595 51.6026 362.032C51.6026 362.47 51.6914 362.849 51.8691 363.17C52.0467 363.491 52.2894 363.74 52.5971 363.917C52.9091 364.091 53.2644 364.177 53.6631 364.177ZM60.3709 365.445C59.9245 365.445 59.5324 365.363 59.1944 365.198C58.8564 365.029 58.592 364.793 58.4014 364.489C58.215 364.182 58.1219 363.82 58.1219 363.404C58.1219 363.053 58.2107 362.737 58.3884 362.455C58.566 362.169 58.8412 361.933 59.2139 361.746C59.5909 361.56 60.074 361.437 60.6634 361.376C61.2527 361.311 61.9612 361.32 62.7889 361.402L62.8149 362.39C62.2255 362.308 61.7185 362.273 61.2939 362.286C60.8692 362.299 60.5204 362.353 60.2474 362.448C59.9787 362.539 59.7794 362.663 59.6494 362.819C59.5237 362.971 59.4609 363.146 59.4609 363.345C59.4609 363.657 59.5714 363.898 59.7924 364.067C60.0177 364.236 60.3254 364.32 60.7154 364.32C61.049 364.32 61.348 364.26 61.6124 364.138C61.8767 364.017 62.0847 363.846 62.2364 363.625C62.3924 363.404 62.4704 363.144 62.4704 362.845V361.135C62.4704 360.849 62.4097 360.602 62.2884 360.394C62.167 360.182 61.9829 360.017 61.7359 359.9C61.4889 359.783 61.1812 359.725 60.8129 359.725C60.4749 359.725 60.1412 359.777 59.8119 359.881C59.4825 359.981 59.1684 360.139 58.8694 360.355L58.4664 359.302C58.8694 359.029 59.2897 358.837 59.7274 358.724C60.165 358.611 60.5854 358.555 60.9884 358.555C61.5864 358.555 62.0977 358.65 62.5224 358.841C62.9514 359.027 63.2807 359.311 63.5104 359.692C63.74 360.069 63.8549 360.546 63.8549 361.122V365.25H62.5679V364.489C62.3512 364.797 62.05 365.033 61.6644 365.198C61.2787 365.363 60.8475 365.445 60.3709 365.445ZM68.7072 365.445C68.0312 365.445 67.4289 365.298 66.9002 365.003C66.3716 364.704 65.9556 364.299 65.6522 363.787C65.3532 363.272 65.2037 362.687 65.2037 362.032C65.2037 361.538 65.2926 361.086 65.4702 360.674C65.6479 360.258 65.8992 359.896 66.2242 359.588C66.5492 359.281 66.9306 359.042 67.3682 358.873C67.8102 358.704 68.2891 358.62 68.8047 358.62C69.2381 358.62 69.6389 358.678 70.0072 358.795C70.3799 358.908 70.7222 359.084 71.0342 359.322L70.3452 360.414C70.1459 360.236 69.9162 360.104 69.6562 360.017C69.4006 359.931 69.1276 359.887 68.8372 359.887C68.3866 359.887 67.9987 359.972 67.6737 360.141C67.3487 360.31 67.0952 360.555 66.9132 360.875C66.7356 361.192 66.6467 361.575 66.6467 362.026C66.6467 362.698 66.8417 363.224 67.2317 363.605C67.6261 363.987 68.1612 364.177 68.8372 364.177C69.1579 364.177 69.4612 364.119 69.7472 364.002C70.0332 363.881 70.2716 363.722 70.4622 363.527L71.1447 364.613C70.8024 364.873 70.4211 365.077 70.0007 365.224C69.5804 365.371 69.1492 365.445 68.7072 365.445ZM73.8958 365.25V359.998H71.7833V358.815H77.4448V359.998H75.3258V365.25H73.8958ZM78.7562 367.98V358.815H80.0432V359.718C80.2989 359.393 80.6261 359.129 81.0247 358.925C81.4234 358.722 81.9152 358.62 82.5002 358.62C83.1286 358.62 83.6854 358.769 84.1707 359.068C84.6604 359.363 85.0417 359.768 85.3147 360.284C85.5877 360.795 85.7242 361.378 85.7242 362.032C85.7242 362.505 85.6462 362.949 85.4902 363.365C85.3342 363.777 85.1111 364.138 84.8207 364.45C84.5347 364.762 84.1924 365.007 83.7937 365.185C83.3994 365.358 82.9617 365.445 82.4807 365.445C81.9781 365.445 81.5361 365.354 81.1547 365.172C80.7734 364.99 80.4484 364.745 80.1797 364.438V367.98H78.7562ZM82.2402 364.177C82.6389 364.177 82.9921 364.091 83.2997 363.917C83.6117 363.74 83.8544 363.491 84.0277 363.17C84.2054 362.849 84.2942 362.47 84.2942 362.032C84.2942 361.595 84.2054 361.216 84.0277 360.895C83.8501 360.57 83.6052 360.321 83.2932 360.147C82.9856 359.974 82.6346 359.887 82.2402 359.887C81.8416 359.887 81.4862 359.974 81.1742 360.147C80.8666 360.321 80.6239 360.57 80.4462 360.895C80.2686 361.216 80.1797 361.595 80.1797 362.032C80.1797 362.47 80.2686 362.849 80.4462 363.17C80.6239 363.491 80.8666 363.74 81.1742 363.917C81.4862 364.091 81.8416 364.177 82.2402 364.177ZM87.6495 368.162C87.4155 368.162 87.1859 368.136 86.9605 368.084C86.7352 368.032 86.5142 367.943 86.2975 367.818L86.6225 366.596C86.7569 366.682 86.9042 366.747 87.0645 366.791C87.2249 366.834 87.3679 366.856 87.4935 366.856C87.7969 366.856 88.0352 366.784 88.2085 366.641C88.3819 366.498 88.5184 366.277 88.618 365.978L88.8325 365.354L86.2975 358.815H87.864L89.645 363.807L91.3805 358.815H92.895L90.113 366.18C89.9137 366.695 89.6905 367.096 89.4435 367.382C89.1965 367.672 88.9235 367.874 88.6245 367.987C88.3255 368.104 88.0005 368.162 87.6495 368.162ZM98.293 365.25L96.161 361.831L98.1435 358.815H99.671L97.7015 361.766L100.002 365.25H98.293ZM94.016 365.25V358.815H95.446V361.298H97.383V362.481H95.446V365.25H94.016ZM102.702 365.25V359.998H100.589V358.815H106.251V359.998H104.132V365.25H102.702ZM108.305 368.162C108.071 368.162 107.841 368.136 107.616 368.084C107.39 368.032 107.169 367.943 106.953 367.818L107.278 366.596C107.412 366.682 107.559 366.747 107.72 366.791C107.88 366.834 108.023 366.856 108.149 366.856C108.452 366.856 108.69 366.784 108.864 366.641C109.037 366.498 109.174 366.277 109.273 365.978L109.488 365.354L106.953 358.815H108.519L110.3 363.807L112.036 358.815H113.55L110.768 366.18C110.569 366.695 110.346 367.096 110.099 367.382C109.852 367.672 109.579 367.874 109.28 367.987C108.981 368.104 108.656 368.162 108.305 368.162ZM114.671 367.98V358.815H115.958V359.718C116.214 359.393 116.541 359.129 116.94 358.925C117.338 358.722 117.83 358.62 118.415 358.62C119.044 358.62 119.6 358.769 120.086 359.068C120.575 359.363 120.957 359.768 121.23 360.284C121.503 360.795 121.639 361.378 121.639 362.032C121.639 362.505 121.561 362.949 121.405 363.365C121.249 363.777 121.026 364.138 120.736 364.45C120.45 364.762 120.107 365.007 119.709 365.185C119.314 365.358 118.877 365.445 118.396 365.445C117.893 365.445 117.451 365.354 117.07 365.172C116.688 364.99 116.363 364.745 116.095 364.438V367.98H114.671ZM118.155 364.177C118.554 364.177 118.907 364.091 119.215 363.917C119.527 363.74 119.769 363.491 119.943 363.17C120.12 362.849 120.209 362.47 120.209 362.032C120.209 361.595 120.12 361.216 119.943 360.895C119.765 360.57 119.52 360.321 119.208 360.147C118.901 359.974 118.55 359.887 118.155 359.887C117.757 359.887 117.401 359.974 117.089 360.147C116.782 360.321 116.539 360.57 116.361 360.895C116.184 361.216 116.095 361.595 116.095 362.032C116.095 362.47 116.184 362.849 116.361 363.17C116.539 363.491 116.782 363.74 117.089 363.917C117.401 364.091 117.757 364.177 118.155 364.177ZM124.863 365.445C124.417 365.445 124.025 365.363 123.687 365.198C123.349 365.029 123.084 364.793 122.894 364.489C122.707 364.182 122.614 363.82 122.614 363.404C122.614 363.053 122.703 362.737 122.881 362.455C123.058 362.169 123.333 361.933 123.706 361.746C124.083 361.56 124.566 361.437 125.156 361.376C125.745 361.311 126.453 361.32 127.281 361.402L127.307 362.39C126.718 362.308 126.211 362.273 125.786 362.286C125.361 362.299 125.013 362.353 124.74 362.448C124.471 362.539 124.272 362.663 124.142 362.819C124.016 362.971 123.953 363.146 123.953 363.345C123.953 363.657 124.064 363.898 124.285 364.067C124.51 364.236 124.818 364.32 125.208 364.32C125.541 364.32 125.84 364.26 126.105 364.138C126.369 364.017 126.577 363.846 126.729 363.625C126.885 363.404 126.963 363.144 126.963 362.845V361.135C126.963 360.849 126.902 360.602 126.781 360.394C126.659 360.182 126.475 360.017 126.228 359.9C125.981 359.783 125.673 359.725 125.305 359.725C124.967 359.725 124.633 359.777 124.304 359.881C123.975 359.981 123.661 360.139 123.362 360.355L122.959 359.302C123.362 359.029 123.782 358.837 124.22 358.724C124.657 358.611 125.078 358.555 125.481 358.555C126.079 358.555 126.59 358.65 127.015 358.841C127.444 359.027 127.773 359.311 128.003 359.692C128.232 360.069 128.347 360.546 128.347 361.122V365.25H127.06V364.489C126.843 364.797 126.542 365.033 126.157 365.198C125.771 365.363 125.34 365.445 124.863 365.445Z" fill="white"/>
<path fill-rule="evenodd" clip-rule="evenodd" d="M206.894 419.241L221.503 406.513L211.486 421.011C214.209 422.898 215.992 426.046 215.992 429.61V437.275C215.992 443.05 211.31 447.732 205.535 447.732H78.6059C72.8307 447.732 68.1489 443.05 68.1489 437.275V429.61C68.1489 423.835 72.8307 419.153 78.6059 419.153H205.535C205.995 419.153 206.449 419.183 206.894 419.241Z" fill="#140D83"/>
<path d="M80.8749 437.736V428.636H82.2854L85.9969 434.675L85.4314 434.681L89.0064 428.636H90.3909V437.736H88.9674L88.9869 430.573L89.2664 430.671L86.1724 435.773H85.1064L81.9539 430.671L82.1879 430.573L82.2074 437.736H80.8749ZM94.3567 437.931C93.9104 437.931 93.5182 437.849 93.1802 437.684C92.8422 437.515 92.5779 437.279 92.3872 436.976C92.2009 436.668 92.1077 436.306 92.1077 435.89C92.1077 435.539 92.1965 435.223 92.3742 434.941C92.5519 434.655 92.827 434.419 93.1997 434.233C93.5767 434.046 94.0599 433.923 94.6492 433.862C95.2385 433.797 95.947 433.806 96.7747 433.888L96.8007 434.876C96.2114 434.794 95.7044 434.759 95.2797 434.772C94.855 434.785 94.5062 434.839 94.2332 434.935C93.9645 435.026 93.7652 435.149 93.6352 435.305C93.5095 435.457 93.4467 435.632 93.4467 435.832C93.4467 436.144 93.5572 436.384 93.7782 436.553C94.0035 436.722 94.3112 436.807 94.7012 436.807C95.0349 436.807 95.3339 436.746 95.5982 436.625C95.8625 436.503 96.0705 436.332 96.2222 436.111C96.3782 435.89 96.4562 435.63 96.4562 435.331V433.622C96.4562 433.336 96.3955 433.089 96.2742 432.881C96.1529 432.668 95.9687 432.504 95.7217 432.387C95.4747 432.27 95.167 432.211 94.7987 432.211C94.4607 432.211 94.127 432.263 93.7977 432.367C93.4684 432.467 93.1542 432.625 92.8552 432.842L92.4522 431.789C92.8552 431.516 93.2755 431.323 93.7132 431.21C94.1509 431.098 94.5712 431.041 94.9742 431.041C95.5722 431.041 96.0835 431.137 96.5082 431.327C96.9372 431.514 97.2665 431.797 97.4962 432.179C97.7259 432.556 97.8407 433.032 97.8407 433.609V437.736H96.5537V436.976C96.337 437.283 96.0359 437.52 95.6502 437.684C95.2645 437.849 94.8334 437.931 94.3567 437.931ZM99.7421 440.466V431.301H101.029V432.205C101.285 431.88 101.612 431.615 102.011 431.412C102.409 431.208 102.901 431.106 103.486 431.106C104.114 431.106 104.671 431.256 105.157 431.555C105.646 431.849 106.028 432.255 106.301 432.77C106.574 433.282 106.71 433.864 106.71 434.519C106.71 434.991 106.632 435.435 106.476 435.851C106.32 436.263 106.097 436.625 105.807 436.937C105.521 437.249 105.178 437.494 104.78 437.671C104.385 437.845 103.948 437.931 103.467 437.931C102.964 437.931 102.522 437.84 102.141 437.658C101.759 437.476 101.434 437.231 101.166 436.924V440.466H99.7421ZM103.226 436.664C103.625 436.664 103.978 436.577 104.286 436.404C104.598 436.226 104.84 435.977 105.014 435.656C105.191 435.336 105.28 434.956 105.28 434.519C105.28 434.081 105.191 433.702 105.014 433.381C104.836 433.056 104.591 432.807 104.279 432.634C103.971 432.46 103.62 432.374 103.226 432.374C102.827 432.374 102.472 432.46 102.16 432.634C101.852 432.807 101.61 433.056 101.432 433.381C101.254 433.702 101.166 434.081 101.166 434.519C101.166 434.956 101.254 435.336 101.432 435.656C101.61 435.977 101.852 436.226 102.16 436.404C102.472 436.577 102.827 436.664 103.226 436.664ZM112.423 437.736L110.291 434.317L112.274 431.301H113.801L111.832 434.252L114.133 437.736H112.423ZM108.146 437.736V431.301H109.576V433.784H111.513V434.967H109.576V437.736H108.146ZM118.206 437.931C117.513 437.931 116.904 437.79 116.38 437.509C115.856 437.223 115.446 436.824 115.151 436.313C114.861 435.801 114.716 435.208 114.716 434.532C114.716 434.038 114.8 433.583 114.969 433.167C115.138 432.746 115.377 432.382 115.684 432.075C115.992 431.767 116.352 431.529 116.763 431.36C117.179 431.191 117.632 431.106 118.122 431.106C118.655 431.106 119.129 431.202 119.545 431.392C119.961 431.579 120.306 431.841 120.579 432.179C120.856 432.517 121.051 432.913 121.164 433.368C121.281 433.819 121.3 434.309 121.222 434.837H116.087C116.079 435.223 116.163 435.561 116.341 435.851C116.519 436.137 116.772 436.36 117.101 436.521C117.435 436.681 117.827 436.761 118.278 436.761C118.642 436.761 118.993 436.707 119.331 436.599C119.673 436.486 119.983 436.321 120.26 436.105L120.813 437.132C120.605 437.301 120.354 437.446 120.059 437.567C119.764 437.684 119.457 437.773 119.136 437.834C118.815 437.899 118.505 437.931 118.206 437.931ZM116.172 433.784H119.818C119.805 433.299 119.649 432.918 119.35 432.64C119.056 432.363 118.635 432.224 118.089 432.224C117.561 432.224 117.121 432.363 116.77 432.64C116.423 432.918 116.224 433.299 116.172 433.784ZM124.144 437.736V432.484H122.032V431.301H127.693V432.484H125.574V437.736H124.144ZM129.005 437.736V431.301H130.389V435.643L133.88 431.301H135.128V437.736H133.75V433.342L130.227 437.736H129.005ZM137.117 437.736V431.301H138.547V433.784H141.771V431.301H143.201V437.736H141.771V434.967H138.547V437.736H137.117ZM145.191 437.736V431.301H149.429V432.484H146.621V437.736H145.191ZM153.938 437.736V431.301H160.016V437.736H158.586V432.484H155.368V437.736H153.938ZM162 440.466V431.301H163.287V432.205C163.543 431.88 163.87 431.615 164.268 431.412C164.667 431.208 165.159 431.106 165.744 431.106C166.372 431.106 166.929 431.256 167.414 431.555C167.904 431.849 168.285 432.255 168.558 432.77C168.831 433.282 168.968 433.864 168.968 434.519C168.968 434.991 168.89 435.435 168.734 435.851C168.578 436.263 168.355 436.625 168.064 436.937C167.778 437.249 167.436 437.494 167.037 437.671C166.643 437.845 166.205 437.931 165.724 437.931C165.222 437.931 164.78 437.84 164.398 437.658C164.017 437.476 163.692 437.231 163.423 436.924V440.466H162ZM165.484 436.664C165.883 436.664 166.236 436.577 166.543 436.404C166.855 436.226 167.098 435.977 167.271 435.656C167.449 435.336 167.538 434.956 167.538 434.519C167.538 434.081 167.449 433.702 167.271 433.381C167.094 433.056 166.849 432.807 166.537 432.634C166.229 432.46 165.878 432.374 165.484 432.374C165.085 432.374 164.73 432.46 164.418 432.634C164.11 432.807 163.868 433.056 163.69 433.381C163.512 433.702 163.423 434.081 163.423 434.519C163.423 434.956 163.512 435.336 163.69 435.656C163.868 435.977 164.11 436.226 164.418 436.404C164.73 436.577 165.085 436.664 165.484 436.664ZM173.399 437.931C172.727 437.931 172.127 437.777 171.599 437.47C171.074 437.158 170.663 436.744 170.364 436.228C170.065 435.708 169.915 435.138 169.915 434.519C169.915 434.059 170 433.626 170.169 433.219C170.342 432.807 170.585 432.443 170.897 432.127C171.213 431.81 171.583 431.561 172.008 431.379C172.433 431.197 172.899 431.106 173.406 431.106C174.077 431.106 174.675 431.262 175.2 431.574C175.728 431.882 176.142 432.296 176.441 432.816C176.74 433.331 176.89 433.899 176.89 434.519C176.89 434.974 176.803 435.407 176.63 435.819C176.461 436.23 176.22 436.594 175.908 436.911C175.596 437.227 175.228 437.476 174.803 437.658C174.378 437.84 173.91 437.931 173.399 437.931ZM173.399 436.664C173.798 436.664 174.151 436.577 174.459 436.404C174.771 436.226 175.015 435.977 175.193 435.656C175.371 435.336 175.46 434.956 175.46 434.519C175.46 434.081 175.371 433.702 175.193 433.381C175.015 433.056 174.771 432.807 174.459 432.634C174.151 432.46 173.798 432.374 173.399 432.374C173 432.374 172.645 432.46 172.333 432.634C172.025 432.807 171.783 433.056 171.605 433.381C171.432 433.702 171.345 434.081 171.345 434.519C171.345 434.956 171.434 435.336 171.612 435.656C171.789 435.977 172.032 436.226 172.34 436.404C172.652 436.577 173.005 436.664 173.399 436.664ZM181.328 437.931C180.634 437.931 180.025 437.79 179.501 437.509C178.977 437.223 178.567 436.824 178.273 436.313C177.982 435.801 177.837 435.208 177.837 434.532C177.837 434.038 177.922 433.583 178.091 433.167C178.26 432.746 178.498 432.382 178.806 432.075C179.113 431.767 179.473 431.529 179.885 431.36C180.301 431.191 180.753 431.106 181.243 431.106C181.776 431.106 182.251 431.202 182.667 431.392C183.083 431.579 183.427 431.841 183.7 432.179C183.977 432.517 184.172 432.913 184.285 433.368C184.402 433.819 184.422 434.309 184.344 434.837H179.209C179.2 435.223 179.284 435.561 179.462 435.851C179.64 436.137 179.893 436.36 180.223 436.521C180.556 436.681 180.948 436.761 181.399 436.761C181.763 436.761 182.114 436.707 182.452 436.599C182.794 436.486 183.104 436.321 183.382 436.105L183.934 437.132C183.726 437.301 183.475 437.446 183.18 437.567C182.885 437.684 182.578 437.773 182.257 437.834C181.936 437.899 181.627 437.931 181.328 437.931ZM179.293 433.784H182.94C182.927 433.299 182.771 432.918 182.472 432.64C182.177 432.363 181.757 432.224 181.211 432.224C180.682 432.224 180.242 432.363 179.891 432.64C179.544 432.918 179.345 433.299 179.293 433.784ZM190.106 437.736L187.974 434.317L189.956 431.301H191.484L189.514 434.252L191.815 437.736H190.106ZM185.829 437.736V431.301H187.259V433.784H189.196V434.967H187.259V437.736H185.829ZM194.514 437.736V432.484H192.402V431.301H198.063V432.484H195.944V437.736H194.514ZM201.162 437.931C200.716 437.931 200.324 437.849 199.986 437.684C199.648 437.515 199.384 437.279 199.193 436.976C199.007 436.668 198.913 436.306 198.913 435.89C198.913 435.539 199.002 435.223 199.18 434.941C199.358 434.655 199.633 434.419 200.005 434.233C200.382 434.046 200.866 433.923 201.455 433.862C202.044 433.797 202.753 433.806 203.58 433.888L203.606 434.876C203.017 434.794 202.51 434.759 202.085 434.772C201.661 434.785 201.312 434.839 201.039 434.935C200.77 435.026 200.571 435.149 200.441 435.305C200.315 435.457 200.252 435.632 200.252 435.832C200.252 436.144 200.363 436.384 200.584 436.553C200.809 436.722 201.117 436.807 201.507 436.807C201.841 436.807 202.14 436.746 202.404 436.625C202.668 436.503 202.876 436.332 203.028 436.111C203.184 435.89 203.262 435.63 203.262 435.331V433.622C203.262 433.336 203.201 433.089 203.08 432.881C202.959 432.668 202.774 432.504 202.527 432.387C202.28 432.27 201.973 432.211 201.604 432.211C201.266 432.211 200.933 432.263 200.603 432.367C200.274 432.467 199.96 432.625 199.661 432.842L199.258 431.789C199.661 431.516 200.081 431.323 200.519 431.21C200.957 431.098 201.377 431.041 201.78 431.041C202.378 431.041 202.889 431.137 203.314 431.327C203.743 431.514 204.072 431.797 204.302 432.179C204.532 432.556 204.646 433.032 204.646 433.609V437.736H203.359V436.976C203.143 437.283 202.842 437.52 202.456 437.684C202.07 437.849 201.639 437.931 201.162 437.931Z" fill="white"/>
<path fill-rule="evenodd" clip-rule="evenodd" d="M319.889 472.479L334.418 459.821L324.663 473.94C327.716 475.766 329.76 479.104 329.76 482.92V490.586C329.76 496.361 325.078 501.043 319.303 501.043H175.886C170.111 501.043 165.429 496.361 165.429 490.586V482.92C165.429 477.145 170.111 472.463 175.886 472.463H319.303C319.5 472.463 319.695 472.469 319.889 472.479Z" fill="url(#paint7_linear_888_1552)"/>
<path d="M180.671 491.241C179.986 491.241 179.362 491.152 178.799 490.974C178.235 490.797 177.744 490.543 177.323 490.214L178.012 489.044C178.324 489.326 178.701 489.547 179.143 489.707C179.585 489.863 180.053 489.941 180.547 489.941C180.989 489.941 181.371 489.878 181.691 489.752C182.016 489.627 182.265 489.451 182.439 489.226C182.616 488.996 182.707 488.728 182.712 488.42C182.712 487.939 182.551 487.575 182.231 487.328C181.914 487.077 181.42 486.951 180.749 486.951H178.974V485.781H180.638C181.007 485.781 181.325 485.727 181.594 485.618C181.862 485.506 182.07 485.348 182.218 485.144C182.365 484.936 182.439 484.687 182.439 484.396C182.439 484.115 182.365 483.879 182.218 483.688C182.075 483.493 181.862 483.346 181.581 483.246C181.303 483.142 180.965 483.09 180.567 483.09C180.138 483.09 179.726 483.161 179.332 483.304C178.937 483.443 178.597 483.638 178.311 483.889L177.622 482.817C178.004 482.475 178.463 482.212 179 482.03C179.542 481.844 180.123 481.751 180.742 481.751C181.388 481.751 181.947 481.848 182.419 482.043C182.892 482.234 183.253 482.511 183.505 482.875C183.76 483.235 183.888 483.664 183.888 484.162C183.888 484.448 183.821 484.728 183.687 485.001C183.552 485.27 183.377 485.508 183.16 485.716C182.948 485.92 182.723 486.071 182.484 486.171C182.991 486.331 183.407 486.609 183.732 487.003C184.057 487.393 184.218 487.887 184.213 488.485C184.209 488.996 184.059 489.46 183.765 489.876C183.47 490.292 183.056 490.623 182.523 490.87C181.995 491.117 181.377 491.241 180.671 491.241ZM187.689 491.241C187.242 491.241 186.85 491.159 186.512 490.994C186.174 490.825 185.91 490.589 185.719 490.285C185.533 489.978 185.44 489.616 185.44 489.2C185.44 488.849 185.529 488.533 185.706 488.251C185.884 487.965 186.159 487.729 186.532 487.542C186.909 487.356 187.392 487.233 187.981 487.172C188.571 487.107 189.279 487.116 190.107 487.198L190.133 488.186C189.543 488.104 189.036 488.069 188.612 488.082C188.187 488.095 187.838 488.149 187.565 488.244C187.297 488.335 187.097 488.459 186.967 488.615C186.842 488.767 186.779 488.942 186.779 489.141C186.779 489.453 186.889 489.694 187.11 489.863C187.336 490.032 187.643 490.116 188.033 490.116C188.367 490.116 188.666 490.056 188.93 489.934C189.195 489.813 189.403 489.642 189.554 489.421C189.71 489.2 189.788 488.94 189.788 488.641V486.931C189.788 486.645 189.728 486.398 189.606 486.19C189.485 485.978 189.301 485.813 189.054 485.696C188.807 485.579 188.499 485.521 188.131 485.521C187.793 485.521 187.459 485.573 187.13 485.677C186.8 485.777 186.486 485.935 186.187 486.151L185.784 485.098C186.187 484.825 186.608 484.633 187.045 484.52C187.483 484.407 187.903 484.351 188.306 484.351C188.904 484.351 189.416 484.446 189.84 484.637C190.269 484.823 190.599 485.107 190.828 485.488C191.058 485.865 191.173 486.342 191.173 486.918V491.046H189.886V490.285C189.669 490.593 189.368 490.829 188.982 490.994C188.597 491.159 188.165 491.241 187.689 491.241ZM203 492.996V491.046H201.947V489.863H204.313V492.996H203ZM193.074 491.046V484.611H194.459V489.863H197.176V484.611H198.56V489.863H201.277V484.611H202.662V491.046H193.074ZM205.579 491.046V484.611H206.963V488.953L210.454 484.611H211.702V491.046H210.324V486.652L206.801 491.046H205.579ZM215.128 491.046V485.794H213.015V484.611H218.677V485.794H216.558V491.046H215.128ZM219.988 491.046V484.611H221.418V487.094H224.642V484.611H226.072V491.046H224.642V488.277H221.418V491.046H219.988ZM228.062 491.046V484.611H229.447V488.953L232.937 484.611H234.185V491.046H232.807V486.652L229.284 491.046H228.062ZM240.452 491.046L238.32 487.627L240.302 484.611H241.83L239.86 487.562L242.161 491.046H240.452ZM236.175 491.046V484.611H237.605V487.094H239.542V488.277H237.605V491.046H236.175ZM245.211 491.241C244.765 491.241 244.373 491.159 244.035 490.994C243.697 490.825 243.432 490.589 243.242 490.285C243.055 489.978 242.962 489.616 242.962 489.2C242.962 488.849 243.051 488.533 243.229 488.251C243.406 487.965 243.682 487.729 244.054 487.542C244.431 487.356 244.914 487.233 245.504 487.172C246.093 487.107 246.802 487.116 247.629 487.198L247.655 488.186C247.066 488.104 246.559 488.069 246.134 488.082C245.71 488.095 245.361 488.149 245.088 488.244C244.819 488.335 244.62 488.459 244.49 488.615C244.364 488.767 244.301 488.942 244.301 489.141C244.301 489.453 244.412 489.694 244.633 489.863C244.858 490.032 245.166 490.116 245.556 490.116C245.889 490.116 246.188 490.056 246.453 489.934C246.717 489.813 246.925 489.642 247.077 489.421C247.233 489.2 247.311 488.94 247.311 488.641V486.931C247.311 486.645 247.25 486.398 247.129 486.19C247.007 485.978 246.823 485.813 246.576 485.696C246.329 485.579 246.022 485.521 245.653 485.521C245.315 485.521 244.982 485.573 244.652 485.677C244.323 485.777 244.009 485.935 243.71 486.151L243.307 485.098C243.71 484.825 244.13 484.633 244.568 484.52C245.005 484.407 245.426 484.351 245.829 484.351C246.427 484.351 246.938 484.446 247.363 484.637C247.792 484.823 248.121 485.107 248.351 485.488C248.58 485.865 248.695 486.342 248.695 486.918V491.046H247.408V490.285C247.192 490.593 246.89 490.829 246.505 490.994C246.119 491.159 245.688 491.241 245.211 491.241ZM250.597 491.046V484.611H251.838H251.877L254.763 488.784L254.146 488.797L256.889 484.611H258.156V491.046H256.856L256.876 486.288L257.142 486.405L254.841 489.765H253.918L251.513 486.398L251.78 486.281L251.799 491.046H250.597ZM263.72 491.202L263.148 489.863C263.651 489.742 264.103 489.562 264.506 489.323C264.914 489.085 265.284 488.769 265.618 488.374C265.952 487.98 266.259 487.493 266.541 486.912L268.965 481.946H270.649L267.899 487.367C267.596 487.965 267.291 488.485 266.983 488.927C266.675 489.365 266.355 489.735 266.021 490.038C265.687 490.342 265.33 490.587 264.948 490.773C264.571 490.959 264.162 491.102 263.72 491.202ZM266.339 488.186L262.875 481.946H264.649L267.314 486.899L266.339 488.186ZM275.402 491.046L273.27 487.627L275.252 484.611H276.78L274.81 487.562L277.111 491.046H275.402ZM271.125 491.046V484.611H272.555V487.094H274.492V488.277H272.555V491.046H271.125ZM278.374 493.776V484.611H279.661V485.514C279.917 485.189 280.244 484.925 280.642 484.721C281.041 484.518 281.533 484.416 282.118 484.416C282.746 484.416 283.303 484.565 283.788 484.864C284.278 485.159 284.659 485.564 284.932 486.08C285.205 486.591 285.342 487.174 285.342 487.828C285.342 488.301 285.264 488.745 285.108 489.161C284.952 489.573 284.729 489.934 284.438 490.246C284.152 490.558 283.81 490.803 283.411 490.981C283.017 491.154 282.579 491.241 282.098 491.241C281.596 491.241 281.154 491.15 280.772 490.968C280.391 490.786 280.066 490.541 279.797 490.233V493.776H278.374ZM281.858 489.973C282.257 489.973 282.61 489.887 282.917 489.713C283.229 489.536 283.472 489.287 283.645 488.966C283.823 488.645 283.912 488.266 283.912 487.828C283.912 487.391 283.823 487.012 283.645 486.691C283.468 486.366 283.223 486.117 282.911 485.943C282.603 485.77 282.252 485.683 281.858 485.683C281.459 485.683 281.104 485.77 280.792 485.943C280.484 486.117 280.242 486.366 280.064 486.691C279.886 487.012 279.797 487.391 279.797 487.828C279.797 488.266 279.886 488.645 280.064 488.966C280.242 489.287 280.484 489.536 280.792 489.713C281.104 489.887 281.459 489.973 281.858 489.973ZM288.566 491.241C288.119 491.241 287.727 491.159 287.389 490.994C287.051 490.825 286.787 490.589 286.596 490.285C286.41 489.978 286.317 489.616 286.317 489.2C286.317 488.849 286.406 488.533 286.583 488.251C286.761 487.965 287.036 487.729 287.409 487.542C287.786 487.356 288.269 487.233 288.858 487.172C289.448 487.107 290.156 487.116 290.984 487.198L291.01 488.186C290.42 488.104 289.913 488.069 289.489 488.082C289.064 488.095 288.715 488.149 288.442 488.244C288.174 488.335 287.974 488.459 287.844 488.615C287.719 488.767 287.656 488.942 287.656 489.141C287.656 489.453 287.766 489.694 287.987 489.863C288.213 490.032 288.52 490.116 288.91 490.116C289.244 490.116 289.543 490.056 289.807 489.934C290.072 489.813 290.28 489.642 290.431 489.421C290.587 489.2 290.665 488.94 290.665 488.641V486.931C290.665 486.645 290.605 486.398 290.483 486.19C290.362 485.978 290.178 485.813 289.931 485.696C289.684 485.579 289.376 485.521 289.008 485.521C288.67 485.521 288.336 485.573 288.007 485.677C287.677 485.777 287.363 485.935 287.064 486.151L286.661 485.098C287.064 484.825 287.485 484.633 287.922 484.52C288.36 484.407 288.78 484.351 289.183 484.351C289.781 484.351 290.293 484.446 290.717 484.637C291.146 484.823 291.476 485.107 291.705 485.488C291.935 485.865 292.05 486.342 292.05 486.918V491.046H290.763V490.285C290.546 490.593 290.245 490.829 289.859 490.994C289.474 491.159 289.042 491.241 288.566 491.241ZM293.951 491.046V484.611H295.336V488.953L298.826 484.611H300.074V491.046H298.696V486.652L295.173 491.046H293.951ZM302.063 491.046V484.611H303.493V487.094H306.717V484.611H308.147V491.046H306.717V488.277H303.493V491.046H302.063ZM310.138 491.046V484.611H311.568V489.96H312.731C313.199 489.96 313.552 489.869 313.791 489.687C314.029 489.505 314.148 489.235 314.148 488.875C314.148 488.52 314.038 488.247 313.817 488.056C313.596 487.865 313.271 487.77 312.842 487.77H311.373V486.697H312.952C313.784 486.697 314.438 486.884 314.915 487.256C315.392 487.629 315.63 488.169 315.63 488.875C315.63 489.33 315.515 489.72 315.286 490.045C315.056 490.366 314.733 490.613 314.317 490.786C313.905 490.959 313.422 491.046 312.868 491.046H310.138ZM316.664 491.046V484.611H318.094V491.046H316.664Z" fill="white"/>
<defs>
<linearGradient id="paint0_linear_888_1552" x1="152.949" y1="117.769" x2="573.276" y2="141.702" gradientUnits="userSpaceOnUse">
<stop stop-color="#544CF9"/>
<stop offset="0.52" stop-color="#8B86FF"/>
<stop offset="1" stop-color="#5D56FF"/>
</linearGradient>
<linearGradient id="paint1_linear_888_1552" x1="153.528" y1="394.609" x2="319.573" y2="7.72795" gradientUnits="userSpaceOnUse">
<stop stop-color="#544CF9"/>
<stop offset="0.52" stop-color="#8B86FF"/>
<stop offset="1" stop-color="#5D56FF"/>
</linearGradient>
<linearGradient id="paint2_linear_888_1552" x1="167.354" y1="103.673" x2="583.323" y2="168.616" gradientUnits="userSpaceOnUse">
<stop stop-color="#544CF9"/>
<stop offset="0.52" stop-color="#8B86FF"/>
<stop offset="1" stop-color="#5D56FF"/>
</linearGradient>
<linearGradient id="paint3_linear_888_1552" x1="326.738" y1="282.85" x2="282.495" y2="454.876" gradientUnits="userSpaceOnUse">
<stop stop-color="#FFE70C"/>
<stop offset="1" stop-color="#227AFF"/>
</linearGradient>
<linearGradient id="paint4_linear_888_1552" x1="267.829" y1="34.4351" x2="596.644" y2="297.358" gradientUnits="userSpaceOnUse">
<stop stop-color="#544CF9"/>
<stop offset="0.52" stop-color="#8B86FF"/>
<stop offset="1" stop-color="#5D56FF"/>
</linearGradient>
<linearGradient id="paint5_linear_888_1552" x1="390.708" y1="24.4613" x2="543.411" y2="416.8" gradientUnits="userSpaceOnUse">
<stop stop-color="#544CF9"/>
<stop offset="0.52" stop-color="#8B86FF"/>
<stop offset="1" stop-color="#5D56FF"/>
</linearGradient>
<linearGradient id="paint6_linear_888_1552" x1="503.847" y1="78.9988" x2="435.087" y2="494.354" gradientUnits="userSpaceOnUse">
<stop stop-color="#544CF9"/>
<stop offset="0.52" stop-color="#8B86FF"/>
<stop offset="1" stop-color="#5D56FF"/>
</linearGradient>
<linearGradient id="paint7_linear_888_1552" x1="165.429" y1="480.432" x2="334.418" y2="480.432" gradientUnits="userSpaceOnUse">
<stop stop-color="#2943DE"/>
<stop offset="1" stop-color="#FFE70C"/>
</linearGradient>
</defs>
</svg>
