<svg width="302" height="218" viewBox="0 0 302 218" fill="none" xmlns="http://www.w3.org/2000/svg">
<path fill-rule="evenodd" clip-rule="evenodd" d="M106.498 166.054L117 159L110.391 166.374C111.929 167.011 113.011 168.526 113.011 170.294V177.761C113.011 180.102 111.112 182.001 108.771 182.001H10.24C7.8983 182.001 6 180.102 6 177.761V170.294C6 167.952 7.8983 166.054 10.24 166.054H106.498Z" fill="#140D83"/>
<path d="M11.5902 176.39V169.39H12.6752L15.5302 174.035L15.0952 174.04L17.8452 169.39H18.9102V176.39H17.8152L17.8302 170.88L18.0452 170.955L15.6652 174.88H14.8452L12.4202 170.955L12.6002 170.88L12.6152 176.39H11.5902ZM21.9608 176.54C21.6175 176.54 21.3158 176.476 21.0558 176.35C20.7958 176.22 20.5925 176.038 20.4458 175.805C20.3025 175.568 20.2308 175.29 20.2308 174.97C20.2308 174.7 20.2991 174.456 20.4358 174.24C20.5725 174.02 20.7841 173.838 21.0708 173.695C21.3608 173.551 21.7325 173.456 22.1858 173.41C22.6391 173.36 23.1841 173.366 23.8208 173.43L23.8408 174.19C23.3875 174.126 22.9975 174.1 22.6708 174.11C22.3441 174.12 22.0758 174.161 21.8658 174.235C21.6591 174.305 21.5058 174.4 21.4058 174.52C21.3091 174.636 21.2608 174.771 21.2608 174.925C21.2608 175.165 21.3458 175.35 21.5158 175.48C21.6891 175.61 21.9258 175.675 22.2258 175.675C22.4825 175.675 22.7125 175.628 22.9158 175.535C23.1191 175.441 23.2791 175.31 23.3958 175.14C23.5158 174.97 23.5758 174.77 23.5758 174.54V173.225C23.5758 173.005 23.5291 172.815 23.4358 172.655C23.3425 172.491 23.2008 172.365 23.0108 172.275C22.8208 172.185 22.5841 172.14 22.3008 172.14C22.0408 172.14 21.7841 172.18 21.5308 172.26C21.2775 172.336 21.0358 172.458 20.8058 172.625L20.4958 171.815C20.8058 171.605 21.1291 171.456 21.4658 171.37C21.8025 171.283 22.1258 171.24 22.4358 171.24C22.8958 171.24 23.2891 171.313 23.6158 171.46C23.9458 171.603 24.1991 171.821 24.3758 172.115C24.5525 172.405 24.6408 172.771 24.6408 173.215V176.39H23.6508V175.805C23.4841 176.041 23.2525 176.223 22.9558 176.35C22.6591 176.476 22.3275 176.54 21.9608 176.54ZM26.1034 178.49V171.44H27.0934V172.135C27.29 171.885 27.5417 171.681 27.8484 171.525C28.155 171.368 28.5334 171.29 28.9834 171.29C29.4667 171.29 29.895 171.405 30.2684 171.635C30.645 171.861 30.9384 172.173 31.1484 172.57C31.3584 172.963 31.4634 173.411 31.4634 173.915C31.4634 174.278 31.4034 174.62 31.2834 174.94C31.1634 175.256 30.9917 175.535 30.7684 175.775C30.5484 176.015 30.285 176.203 29.9784 176.34C29.675 176.473 29.3384 176.54 28.9684 176.54C28.5817 176.54 28.2417 176.47 27.9484 176.33C27.655 176.19 27.405 176.001 27.1984 175.765V178.49H26.1034ZM28.7834 175.565C29.09 175.565 29.3617 175.498 29.5984 175.365C29.8384 175.228 30.025 175.036 30.1584 174.79C30.295 174.543 30.3634 174.251 30.3634 173.915C30.3634 173.578 30.295 173.286 30.1584 173.04C30.0217 172.79 29.8334 172.598 29.5934 172.465C29.3567 172.331 29.0867 172.265 28.7834 172.265C28.4767 172.265 28.2034 172.331 27.9634 172.465C27.7267 172.598 27.54 172.79 27.4034 173.04C27.2667 173.286 27.1984 173.578 27.1984 173.915C27.1984 174.251 27.2667 174.543 27.4034 174.79C27.54 175.036 27.7267 175.228 27.9634 175.365C28.2034 175.498 28.4767 175.565 28.7834 175.565ZM35.8582 176.39L34.2182 173.76L35.7432 171.44H36.9182L35.4032 173.71L37.1732 176.39H35.8582ZM32.5682 176.39V171.44H33.6682V173.35H35.1582V174.26H33.6682V176.39H32.5682ZM40.3067 176.54C39.7734 176.54 39.3051 176.431 38.9017 176.215C38.4984 175.995 38.1834 175.688 37.9567 175.295C37.7334 174.901 37.6217 174.445 37.6217 173.925C37.6217 173.545 37.6867 173.195 37.8167 172.875C37.9467 172.551 38.1301 172.271 38.3667 172.035C38.6034 171.798 38.8801 171.615 39.1967 171.485C39.5167 171.355 39.8651 171.29 40.2417 171.29C40.6517 171.29 41.0167 171.363 41.3367 171.51C41.6567 171.653 41.9217 171.855 42.1317 172.115C42.3451 172.375 42.4951 172.68 42.5817 173.03C42.6717 173.376 42.6867 173.753 42.6267 174.16H38.6767C38.6701 174.456 38.7351 174.716 38.8717 174.94C39.0084 175.16 39.2034 175.331 39.4567 175.455C39.7134 175.578 40.0151 175.64 40.3617 175.64C40.6417 175.64 40.9117 175.598 41.1717 175.515C41.4351 175.428 41.6734 175.301 41.8867 175.135L42.3117 175.925C42.1517 176.055 41.9584 176.166 41.7317 176.26C41.5051 176.35 41.2684 176.418 41.0217 176.465C40.7751 176.515 40.5367 176.54 40.3067 176.54ZM38.7417 173.35H41.5467C41.5367 172.976 41.4167 172.683 41.1867 172.47C40.9601 172.256 40.6367 172.15 40.2167 172.15C39.8101 172.15 39.4717 172.256 39.2017 172.47C38.9351 172.683 38.7817 172.976 38.7417 173.35ZM44.8744 176.39V172.35H43.2494V171.44H47.6044V172.35H45.9744V176.39H44.8744ZM48.6131 176.39V171.44H49.6781V174.78L52.3631 171.44H53.3231V176.39H52.2631V173.01L49.5531 176.39H48.6131ZM54.8534 176.39V171.44H55.9534V173.35H58.4334V171.44H59.5334V176.39H58.4334V174.26H55.9534V176.39H54.8534ZM61.0643 176.39V171.44H64.3243V172.35H62.1643V176.39H61.0643ZM67.7928 176.39V171.44H72.4678V176.39H71.3678V172.35H68.8928V176.39H67.7928ZM73.994 178.49V171.44H74.984V172.135C75.1807 171.885 75.4323 171.681 75.739 171.525C76.0457 171.368 76.424 171.29 76.874 171.29C77.3573 171.29 77.7857 171.405 78.159 171.635C78.5357 171.861 78.829 172.173 79.039 172.57C79.249 172.963 79.354 173.411 79.354 173.915C79.354 174.278 79.294 174.62 79.174 174.94C79.054 175.256 78.8823 175.535 78.659 175.775C78.439 176.015 78.1757 176.203 77.869 176.34C77.5657 176.473 77.229 176.54 76.859 176.54C76.4723 176.54 76.1323 176.47 75.839 176.33C75.5457 176.19 75.2957 176.001 75.089 175.765V178.49H73.994ZM76.674 175.565C76.9807 175.565 77.2523 175.498 77.489 175.365C77.729 175.228 77.9157 175.036 78.049 174.79C78.1857 174.543 78.254 174.251 78.254 173.915C78.254 173.578 78.1857 173.286 78.049 173.04C77.9123 172.79 77.724 172.598 77.484 172.465C77.2473 172.331 76.9773 172.265 76.674 172.265C76.3673 172.265 76.094 172.331 75.854 172.465C75.6173 172.598 75.4307 172.79 75.294 173.04C75.1573 173.286 75.089 173.578 75.089 173.915C75.089 174.251 75.1573 174.543 75.294 174.79C75.4307 175.036 75.6173 175.228 75.854 175.365C76.094 175.498 76.3673 175.565 76.674 175.565ZM82.7627 176.54C82.246 176.54 81.7843 176.421 81.3777 176.185C80.9743 175.945 80.6577 175.626 80.4277 175.23C80.1977 174.83 80.0827 174.391 80.0827 173.915C80.0827 173.561 80.1477 173.228 80.2777 172.915C80.411 172.598 80.5977 172.318 80.8377 172.075C81.081 171.831 81.366 171.64 81.6927 171.5C82.0193 171.36 82.3777 171.29 82.7677 171.29C83.2843 171.29 83.7443 171.41 84.1477 171.65C84.5543 171.886 84.8727 172.205 85.1027 172.605C85.3327 173.001 85.4477 173.438 85.4477 173.915C85.4477 174.265 85.381 174.598 85.2477 174.915C85.1177 175.231 84.9327 175.511 84.6927 175.755C84.4527 175.998 84.1693 176.19 83.8427 176.33C83.516 176.47 83.156 176.54 82.7627 176.54ZM82.7627 175.565C83.0693 175.565 83.341 175.498 83.5777 175.365C83.8177 175.228 84.006 175.036 84.1427 174.79C84.2793 174.543 84.3477 174.251 84.3477 173.915C84.3477 173.578 84.2793 173.286 84.1427 173.04C84.006 172.79 83.8177 172.598 83.5777 172.465C83.341 172.331 83.0693 172.265 82.7627 172.265C82.456 172.265 82.1827 172.331 81.9427 172.465C81.706 172.598 81.5193 172.79 81.3827 173.04C81.2493 173.286 81.1827 173.578 81.1827 173.915C81.1827 174.251 81.251 174.543 81.3877 174.79C81.5243 175.036 81.711 175.228 81.9477 175.365C82.1877 175.498 82.4593 175.565 82.7627 175.565ZM88.8614 176.54C88.3281 176.54 87.8598 176.431 87.4564 176.215C87.0531 175.995 86.7381 175.688 86.5114 175.295C86.2881 174.901 86.1764 174.445 86.1764 173.925C86.1764 173.545 86.2414 173.195 86.3714 172.875C86.5014 172.551 86.6848 172.271 86.9214 172.035C87.1581 171.798 87.4348 171.615 87.7514 171.485C88.0714 171.355 88.4198 171.29 88.7964 171.29C89.2064 171.29 89.5714 171.363 89.8914 171.51C90.2114 171.653 90.4764 171.855 90.6864 172.115C90.8998 172.375 91.0498 172.68 91.1364 173.03C91.2264 173.376 91.2414 173.753 91.1814 174.16H87.2314C87.2248 174.456 87.2898 174.716 87.4264 174.94C87.5631 175.16 87.7581 175.331 88.0114 175.455C88.2681 175.578 88.5698 175.64 88.9164 175.64C89.1964 175.64 89.4664 175.598 89.7264 175.515C89.9898 175.428 90.2281 175.301 90.4414 175.135L90.8664 175.925C90.7064 176.055 90.5131 176.166 90.2864 176.26C90.0598 176.35 89.8231 176.418 89.5764 176.465C89.3298 176.515 89.0914 176.54 88.8614 176.54ZM87.2964 173.35H90.1014C90.0914 172.976 89.9714 172.683 89.7414 172.47C89.5148 172.256 89.1914 172.15 88.7714 172.15C88.3648 172.15 88.0264 172.256 87.7564 172.47C87.4898 172.683 87.3364 172.976 87.2964 173.35ZM95.6141 176.39L93.9741 173.76L95.4991 171.44H96.6741L95.1591 173.71L96.9291 176.39H95.6141ZM92.3241 176.39V171.44H93.4241V173.35H94.9141V174.26H93.4241V176.39H92.3241ZM99.0053 176.39V172.35H97.3803V171.44H101.735V172.35H100.105V176.39H99.0053ZM104.119 176.54C103.776 176.54 103.474 176.476 103.214 176.35C102.954 176.22 102.751 176.038 102.604 175.805C102.461 175.568 102.389 175.29 102.389 174.97C102.389 174.7 102.457 174.456 102.594 174.24C102.731 174.02 102.942 173.838 103.229 173.695C103.519 173.551 103.891 173.456 104.344 173.41C104.797 173.36 105.342 173.366 105.979 173.43L105.999 174.19C105.546 174.126 105.156 174.1 104.829 174.11C104.502 174.12 104.234 174.161 104.024 174.235C103.817 174.305 103.664 174.4 103.564 174.52C103.467 174.636 103.419 174.771 103.419 174.925C103.419 175.165 103.504 175.35 103.674 175.48C103.847 175.61 104.084 175.675 104.384 175.675C104.641 175.675 104.871 175.628 105.074 175.535C105.277 175.441 105.437 175.31 105.554 175.14C105.674 174.97 105.734 174.77 105.734 174.54V173.225C105.734 173.005 105.687 172.815 105.594 172.655C105.501 172.491 105.359 172.365 105.169 172.275C104.979 172.185 104.742 172.14 104.459 172.14C104.199 172.14 103.942 172.18 103.689 172.26C103.436 172.336 103.194 172.458 102.964 172.625L102.654 171.815C102.964 171.605 103.287 171.456 103.624 171.37C103.961 171.283 104.284 171.24 104.594 171.24C105.054 171.24 105.447 171.313 105.774 171.46C106.104 171.603 106.357 171.821 106.534 172.115C106.711 172.405 106.799 172.771 106.799 173.215V176.39H105.809V175.805C105.642 176.041 105.411 176.223 105.114 176.35C104.817 176.476 104.486 176.54 104.119 176.54Z" fill="white"/>
<g clip-path="url(#clip0_888_8510)">
<mask id="mask0_888_8510" style="mask-type:luminance" maskUnits="userSpaceOnUse" x="82" y="0" width="172" height="92">
<path d="M253.216 68.8572C248.819 47.5559 236.519 28.71 218.791 16.1094C201.063 3.50873 179.221 -1.91206 157.658 0.937235C136.096 3.78644 116.412 14.6945 102.565 31.4675C88.7179 48.2404 81.7355 69.6342 83.0218 91.3462L168.932 86.2572L253.216 68.8572Z" fill="white"/>
</mask>
<g mask="url(#mask0_888_8510)">
<path d="M253.216 68.8572C248.819 47.5559 236.519 28.71 218.791 16.1094C201.063 3.50873 179.221 -1.91206 157.658 0.937235C136.096 3.78644 116.412 14.6945 102.565 31.4675C88.7179 48.2404 81.7355 69.6342 83.0218 91.3462L168.932 86.2572L253.216 68.8572Z" fill="#4BE05A" stroke="url(#paint0_linear_888_8510)" stroke-width="0.424994"/>
</g>
<mask id="mask1_888_8510" style="mask-type:luminance" maskUnits="userSpaceOnUse" x="169" y="71" width="87" height="85">
<path d="M222.417 155.478C234.762 145.706 244.19 132.733 249.673 117.973C255.157 103.214 256.486 87.2325 253.516 71.7695L169 88.0005L222.417 155.478Z" fill="white"/>
</mask>
<g mask="url(#mask1_888_8510)">
<path d="M222.417 155.478C234.762 145.706 244.19 132.733 249.673 117.973C255.157 103.214 256.486 87.2325 253.516 71.7695L169 88.0005L222.417 155.478Z" fill="#05E9F0" stroke="url(#paint1_linear_888_8510)" stroke-width="0.424994"/>
</g>
<mask id="mask2_888_8510" style="mask-type:luminance" maskUnits="userSpaceOnUse" x="169" y="88" width="49" height="86">
<path d="M177.181 173.672C191.758 172.28 205.738 167.192 217.799 158.889L169 88L177.181 173.672Z" fill="white"/>
</mask>
<g mask="url(#mask2_888_8510)">
<path d="M177.181 173.672C191.758 172.28 205.738 167.192 217.799 158.889L169 88L177.181 173.672Z" fill="#2943DE" stroke="url(#paint2_linear_888_8510)" stroke-width="0.424994"/>
</g>
<mask id="mask3_888_8510" style="mask-type:luminance" maskUnits="userSpaceOnUse" x="133" y="88" width="41" height="87">
<path d="M133.561 166.426C146.198 172.136 160.027 174.708 173.873 173.923L169 88L133.561 166.426Z" fill="white"/>
</mask>
<g mask="url(#mask3_888_8510)">
<path d="M133.561 166.426C146.198 172.136 160.027 174.708 173.873 173.923L169 88L133.561 166.426Z" fill="url(#paint3_linear_888_8510)" stroke="url(#paint4_linear_888_8510)" stroke-width="0.424994"/>
</g>
<mask id="mask4_888_8510" style="mask-type:luminance" maskUnits="userSpaceOnUse" x="99" y="88" width="70" height="77">
<path d="M99.0195 138.093C106.945 149.165 117.385 158.199 129.482 164.452L169 88.001L99.0195 138.093Z" fill="white"/>
</mask>
<g mask="url(#mask4_888_8510)">
<path d="M99.0195 138.093C106.945 149.165 117.385 158.199 129.482 164.452L169 88.001L99.0195 138.093Z" fill="#8B86FF" stroke="url(#paint5_linear_888_8510)" stroke-width="0.424994"/>
</g>
<mask id="mask5_888_8510" style="mask-type:luminance" maskUnits="userSpaceOnUse" x="83" y="88" width="86" height="47">
<path d="M83.2568 95.394C84.4576 109.318 89.0313 122.74 96.5826 134.5L169 88L83.2568 95.394Z" fill="white"/>
</mask>
<g mask="url(#mask5_888_8510)">
<path d="M83.2568 95.394C84.4576 109.318 89.0313 122.74 96.5826 134.5L169 88L83.2568 95.394Z" fill="#544CF9" stroke="url(#paint6_linear_888_8510)" stroke-width="0.424994"/>
</g>
<path d="M150.484 55.8V54.6L156.484 48.6H157.684V54.6H158.884V55.8H157.684V57H156.484V55.8H150.484ZM156.484 54.6V50.292L152.176 54.6H156.484ZM166.921 54.6V51C166.921 50.34 166.381 49.8 165.721 49.8H162.121C161.461 49.8 160.921 50.34 160.921 51V54.6C160.921 55.26 161.461 55.8 162.121 55.8H165.721C166.381 55.8 166.921 55.26 166.921 54.6ZM168.121 51V54.6C168.121 55.872 167.065 57 165.721 57H162.121C160.837 57 159.721 55.956 159.721 54.6V51C159.721 49.728 160.777 48.6 162.121 48.6H165.721C167.005 48.6 168.085 49.668 168.121 51ZM177.364 48.6V49.572L171.568 57H170.764V56.076L176.608 48.6H177.364ZM171.364 52.2C172.024 52.2 172.564 51.66 172.564 51C172.564 50.34 172.024 49.8 171.364 49.8C170.704 49.8 170.164 50.34 170.164 51C170.164 51.66 170.704 52.2 171.364 52.2ZM173.764 51C173.764 52.272 172.708 53.4 171.364 53.4C170.08 53.4 168.964 52.356 168.964 51C168.964 49.728 170.02 48.6 171.364 48.6C172.648 48.6 173.728 49.668 173.764 51ZM176.764 55.8C177.424 55.8 177.964 55.26 177.964 54.6C177.964 53.94 177.424 53.4 176.764 53.4C176.104 53.4 175.564 53.94 175.564 54.6C175.564 55.26 176.104 55.8 176.764 55.8ZM179.164 54.6C179.164 55.872 178.108 57 176.764 57C175.48 57 174.364 55.956 174.364 54.6C174.364 53.328 175.42 52.2 176.764 52.2C178.048 52.2 179.128 53.268 179.164 54.6Z" fill="#1C195B"/>
<path d="M209.909 106.314V106.814H215.909V107.814H208.909V106.314C208.909 105.254 209.789 104.314 210.909 104.314H213.909C214.459 104.314 214.909 103.864 214.909 103.314V102.814C214.909 102.264 214.459 101.814 213.909 101.814H210.909C210.359 101.814 209.909 102.264 209.909 102.814H208.909C208.909 101.754 209.789 100.814 210.909 100.814H213.909C214.959 100.814 215.909 101.704 215.909 102.814V103.314C215.909 104.374 215.029 105.314 213.909 105.314H210.909C210.359 105.314 209.909 105.764 209.909 106.314ZM222.712 105.814V102.814C222.712 102.264 222.262 101.814 221.712 101.814H218.712C218.162 101.814 217.712 102.264 217.712 102.814V105.814C217.712 106.364 218.162 106.814 218.712 106.814H221.712C222.262 106.814 222.712 106.364 222.712 105.814ZM223.712 102.814V105.814C223.712 106.874 222.832 107.814 221.712 107.814H218.712C217.642 107.814 216.712 106.944 216.712 105.814V102.814C216.712 101.754 217.592 100.814 218.712 100.814H221.712C222.782 100.814 223.682 101.704 223.712 102.814ZM231.415 100.814V101.624L226.585 107.814H225.915V107.044L230.785 100.814H231.415ZM226.415 103.814C226.965 103.814 227.415 103.364 227.415 102.814C227.415 102.264 226.965 101.814 226.415 101.814C225.865 101.814 225.415 102.264 225.415 102.814C225.415 103.364 225.865 103.814 226.415 103.814ZM228.415 102.814C228.415 103.874 227.535 104.814 226.415 104.814C225.345 104.814 224.415 103.944 224.415 102.814C224.415 101.754 225.295 100.814 226.415 100.814C227.485 100.814 228.385 101.704 228.415 102.814ZM230.915 106.814C231.465 106.814 231.915 106.364 231.915 105.814C231.915 105.264 231.465 104.814 230.915 104.814C230.365 104.814 229.915 105.264 229.915 105.814C229.915 106.364 230.365 106.814 230.915 106.814ZM232.915 105.814C232.915 106.874 232.035 107.814 230.915 107.814C229.845 107.814 228.915 106.944 228.915 105.814C228.915 104.754 229.795 103.814 230.915 103.814C231.985 103.814 232.885 104.704 232.915 105.814Z" fill="#28368B"/>
<path d="M179.639 137.578L181.639 135.578H182.639V142.578H181.639V136.988L180.049 138.578H179.639V137.578ZM189.542 140.578V137.578C189.542 137.028 189.092 136.578 188.542 136.578H185.542C184.992 136.578 184.542 137.028 184.542 137.578V140.578C184.542 141.128 184.992 141.578 185.542 141.578H188.542C189.092 141.578 189.542 141.128 189.542 140.578ZM190.542 137.578V140.578C190.542 141.638 189.662 142.578 188.542 142.578H185.542C184.472 142.578 183.542 141.708 183.542 140.578V137.578C183.542 136.518 184.422 135.578 185.542 135.578H188.542C189.612 135.578 190.512 136.468 190.542 137.578ZM198.245 135.578V136.388L193.415 142.578H192.745V141.808L197.615 135.578H198.245ZM193.245 138.578C193.795 138.578 194.245 138.128 194.245 137.578C194.245 137.028 193.795 136.578 193.245 136.578C192.695 136.578 192.245 137.028 192.245 137.578C192.245 138.128 192.695 138.578 193.245 138.578ZM195.245 137.578C195.245 138.638 194.365 139.578 193.245 139.578C192.175 139.578 191.245 138.708 191.245 137.578C191.245 136.518 192.125 135.578 193.245 135.578C194.315 135.578 195.215 136.468 195.245 137.578ZM197.745 141.578C198.295 141.578 198.745 141.128 198.745 140.578C198.745 140.028 198.295 139.578 197.745 139.578C197.195 139.578 196.745 140.028 196.745 140.578C196.745 141.128 197.195 141.578 197.745 141.578ZM199.745 140.578C199.745 141.638 198.865 142.578 197.745 142.578C196.675 142.578 195.745 141.708 195.745 140.578C195.745 139.518 196.625 138.578 197.745 138.578C198.815 138.578 199.715 139.468 199.745 140.578Z" fill="white"/>
<path d="M117.1 135L119.1 133H120.1V140H119.1V134.41L117.51 136H117.1V135ZM127.004 138V135C127.004 134.45 126.554 134 126.004 134H123.004C122.454 134 122.004 134.45 122.004 135V138C122.004 138.55 122.454 139 123.004 139H126.004C126.554 139 127.004 138.55 127.004 138ZM128.004 135V138C128.004 139.06 127.124 140 126.004 140H123.004C121.934 140 121.004 139.13 121.004 138V135C121.004 133.94 121.884 133 123.004 133H126.004C127.074 133 127.974 133.89 128.004 135ZM135.706 133V133.81L130.876 140H130.206V139.23L135.076 133H135.706ZM130.706 136C131.256 136 131.706 135.55 131.706 135C131.706 134.45 131.256 134 130.706 134C130.156 134 129.706 134.45 129.706 135C129.706 135.55 130.156 136 130.706 136ZM132.706 135C132.706 136.06 131.826 137 130.706 137C129.636 137 128.706 136.13 128.706 135C128.706 133.94 129.586 133 130.706 133C131.776 133 132.676 133.89 132.706 135ZM135.206 139C135.756 139 136.206 138.55 136.206 138C136.206 137.45 135.756 137 135.206 137C134.656 137 134.206 137.45 134.206 138C134.206 138.55 134.656 139 135.206 139ZM137.206 138C137.206 139.06 136.326 140 135.206 140C134.136 140 133.206 139.13 133.206 138C133.206 136.94 134.086 136 135.206 136C136.276 136 137.176 136.89 137.206 138Z" fill="white"/>
<path d="M99.1 106L101.1 104H102.1V111H101.1V105.41L99.51 107H99.1V106ZM109.004 109V106C109.004 105.45 108.554 105 108.004 105H105.004C104.454 105 104.004 105.45 104.004 106V109C104.004 109.55 104.454 110 105.004 110H108.004C108.554 110 109.004 109.55 109.004 109ZM110.004 106V109C110.004 110.06 109.124 111 108.004 111H105.004C103.934 111 103.004 110.13 103.004 109V106C103.004 104.94 103.884 104 105.004 104H108.004C109.074 104 109.974 104.89 110.004 106ZM117.706 104V104.81L112.876 111H112.206V110.23L117.076 104H117.706ZM112.706 107C113.256 107 113.706 106.55 113.706 106C113.706 105.45 113.256 105 112.706 105C112.156 105 111.706 105.45 111.706 106C111.706 106.55 112.156 107 112.706 107ZM114.706 106C114.706 107.06 113.826 108 112.706 108C111.636 108 110.706 107.13 110.706 106C110.706 104.94 111.586 104 112.706 104C113.776 104 114.676 104.89 114.706 106ZM117.206 110C117.756 110 118.206 109.55 118.206 109C118.206 108.45 117.756 108 117.206 108C116.656 108 116.206 108.45 116.206 109C116.206 109.55 116.656 110 117.206 110ZM119.206 109C119.206 110.06 118.326 111 117.206 111C116.136 111 115.206 110.13 115.206 109C115.206 107.94 116.086 107 117.206 107C118.276 107 119.176 107.89 119.206 109Z" fill="white"/>
<path d="M147.1 150L149.1 148H150.1V155H149.1V149.41L147.51 151H147.1V150ZM157.004 153V150C157.004 149.45 156.554 149 156.004 149H153.004C152.454 149 152.004 149.45 152.004 150V153C152.004 153.55 152.454 154 153.004 154H156.004C156.554 154 157.004 153.55 157.004 153ZM158.004 150V153C158.004 154.06 157.124 155 156.004 155H153.004C151.934 155 151.004 154.13 151.004 153V150C151.004 148.94 151.884 148 153.004 148H156.004C157.074 148 157.974 148.89 158.004 150ZM165.706 148V148.81L160.876 155H160.206V154.23L165.076 148H165.706ZM160.706 151C161.256 151 161.706 150.55 161.706 150C161.706 149.45 161.256 149 160.706 149C160.156 149 159.706 149.45 159.706 150C159.706 150.55 160.156 151 160.706 151ZM162.706 150C162.706 151.06 161.826 152 160.706 152C159.636 152 158.706 151.13 158.706 150C158.706 148.94 159.586 148 160.706 148C161.776 148 162.676 148.89 162.706 150ZM165.206 154C165.756 154 166.206 153.55 166.206 153C166.206 152.45 165.756 152 165.206 152C164.656 152 164.206 152.45 164.206 153C164.206 153.55 164.656 154 165.206 154ZM167.206 153C167.206 154.06 166.326 155 165.206 155C164.136 155 163.206 154.13 163.206 153C163.206 151.94 164.086 151 165.206 151C166.276 151 167.176 151.89 167.206 153Z" fill="white"/>
</g>
<path fill-rule="evenodd" clip-rule="evenodd" d="M229.371 147.122L218 138L227.51 150.674V160.76C227.51 163.102 229.408 165 231.75 165H297.76C300.102 165 302 163.102 302 160.76V150.632C302 148.29 300.102 146.392 297.76 146.392H231.75C230.868 146.392 230.049 146.661 229.371 147.122Z" fill="#140D83"/>
<path d="M234.939 158.389V151.389H236.054V156.559L239.554 151.389H240.634V158.389H239.524V153.184L236.009 158.389H234.939ZM242.313 158.389V153.439H243.413V155.349H245.893V153.439H246.993V158.389H245.893V156.259H243.413V158.389H242.313ZM248.524 158.389V153.439H250.884C251.444 153.439 251.893 153.545 252.229 153.759C252.566 153.972 252.734 154.292 252.734 154.719C252.734 154.919 252.686 155.097 252.589 155.254C252.493 155.407 252.359 155.535 252.189 155.639C252.019 155.742 251.821 155.817 251.594 155.864L251.574 155.619C252.011 155.679 252.349 155.824 252.589 156.054C252.829 156.284 252.949 156.575 252.949 156.929C252.949 157.229 252.871 157.489 252.714 157.709C252.558 157.925 252.333 158.094 252.039 158.214C251.746 158.33 251.394 158.389 250.984 158.389H248.524ZM249.589 157.574H250.834C251.164 157.574 251.418 157.519 251.594 157.409C251.774 157.299 251.864 157.134 251.864 156.914C251.864 156.697 251.776 156.535 251.599 156.429C251.423 156.319 251.168 156.264 250.834 156.264H249.444V155.479H250.719C251.029 155.479 251.269 155.432 251.439 155.339C251.609 155.242 251.694 155.085 251.694 154.869C251.694 154.652 251.609 154.495 251.439 154.399C251.269 154.299 251.029 154.249 250.719 154.249H249.589V157.574ZM256.448 158.539C255.915 158.539 255.447 158.43 255.043 158.214C254.64 157.994 254.325 157.687 254.098 157.294C253.875 156.9 253.763 156.444 253.763 155.924C253.763 155.544 253.828 155.194 253.958 154.874C254.088 154.55 254.272 154.27 254.508 154.034C254.745 153.797 255.022 153.614 255.338 153.484C255.658 153.354 256.007 153.289 256.383 153.289C256.793 153.289 257.158 153.362 257.478 153.509C257.798 153.652 258.063 153.854 258.273 154.114C258.487 154.374 258.637 154.679 258.723 155.029C258.813 155.375 258.828 155.752 258.768 156.159H254.818C254.812 156.455 254.877 156.715 255.013 156.939C255.15 157.159 255.345 157.33 255.598 157.454C255.855 157.577 256.157 157.639 256.503 157.639C256.783 157.639 257.053 157.597 257.313 157.514C257.577 157.427 257.815 157.3 258.028 157.134L258.453 157.924C258.293 158.054 258.1 158.165 257.873 158.259C257.647 158.349 257.41 158.417 257.163 158.464C256.917 158.514 256.678 158.539 256.448 158.539ZM254.883 155.349H257.688C257.678 154.975 257.558 154.682 257.328 154.469C257.102 154.255 256.778 154.149 256.358 154.149C255.952 154.149 255.613 154.255 255.343 154.469C255.077 154.682 254.923 154.975 254.883 155.349ZM262.23 158.539C261.71 158.539 261.246 158.425 260.84 158.199C260.433 157.969 260.113 157.657 259.88 157.264C259.65 156.867 259.535 156.417 259.535 155.914C259.535 155.534 259.603 155.185 259.74 154.869C259.876 154.549 260.07 154.27 260.32 154.034C260.57 153.797 260.863 153.614 261.2 153.484C261.54 153.354 261.908 153.289 262.305 153.289C262.638 153.289 262.946 153.334 263.23 153.424C263.516 153.51 263.78 153.645 264.02 153.829L263.49 154.669C263.336 154.532 263.16 154.43 262.96 154.364C262.763 154.297 262.553 154.264 262.33 154.264C261.983 154.264 261.685 154.329 261.435 154.459C261.185 154.589 260.99 154.777 260.85 155.024C260.713 155.267 260.645 155.562 260.645 155.909C260.645 156.425 260.795 156.83 261.095 157.124C261.398 157.417 261.81 157.564 262.33 157.564C262.576 157.564 262.81 157.519 263.03 157.429C263.25 157.335 263.433 157.214 263.58 157.064L264.105 157.899C263.841 158.099 263.548 158.255 263.225 158.369C262.901 158.482 262.57 158.539 262.23 158.539ZM266.221 158.389V154.349H264.596V153.439H268.951V154.349H267.321V158.389H266.221ZM272.215 158.539C271.698 158.539 271.236 158.42 270.83 158.184C270.426 157.944 270.11 157.625 269.88 157.229C269.65 156.829 269.535 156.39 269.535 155.914C269.535 155.56 269.6 155.227 269.73 154.914C269.863 154.597 270.05 154.317 270.29 154.074C270.533 153.83 270.818 153.639 271.145 153.499C271.471 153.359 271.83 153.289 272.22 153.289C272.736 153.289 273.196 153.409 273.6 153.649C274.006 153.885 274.325 154.204 274.555 154.604C274.785 155 274.9 155.437 274.9 155.914C274.9 156.264 274.833 156.597 274.7 156.914C274.57 157.23 274.385 157.51 274.145 157.754C273.905 157.997 273.621 158.189 273.295 158.329C272.968 158.469 272.608 158.539 272.215 158.539ZM272.215 157.564C272.521 157.564 272.793 157.497 273.03 157.364C273.27 157.227 273.458 157.035 273.595 156.789C273.731 156.542 273.8 156.25 273.8 155.914C273.8 155.577 273.731 155.285 273.595 155.039C273.458 154.789 273.27 154.597 273.03 154.464C272.793 154.33 272.521 154.264 272.215 154.264C271.908 154.264 271.635 154.33 271.395 154.464C271.158 154.597 270.971 154.789 270.835 155.039C270.701 155.285 270.635 155.577 270.635 155.914C270.635 156.25 270.703 156.542 270.84 156.789C270.976 157.035 271.163 157.227 271.4 157.364C271.64 157.497 271.911 157.564 272.215 157.564ZM276.005 160.489V153.439H276.995V154.134C277.191 153.884 277.443 153.68 277.75 153.524C278.056 153.367 278.435 153.289 278.885 153.289C279.368 153.289 279.796 153.404 280.17 153.634C280.546 153.86 280.84 154.172 281.05 154.569C281.26 154.962 281.365 155.41 281.365 155.914C281.365 156.277 281.305 156.619 281.185 156.939C281.065 157.255 280.893 157.534 280.67 157.774C280.45 158.014 280.186 158.202 279.88 158.339C279.576 158.472 279.24 158.539 278.87 158.539C278.483 158.539 278.143 158.469 277.85 158.329C277.556 158.189 277.306 158 277.1 157.764V160.489H276.005ZM278.685 157.564C278.991 157.564 279.263 157.497 279.5 157.364C279.74 157.227 279.926 157.035 280.06 156.789C280.196 156.542 280.265 156.25 280.265 155.914C280.265 155.577 280.196 155.285 280.06 155.039C279.923 154.789 279.735 154.597 279.495 154.464C279.258 154.33 278.988 154.264 278.685 154.264C278.378 154.264 278.105 154.33 277.865 154.464C277.628 154.597 277.441 154.789 277.305 155.039C277.168 155.285 277.1 155.577 277.1 155.914C277.1 156.25 277.168 156.542 277.305 156.789C277.441 157.035 277.628 157.227 277.865 157.364C278.105 157.497 278.378 157.564 278.685 157.564ZM283.845 158.539C283.501 158.539 283.2 158.475 282.94 158.349C282.68 158.219 282.476 158.037 282.33 157.804C282.186 157.567 282.115 157.289 282.115 156.969C282.115 156.699 282.183 156.455 282.32 156.239C282.456 156.019 282.668 155.837 282.955 155.694C283.245 155.55 283.616 155.455 284.07 155.409C284.523 155.359 285.068 155.365 285.705 155.429L285.725 156.189C285.271 156.125 284.881 156.099 284.555 156.109C284.228 156.119 283.96 156.16 283.75 156.234C283.543 156.304 283.39 156.399 283.29 156.519C283.193 156.635 283.145 156.77 283.145 156.924C283.145 157.164 283.23 157.349 283.4 157.479C283.573 157.609 283.81 157.674 284.11 157.674C284.366 157.674 284.596 157.627 284.8 157.534C285.003 157.44 285.163 157.309 285.28 157.139C285.4 156.969 285.46 156.769 285.46 156.539V155.224C285.46 155.004 285.413 154.814 285.32 154.654C285.226 154.49 285.085 154.364 284.895 154.274C284.705 154.184 284.468 154.139 284.185 154.139C283.925 154.139 283.668 154.179 283.415 154.259C283.161 154.335 282.92 154.457 282.69 154.624L282.38 153.814C282.69 153.604 283.013 153.455 283.35 153.369C283.686 153.282 284.01 153.239 284.32 153.239C284.78 153.239 285.173 153.312 285.5 153.459C285.83 153.602 286.083 153.82 286.26 154.114C286.436 154.404 286.525 154.77 286.525 155.214V158.389H285.535V157.804C285.368 158.04 285.136 158.222 284.84 158.349C284.543 158.475 284.211 158.539 283.845 158.539ZM287.987 158.389V153.439H288.942H288.972L291.192 156.649L290.717 156.659L292.827 153.439H293.802V158.389H292.802L292.817 154.729L293.022 154.819L291.252 157.404H290.542L288.692 154.814L288.897 154.724L288.912 158.389H287.987Z" fill="white"/>
<path fill-rule="evenodd" clip-rule="evenodd" d="M184.463 176.72L200.919 163.996L191.013 176.72H229.619C231.961 176.72 233.859 178.618 233.859 180.96V202.856C233.859 205.198 231.961 207.096 229.619 207.096H158.24C155.898 207.096 154 205.198 154 202.856V180.96C154 178.618 155.898 176.72 158.24 176.72H184.463Z" fill="#140D83"/>
<path d="M164.764 189.246C164.274 189.246 163.797 189.177 163.334 189.041C162.874 188.901 162.472 188.697 162.129 188.431L162.659 187.536C162.969 187.769 163.304 187.941 163.664 188.051C164.027 188.157 164.401 188.211 164.784 188.211C165.291 188.211 165.729 188.111 166.099 187.911C166.472 187.707 166.759 187.407 166.959 187.011C167.159 186.614 167.259 186.119 167.259 185.526C167.259 184.976 167.157 184.511 166.954 184.131C166.754 183.751 166.471 183.462 166.104 183.266C165.741 183.069 165.314 182.971 164.824 182.971C164.434 182.971 164.076 183.022 163.749 183.126C163.426 183.229 163.137 183.384 162.884 183.591L162.349 182.766C162.646 182.509 163.007 182.309 163.434 182.166C163.861 182.019 164.334 181.946 164.854 181.946C165.554 181.946 166.166 182.096 166.689 182.396C167.216 182.692 167.624 183.109 167.914 183.646C168.207 184.182 168.354 184.807 168.354 185.521C168.354 186.087 168.267 186.601 168.094 187.061C167.924 187.521 167.679 187.914 167.359 188.241C167.042 188.564 166.664 188.812 166.224 188.986C165.787 189.159 165.301 189.246 164.764 189.246ZM163.504 185.891V184.986H167.534V185.891H163.504ZM172.887 189.096L171.247 186.466L172.772 184.146H173.947L172.432 186.416L174.202 189.096H172.887ZM169.597 189.096V184.146H170.697V186.056H172.187V186.966H170.697V189.096H169.597ZM177.345 189.246C176.825 189.246 176.362 189.132 175.955 188.906C175.548 188.676 175.228 188.364 174.995 187.971C174.765 187.574 174.65 187.124 174.65 186.621C174.65 186.241 174.718 185.892 174.855 185.576C174.992 185.256 175.185 184.977 175.435 184.741C175.685 184.504 175.978 184.321 176.315 184.191C176.655 184.061 177.023 183.996 177.42 183.996C177.753 183.996 178.062 184.041 178.345 184.131C178.632 184.217 178.895 184.352 179.135 184.536L178.605 185.376C178.452 185.239 178.275 185.137 178.075 185.071C177.878 185.004 177.668 184.971 177.445 184.971C177.098 184.971 176.8 185.036 176.55 185.166C176.3 185.296 176.105 185.484 175.965 185.731C175.828 185.974 175.76 186.269 175.76 186.616C175.76 187.132 175.91 187.537 176.21 187.831C176.513 188.124 176.925 188.271 177.445 188.271C177.692 188.271 177.925 188.226 178.145 188.136C178.365 188.042 178.548 187.921 178.695 187.771L179.22 188.606C178.957 188.806 178.663 188.962 178.34 189.076C178.017 189.189 177.685 189.246 177.345 189.246ZM180.231 189.096V184.146H184.906V189.096H183.806V185.056H181.331V189.096H180.231ZM188.692 189.246C188.159 189.246 187.691 189.137 187.287 188.921C186.884 188.701 186.569 188.394 186.342 188.001C186.119 187.607 186.007 187.151 186.007 186.631C186.007 186.251 186.072 185.901 186.202 185.581C186.332 185.257 186.516 184.977 186.752 184.741C186.989 184.504 187.266 184.321 187.582 184.191C187.902 184.061 188.251 183.996 188.627 183.996C189.037 183.996 189.402 184.069 189.722 184.216C190.042 184.359 190.307 184.561 190.517 184.821C190.731 185.081 190.881 185.386 190.967 185.736C191.057 186.082 191.072 186.459 191.012 186.866H187.062C187.056 187.162 187.121 187.422 187.257 187.646C187.394 187.866 187.589 188.037 187.842 188.161C188.099 188.284 188.401 188.346 188.747 188.346C189.027 188.346 189.297 188.304 189.557 188.221C189.821 188.134 190.059 188.007 190.272 187.841L190.697 188.631C190.537 188.761 190.344 188.872 190.117 188.966C189.891 189.056 189.654 189.124 189.407 189.171C189.161 189.221 188.922 189.246 188.692 189.246ZM187.127 186.056H189.932C189.922 185.682 189.802 185.389 189.572 185.176C189.346 184.962 189.022 184.856 188.602 184.856C188.196 184.856 187.857 184.962 187.587 185.176C187.321 185.389 187.167 185.682 187.127 186.056ZM192.155 191.196V184.146H193.145V184.841C193.342 184.591 193.593 184.387 193.9 184.231C194.207 184.074 194.585 183.996 195.035 183.996C195.518 183.996 195.947 184.111 196.32 184.341C196.697 184.567 196.99 184.879 197.2 185.276C197.41 185.669 197.515 186.117 197.515 186.621C197.515 186.984 197.455 187.326 197.335 187.646C197.215 187.962 197.043 188.241 196.82 188.481C196.6 188.721 196.337 188.909 196.03 189.046C195.727 189.179 195.39 189.246 195.02 189.246C194.633 189.246 194.293 189.176 194 189.036C193.707 188.896 193.457 188.707 193.25 188.471V191.196H192.155ZM194.835 188.271C195.142 188.271 195.413 188.204 195.65 188.071C195.89 187.934 196.077 187.742 196.21 187.496C196.347 187.249 196.415 186.957 196.415 186.621C196.415 186.284 196.347 185.992 196.21 185.746C196.073 185.496 195.885 185.304 195.645 185.171C195.408 185.037 195.138 184.971 194.835 184.971C194.528 184.971 194.255 185.037 194.015 185.171C193.778 185.304 193.592 185.496 193.455 185.746C193.318 185.992 193.25 186.284 193.25 186.621C193.25 186.957 193.318 187.249 193.455 187.496C193.592 187.742 193.778 187.934 194.015 188.071C194.255 188.204 194.528 188.271 194.835 188.271ZM199.725 189.096V185.056H198.1V184.146H202.455V185.056H200.825V189.096H199.725ZM203.464 189.096V184.146H204.564V186.056H207.044V184.146H208.144V189.096H207.044V186.966H204.564V189.096H203.464ZM211.93 189.246C211.413 189.246 210.951 189.127 210.545 188.891C210.141 188.651 209.825 188.332 209.595 187.936C209.365 187.536 209.25 187.097 209.25 186.621C209.25 186.267 209.315 185.934 209.445 185.621C209.578 185.304 209.765 185.024 210.005 184.781C210.248 184.537 210.533 184.346 210.86 184.206C211.186 184.066 211.545 183.996 211.935 183.996C212.451 183.996 212.911 184.116 213.315 184.356C213.721 184.592 214.04 184.911 214.27 185.311C214.5 185.707 214.615 186.144 214.615 186.621C214.615 186.971 214.548 187.304 214.415 187.621C214.285 187.937 214.1 188.217 213.86 188.461C213.62 188.704 213.336 188.896 213.01 189.036C212.683 189.176 212.323 189.246 211.93 189.246ZM211.93 188.271C212.236 188.271 212.508 188.204 212.745 188.071C212.985 187.934 213.173 187.742 213.31 187.496C213.446 187.249 213.515 186.957 213.515 186.621C213.515 186.284 213.446 185.992 213.31 185.746C213.173 185.496 212.985 185.304 212.745 185.171C212.508 185.037 212.236 184.971 211.93 184.971C211.623 184.971 211.35 185.037 211.11 185.171C210.873 185.304 210.686 185.496 210.55 185.746C210.416 185.992 210.35 186.284 210.35 186.621C210.35 186.957 210.418 187.249 210.555 187.496C210.691 187.742 210.878 187.934 211.115 188.071C211.355 188.204 211.626 188.271 211.93 188.271ZM215.72 189.096V184.146H216.785V187.486L219.47 184.146H220.43V189.096H219.37V185.716L216.66 189.096H215.72ZM218.075 183.296C217.705 183.296 217.38 183.219 217.1 183.066C216.82 182.912 216.603 182.701 216.45 182.431C216.296 182.161 216.225 181.851 216.235 181.501H217.155C217.141 181.807 217.218 182.056 217.385 182.246C217.555 182.432 217.785 182.526 218.075 182.526C218.365 182.526 218.593 182.432 218.76 182.246C218.926 182.056 219.001 181.807 218.985 181.501H219.91C219.916 181.847 219.841 182.156 219.685 182.426C219.531 182.696 219.315 182.909 219.035 183.066C218.758 183.219 218.438 183.296 218.075 183.296ZM165.914 201.096L164.274 198.466L165.799 196.146H166.974L165.459 198.416L167.229 201.096H165.914ZM162.624 201.096V196.146H163.724V198.056H165.214V198.966H163.724V201.096H162.624ZM170.357 201.246C169.841 201.246 169.379 201.127 168.972 200.891C168.569 200.651 168.252 200.332 168.022 199.936C167.792 199.536 167.677 199.097 167.677 198.621C167.677 198.267 167.742 197.934 167.872 197.621C168.006 197.304 168.192 197.024 168.432 196.781C168.676 196.537 168.961 196.346 169.287 196.206C169.614 196.066 169.972 195.996 170.362 195.996C170.879 195.996 171.339 196.116 171.742 196.356C172.149 196.592 172.467 196.911 172.697 197.311C172.927 197.707 173.042 198.144 173.042 198.621C173.042 198.971 172.976 199.304 172.842 199.621C172.712 199.937 172.527 200.217 172.287 200.461C172.047 200.704 171.764 200.896 171.437 201.036C171.111 201.176 170.751 201.246 170.357 201.246ZM170.357 200.271C170.664 200.271 170.936 200.204 171.172 200.071C171.412 199.934 171.601 199.742 171.737 199.496C171.874 199.249 171.942 198.957 171.942 198.621C171.942 198.284 171.874 197.992 171.737 197.746C171.601 197.496 171.412 197.304 171.172 197.171C170.936 197.037 170.664 196.971 170.357 196.971C170.051 196.971 169.777 197.037 169.537 197.171C169.301 197.304 169.114 197.496 168.977 197.746C168.844 197.992 168.777 198.284 168.777 198.621C168.777 198.957 168.846 199.249 168.982 199.496C169.119 199.742 169.306 199.934 169.542 200.071C169.782 200.204 170.054 200.271 170.357 200.271ZM174.147 201.096V196.146H175.102H175.132L177.352 199.356L176.877 199.366L178.987 196.146H179.962V201.096H178.962L178.977 197.436L179.182 197.526L177.412 200.111H176.702L174.852 197.521L175.057 197.431L175.072 201.096H174.147ZM182.866 201.246C182.523 201.246 182.221 201.182 181.961 201.056C181.701 200.926 181.498 200.744 181.351 200.511C181.208 200.274 181.136 199.996 181.136 199.676C181.136 199.406 181.204 199.162 181.341 198.946C181.478 198.726 181.689 198.544 181.976 198.401C182.266 198.257 182.638 198.162 183.091 198.116C183.544 198.066 184.089 198.072 184.726 198.136L184.746 198.896C184.293 198.832 183.903 198.806 183.576 198.816C183.249 198.826 182.981 198.867 182.771 198.941C182.564 199.011 182.411 199.106 182.311 199.226C182.214 199.342 182.166 199.477 182.166 199.631C182.166 199.871 182.251 200.056 182.421 200.186C182.594 200.316 182.831 200.381 183.131 200.381C183.388 200.381 183.618 200.334 183.821 200.241C184.024 200.147 184.184 200.016 184.301 199.846C184.421 199.676 184.481 199.476 184.481 199.246V197.931C184.481 197.711 184.434 197.521 184.341 197.361C184.248 197.197 184.106 197.071 183.916 196.981C183.726 196.891 183.489 196.846 183.206 196.846C182.946 196.846 182.689 196.886 182.436 196.966C182.183 197.042 181.941 197.164 181.711 197.331L181.401 196.521C181.711 196.311 182.034 196.162 182.371 196.076C182.708 195.989 183.031 195.946 183.341 195.946C183.801 195.946 184.194 196.019 184.521 196.166C184.851 196.309 185.104 196.527 185.281 196.821C185.458 197.111 185.546 197.477 185.546 197.921V201.096H184.556V200.511C184.389 200.747 184.158 200.929 183.861 201.056C183.564 201.182 183.233 201.246 182.866 201.246ZM187.009 201.096V196.146H188.109V198.056H190.589V196.146H191.689V201.096H190.589V198.966H188.109V201.096H187.009ZM196.815 201.096V197.056H194.815V197.711C194.815 198.161 194.788 198.567 194.735 198.931C194.681 199.294 194.586 199.614 194.45 199.891C194.313 200.164 194.121 200.391 193.875 200.571C193.631 200.751 193.32 200.882 192.94 200.966L192.67 200.221C192.986 200.144 193.225 200.001 193.385 199.791C193.545 199.581 193.651 199.304 193.705 198.961C193.761 198.614 193.79 198.197 193.79 197.711V196.146H197.915V201.096H196.815ZM192.67 202.596V200.221L193.35 200.291L193.52 200.186H198.91V202.596H197.905V201.096H193.675V202.596H192.67ZM202.062 201.246C201.528 201.246 201.06 201.137 200.657 200.921C200.253 200.701 199.938 200.394 199.712 200.001C199.488 199.607 199.377 199.151 199.377 198.631C199.377 198.251 199.442 197.901 199.572 197.581C199.702 197.257 199.885 196.977 200.122 196.741C200.358 196.504 200.635 196.321 200.952 196.191C201.272 196.061 201.62 195.996 201.997 195.996C202.407 195.996 202.772 196.069 203.092 196.216C203.412 196.359 203.677 196.561 203.887 196.821C204.1 197.081 204.25 197.386 204.337 197.736C204.427 198.082 204.442 198.459 204.382 198.866H200.432C200.425 199.162 200.49 199.422 200.627 199.646C200.763 199.866 200.958 200.037 201.212 200.161C201.468 200.284 201.77 200.346 202.117 200.346C202.397 200.346 202.667 200.304 202.927 200.221C203.19 200.134 203.428 200.007 203.642 199.841L204.067 200.631C203.907 200.761 203.713 200.872 203.487 200.966C203.26 201.056 203.023 201.124 202.777 201.171C202.53 201.221 202.292 201.246 202.062 201.246ZM200.497 198.056H203.302C203.292 197.682 203.172 197.389 202.942 197.176C202.715 196.962 202.392 196.856 201.972 196.856C201.565 196.856 201.227 196.962 200.957 197.176C200.69 197.389 200.537 197.682 200.497 198.056Z" fill="white"/>
<path fill-rule="evenodd" clip-rule="evenodd" d="M131.587 65.1671L143 57L133.509 68.2821C133.525 68.4305 133.533 68.5812 133.533 68.7337V76.759C133.533 79.1007 131.635 80.999 129.293 80.999H41.24C38.8983 80.999 37 79.1007 37 76.759V68.7337C37 66.3921 38.8983 64.4938 41.24 64.4938H129.293C130.138 64.4938 130.926 64.741 131.587 65.1671Z" fill="#79F585"/>
<path d="M44.7452 75.5087L44.3052 74.4787C44.6918 74.3853 45.0402 74.247 45.3502 74.0637C45.6635 73.8803 45.9485 73.637 46.2052 73.3337C46.4618 73.0303 46.6985 72.6553 46.9152 72.2087L48.7802 68.3887H50.0752L47.9602 72.5587C47.7268 73.0187 47.4918 73.4187 47.2552 73.7587C47.0185 74.0953 46.7718 74.3803 46.5152 74.6137C46.2585 74.847 45.9835 75.0353 45.6902 75.1787C45.4002 75.322 45.0852 75.432 44.7452 75.5087ZM46.7602 73.1887L44.0952 68.3887H45.4602L47.5102 72.1987L46.7602 73.1887ZM53.4732 75.3887V73.4537C53.2399 73.5137 53.0182 73.5587 52.8082 73.5887C52.6016 73.6187 52.3832 73.6337 52.1532 73.6337C51.7099 73.6337 51.3366 73.5653 51.0332 73.4287C50.7299 73.292 50.5016 73.0853 50.3482 72.8087C50.1949 72.532 50.1182 72.1837 50.1182 71.7637V70.4387H51.2182V71.6087C51.2182 71.962 51.3032 72.2303 51.4732 72.4137C51.6432 72.597 51.9332 72.6887 52.3432 72.6887C52.5799 72.6887 52.7866 72.6787 52.9632 72.6587C53.1432 72.6353 53.3132 72.607 53.4732 72.5737V70.4387H54.5732V75.3887H53.4732ZM57.4803 75.5387C57.137 75.5387 56.8353 75.4753 56.5753 75.3487C56.3153 75.2187 56.112 75.037 55.9653 74.8037C55.822 74.567 55.7503 74.2887 55.7503 73.9687C55.7503 73.6987 55.8187 73.4553 55.9553 73.2387C56.092 73.0187 56.3037 72.837 56.5903 72.6937C56.8803 72.5503 57.252 72.4553 57.7053 72.4087C58.1587 72.3587 58.7037 72.3653 59.3403 72.4287L59.3603 73.1887C58.907 73.1253 58.517 73.0987 58.1903 73.1087C57.8637 73.1187 57.5953 73.1603 57.3853 73.2337C57.1787 73.3037 57.0253 73.3987 56.9253 73.5187C56.8287 73.6353 56.7803 73.7703 56.7803 73.9237C56.7803 74.1637 56.8653 74.3487 57.0353 74.4787C57.2087 74.6087 57.4453 74.6737 57.7453 74.6737C58.002 74.6737 58.232 74.627 58.4353 74.5337C58.6387 74.4403 58.7987 74.3087 58.9153 74.1387C59.0353 73.9687 59.0953 73.7687 59.0953 73.5387V72.2237C59.0953 72.0037 59.0487 71.8137 58.9553 71.6537C58.862 71.4903 58.7203 71.3637 58.5303 71.2737C58.3403 71.1837 58.1037 71.1387 57.8203 71.1387C57.5603 71.1387 57.3037 71.1787 57.0503 71.2587C56.797 71.3353 56.5553 71.457 56.3253 71.6237L56.0153 70.8137C56.3253 70.6037 56.6487 70.4553 56.9853 70.3687C57.322 70.282 57.6453 70.2387 57.9553 70.2387C58.4153 70.2387 58.8087 70.312 59.1353 70.4587C59.4653 70.602 59.7187 70.8203 59.8953 71.1137C60.072 71.4037 60.1603 71.7703 60.1603 72.2137V75.3887H59.1703V74.8037C59.0037 75.0403 58.772 75.222 58.4753 75.3487C58.1787 75.4753 57.847 75.5387 57.4803 75.5387ZM63.8929 75.5387C63.3729 75.5387 62.9096 75.4253 62.5029 75.1987C62.0962 74.9687 61.7762 74.657 61.5429 74.2637C61.3129 73.867 61.1979 73.417 61.1979 72.9137C61.1979 72.5337 61.2662 72.1853 61.4029 71.8687C61.5396 71.5487 61.7329 71.2703 61.9829 71.0337C62.2329 70.797 62.5262 70.6137 62.8629 70.4837C63.2029 70.3537 63.5712 70.2887 63.9679 70.2887C64.3012 70.2887 64.6096 70.3337 64.8929 70.4237C65.1796 70.5103 65.4429 70.6453 65.6829 70.8287L65.1529 71.6687C64.9996 71.532 64.8229 71.4303 64.6229 71.3637C64.4262 71.297 64.2162 71.2637 63.9929 71.2637C63.6462 71.2637 63.3479 71.3287 63.0979 71.4587C62.8479 71.5887 62.6529 71.777 62.5129 72.0237C62.3762 72.267 62.3079 72.562 62.3079 72.9087C62.3079 73.4253 62.4579 73.8303 62.7579 74.1237C63.0612 74.417 63.4729 74.5637 63.9929 74.5637C64.2396 74.5637 64.4729 74.5187 64.6929 74.4287C64.9129 74.3353 65.0962 74.2137 65.2429 74.0637L65.7679 74.8987C65.5046 75.0987 65.2112 75.2553 64.8879 75.3687C64.5646 75.482 64.2329 75.5387 63.8929 75.5387ZM67.8842 75.3887V71.3487H66.2592V70.4387H70.6142V71.3487H68.9842V75.3887H67.8842ZM71.6229 75.3887V70.4387H72.7229V72.3487H75.2029V70.4387H76.3029V75.3887H75.2029V73.2587H72.7229V75.3887H71.6229ZM77.8338 75.3887V70.4387H78.8988V73.7787L81.5838 70.4387H82.5438V75.3887H81.4838V72.0087L78.7738 75.3887H77.8338ZM87.3641 75.3887L85.7241 72.7587L87.2491 70.4387H88.4241L86.9091 72.7087L88.6791 75.3887H87.3641ZM84.0741 75.3887V70.4387H85.1741V72.3487H86.6641V73.2587H85.1741V75.3887H84.0741ZM91.0253 75.5387C90.6819 75.5387 90.3803 75.4753 90.1203 75.3487C89.8603 75.2187 89.6569 75.037 89.5103 74.8037C89.3669 74.567 89.2953 74.2887 89.2953 73.9687C89.2953 73.6987 89.3636 73.4553 89.5003 73.2387C89.6369 73.0187 89.8486 72.837 90.1353 72.6937C90.4253 72.5503 90.7969 72.4553 91.2503 72.4087C91.7036 72.3587 92.2486 72.3653 92.8853 72.4287L92.9053 73.1887C92.4519 73.1253 92.0619 73.0987 91.7353 73.1087C91.4086 73.1187 91.1403 73.1603 90.9303 73.2337C90.7236 73.3037 90.5703 73.3987 90.4703 73.5187C90.3736 73.6353 90.3253 73.7703 90.3253 73.9237C90.3253 74.1637 90.4103 74.3487 90.5803 74.4787C90.7536 74.6087 90.9903 74.6737 91.2903 74.6737C91.5469 74.6737 91.7769 74.627 91.9803 74.5337C92.1836 74.4403 92.3436 74.3087 92.4603 74.1387C92.5803 73.9687 92.6403 73.7687 92.6403 73.5387V72.2237C92.6403 72.0037 92.5936 71.8137 92.5003 71.6537C92.4069 71.4903 92.2653 71.3637 92.0753 71.2737C91.8853 71.1837 91.6486 71.1387 91.3653 71.1387C91.1053 71.1387 90.8486 71.1787 90.5953 71.2587C90.3419 71.3353 90.1003 71.457 89.8703 71.6237L89.5603 70.8137C89.8703 70.6037 90.1936 70.4553 90.5303 70.3687C90.8669 70.282 91.1903 70.2387 91.5003 70.2387C91.9603 70.2387 92.3536 70.312 92.6803 70.4587C93.0103 70.602 93.2636 70.8203 93.4403 71.1137C93.6169 71.4037 93.7053 71.7703 93.7053 72.2137V75.3887H92.7153V74.8037C92.5486 75.0403 92.3169 75.222 92.0203 75.3487C91.7236 75.4753 91.3919 75.5387 91.0253 75.5387ZM95.1678 75.3887V70.4387H96.1228H96.1528L98.3728 73.6487L97.8978 73.6587L100.008 70.4387H100.983V75.3887H99.9828L99.9978 71.7287L100.203 71.8187L98.4328 74.4037H97.7228L95.8728 71.8137L96.0778 71.7237L96.0928 75.3887H95.1678ZM106.233 76.5387C105.819 75.842 105.509 75.1003 105.303 74.3137C105.096 73.527 104.993 72.732 104.993 71.9287C104.993 71.392 105.038 70.8603 105.128 70.3337C105.221 69.8037 105.359 69.287 105.543 68.7837C105.726 68.2803 105.956 67.7987 106.233 67.3387L107.073 67.6787C106.889 67.9687 106.728 68.282 106.588 68.6187C106.451 68.952 106.336 69.2987 106.243 69.6587C106.149 70.0187 106.079 70.3887 106.033 70.7687C105.989 71.1453 105.968 71.5253 105.968 71.9087C105.968 72.6753 106.059 73.432 106.243 74.1787C106.429 74.922 106.706 75.5953 107.073 76.1987L106.233 76.5387ZM108.42 75.3887V70.4387H110.78C111.34 70.4387 111.788 70.5453 112.125 70.7587C112.461 70.972 112.63 71.292 112.63 71.7187C112.63 71.9187 112.581 72.097 112.485 72.2537C112.388 72.407 112.255 72.5353 112.085 72.6387C111.915 72.742 111.716 72.817 111.49 72.8637L111.47 72.6187C111.906 72.6787 112.245 72.8237 112.485 73.0537C112.725 73.2837 112.845 73.5753 112.845 73.9287C112.845 74.2287 112.766 74.4887 112.61 74.7087C112.453 74.9253 112.228 75.0937 111.935 75.2137C111.641 75.3303 111.29 75.3887 110.88 75.3887H108.42ZM109.485 74.5737H110.73C111.06 74.5737 111.313 74.5187 111.49 74.4087C111.67 74.2987 111.76 74.1337 111.76 73.9137C111.76 73.697 111.671 73.5353 111.495 73.4287C111.318 73.3187 111.063 73.2637 110.73 73.2637H109.34V72.4787H110.615C110.925 72.4787 111.165 72.432 111.335 72.3387C111.505 72.242 111.59 72.0853 111.59 71.8687C111.59 71.652 111.505 71.4953 111.335 71.3987C111.165 71.2987 110.925 71.2487 110.615 71.2487H109.485V74.5737ZM115.459 75.5387C115.116 75.5387 114.814 75.4753 114.554 75.3487C114.294 75.2187 114.091 75.037 113.944 74.8037C113.801 74.567 113.729 74.2887 113.729 73.9687C113.729 73.6987 113.797 73.4553 113.934 73.2387C114.071 73.0187 114.282 72.837 114.569 72.6937C114.859 72.5503 115.231 72.4553 115.684 72.4087C116.137 72.3587 116.682 72.3653 117.319 72.4287L117.339 73.1887C116.886 73.1253 116.496 73.0987 116.169 73.1087C115.842 73.1187 115.574 73.1603 115.364 73.2337C115.157 73.3037 115.004 73.3987 114.904 73.5187C114.807 73.6353 114.759 73.7703 114.759 73.9237C114.759 74.1637 114.844 74.3487 115.014 74.4787C115.187 74.6087 115.424 74.6737 115.724 74.6737C115.981 74.6737 116.211 74.627 116.414 74.5337C116.617 74.4403 116.777 74.3087 116.894 74.1387C117.014 73.9687 117.074 73.7687 117.074 73.5387V72.2237C117.074 72.0037 117.027 71.8137 116.934 71.6537C116.841 71.4903 116.699 71.3637 116.509 71.2737C116.319 71.1837 116.082 71.1387 115.799 71.1387C115.539 71.1387 115.282 71.1787 115.029 71.2587C114.776 71.3353 114.534 71.457 114.304 71.6237L113.994 70.8137C114.304 70.6037 114.627 70.4553 114.964 70.3687C115.301 70.282 115.624 70.2387 115.934 70.2387C116.394 70.2387 116.787 70.312 117.114 70.4587C117.444 70.602 117.697 70.8203 117.874 71.1137C118.051 71.4037 118.139 71.7703 118.139 72.2137V75.3887H117.149V74.8037C116.982 75.0403 116.751 75.222 116.454 75.3487C116.157 75.4753 115.826 75.5387 115.459 75.5387ZM119.601 75.3887V70.4387H120.556H120.586L122.806 73.6487L122.331 73.6587L124.441 70.4387H125.416V75.3887H124.416L124.431 71.7287L124.636 71.8187L122.866 74.4037H122.156L120.306 71.8137L120.511 71.7237L120.526 75.3887H119.601ZM127.6 76.5387L126.76 76.1987C126.944 75.9053 127.104 75.592 127.24 75.2587C127.38 74.9253 127.497 74.5787 127.59 74.2187C127.684 73.8587 127.752 73.4887 127.795 73.1087C127.842 72.7287 127.865 72.3487 127.865 71.9687C127.865 71.1987 127.772 70.442 127.585 69.6987C127.402 68.9553 127.127 68.282 126.76 67.6787L127.6 67.3387C128.017 68.032 128.327 68.772 128.53 69.5587C128.737 70.3453 128.84 71.142 128.84 71.9487C128.84 72.4853 128.794 73.0187 128.7 73.5487C128.61 74.0753 128.474 74.5903 128.29 75.0937C128.107 75.597 127.877 76.0787 127.6 76.5387Z" fill="#1C195B"/>
<path fill-rule="evenodd" clip-rule="evenodd" d="M104.608 116.035L116.951 106L106.507 120.106V144.76C106.507 147.102 104.608 149 102.267 149H4.23997C1.8983 149 0 147.102 0 144.76V119.57C0 117.229 1.8983 115.33 4.23997 115.33H102.267C103.132 115.33 103.937 115.59 104.608 116.035Z" fill="#140D83"/>
<path d="M7.91 128V121H12.31V121.99H9.03V123.89H10.305C11.0617 123.89 11.6683 124.065 12.125 124.415C12.5817 124.762 12.81 125.272 12.81 125.945C12.81 126.385 12.71 126.758 12.51 127.065C12.3133 127.368 12.0267 127.6 11.65 127.76C11.2767 127.92 10.8267 128 10.3 128H7.91ZM9.03 127.12H10.24C10.6933 127.12 11.0417 127.02 11.285 126.82C11.5317 126.62 11.655 126.333 11.655 125.96C11.655 125.597 11.5333 125.308 11.29 125.095C11.0467 124.882 10.7117 124.775 10.285 124.775H9.03V127.12ZM16.3629 128.15C15.8296 128.15 15.3612 128.042 14.9579 127.825C14.5546 127.605 14.2396 127.298 14.0129 126.905C13.7896 126.512 13.6779 126.055 13.6779 125.535C13.6779 125.155 13.7429 124.805 13.8729 124.485C14.0029 124.162 14.1862 123.882 14.4229 123.645C14.6596 123.408 14.9362 123.225 15.2529 123.095C15.5729 122.965 15.9212 122.9 16.2979 122.9C16.7079 122.9 17.0729 122.973 17.3929 123.12C17.7129 123.263 17.9779 123.465 18.1879 123.725C18.4012 123.985 18.5512 124.29 18.6379 124.64C18.7279 124.987 18.7429 125.363 18.6829 125.77H14.7329C14.7262 126.067 14.7912 126.327 14.9279 126.55C15.0646 126.77 15.2596 126.942 15.5129 127.065C15.7696 127.188 16.0712 127.25 16.4179 127.25C16.6979 127.25 16.9679 127.208 17.2279 127.125C17.4912 127.038 17.7296 126.912 17.9429 126.745L18.3679 127.535C18.2079 127.665 18.0146 127.777 17.7879 127.87C17.5612 127.96 17.3246 128.028 17.0779 128.075C16.8312 128.125 16.5929 128.15 16.3629 128.15ZM14.7979 124.96H17.6029C17.5929 124.587 17.4729 124.293 17.2429 124.08C17.0162 123.867 16.6929 123.76 16.2729 123.76C15.8662 123.76 15.5279 123.867 15.2579 124.08C14.9912 124.293 14.8379 124.587 14.7979 124.96ZM21.4955 128.12C21.2189 128.12 20.9522 128.098 20.6955 128.055C20.4389 128.015 20.1972 127.952 19.9705 127.865C19.7439 127.775 19.5389 127.657 19.3555 127.51L19.8355 126.765C20.0455 126.942 20.2939 127.07 20.5805 127.15C20.8672 127.227 21.1589 127.265 21.4555 127.265C21.8589 127.265 22.1772 127.207 22.4105 127.09C22.6439 126.97 22.7605 126.773 22.7605 126.5C22.7605 126.26 22.6372 126.088 22.3905 125.985C22.1472 125.882 21.7922 125.83 21.3255 125.83H20.4155V125H21.2955C21.7089 125 22.0272 124.953 22.2505 124.86C22.4739 124.763 22.5855 124.6 22.5855 124.37C22.5855 124.233 22.5372 124.12 22.4405 124.03C22.3472 123.94 22.2139 123.872 22.0405 123.825C21.8705 123.778 21.6705 123.755 21.4405 123.755C21.1572 123.755 20.8839 123.797 20.6205 123.88C20.3572 123.963 20.1272 124.092 19.9305 124.265L19.5205 123.53C19.7739 123.32 20.0805 123.16 20.4405 123.05C20.8005 122.937 21.1639 122.88 21.5305 122.88C21.9572 122.88 22.3239 122.933 22.6305 123.04C22.9372 123.147 23.1739 123.3 23.3405 123.5C23.5072 123.7 23.5905 123.942 23.5905 124.225C23.5905 124.478 23.5089 124.698 23.3455 124.885C23.1855 125.072 22.9522 125.207 22.6455 125.29C23.0189 125.373 23.3022 125.52 23.4955 125.73C23.6922 125.94 23.7905 126.203 23.7905 126.52C23.7905 126.853 23.6955 127.14 23.5055 127.38C23.3189 127.617 23.0522 127.8 22.7055 127.93C22.3622 128.057 21.9589 128.12 21.4955 128.12ZM27.2466 128.15C26.7299 128.15 26.2682 128.032 25.8616 127.795C25.4582 127.555 25.1416 127.237 24.9116 126.84C24.6816 126.44 24.5666 126.002 24.5666 125.525C24.5666 125.172 24.6316 124.838 24.7616 124.525C24.8949 124.208 25.0816 123.928 25.3216 123.685C25.5649 123.442 25.8499 123.25 26.1766 123.11C26.5032 122.97 26.8616 122.9 27.2516 122.9C27.7682 122.9 28.2282 123.02 28.6316 123.26C29.0382 123.497 29.3566 123.815 29.5866 124.215C29.8166 124.612 29.9316 125.048 29.9316 125.525C29.9316 125.875 29.8649 126.208 29.7316 126.525C29.6016 126.842 29.4166 127.122 29.1766 127.365C28.9366 127.608 28.6532 127.8 28.3266 127.94C27.9999 128.08 27.6399 128.15 27.2466 128.15ZM27.2466 127.175C27.5532 127.175 27.8249 127.108 28.0616 126.975C28.3016 126.838 28.4899 126.647 28.6266 126.4C28.7632 126.153 28.8316 125.862 28.8316 125.525C28.8316 125.188 28.7632 124.897 28.6266 124.65C28.4899 124.4 28.3016 124.208 28.0616 124.075C27.8249 123.942 27.5532 123.875 27.2466 123.875C26.9399 123.875 26.6666 123.942 26.4266 124.075C26.1899 124.208 26.0032 124.4 25.8666 124.65C25.7332 124.897 25.6666 125.188 25.6666 125.525C25.6666 125.862 25.7349 126.153 25.8716 126.4C26.0082 126.647 26.1949 126.838 26.4316 126.975C26.6716 127.108 26.9432 127.175 27.2466 127.175ZM31.0365 128V123.05H35.7115V128H34.6115V123.96H32.1365V128H31.0365ZM38.6127 128.15C38.2693 128.15 37.9677 128.087 37.7077 127.96C37.4477 127.83 37.2443 127.648 37.0977 127.415C36.9543 127.178 36.8827 126.9 36.8827 126.58C36.8827 126.31 36.951 126.067 37.0877 125.85C37.2243 125.63 37.436 125.448 37.7227 125.305C38.0127 125.162 38.3843 125.067 38.8377 125.02C39.291 124.97 39.836 124.977 40.4727 125.04L40.4927 125.8C40.0393 125.737 39.6493 125.71 39.3227 125.72C38.996 125.73 38.7277 125.772 38.5177 125.845C38.311 125.915 38.1577 126.01 38.0577 126.13C37.961 126.247 37.9127 126.382 37.9127 126.535C37.9127 126.775 37.9977 126.96 38.1677 127.09C38.341 127.22 38.5777 127.285 38.8777 127.285C39.1343 127.285 39.3643 127.238 39.5677 127.145C39.771 127.052 39.931 126.92 40.0477 126.75C40.1677 126.58 40.2277 126.38 40.2277 126.15V124.835C40.2277 124.615 40.181 124.425 40.0877 124.265C39.9943 124.102 39.8527 123.975 39.6627 123.885C39.4727 123.795 39.236 123.75 38.9527 123.75C38.6927 123.75 38.436 123.79 38.1827 123.87C37.9293 123.947 37.6877 124.068 37.4577 124.235L37.1477 123.425C37.4577 123.215 37.781 123.067 38.1177 122.98C38.4543 122.893 38.7777 122.85 39.0877 122.85C39.5477 122.85 39.941 122.923 40.2677 123.07C40.5977 123.213 40.851 123.432 41.0277 123.725C41.2043 124.015 41.2927 124.382 41.2927 124.825V128H40.3027V127.415C40.136 127.652 39.9043 127.833 39.6077 127.96C39.311 128.087 38.9793 128.15 38.6127 128.15ZM45.0252 128.15C44.5052 128.15 44.0419 128.037 43.6352 127.81C43.2286 127.58 42.9086 127.268 42.6752 126.875C42.4452 126.478 42.3302 126.028 42.3302 125.525C42.3302 125.145 42.3986 124.797 42.5352 124.48C42.6719 124.16 42.8652 123.882 43.1152 123.645C43.3652 123.408 43.6586 123.225 43.9952 123.095C44.3352 122.965 44.7036 122.9 45.1002 122.9C45.4336 122.9 45.7419 122.945 46.0252 123.035C46.3119 123.122 46.5752 123.257 46.8152 123.44L46.2852 124.28C46.1319 124.143 45.9552 124.042 45.7552 123.975C45.5586 123.908 45.3486 123.875 45.1252 123.875C44.7786 123.875 44.4802 123.94 44.2302 124.07C43.9802 124.2 43.7852 124.388 43.6452 124.635C43.5086 124.878 43.4402 125.173 43.4402 125.52C43.4402 126.037 43.5902 126.442 43.8902 126.735C44.1936 127.028 44.6052 127.175 45.1252 127.175C45.3719 127.175 45.6052 127.13 45.8252 127.04C46.0452 126.947 46.2286 126.825 46.3752 126.675L46.9002 127.51C46.6369 127.71 46.3436 127.867 46.0202 127.98C45.6969 128.093 45.3652 128.15 45.0252 128.15ZM47.9115 128V123.05H49.0115V124.96H51.4915V123.05H52.5915V128H51.4915V125.87H49.0115V128H47.9115ZM56.3774 128.15C55.8608 128.15 55.3991 128.032 54.9924 127.795C54.5891 127.555 54.2724 127.237 54.0424 126.84C53.8124 126.44 53.6974 126.002 53.6974 125.525C53.6974 125.172 53.7624 124.838 53.8924 124.525C54.0258 124.208 54.2124 123.928 54.4524 123.685C54.6958 123.442 54.9808 123.25 55.3074 123.11C55.6341 122.97 55.9924 122.9 56.3824 122.9C56.8991 122.9 57.3591 123.02 57.7624 123.26C58.1691 123.497 58.4874 123.815 58.7174 124.215C58.9474 124.612 59.0624 125.048 59.0624 125.525C59.0624 125.875 58.9958 126.208 58.8624 126.525C58.7324 126.842 58.5474 127.122 58.3074 127.365C58.0674 127.608 57.7841 127.8 57.4574 127.94C57.1308 128.08 56.7708 128.15 56.3774 128.15ZM56.3774 127.175C56.6841 127.175 56.9558 127.108 57.1924 126.975C57.4324 126.838 57.6208 126.647 57.7574 126.4C57.8941 126.153 57.9624 125.862 57.9624 125.525C57.9624 125.188 57.8941 124.897 57.7574 124.65C57.6208 124.4 57.4324 124.208 57.1924 124.075C56.9558 123.942 56.6841 123.875 56.3774 123.875C56.0708 123.875 55.7974 123.942 55.5574 124.075C55.3208 124.208 55.1341 124.4 54.9974 124.65C54.8641 124.897 54.7974 125.188 54.7974 125.525C54.7974 125.862 54.8658 126.153 55.0024 126.4C55.1391 126.647 55.3258 126.838 55.5624 126.975C55.8024 127.108 56.0741 127.175 56.3774 127.175ZM62.4862 128.15C61.9662 128.15 61.5028 128.037 61.0962 127.81C60.6895 127.58 60.3695 127.268 60.1362 126.875C59.9062 126.478 59.7912 126.028 59.7912 125.525C59.7912 125.145 59.8595 124.797 59.9962 124.48C60.1328 124.16 60.3262 123.882 60.5762 123.645C60.8262 123.408 61.1195 123.225 61.4562 123.095C61.7962 122.965 62.1645 122.9 62.5612 122.9C62.8945 122.9 63.2028 122.945 63.4862 123.035C63.7728 123.122 64.0362 123.257 64.2762 123.44L63.7462 124.28C63.5928 124.143 63.4162 124.042 63.2162 123.975C63.0195 123.908 62.8095 123.875 62.5862 123.875C62.2395 123.875 61.9412 123.94 61.6912 124.07C61.4412 124.2 61.2462 124.388 61.1062 124.635C60.9695 124.878 60.9012 125.173 60.9012 125.52C60.9012 126.037 61.0512 126.442 61.3512 126.735C61.6545 127.028 62.0662 127.175 62.5862 127.175C62.8328 127.175 63.0662 127.13 63.2862 127.04C63.5062 126.947 63.6895 126.825 63.8362 126.675L64.3612 127.51C64.0978 127.71 63.8045 127.867 63.4812 127.98C63.1578 128.093 62.8262 128.15 62.4862 128.15ZM66.4774 128V123.96H64.8524V123.05H69.2074V123.96H67.5774V128H66.4774ZM70.2162 128V123.05H71.3162V127.165H72.2612C72.6212 127.165 72.8928 127.095 73.0762 126.955C73.2595 126.815 73.3512 126.607 73.3512 126.33C73.3512 126.057 73.2662 125.847 73.0962 125.7C72.9262 125.553 72.6762 125.48 72.3462 125.48H71.1662V124.655H72.4312C73.0712 124.655 73.5745 124.798 73.9412 125.085C74.3078 125.372 74.4912 125.787 74.4912 126.33C74.4912 126.68 74.4028 126.98 74.2262 127.23C74.0495 127.477 73.8012 127.667 73.4812 127.8C73.1645 127.933 72.7928 128 72.3662 128H70.2162ZM75.8059 129.15L74.8859 128.79L78.5259 119.95L79.4409 120.31L75.8059 129.15ZM7.765 141V136.05H8.83V139.39L11.515 136.05H12.475V141H11.415V137.62L8.705 141H7.765ZM14.0052 141V136.05H15.1052V137.96H17.5852V136.05H18.6852V141H17.5852V138.87H15.1052V141H14.0052ZM22.7062 143.1V133.8H23.8062V143.1H22.7062ZM23.2462 141.13C22.5528 141.13 21.9462 141.032 21.4262 140.835C20.9095 140.635 20.5078 140.342 20.2212 139.955C19.9345 139.565 19.7912 139.088 19.7912 138.525C19.7912 137.958 19.9345 137.482 20.2212 137.095C20.5112 136.708 20.9178 136.417 21.4412 136.22C21.9645 136.02 22.5745 135.92 23.2712 135.92C23.9745 135.92 24.5845 136.018 25.1012 136.215C25.6212 136.412 26.0245 136.703 26.3112 137.09C26.5978 137.477 26.7412 137.955 26.7412 138.525C26.7412 138.948 26.6578 139.323 26.4912 139.65C26.3245 139.973 26.0862 140.245 25.7762 140.465C25.4662 140.685 25.0978 140.852 24.6712 140.965C24.2445 141.075 23.7695 141.13 23.2462 141.13ZM23.2662 140.22C23.7762 140.22 24.2062 140.157 24.5562 140.03C24.9095 139.903 25.1778 139.715 25.3612 139.465C25.5445 139.215 25.6362 138.902 25.6362 138.525C25.6362 138.148 25.5412 137.835 25.3512 137.585C25.1645 137.332 24.8928 137.143 24.5362 137.02C24.1828 136.893 23.7545 136.83 23.2512 136.83C22.7512 136.83 22.3245 136.893 21.9712 137.02C21.6178 137.143 21.3478 137.332 21.1612 137.585C20.9745 137.835 20.8812 138.148 20.8812 138.525C20.8812 138.902 20.9745 139.215 21.1612 139.465C21.3512 139.715 21.6228 139.903 21.9762 140.03C22.3328 140.157 22.7628 140.22 23.2662 140.22ZM27.8431 143.1V136.05H28.8331V136.745C29.0298 136.495 29.2815 136.292 29.5881 136.135C29.8948 135.978 30.2731 135.9 30.7231 135.9C31.2065 135.9 31.6348 136.015 32.0081 136.245C32.3848 136.472 32.6781 136.783 32.8881 137.18C33.0981 137.573 33.2031 138.022 33.2031 138.525C33.2031 138.888 33.1431 139.23 33.0231 139.55C32.9031 139.867 32.7315 140.145 32.5081 140.385C32.2881 140.625 32.0248 140.813 31.7181 140.95C31.4148 141.083 31.0781 141.15 30.7081 141.15C30.3215 141.15 29.9815 141.08 29.6881 140.94C29.3948 140.8 29.1448 140.612 28.9381 140.375V143.1H27.8431ZM30.5231 140.175C30.8298 140.175 31.1015 140.108 31.3381 139.975C31.5781 139.838 31.7648 139.647 31.8981 139.4C32.0348 139.153 32.1031 138.862 32.1031 138.525C32.1031 138.188 32.0348 137.897 31.8981 137.65C31.7615 137.4 31.5731 137.208 31.3331 137.075C31.0965 136.942 30.8265 136.875 30.5231 136.875C30.2165 136.875 29.9431 136.942 29.7031 137.075C29.4665 137.208 29.2798 137.4 29.1431 137.65C29.0065 137.897 28.9381 138.188 28.9381 138.525C28.9381 138.862 29.0065 139.153 29.1431 139.4C29.2798 139.647 29.4665 139.838 29.7031 139.975C29.9431 140.108 30.2165 140.175 30.5231 140.175ZM35.683 141.15C35.3396 141.15 35.038 141.087 34.778 140.96C34.518 140.83 34.3146 140.648 34.168 140.415C34.0246 140.178 33.953 139.9 33.953 139.58C33.953 139.31 34.0213 139.067 34.158 138.85C34.2946 138.63 34.5063 138.448 34.793 138.305C35.083 138.162 35.4546 138.067 35.908 138.02C36.3613 137.97 36.9063 137.977 37.543 138.04L37.563 138.8C37.1096 138.737 36.7196 138.71 36.393 138.72C36.0663 138.73 35.798 138.772 35.588 138.845C35.3813 138.915 35.228 139.01 35.128 139.13C35.0313 139.247 34.983 139.382 34.983 139.535C34.983 139.775 35.068 139.96 35.238 140.09C35.4113 140.22 35.648 140.285 35.948 140.285C36.2046 140.285 36.4346 140.238 36.638 140.145C36.8413 140.052 37.0013 139.92 37.118 139.75C37.238 139.58 37.298 139.38 37.298 139.15V137.835C37.298 137.615 37.2513 137.425 37.158 137.265C37.0646 137.102 36.923 136.975 36.733 136.885C36.543 136.795 36.3063 136.75 36.023 136.75C35.763 136.75 35.5063 136.79 35.253 136.87C34.9996 136.947 34.758 137.068 34.528 137.235L34.218 136.425C34.528 136.215 34.8513 136.067 35.188 135.98C35.5246 135.893 35.848 135.85 36.158 135.85C36.618 135.85 37.0113 135.923 37.338 136.07C37.668 136.213 37.9213 136.432 38.098 136.725C38.2746 137.015 38.363 137.382 38.363 137.825V141H37.373V140.415C37.2063 140.652 36.9746 140.833 36.678 140.96C36.3813 141.087 36.0496 141.15 35.683 141.15ZM42.0955 141.15C41.5755 141.15 41.1122 141.037 40.7055 140.81C40.2989 140.58 39.9789 140.268 39.7455 139.875C39.5155 139.478 39.4005 139.028 39.4005 138.525C39.4005 138.145 39.4689 137.797 39.6055 137.48C39.7422 137.16 39.9355 136.882 40.1855 136.645C40.4355 136.408 40.7289 136.225 41.0655 136.095C41.4055 135.965 41.7739 135.9 42.1705 135.9C42.5039 135.9 42.8122 135.945 43.0955 136.035C43.3822 136.122 43.6455 136.257 43.8855 136.44L43.3555 137.28C43.2022 137.143 43.0255 137.042 42.8255 136.975C42.6289 136.908 42.4189 136.875 42.1955 136.875C41.8489 136.875 41.5505 136.94 41.3005 137.07C41.0505 137.2 40.8555 137.388 40.7155 137.635C40.5789 137.878 40.5105 138.173 40.5105 138.52C40.5105 139.037 40.6605 139.442 40.9605 139.735C41.2639 140.028 41.6755 140.175 42.1955 140.175C42.4422 140.175 42.6755 140.13 42.8955 140.04C43.1155 139.947 43.2989 139.825 43.4455 139.675L43.9705 140.51C43.7072 140.71 43.4139 140.867 43.0905 140.98C42.7672 141.093 42.4355 141.15 42.0955 141.15ZM46.0868 141V136.96H44.4618V136.05H48.8168V136.96H47.1868V141H46.0868ZM49.8255 143.1V136.05H50.8155V136.745C51.0122 136.495 51.2639 136.292 51.5705 136.135C51.8772 135.978 52.2555 135.9 52.7055 135.9C53.1889 135.9 53.6172 136.015 53.9905 136.245C54.3672 136.472 54.6605 136.783 54.8705 137.18C55.0805 137.573 55.1855 138.022 55.1855 138.525C55.1855 138.888 55.1255 139.23 55.0055 139.55C54.8855 139.867 54.7139 140.145 54.4905 140.385C54.2705 140.625 54.0072 140.813 53.7005 140.95C53.3972 141.083 53.0605 141.15 52.6905 141.15C52.3039 141.15 51.9639 141.08 51.6705 140.94C51.3772 140.8 51.1272 140.612 50.9205 140.375V143.1H49.8255ZM52.5055 140.175C52.8122 140.175 53.0839 140.108 53.3205 139.975C53.5605 139.838 53.7472 139.647 53.8805 139.4C54.0172 139.153 54.0855 138.862 54.0855 138.525C54.0855 138.188 54.0172 137.897 53.8805 137.65C53.7439 137.4 53.5555 137.208 53.3155 137.075C53.0789 136.942 52.8089 136.875 52.5055 136.875C52.1989 136.875 51.9255 136.942 51.6855 137.075C51.4489 137.208 51.2622 137.4 51.1255 137.65C50.9889 137.897 50.9205 138.188 50.9205 138.525C50.9205 138.862 50.9889 139.153 51.1255 139.4C51.2622 139.647 51.4489 139.838 51.6855 139.975C51.9255 140.108 52.1989 140.175 52.5055 140.175ZM56.6666 143.24C56.4866 143.24 56.3099 143.22 56.1366 143.18C55.9632 143.14 55.7932 143.072 55.6266 142.975L55.8766 142.035C55.9799 142.102 56.0932 142.152 56.2166 142.185C56.3399 142.218 56.4499 142.235 56.5466 142.235C56.7799 142.235 56.9632 142.18 57.0966 142.07C57.2299 141.96 57.3349 141.79 57.4116 141.56L57.5766 141.08L55.6266 136.05H56.8316L58.2016 139.89L59.5366 136.05H60.7016L58.5616 141.715C58.4082 142.112 58.2366 142.42 58.0466 142.64C57.8566 142.863 57.6466 143.018 57.4166 143.105C57.1866 143.195 56.9366 143.24 56.6666 143.24ZM64.8538 141L63.2138 138.37L64.7388 136.05H65.9138L64.3988 138.32L66.1688 141H64.8538ZM61.5638 141V136.05H62.6638V137.96H64.1538V138.87H62.6638V141H61.5638ZM68.245 141V136.96H66.62V136.05H70.975V136.96H69.345V141H68.245ZM72.5552 143.24C72.3752 143.24 72.1986 143.22 72.0252 143.18C71.8519 143.14 71.6819 143.072 71.5152 142.975L71.7652 142.035C71.8686 142.102 71.9819 142.152 72.1052 142.185C72.2286 142.218 72.3386 142.235 72.4352 142.235C72.6686 142.235 72.8519 142.18 72.9852 142.07C73.1186 141.96 73.2236 141.79 73.3002 141.56L73.4652 141.08L71.5152 136.05H72.7202L74.0902 139.89L75.4252 136.05H76.5902L74.4502 141.715C74.2969 142.112 74.1252 142.42 73.9352 142.64C73.7452 142.863 73.5352 143.018 73.3052 143.105C73.0752 143.195 72.8252 143.24 72.5552 143.24ZM77.4525 143.1V136.05H78.4425V136.745C78.6392 136.495 78.8908 136.292 79.1975 136.135C79.5042 135.978 79.8825 135.9 80.3325 135.9C80.8158 135.9 81.2442 136.015 81.6175 136.245C81.9942 136.472 82.2875 136.783 82.4975 137.18C82.7075 137.573 82.8125 138.022 82.8125 138.525C82.8125 138.888 82.7525 139.23 82.6325 139.55C82.5125 139.867 82.3408 140.145 82.1175 140.385C81.8975 140.625 81.6342 140.813 81.3275 140.95C81.0242 141.083 80.6875 141.15 80.3175 141.15C79.9308 141.15 79.5908 141.08 79.2975 140.94C79.0042 140.8 78.7542 140.612 78.5475 140.375V143.1H77.4525ZM80.1325 140.175C80.4392 140.175 80.7108 140.108 80.9475 139.975C81.1875 139.838 81.3742 139.647 81.5075 139.4C81.6442 139.153 81.7125 138.862 81.7125 138.525C81.7125 138.188 81.6442 137.897 81.5075 137.65C81.3708 137.4 81.1825 137.208 80.9425 137.075C80.7058 136.942 80.4358 136.875 80.1325 136.875C79.8258 136.875 79.5525 136.942 79.3125 137.075C79.0758 137.208 78.8892 137.4 78.7525 137.65C78.6158 137.897 78.5475 138.188 78.5475 138.525C78.5475 138.862 78.6158 139.153 78.7525 139.4C78.8892 139.647 79.0758 139.838 79.3125 139.975C79.5525 140.108 79.8258 140.175 80.1325 140.175ZM85.2923 141.15C84.949 141.15 84.6473 141.087 84.3873 140.96C84.1273 140.83 83.924 140.648 83.7773 140.415C83.634 140.178 83.5623 139.9 83.5623 139.58C83.5623 139.31 83.6307 139.067 83.7673 138.85C83.904 138.63 84.1157 138.448 84.4023 138.305C84.6923 138.162 85.064 138.067 85.5173 138.02C85.9707 137.97 86.5157 137.977 87.1523 138.04L87.1723 138.8C86.719 138.737 86.329 138.71 86.0023 138.72C85.6757 138.73 85.4073 138.772 85.1973 138.845C84.9907 138.915 84.8373 139.01 84.7373 139.13C84.6407 139.247 84.5923 139.382 84.5923 139.535C84.5923 139.775 84.6773 139.96 84.8473 140.09C85.0207 140.22 85.2573 140.285 85.5573 140.285C85.814 140.285 86.044 140.238 86.2473 140.145C86.4507 140.052 86.6107 139.92 86.7273 139.75C86.8473 139.58 86.9073 139.38 86.9073 139.15V137.835C86.9073 137.615 86.8607 137.425 86.7673 137.265C86.674 137.102 86.5323 136.975 86.3423 136.885C86.1523 136.795 85.9157 136.75 85.6323 136.75C85.3723 136.75 85.1157 136.79 84.8623 136.87C84.609 136.947 84.3673 137.068 84.1373 137.235L83.8273 136.425C84.1373 136.215 84.4607 136.067 84.7973 135.98C85.134 135.893 85.4573 135.85 85.7673 135.85C86.2273 135.85 86.6207 135.923 86.9473 136.07C87.2773 136.213 87.5307 136.432 87.7073 136.725C87.884 137.015 87.9723 137.382 87.9723 137.825V141H86.9823V140.415C86.8157 140.652 86.584 140.833 86.2873 140.96C85.9907 141.087 85.659 141.15 85.2923 141.15Z" fill="white"/>
<path fill-rule="evenodd" clip-rule="evenodd" d="M146.347 187.494L153.519 173.999L149.032 188.024C150.335 188.748 151.217 190.138 151.217 191.734V213.76C151.217 216.101 149.319 218 146.977 218H74.24C71.8983 218 70 216.101 70 213.76V191.734C70 189.392 71.8983 187.494 74.24 187.494H146.347Z" fill="url(#paint7_linear_888_8510)"/>
<path d="M78.845 201.15C78.3183 201.15 77.8383 201.082 77.405 200.945C76.9717 200.808 76.5933 200.613 76.27 200.36L76.8 199.46C77.04 199.677 77.33 199.847 77.67 199.97C78.01 200.09 78.37 200.15 78.75 200.15C79.09 200.15 79.3833 200.102 79.63 200.005C79.88 199.908 80.0717 199.773 80.205 199.6C80.3417 199.423 80.4117 199.217 80.415 198.98C80.415 198.61 80.2917 198.33 80.045 198.14C79.8017 197.947 79.4217 197.85 78.905 197.85H77.54V196.95H78.82C79.1033 196.95 79.3483 196.908 79.555 196.825C79.7617 196.738 79.9217 196.617 80.035 196.46C80.1483 196.3 80.205 196.108 80.205 195.885C80.205 195.668 80.1483 195.487 80.035 195.34C79.925 195.19 79.7617 195.077 79.545 195C79.3317 194.92 79.0717 194.88 78.765 194.88C78.435 194.88 78.1183 194.935 77.815 195.045C77.5117 195.152 77.25 195.302 77.03 195.495L76.5 194.67C76.7933 194.407 77.1467 194.205 77.56 194.065C77.9767 193.922 78.4233 193.85 78.9 193.85C79.3967 193.85 79.8267 193.925 80.19 194.075C80.5533 194.222 80.8317 194.435 81.025 194.715C81.2217 194.992 81.32 195.322 81.32 195.705C81.32 195.925 81.2683 196.14 81.165 196.35C81.0617 196.557 80.9267 196.74 80.76 196.9C80.5967 197.057 80.4233 197.173 80.24 197.25C80.63 197.373 80.95 197.587 81.2 197.89C81.45 198.19 81.5733 198.57 81.57 199.03C81.5667 199.423 81.4517 199.78 81.225 200.1C80.9983 200.42 80.68 200.675 80.27 200.865C79.8633 201.055 79.3883 201.15 78.845 201.15ZM84.2435 201.15C83.9002 201.15 83.5985 201.087 83.3385 200.96C83.0785 200.83 82.8752 200.648 82.7285 200.415C82.5852 200.178 82.5135 199.9 82.5135 199.58C82.5135 199.31 82.5818 199.067 82.7185 198.85C82.8552 198.63 83.0668 198.448 83.3535 198.305C83.6435 198.162 84.0152 198.067 84.4685 198.02C84.9218 197.97 85.4668 197.977 86.1035 198.04L86.1235 198.8C85.6702 198.737 85.2802 198.71 84.9535 198.72C84.6268 198.73 84.3585 198.772 84.1485 198.845C83.9418 198.915 83.7885 199.01 83.6885 199.13C83.5918 199.247 83.5435 199.382 83.5435 199.535C83.5435 199.775 83.6285 199.96 83.7985 200.09C83.9718 200.22 84.2085 200.285 84.5085 200.285C84.7652 200.285 84.9952 200.238 85.1985 200.145C85.4018 200.052 85.5618 199.92 85.6785 199.75C85.7985 199.58 85.8585 199.38 85.8585 199.15V197.835C85.8585 197.615 85.8118 197.425 85.7185 197.265C85.6252 197.102 85.4835 196.975 85.2935 196.885C85.1035 196.795 84.8668 196.75 84.5835 196.75C84.3235 196.75 84.0668 196.79 83.8135 196.87C83.5602 196.947 83.3185 197.068 83.0885 197.235L82.7785 196.425C83.0885 196.215 83.4118 196.067 83.7485 195.98C84.0852 195.893 84.4085 195.85 84.7185 195.85C85.1785 195.85 85.5718 195.923 85.8985 196.07C86.2285 196.213 86.4818 196.432 86.6585 196.725C86.8352 197.015 86.9235 197.382 86.9235 197.825V201H85.9335V200.415C85.7668 200.652 85.5352 200.833 85.2385 200.96C84.9418 201.087 84.6102 201.15 84.2435 201.15ZM96.0211 202.5V201H95.2111V200.09H97.0311V202.5H96.0211ZM88.3861 201V196.05H89.4511V200.09H91.5411V196.05H92.6061V200.09H94.6961V196.05H95.7611V201H88.3861ZM98.0052 201V196.05H99.0702V199.39L101.755 196.05H102.715V201H101.655V197.62L98.9452 201H98.0052ZM105.35 201V196.96H103.725V196.05H108.08V196.96H106.45V201H105.35ZM109.089 201V196.05H110.189V197.96H112.669V196.05H113.769V201H112.669V198.87H110.189V201H109.089ZM115.3 201V196.05H116.365V199.39L119.05 196.05H120.01V201H118.95V197.62L116.24 201H115.3ZM124.83 201L123.19 198.37L124.715 196.05H125.89L124.375 198.32L126.145 201H124.83ZM121.54 201V196.05H122.64V197.96H124.13V198.87H122.64V201H121.54ZM128.492 201.15C128.148 201.15 127.847 201.087 127.587 200.96C127.327 200.83 127.123 200.648 126.977 200.415C126.833 200.178 126.762 199.9 126.762 199.58C126.762 199.31 126.83 199.067 126.967 198.85C127.103 198.63 127.315 198.448 127.602 198.305C127.892 198.162 128.263 198.067 128.717 198.02C129.17 197.97 129.715 197.977 130.352 198.04L130.372 198.8C129.918 198.737 129.528 198.71 129.202 198.72C128.875 198.73 128.607 198.772 128.397 198.845C128.19 198.915 128.037 199.01 127.937 199.13C127.84 199.247 127.792 199.382 127.792 199.535C127.792 199.775 127.877 199.96 128.047 200.09C128.22 200.22 128.457 200.285 128.757 200.285C129.013 200.285 129.243 200.238 129.447 200.145C129.65 200.052 129.81 199.92 129.927 199.75C130.047 199.58 130.107 199.38 130.107 199.15V197.835C130.107 197.615 130.06 197.425 129.967 197.265C129.873 197.102 129.732 196.975 129.542 196.885C129.352 196.795 129.115 196.75 128.832 196.75C128.572 196.75 128.315 196.79 128.062 196.87C127.808 196.947 127.567 197.068 127.337 197.235L127.027 196.425C127.337 196.215 127.66 196.067 127.997 195.98C128.333 195.893 128.657 195.85 128.967 195.85C129.427 195.85 129.82 195.923 130.147 196.07C130.477 196.213 130.73 196.432 130.907 196.725C131.083 197.015 131.172 197.382 131.172 197.825V201H130.182V200.415C130.015 200.652 129.783 200.833 129.487 200.96C129.19 201.087 128.858 201.15 128.492 201.15ZM132.634 201V196.05H133.589H133.619L135.839 199.26L135.364 199.27L137.474 196.05H138.449V201H137.449L137.464 197.34L137.669 197.43L135.899 200.015H135.189L133.339 197.425L133.544 197.335L133.559 201H132.634ZM77.065 213.12L76.625 212.09C77.0117 211.997 77.36 211.858 77.67 211.675C77.9833 211.492 78.2683 211.248 78.525 210.945C78.7817 210.642 79.0183 210.267 79.235 209.82L81.1 206H82.395L80.28 210.17C80.0467 210.63 79.8117 211.03 79.575 211.37C79.3383 211.707 79.0917 211.992 78.835 212.225C78.5783 212.458 78.3033 212.647 78.01 212.79C77.72 212.933 77.405 213.043 77.065 213.12ZM79.08 210.8L76.415 206H77.78L79.83 209.81L79.08 210.8ZM86.0511 213L84.4111 210.37L85.9361 208.05H87.1111L85.5961 210.32L87.3661 213H86.0511ZM82.7611 213V208.05H83.8611V209.96H85.3511V210.87H83.8611V213H82.7611ZM88.3373 215.1V208.05H89.3273V208.745C89.5239 208.495 89.7756 208.292 90.0823 208.135C90.3889 207.978 90.7673 207.9 91.2173 207.9C91.7006 207.9 92.1289 208.015 92.5023 208.245C92.8789 208.472 93.1723 208.783 93.3823 209.18C93.5923 209.573 93.6973 210.022 93.6973 210.525C93.6973 210.888 93.6373 211.23 93.5173 211.55C93.3973 211.867 93.2256 212.145 93.0023 212.385C92.7823 212.625 92.5189 212.813 92.2123 212.95C91.9089 213.083 91.5723 213.15 91.2023 213.15C90.8156 213.15 90.4756 213.08 90.1823 212.94C89.8889 212.8 89.6389 212.612 89.4323 212.375V215.1H88.3373ZM91.0173 212.175C91.3239 212.175 91.5956 212.108 91.8323 211.975C92.0723 211.838 92.2589 211.647 92.3923 211.4C92.5289 211.153 92.5973 210.862 92.5973 210.525C92.5973 210.188 92.5289 209.897 92.3923 209.65C92.2556 209.4 92.0673 209.208 91.8273 209.075C91.5906 208.942 91.3206 208.875 91.0173 208.875C90.7106 208.875 90.4373 208.942 90.1973 209.075C89.9606 209.208 89.7739 209.4 89.6373 209.65C89.5006 209.897 89.4323 210.188 89.4323 210.525C89.4323 210.862 89.5006 211.153 89.6373 211.4C89.7739 211.647 89.9606 211.838 90.1973 211.975C90.4373 212.108 90.7106 212.175 91.0173 212.175ZM96.1771 213.15C95.8338 213.15 95.5321 213.087 95.2721 212.96C95.0121 212.83 94.8088 212.648 94.6621 212.415C94.5188 212.178 94.4471 211.9 94.4471 211.58C94.4471 211.31 94.5154 211.067 94.6521 210.85C94.7888 210.63 95.0004 210.448 95.2871 210.305C95.5771 210.162 95.9488 210.067 96.4021 210.02C96.8554 209.97 97.4004 209.977 98.0371 210.04L98.0571 210.8C97.6038 210.737 97.2138 210.71 96.8871 210.72C96.5604 210.73 96.2921 210.772 96.0821 210.845C95.8754 210.915 95.7221 211.01 95.6221 211.13C95.5254 211.247 95.4771 211.382 95.4771 211.535C95.4771 211.775 95.5621 211.96 95.7321 212.09C95.9054 212.22 96.1421 212.285 96.4421 212.285C96.6988 212.285 96.9288 212.238 97.1321 212.145C97.3354 212.052 97.4954 211.92 97.6121 211.75C97.7321 211.58 97.7921 211.38 97.7921 211.15V209.835C97.7921 209.615 97.7454 209.425 97.6521 209.265C97.5588 209.102 97.4171 208.975 97.2271 208.885C97.0371 208.795 96.8004 208.75 96.5171 208.75C96.2571 208.75 96.0004 208.79 95.7471 208.87C95.4938 208.947 95.2521 209.068 95.0221 209.235L94.7121 208.425C95.0221 208.215 95.3454 208.067 95.6821 207.98C96.0188 207.893 96.3421 207.85 96.6521 207.85C97.1121 207.85 97.5054 207.923 97.8321 208.07C98.1621 208.213 98.4154 208.432 98.5921 208.725C98.7688 209.015 98.8571 209.382 98.8571 209.825V213H97.8671V212.415C97.7004 212.652 97.4688 212.833 97.1721 212.96C96.8754 213.087 96.5438 213.15 96.1771 213.15ZM100.32 213V208.05H101.385V211.39L104.07 208.05H105.03V213H103.97V209.62L101.26 213H100.32ZM106.56 213V208.05H107.66V209.96H110.14V208.05H111.24V213H110.14V210.87H107.66V213H106.56ZM112.771 213V208.05H113.871V212.165H114.766C115.126 212.165 115.398 212.095 115.581 211.955C115.764 211.815 115.856 211.607 115.856 211.33C115.856 211.057 115.771 210.847 115.601 210.7C115.431 210.553 115.181 210.48 114.851 210.48H113.721V209.655H114.936C115.576 209.655 116.079 209.798 116.446 210.085C116.813 210.372 116.996 210.787 116.996 211.33C116.996 211.68 116.908 211.98 116.731 212.23C116.554 212.477 116.306 212.667 115.986 212.8C115.669 212.933 115.298 213 114.871 213H112.771ZM117.791 213V208.05H118.891V213H117.791Z" fill="white"/>
<defs>
<linearGradient id="paint0_linear_888_8510" x1="89.9845" y1="31.1238" x2="260.413" y2="40.8278" gradientUnits="userSpaceOnUse">
<stop stop-color="#544CF9"/>
<stop offset="0.52" stop-color="#8B86FF"/>
<stop offset="1" stop-color="#5D56FF"/>
</linearGradient>
<linearGradient id="paint1_linear_888_8510" x1="90.2192" y1="143.373" x2="157.545" y2="-13.4947" gradientUnits="userSpaceOnUse">
<stop stop-color="#544CF9"/>
<stop offset="0.52" stop-color="#8B86FF"/>
<stop offset="1" stop-color="#5D56FF"/>
</linearGradient>
<linearGradient id="paint2_linear_888_8510" x1="95.8253" y1="25.4075" x2="264.487" y2="51.7397" gradientUnits="userSpaceOnUse">
<stop stop-color="#544CF9"/>
<stop offset="0.52" stop-color="#8B86FF"/>
<stop offset="1" stop-color="#5D56FF"/>
</linearGradient>
<linearGradient id="paint3_linear_888_8510" x1="160.45" y1="98.058" x2="142.511" y2="167.808" gradientUnits="userSpaceOnUse">
<stop stop-color="#FFE70C"/>
<stop offset="1" stop-color="#227AFF"/>
</linearGradient>
<linearGradient id="paint4_linear_888_8510" x1="136.565" y1="-2.66621" x2="269.888" y2="103.94" gradientUnits="userSpaceOnUse">
<stop stop-color="#544CF9"/>
<stop offset="0.52" stop-color="#8B86FF"/>
<stop offset="1" stop-color="#5D56FF"/>
</linearGradient>
<linearGradient id="paint5_linear_888_8510" x1="186.388" y1="-6.70982" x2="248.304" y2="152.371" gradientUnits="userSpaceOnUse">
<stop stop-color="#544CF9"/>
<stop offset="0.52" stop-color="#8B86FF"/>
<stop offset="1" stop-color="#5D56FF"/>
</linearGradient>
<linearGradient id="paint6_linear_888_8510" x1="232.262" y1="15.4026" x2="204.382" y2="183.815" gradientUnits="userSpaceOnUse">
<stop stop-color="#544CF9"/>
<stop offset="0.52" stop-color="#8B86FF"/>
<stop offset="1" stop-color="#5D56FF"/>
</linearGradient>
<linearGradient id="paint7_linear_888_8510" x1="70" y1="195.999" x2="153.519" y2="195.999" gradientUnits="userSpaceOnUse">
<stop stop-color="#2943DE"/>
<stop offset="1" stop-color="#FFE70C"/>
</linearGradient>
<clipPath id="clip0_888_8510">
<rect width="172" height="174" fill="white" transform="translate(83)"/>
</clipPath>
</defs>
</svg>
