<svg width="638" height="554" viewBox="0 0 638 554" fill="none" xmlns="http://www.w3.org/2000/svg">
<mask id="path-1-inside-1_355_18484" fill="white">
<path d="M548.984 210.83C538.138 158.295 507.804 111.816 464.081 80.7389C420.358 49.6619 366.489 36.2927 313.309 43.3198C260.13 50.347 211.583 77.2494 177.433 118.617C143.282 159.984 126.062 212.747 129.234 266.295L341.115 253.743L548.984 210.83Z"/>
</mask>
<path d="M548.984 210.83C538.138 158.295 507.804 111.816 464.081 80.7389C420.358 49.6619 366.489 36.2927 313.309 43.3198C260.13 50.347 211.583 77.2494 177.433 118.617C143.282 159.984 126.062 212.747 129.234 266.295L341.115 253.743L548.984 210.83Z" fill="#4BE05A" stroke="url(#paint0_linear_355_18484)" stroke-width="1.04816" mask="url(#path-1-inside-1_355_18484)"/>
<mask id="path-2-inside-2_355_18484" fill="white">
<path d="M473.023 424.464C503.47 400.361 526.721 368.368 540.245 331.966C553.769 295.564 557.048 256.15 549.724 218.015L341.281 258.046L473.023 424.464Z"/>
</mask>
<path d="M473.023 424.464C503.47 400.361 526.721 368.368 540.245 331.966C553.769 295.564 557.048 256.15 549.724 218.015L341.281 258.046L473.023 424.464Z" fill="#05E9F0" stroke="url(#paint1_linear_355_18484)" stroke-width="1.04816" mask="url(#path-2-inside-2_355_18484)"/>
<mask id="path-3-inside-3_355_18484" fill="white">
<path d="M361.459 469.336C397.409 465.903 431.888 453.355 461.634 432.878L341.282 258.045L361.459 469.336Z"/>
</mask>
<path d="M361.459 469.336C397.409 465.903 431.888 453.355 461.634 432.878L341.282 258.045L361.459 469.336Z" fill="#2943DE" stroke="url(#paint2_linear_355_18484)" stroke-width="1.04816" mask="url(#path-3-inside-3_355_18484)"/>
<mask id="path-4-inside-4_355_18484" fill="white">
<path d="M253.878 451.465C285.044 465.549 319.153 471.893 353.299 469.957L341.282 258.045L253.878 451.465Z"/>
</mask>
<path d="M253.878 451.465C285.044 465.549 319.153 471.893 353.299 469.957L341.282 258.045L253.878 451.465Z" fill="url(#paint3_linear_355_18484)" stroke="url(#paint4_linear_355_18484)" stroke-width="1.04816" mask="url(#path-4-inside-4_355_18484)"/>
<mask id="path-5-inside-5_355_18484" fill="white">
<path d="M168.689 381.587C188.236 408.895 213.984 431.176 243.818 446.597L341.282 258.045L168.689 381.587Z"/>
</mask>
<path d="M168.689 381.587C188.236 408.895 213.984 431.176 243.818 446.597L341.282 258.045L168.689 381.587Z" fill="#8B86FF" stroke="url(#paint5_linear_355_18484)" stroke-width="1.04816" mask="url(#path-5-inside-5_355_18484)"/>
<mask id="path-6-inside-6_355_18484" fill="white">
<path d="M129.814 276.28C132.776 310.621 144.056 343.724 162.68 372.728L341.282 258.044L129.814 276.28Z"/>
</mask>
<path d="M129.814 276.28C132.776 310.621 144.056 343.724 162.68 372.728L341.282 258.044L129.814 276.28Z" fill="#544CF9" stroke="url(#paint6_linear_355_18484)" stroke-width="1.04816" mask="url(#path-6-inside-6_355_18484)"/>
<path d="M296.399 172.593V170.393L307.399 159.393H309.599V170.393H311.799V172.593H309.599V174.793H307.399V172.593H296.399ZM307.399 170.393V162.495L299.501 170.393H307.399ZM326.534 170.393V163.793C326.534 162.583 325.544 161.593 324.334 161.593H317.734C316.524 161.593 315.534 162.583 315.534 163.793V170.393C315.534 171.603 316.524 172.593 317.734 172.593H324.334C325.544 172.593 326.534 171.603 326.534 170.393ZM328.734 163.793V170.393C328.734 172.725 326.798 174.793 324.334 174.793H317.734C315.38 174.793 313.334 172.879 313.334 170.393V163.793C313.334 161.461 315.27 159.393 317.734 159.393H324.334C326.688 159.393 328.668 161.351 328.734 163.793ZM345.68 159.393V161.175L335.054 174.793H333.58V173.099L344.294 159.393H345.68ZM334.68 165.993C335.89 165.993 336.88 165.003 336.88 163.793C336.88 162.583 335.89 161.593 334.68 161.593C333.47 161.593 332.48 162.583 332.48 163.793C332.48 165.003 333.47 165.993 334.68 165.993ZM339.08 163.793C339.08 166.125 337.144 168.193 334.68 168.193C332.326 168.193 330.28 166.279 330.28 163.793C330.28 161.461 332.216 159.393 334.68 159.393C337.034 159.393 339.014 161.351 339.08 163.793ZM344.58 172.593C345.79 172.593 346.78 171.603 346.78 170.393C346.78 169.183 345.79 168.193 344.58 168.193C343.37 168.193 342.38 169.183 342.38 170.393C342.38 171.603 343.37 172.593 344.58 172.593ZM348.98 170.393C348.98 172.725 347.044 174.793 344.58 174.793C342.226 174.793 340.18 172.879 340.18 170.393C340.18 168.061 342.116 165.993 344.58 165.993C346.934 165.993 348.914 167.951 348.98 170.393Z" fill="#1C195B"/>
<path d="M442.814 301.75V302.85H456.014V305.05H440.614V301.75C440.614 299.418 442.55 297.35 445.014 297.35H451.614C452.824 297.35 453.814 296.36 453.814 295.15V294.05C453.814 292.84 452.824 291.85 451.614 291.85H445.014C443.804 291.85 442.814 292.84 442.814 294.05H440.614C440.614 291.718 442.55 289.65 445.014 289.65H451.614C453.924 289.65 456.014 291.608 456.014 294.05V295.15C456.014 297.482 454.078 299.55 451.614 299.55H445.014C443.804 299.55 442.814 300.54 442.814 301.75ZM470.98 300.65V294.05C470.98 292.84 469.99 291.85 468.78 291.85H462.18C460.97 291.85 459.98 292.84 459.98 294.05V300.65C459.98 301.86 460.97 302.85 462.18 302.85H468.78C469.99 302.85 470.98 301.86 470.98 300.65ZM473.18 294.05V300.65C473.18 302.982 471.244 305.05 468.78 305.05H462.18C459.826 305.05 457.78 303.136 457.78 300.65V294.05C457.78 291.718 459.716 289.65 462.18 289.65H468.78C471.134 289.65 473.114 291.608 473.18 294.05ZM490.126 289.65V291.432L479.5 305.05H478.026V303.356L488.74 289.65H490.126ZM479.126 296.25C480.336 296.25 481.326 295.26 481.326 294.05C481.326 292.84 480.336 291.85 479.126 291.85C477.916 291.85 476.926 292.84 476.926 294.05C476.926 295.26 477.916 296.25 479.126 296.25ZM483.526 294.05C483.526 296.382 481.59 298.45 479.126 298.45C476.772 298.45 474.726 296.536 474.726 294.05C474.726 291.718 476.662 289.65 479.126 289.65C481.48 289.65 483.46 291.608 483.526 294.05ZM489.026 302.85C490.236 302.85 491.226 301.86 491.226 300.65C491.226 299.44 490.236 298.45 489.026 298.45C487.816 298.45 486.826 299.44 486.826 300.65C486.826 301.86 487.816 302.85 489.026 302.85ZM493.426 300.65C493.426 302.982 491.49 305.05 489.026 305.05C486.672 305.05 484.626 303.136 484.626 300.65C484.626 298.318 486.562 296.25 489.026 296.25C491.38 296.25 493.36 298.208 493.426 300.65Z" fill="#28368B"/>
<path d="M368.464 378.787L372.064 375.187H373.864V387.787H372.064V377.725L369.202 380.587H368.464V378.787ZM386.291 384.187V378.787C386.291 377.797 385.481 376.987 384.491 376.987H379.091C378.101 376.987 377.291 377.797 377.291 378.787V384.187C377.291 385.177 378.101 385.987 379.091 385.987H384.491C385.481 385.987 386.291 385.177 386.291 384.187ZM388.091 378.787V384.187C388.091 386.095 386.507 387.787 384.491 387.787H379.091C377.165 387.787 375.491 386.221 375.491 384.187V378.787C375.491 376.879 377.075 375.187 379.091 375.187H384.491C386.417 375.187 388.037 376.789 388.091 378.787ZM401.956 375.187V376.645L393.262 387.787H392.056V386.401L400.822 375.187H401.956ZM392.956 380.587C393.946 380.587 394.756 379.777 394.756 378.787C394.756 377.797 393.946 376.987 392.956 376.987C391.966 376.987 391.156 377.797 391.156 378.787C391.156 379.777 391.966 380.587 392.956 380.587ZM396.556 378.787C396.556 380.695 394.972 382.387 392.956 382.387C391.03 382.387 389.356 380.821 389.356 378.787C389.356 376.879 390.94 375.187 392.956 375.187C394.882 375.187 396.502 376.789 396.556 378.787ZM401.056 385.987C402.046 385.987 402.856 385.177 402.856 384.187C402.856 383.197 402.046 382.387 401.056 382.387C400.066 382.387 399.256 383.197 399.256 384.187C399.256 385.177 400.066 385.987 401.056 385.987ZM404.656 384.187C404.656 386.095 403.072 387.787 401.056 387.787C399.13 387.787 397.456 386.221 397.456 384.187C397.456 382.279 399.04 380.587 401.056 380.587C402.982 380.587 404.602 382.189 404.656 384.187Z" fill="white"/>
<path d="M226.669 366.694L230.269 363.094H232.069V375.694H230.269V365.632L227.407 368.494H226.669V366.694ZM244.495 372.094V366.694C244.495 365.704 243.685 364.894 242.695 364.894H237.295C236.305 364.894 235.495 365.704 235.495 366.694V372.094C235.495 373.084 236.305 373.894 237.295 373.894H242.695C243.685 373.894 244.495 373.084 244.495 372.094ZM246.295 366.694V372.094C246.295 374.002 244.711 375.694 242.695 375.694H237.295C235.369 375.694 233.695 374.128 233.695 372.094V366.694C233.695 364.786 235.279 363.094 237.295 363.094H242.695C244.621 363.094 246.241 364.696 246.295 366.694ZM260.16 363.094V364.552L251.466 375.694H250.26V374.308L259.026 363.094H260.16ZM251.16 368.494C252.15 368.494 252.96 367.684 252.96 366.694C252.96 365.704 252.15 364.894 251.16 364.894C250.17 364.894 249.36 365.704 249.36 366.694C249.36 367.684 250.17 368.494 251.16 368.494ZM254.76 366.694C254.76 368.602 253.176 370.294 251.16 370.294C249.234 370.294 247.56 368.728 247.56 366.694C247.56 364.786 249.144 363.094 251.16 363.094C253.086 363.094 254.706 364.696 254.76 366.694ZM259.26 373.894C260.25 373.894 261.06 373.084 261.06 372.094C261.06 371.104 260.25 370.294 259.26 370.294C258.27 370.294 257.46 371.104 257.46 372.094C257.46 373.084 258.27 373.894 259.26 373.894ZM262.86 372.094C262.86 374.002 261.276 375.694 259.26 375.694C257.334 375.694 255.66 374.128 255.66 372.094C255.66 370.186 257.244 368.494 259.26 368.494C261.186 368.494 262.806 370.096 262.86 372.094Z" fill="white"/>
<path d="M187.096 304.59L190.696 300.99H192.496V313.59H190.696V303.528L187.834 306.39H187.096V304.59ZM204.923 309.99V304.59C204.923 303.6 204.113 302.79 203.123 302.79H197.723C196.733 302.79 195.923 303.6 195.923 304.59V309.99C195.923 310.98 196.733 311.79 197.723 311.79H203.123C204.113 311.79 204.923 310.98 204.923 309.99ZM206.723 304.59V309.99C206.723 311.898 205.139 313.59 203.123 313.59H197.723C195.797 313.59 194.123 312.024 194.123 309.99V304.59C194.123 302.682 195.707 300.99 197.723 300.99H203.123C205.049 300.99 206.669 302.592 206.723 304.59ZM220.587 300.99V302.448L211.893 313.59H210.687V312.204L219.453 300.99H220.587ZM211.587 306.39C212.577 306.39 213.387 305.58 213.387 304.59C213.387 303.6 212.577 302.79 211.587 302.79C210.597 302.79 209.787 303.6 209.787 304.59C209.787 305.58 210.597 306.39 211.587 306.39ZM215.187 304.59C215.187 306.498 213.603 308.19 211.587 308.19C209.661 308.19 207.987 306.624 207.987 304.59C207.987 302.682 209.571 300.99 211.587 300.99C213.513 300.99 215.133 302.592 215.187 304.59ZM219.687 311.79C220.677 311.79 221.487 310.98 221.487 309.99C221.487 309 220.677 308.19 219.687 308.19C218.697 308.19 217.887 309 217.887 309.99C217.887 310.98 218.697 311.79 219.687 311.79ZM223.287 309.99C223.287 311.898 221.703 313.59 219.687 313.59C217.761 313.59 216.087 312.024 216.087 309.99C216.087 308.082 217.671 306.39 219.687 306.39C221.613 306.39 223.233 307.992 223.287 309.99Z" fill="white"/>
<path d="M295.919 411.763L299.519 408.163H301.319V420.763H299.519V410.701L296.657 413.563H295.919V411.763ZM313.745 417.163V411.763C313.745 410.773 312.935 409.963 311.945 409.963H306.545C305.555 409.963 304.745 410.773 304.745 411.763V417.163C304.745 418.153 305.555 418.963 306.545 418.963H311.945C312.935 418.963 313.745 418.153 313.745 417.163ZM315.545 411.763V417.163C315.545 419.071 313.961 420.763 311.945 420.763H306.545C304.619 420.763 302.945 419.197 302.945 417.163V411.763C302.945 409.855 304.529 408.163 306.545 408.163H311.945C313.871 408.163 315.491 409.765 315.545 411.763ZM329.41 408.163V409.621L320.716 420.763H319.51V419.377L328.276 408.163H329.41ZM320.41 413.563C321.4 413.563 322.21 412.753 322.21 411.763C322.21 410.773 321.4 409.963 320.41 409.963C319.42 409.963 318.61 410.773 318.61 411.763C318.61 412.753 319.42 413.563 320.41 413.563ZM324.01 411.763C324.01 413.671 322.426 415.363 320.41 415.363C318.484 415.363 316.81 413.797 316.81 411.763C316.81 409.855 318.394 408.163 320.41 408.163C322.336 408.163 323.956 409.765 324.01 411.763ZM328.51 418.963C329.5 418.963 330.31 418.153 330.31 417.163C330.31 416.173 329.5 415.363 328.51 415.363C327.52 415.363 326.71 416.173 326.71 417.163C326.71 418.153 327.52 418.963 328.51 418.963ZM332.11 417.163C332.11 419.071 330.526 420.763 328.51 420.763C326.584 420.763 324.91 419.197 324.91 417.163C324.91 415.255 326.494 413.563 328.51 413.563C330.436 413.563 332.056 415.165 332.11 417.163Z" fill="white"/>
<path fill-rule="evenodd" clip-rule="evenodd" d="M541.937 308.668L524.922 293.844L538.774 313.892C538.567 314.712 538.457 315.572 538.457 316.457V324.543C538.457 330.318 543.139 335 548.914 335H623C628.775 335 633.457 330.318 633.457 324.543V316.457C633.457 310.682 628.775 306 623 306H548.914C546.233 306 543.788 307.009 541.937 308.668Z" fill="#140D83"/>
<path d="M550.839 325.067V315.967H552.295V325.067H550.839ZM554.484 325.067V318.632H555.914V321.115H559.138V318.632H560.568V325.067H559.138V322.298H555.914V325.067H554.484ZM562.558 325.067V318.632H565.626C566.354 318.632 566.937 318.771 567.375 319.048C567.812 319.326 568.031 319.742 568.031 320.296C568.031 320.556 567.968 320.788 567.843 320.992C567.717 321.191 567.544 321.358 567.323 321.492C567.102 321.627 566.844 321.724 566.549 321.785L566.523 321.466C567.091 321.544 567.531 321.733 567.843 322.032C568.155 322.331 568.311 322.71 568.311 323.169C568.311 323.559 568.209 323.897 568.005 324.183C567.802 324.465 567.509 324.684 567.128 324.84C566.746 324.992 566.289 325.067 565.756 325.067H562.558ZM563.943 324.008H565.561C565.99 324.008 566.32 323.936 566.549 323.793C566.783 323.65 566.9 323.436 566.9 323.15C566.9 322.868 566.785 322.658 566.556 322.519C566.326 322.376 565.995 322.305 565.561 322.305H563.754V321.284H565.412C565.815 321.284 566.127 321.224 566.348 321.102C566.569 320.977 566.679 320.773 566.679 320.491C566.679 320.21 566.569 320.006 566.348 319.88C566.127 319.75 565.815 319.685 565.412 319.685H563.943V324.008ZM572.86 325.262C572.166 325.262 571.557 325.122 571.033 324.84C570.509 324.554 570.099 324.155 569.805 323.644C569.514 323.133 569.369 322.539 569.369 321.863C569.369 321.369 569.454 320.914 569.623 320.498C569.792 320.078 570.03 319.714 570.338 319.406C570.645 319.098 571.005 318.86 571.417 318.691C571.833 318.522 572.285 318.437 572.775 318.437C573.308 318.437 573.783 318.533 574.199 318.723C574.615 318.91 574.959 319.172 575.232 319.51C575.509 319.848 575.704 320.244 575.817 320.699C575.934 321.15 575.954 321.64 575.876 322.168H570.741C570.732 322.554 570.816 322.892 570.994 323.182C571.172 323.468 571.425 323.692 571.755 323.852C572.088 324.012 572.48 324.092 572.931 324.092C573.295 324.092 573.646 324.038 573.984 323.93C574.326 323.817 574.636 323.653 574.914 323.436L575.466 324.463C575.258 324.632 575.007 324.777 574.712 324.898C574.417 325.015 574.11 325.104 573.789 325.165C573.468 325.23 573.159 325.262 572.86 325.262ZM570.825 321.115H574.472C574.459 320.63 574.303 320.249 574.004 319.971C573.709 319.694 573.289 319.555 572.743 319.555C572.214 319.555 571.774 319.694 571.423 319.971C571.076 320.249 570.877 320.63 570.825 321.115ZM580.375 325.262C579.699 325.262 579.097 325.115 578.568 324.82C578.04 324.521 577.624 324.116 577.32 323.605C577.021 323.089 576.872 322.504 576.872 321.85C576.872 321.356 576.961 320.903 577.138 320.491C577.316 320.075 577.567 319.714 577.892 319.406C578.217 319.098 578.599 318.86 579.036 318.691C579.478 318.522 579.957 318.437 580.473 318.437C580.906 318.437 581.307 318.496 581.675 318.613C582.048 318.726 582.39 318.901 582.702 319.139L582.013 320.231C581.814 320.054 581.584 319.922 581.324 319.835C581.069 319.748 580.796 319.705 580.505 319.705C580.055 319.705 579.667 319.789 579.342 319.958C579.017 320.127 578.763 320.372 578.581 320.693C578.404 321.009 578.315 321.393 578.315 321.843C578.315 322.515 578.51 323.042 578.9 323.423C579.294 323.804 579.829 323.995 580.505 323.995C580.826 323.995 581.129 323.936 581.415 323.819C581.701 323.698 581.94 323.54 582.13 323.345L582.813 324.43C582.471 324.69 582.089 324.894 581.669 325.041C581.249 325.189 580.817 325.262 580.375 325.262ZM585.564 325.067V319.815H583.452V318.632H589.113V319.815H586.994V325.067H585.564ZM593.356 325.262C592.684 325.262 592.084 325.109 591.555 324.801C591.031 324.489 590.619 324.075 590.32 323.559C590.021 323.039 589.872 322.47 589.872 321.85C589.872 321.391 589.956 320.957 590.125 320.55C590.299 320.138 590.541 319.774 590.853 319.458C591.17 319.142 591.54 318.892 591.965 318.71C592.39 318.528 592.855 318.437 593.362 318.437C594.034 318.437 594.632 318.593 595.156 318.905C595.685 319.213 596.099 319.627 596.398 320.147C596.697 320.663 596.846 321.23 596.846 321.85C596.846 322.305 596.76 322.738 596.586 323.15C596.417 323.562 596.177 323.926 595.865 324.242C595.553 324.558 595.185 324.807 594.76 324.989C594.335 325.171 593.867 325.262 593.356 325.262ZM593.356 323.995C593.755 323.995 594.108 323.908 594.415 323.735C594.727 323.557 594.972 323.308 595.15 322.987C595.328 322.667 595.416 322.288 595.416 321.85C595.416 321.412 595.328 321.033 595.15 320.712C594.972 320.387 594.727 320.138 594.415 319.965C594.108 319.792 593.755 319.705 593.356 319.705C592.957 319.705 592.602 319.792 592.29 319.965C591.982 320.138 591.74 320.387 591.562 320.712C591.389 321.033 591.302 321.412 591.302 321.85C591.302 322.288 591.391 322.667 591.568 322.987C591.746 323.308 591.989 323.557 592.296 323.735C592.608 323.908 592.962 323.995 593.356 323.995ZM598.283 327.797V318.632H599.57V319.536C599.826 319.211 600.153 318.947 600.551 318.743C600.95 318.539 601.442 318.437 602.027 318.437C602.655 318.437 603.212 318.587 603.697 318.886C604.187 319.181 604.568 319.586 604.841 320.101C605.114 320.613 605.251 321.196 605.251 321.85C605.251 322.322 605.173 322.766 605.017 323.182C604.861 323.594 604.638 323.956 604.347 324.268C604.061 324.58 603.719 324.825 603.32 325.002C602.926 325.176 602.488 325.262 602.007 325.262C601.505 325.262 601.063 325.171 600.681 324.989C600.3 324.807 599.975 324.563 599.706 324.255V327.797H598.283ZM601.767 323.995C602.166 323.995 602.519 323.908 602.826 323.735C603.138 323.557 603.381 323.308 603.554 322.987C603.732 322.667 603.821 322.288 603.821 321.85C603.821 321.412 603.732 321.033 603.554 320.712C603.377 320.387 603.132 320.138 602.82 319.965C602.512 319.792 602.161 319.705 601.767 319.705C601.368 319.705 601.013 319.792 600.701 319.965C600.393 320.138 600.151 320.387 599.973 320.712C599.795 321.033 599.706 321.412 599.706 321.85C599.706 322.288 599.795 322.667 599.973 322.987C600.151 323.308 600.393 323.557 600.701 323.735C601.013 323.908 601.368 323.995 601.767 323.995ZM608.475 325.262C608.028 325.262 607.636 325.18 607.298 325.015C606.96 324.846 606.696 324.61 606.505 324.307C606.319 323.999 606.226 323.637 606.226 323.221C606.226 322.87 606.314 322.554 606.492 322.272C606.67 321.986 606.945 321.75 607.318 321.564C607.695 321.378 608.178 321.254 608.767 321.193C609.356 321.128 610.065 321.137 610.893 321.219L610.919 322.207C610.329 322.125 609.822 322.09 609.398 322.103C608.973 322.116 608.624 322.171 608.351 322.266C608.082 322.357 607.883 322.48 607.753 322.636C607.627 322.788 607.565 322.964 607.565 323.163C607.565 323.475 607.675 323.715 607.896 323.884C608.121 324.053 608.429 324.138 608.819 324.138C609.153 324.138 609.452 324.077 609.716 323.956C609.98 323.835 610.188 323.663 610.34 323.442C610.496 323.221 610.574 322.961 610.574 322.662V320.953C610.574 320.667 610.513 320.42 610.392 320.212C610.271 320 610.087 319.835 609.84 319.718C609.593 319.601 609.285 319.542 608.917 319.542C608.579 319.542 608.245 319.594 607.916 319.698C607.586 319.798 607.272 319.956 606.973 320.173L606.57 319.12C606.973 318.847 607.393 318.654 607.831 318.541C608.269 318.429 608.689 318.372 609.092 318.372C609.69 318.372 610.201 318.468 610.626 318.658C611.055 318.845 611.384 319.129 611.614 319.51C611.844 319.887 611.959 320.364 611.959 320.94V325.067H610.672V324.307C610.455 324.615 610.154 324.851 609.768 325.015C609.382 325.18 608.951 325.262 608.475 325.262ZM613.86 325.067V318.632H615.102H615.141L618.027 322.805L617.409 322.818L620.152 318.632H621.42V325.067H620.12L620.139 320.309L620.406 320.426L618.105 323.787H617.182L614.777 320.42L615.043 320.303L615.063 325.067H613.86Z" fill="white"/>
<path fill-rule="evenodd" clip-rule="evenodd" d="M415.638 460.454L398.511 445.533L412.219 465.372C411.884 466.397 411.702 467.492 411.702 468.629V492.233C411.702 498.008 416.384 502.69 422.159 502.69H505.12C510.895 502.69 515.577 498.008 515.577 492.233V468.629C515.577 462.854 510.895 458.172 505.12 458.172H422.159C419.693 458.172 417.426 459.026 415.638 460.454Z" fill="#140D83"/>
<path d="M424.428 476.757V467.657H430.31V468.944H425.884V471.401H429.706V472.616H425.884V475.457H430.349V476.757H424.428ZM436.476 476.757L434.344 473.338L436.327 470.322H437.854L435.885 473.273L438.186 476.757H436.476ZM432.199 476.757V470.322H433.629V472.805H435.566V473.988H433.629V476.757H432.199ZM442.272 476.952C441.596 476.952 440.994 476.805 440.465 476.51C439.937 476.211 439.521 475.806 439.217 475.294C438.918 474.779 438.769 474.194 438.769 473.539C438.769 473.045 438.858 472.593 439.035 472.181C439.213 471.765 439.464 471.403 439.789 471.095C440.114 470.788 440.496 470.549 440.933 470.38C441.375 470.211 441.854 470.127 442.37 470.127C442.803 470.127 443.204 470.185 443.572 470.302C443.945 470.415 444.287 470.591 444.599 470.829L443.91 471.921C443.711 471.743 443.481 471.611 443.221 471.524C442.966 471.438 442.693 471.394 442.402 471.394C441.952 471.394 441.564 471.479 441.239 471.648C440.914 471.817 440.66 472.062 440.478 472.382C440.301 472.699 440.212 473.082 440.212 473.533C440.212 474.205 440.407 474.731 440.797 475.112C441.191 475.494 441.726 475.684 442.402 475.684C442.723 475.684 443.026 475.626 443.312 475.509C443.598 475.388 443.837 475.229 444.027 475.034L444.71 476.12C444.368 476.38 443.986 476.584 443.566 476.731C443.146 476.878 442.714 476.952 442.272 476.952ZM446.024 476.757V470.322H452.102V476.757H450.672V471.505H447.454V476.757H446.024ZM457.024 476.952C456.331 476.952 455.722 476.811 455.198 476.529C454.673 476.243 454.264 475.845 453.969 475.333C453.679 474.822 453.534 474.228 453.534 473.552C453.534 473.058 453.618 472.603 453.787 472.187C453.956 471.767 454.194 471.403 454.502 471.095C454.81 470.788 455.169 470.549 455.581 470.38C455.997 470.211 456.45 470.127 456.94 470.127C457.473 470.127 457.947 470.222 458.363 470.413C458.779 470.599 459.124 470.861 459.397 471.199C459.674 471.537 459.869 471.934 459.982 472.389C460.099 472.84 460.118 473.329 460.04 473.858H454.905C454.896 474.244 454.981 474.582 455.159 474.872C455.336 475.158 455.59 475.381 455.919 475.541C456.253 475.702 456.645 475.782 457.096 475.782C457.46 475.782 457.811 475.728 458.149 475.619C458.491 475.507 458.801 475.342 459.078 475.125L459.631 476.152C459.423 476.321 459.171 476.467 458.877 476.588C458.582 476.705 458.274 476.794 457.954 476.854C457.633 476.919 457.323 476.952 457.024 476.952ZM454.99 472.805H458.636C458.623 472.32 458.467 471.938 458.168 471.661C457.873 471.384 457.453 471.245 456.907 471.245C456.378 471.245 455.939 471.384 455.588 471.661C455.241 471.938 455.042 472.32 454.99 472.805ZM461.525 479.487V470.322H462.812V471.225C463.068 470.9 463.395 470.636 463.794 470.432C464.193 470.229 464.684 470.127 465.269 470.127C465.898 470.127 466.455 470.276 466.94 470.575C467.43 470.87 467.811 471.275 468.084 471.791C468.357 472.302 468.493 472.885 468.493 473.539C468.493 474.012 468.415 474.456 468.259 474.872C468.103 475.284 467.88 475.645 467.59 475.957C467.304 476.269 466.962 476.514 466.563 476.692C466.169 476.865 465.731 476.952 465.25 476.952C464.747 476.952 464.305 476.861 463.924 476.679C463.543 476.497 463.218 476.252 462.949 475.944V479.487H461.525ZM465.009 475.684C465.408 475.684 465.761 475.598 466.069 475.424C466.381 475.247 466.624 474.998 466.797 474.677C466.975 474.356 467.063 473.977 467.063 473.539C467.063 473.102 466.975 472.723 466.797 472.402C466.619 472.077 466.374 471.828 466.062 471.654C465.755 471.481 465.404 471.394 465.009 471.394C464.611 471.394 464.255 471.481 463.943 471.654C463.636 471.828 463.393 472.077 463.215 472.402C463.038 472.723 462.949 473.102 462.949 473.539C462.949 473.977 463.038 474.356 463.215 474.677C463.393 474.998 463.636 475.247 463.943 475.424C464.255 475.598 464.611 475.684 465.009 475.684ZM471.366 476.757V471.505H469.254V470.322H474.915V471.505H472.796V476.757H471.366ZM476.227 476.757V470.322H477.657V472.805H480.881V470.322H482.311V476.757H480.881V473.988H477.657V476.757H476.227ZM484.301 476.757V470.322H485.731V476.757H484.301ZM485.016 469.171C484.76 469.171 484.539 469.089 484.353 468.924C484.167 468.76 484.073 468.543 484.073 468.274C484.073 468.01 484.167 467.796 484.353 467.631C484.539 467.462 484.76 467.377 485.016 467.377C485.272 467.377 485.493 467.462 485.679 467.631C485.865 467.796 485.958 468.01 485.958 468.274C485.958 468.543 485.865 468.76 485.679 468.924C485.493 469.089 485.272 469.171 485.016 469.171ZM487.716 476.757V470.322H489.1V474.664L492.591 470.322H493.839V476.757H492.461V472.363L488.938 476.757H487.716ZM490.777 469.217C490.296 469.217 489.874 469.117 489.51 468.918C489.146 468.719 488.864 468.443 488.665 468.092C488.466 467.741 488.372 467.338 488.385 466.883H489.581C489.564 467.282 489.664 467.605 489.88 467.852C490.101 468.095 490.4 468.216 490.777 468.216C491.154 468.216 491.451 468.095 491.668 467.852C491.885 467.605 491.982 467.282 491.96 466.883H493.163C493.172 467.334 493.074 467.735 492.87 468.086C492.671 468.437 492.389 468.714 492.025 468.918C491.666 469.117 491.25 469.217 490.777 469.217ZM428.516 492.757L426.384 489.338L428.367 486.322H429.894L427.925 489.273L430.226 492.757H428.516ZM424.239 492.757V486.322H425.669V488.805H427.606V489.988H425.669V492.757H424.239ZM434.293 492.952C433.621 492.952 433.021 492.798 432.492 492.49C431.968 492.178 431.556 491.765 431.257 491.249C430.958 490.729 430.809 490.159 430.809 489.539C430.809 489.08 430.893 488.647 431.062 488.239C431.236 487.828 431.478 487.464 431.79 487.147C432.107 486.831 432.477 486.582 432.902 486.4C433.327 486.218 433.792 486.127 434.299 486.127C434.971 486.127 435.569 486.283 436.093 486.595C436.622 486.903 437.036 487.316 437.335 487.836C437.634 488.352 437.783 488.92 437.783 489.539C437.783 489.994 437.697 490.428 437.523 490.839C437.354 491.251 437.114 491.615 436.802 491.931C436.49 492.248 436.122 492.497 435.697 492.679C435.272 492.861 434.804 492.952 434.293 492.952ZM434.293 491.684C434.692 491.684 435.045 491.598 435.352 491.424C435.664 491.247 435.909 490.998 436.087 490.677C436.265 490.356 436.353 489.977 436.353 489.539C436.353 489.102 436.265 488.723 436.087 488.402C435.909 488.077 435.664 487.828 435.352 487.654C435.045 487.481 434.692 487.394 434.293 487.394C433.894 487.394 433.539 487.481 433.227 487.654C432.919 487.828 432.677 488.077 432.499 488.402C432.326 488.723 432.239 489.102 432.239 489.539C432.239 489.977 432.328 490.356 432.505 490.677C432.683 490.998 432.926 491.247 433.233 491.424C433.545 491.598 433.899 491.684 434.293 491.684ZM439.22 492.757V486.322H440.461H440.5L443.386 490.495L442.769 490.508L445.512 486.322H446.779V492.757H445.479L445.499 487.999L445.765 488.116L443.464 491.476H442.541L440.136 488.109L440.403 487.992L440.422 492.757H439.22ZM450.554 492.952C450.108 492.952 449.716 492.87 449.378 492.705C449.04 492.536 448.775 492.3 448.585 491.996C448.398 491.689 448.305 491.327 448.305 490.911C448.305 490.56 448.394 490.244 448.572 489.962C448.749 489.676 449.025 489.44 449.397 489.253C449.774 489.067 450.257 488.944 450.847 488.883C451.436 488.818 452.145 488.827 452.972 488.909L452.998 489.897C452.409 489.815 451.902 489.78 451.477 489.793C451.053 489.806 450.704 489.86 450.431 489.955C450.162 490.046 449.963 490.17 449.833 490.326C449.707 490.478 449.644 490.653 449.644 490.852C449.644 491.164 449.755 491.405 449.976 491.574C450.201 491.743 450.509 491.827 450.899 491.827C451.232 491.827 451.531 491.767 451.796 491.645C452.06 491.524 452.268 491.353 452.42 491.132C452.576 490.911 452.654 490.651 452.654 490.352V488.642C452.654 488.356 452.593 488.109 452.472 487.901C452.35 487.689 452.166 487.524 451.919 487.407C451.672 487.29 451.365 487.232 450.996 487.232C450.658 487.232 450.325 487.284 449.995 487.388C449.666 487.488 449.352 487.646 449.053 487.862L448.65 486.809C449.053 486.536 449.473 486.344 449.911 486.231C450.348 486.118 450.769 486.062 451.172 486.062C451.77 486.062 452.281 486.157 452.706 486.348C453.135 486.534 453.464 486.818 453.694 487.199C453.923 487.576 454.038 488.053 454.038 488.629V492.757H452.751V491.996C452.535 492.304 452.233 492.54 451.848 492.705C451.462 492.87 451.031 492.952 450.554 492.952ZM455.94 492.757V486.322H457.37V488.805H460.594V486.322H462.024V492.757H460.594V489.988H457.37V492.757H455.94ZM468.687 492.757V487.505H466.087V488.356C466.087 488.941 466.053 489.47 465.983 489.942C465.914 490.415 465.79 490.831 465.613 491.19C465.435 491.546 465.186 491.84 464.865 492.074C464.549 492.308 464.144 492.48 463.65 492.588L463.299 491.619C463.71 491.52 464.02 491.333 464.228 491.06C464.436 490.787 464.575 490.428 464.644 489.981C464.718 489.531 464.755 488.989 464.755 488.356V486.322H470.117V492.757H468.687ZM463.299 494.707V491.619L464.183 491.71L464.404 491.574H471.411V494.707H470.104V492.757H464.605V494.707H463.299ZM472.672 492.757V486.322H474.102V492.757H472.672ZM473.387 485.171C473.131 485.171 472.91 485.089 472.724 484.924C472.538 484.76 472.444 484.543 472.444 484.274C472.444 484.01 472.538 483.796 472.724 483.631C472.91 483.462 473.131 483.377 473.387 483.377C473.643 483.377 473.864 483.462 474.05 483.631C474.236 483.796 474.329 484.01 474.329 484.274C474.329 484.543 474.236 484.76 474.05 484.924C473.864 485.089 473.643 485.171 473.387 485.171Z" fill="white"/>
<path fill-rule="evenodd" clip-rule="evenodd" d="M126.942 222.276L141.315 209.755L131.201 224.393C133.521 226.311 135 229.211 135 232.457V240.543C135 246.318 130.318 251 124.543 251H10.457C4.68176 251 0 246.318 0 240.543V232.457C0 226.682 4.68176 222 10.457 222H124.543C125.368 222 126.172 222.096 126.942 222.276Z" fill="#79F585"/>
<path d="M14.3845 241.134L13.8125 239.795C14.3152 239.674 14.768 239.494 15.171 239.256C15.5783 239.017 15.9488 238.701 16.2825 238.307C16.6162 237.912 16.9238 237.425 17.2055 236.844L19.63 231.878H21.3135L18.564 237.299C18.2607 237.897 17.9552 238.417 17.6475 238.859C17.3398 239.297 17.0192 239.667 16.6855 239.971C16.3518 240.274 15.9943 240.519 15.613 240.705C15.236 240.892 14.8265 241.035 14.3845 241.134ZM17.004 238.118L13.5395 231.878H15.314L17.979 236.831L17.004 238.118ZM25.731 240.978V238.463C25.4276 238.541 25.1395 238.599 24.8665 238.638C24.5978 238.677 24.314 238.697 24.015 238.697C23.4386 238.697 22.9533 238.608 22.559 238.43C22.1646 238.253 21.8678 237.984 21.6685 237.624C21.4691 237.265 21.3695 236.812 21.3695 236.266V234.543H22.7995V236.064C22.7995 236.524 22.91 236.872 23.131 237.111C23.352 237.349 23.729 237.468 24.262 237.468C24.5696 237.468 24.8383 237.455 25.068 237.429C25.302 237.399 25.523 237.362 25.731 237.319V234.543H27.161V240.978H25.731ZM30.9402 241.173C30.4939 241.173 30.1017 241.091 29.7637 240.926C29.4257 240.757 29.1614 240.521 28.9707 240.218C28.7844 239.91 28.6912 239.548 28.6912 239.132C28.6912 238.781 28.78 238.465 28.9577 238.183C29.1354 237.897 29.4105 237.661 29.7832 237.475C30.1602 237.288 30.6434 237.165 31.2327 237.104C31.822 237.039 32.5305 237.048 33.3582 237.13L33.3842 238.118C32.7949 238.036 32.2879 238.001 31.8632 238.014C31.4385 238.027 31.0897 238.081 30.8167 238.177C30.548 238.268 30.3487 238.391 30.2187 238.547C30.093 238.699 30.0302 238.874 30.0302 239.074C30.0302 239.386 30.1407 239.626 30.3617 239.795C30.587 239.964 30.8947 240.049 31.2847 240.049C31.6184 240.049 31.9174 239.988 32.1817 239.867C32.446 239.745 32.654 239.574 32.8057 239.353C32.9617 239.132 33.0397 238.872 33.0397 238.573V236.864C33.0397 236.578 32.979 236.331 32.8577 236.123C32.7364 235.91 32.5522 235.746 32.3052 235.629C32.0582 235.512 31.7505 235.453 31.3822 235.453C31.0442 235.453 30.7105 235.505 30.3812 235.609C30.0519 235.709 29.7377 235.867 29.4387 236.084L29.0357 235.031C29.4387 234.758 29.859 234.565 30.2967 234.452C30.7344 234.34 31.1547 234.283 31.5577 234.283C32.1557 234.283 32.667 234.379 33.0917 234.569C33.5207 234.756 33.85 235.039 34.0797 235.421C34.3094 235.798 34.4242 236.274 34.4242 236.851V240.978H33.1372V240.218C32.9205 240.525 32.6194 240.762 32.2337 240.926C31.848 241.091 31.4169 241.173 30.9402 241.173ZM39.2766 241.173C38.6006 241.173 37.9982 241.026 37.4696 240.731C36.9409 240.432 36.5249 240.027 36.2216 239.516C35.9226 239 35.7731 238.415 35.7731 237.761C35.7731 237.267 35.8619 236.814 36.0396 236.402C36.2172 235.986 36.4686 235.624 36.7936 235.317C37.1186 235.009 37.4999 234.771 37.9376 234.602C38.3796 234.433 38.8584 234.348 39.3741 234.348C39.8074 234.348 40.2082 234.407 40.5766 234.524C40.9492 234.636 41.2916 234.812 41.6036 235.05L40.9146 236.142C40.7152 235.965 40.4856 235.832 40.2256 235.746C39.9699 235.659 39.6969 235.616 39.4066 235.616C38.9559 235.616 38.5681 235.7 38.2431 235.869C37.9181 236.038 37.6646 236.283 37.4826 236.604C37.3049 236.92 37.2161 237.304 37.2161 237.754C37.2161 238.426 37.4111 238.952 37.8011 239.334C38.1954 239.715 38.7306 239.906 39.4066 239.906C39.7272 239.906 40.0306 239.847 40.3166 239.73C40.6026 239.609 40.8409 239.451 41.0316 239.256L41.7141 240.341C41.3717 240.601 40.9904 240.805 40.5701 240.952C40.1497 241.1 39.7186 241.173 39.2766 241.173ZM43.0287 240.978V234.543H44.4587V237.026H47.6827V234.543H49.1127V240.978H47.6827V238.209H44.4587V240.978H43.0287ZM51.1029 240.978V234.543H52.4874V238.885L55.9779 234.543H57.2259V240.978H55.8479V236.584L52.3249 240.978H51.1029ZM63.4922 240.978L61.3602 237.559L63.3427 234.543H64.8702L62.9007 237.494L65.2017 240.978H63.4922ZM59.2152 240.978V234.543H60.6452V237.026H62.5822V238.209H60.6452V240.978H59.2152ZM68.2517 241.173C67.8054 241.173 67.4132 241.091 67.0752 240.926C66.7372 240.757 66.4729 240.521 66.2822 240.218C66.0959 239.91 66.0027 239.548 66.0027 239.132C66.0027 238.781 66.0916 238.465 66.2692 238.183C66.4469 237.897 66.7221 237.661 67.0947 237.475C67.4717 237.288 67.9549 237.165 68.5442 237.104C69.1336 237.039 69.8421 237.048 70.6697 237.13L70.6957 238.118C70.1064 238.036 69.5994 238.001 69.1747 238.014C68.7501 238.027 68.4012 238.081 68.1282 238.177C67.8596 238.268 67.6602 238.391 67.5302 238.547C67.4046 238.699 67.3417 238.874 67.3417 239.074C67.3417 239.386 67.4522 239.626 67.6732 239.795C67.8986 239.964 68.2062 240.049 68.5962 240.049C68.9299 240.049 69.2289 239.988 69.4932 239.867C69.7576 239.745 69.9656 239.574 70.1172 239.353C70.2732 239.132 70.3512 238.872 70.3512 238.573V236.864C70.3512 236.578 70.2906 236.331 70.1692 236.123C70.0479 235.91 69.8637 235.746 69.6167 235.629C69.3697 235.512 69.0621 235.453 68.6937 235.453C68.3557 235.453 68.0221 235.505 67.6927 235.609C67.3634 235.709 67.0492 235.867 66.7502 236.084L66.3472 235.031C66.7502 234.758 67.1706 234.565 67.6082 234.452C68.0459 234.34 68.4662 234.283 68.8692 234.283C69.4672 234.283 69.9786 234.379 70.4032 234.569C70.8322 234.756 71.1616 235.039 71.3912 235.421C71.6209 235.798 71.7357 236.274 71.7357 236.851V240.978H70.4487V240.218C70.2321 240.525 69.9309 240.762 69.5452 240.926C69.1596 241.091 68.7284 241.173 68.2517 241.173ZM73.6371 240.978V234.543H74.8786H74.9176L77.8036 238.716L77.1861 238.729L79.9291 234.543H81.1966V240.978H79.8966L79.9161 236.22L80.1826 236.337L77.8816 239.698H76.9586L74.5536 236.331L74.8201 236.214L74.8396 240.978H73.6371ZM88.0215 242.473C87.4841 241.568 87.0811 240.603 86.8125 239.581C86.5438 238.558 86.4095 237.525 86.4095 236.48C86.4095 235.783 86.468 235.091 86.585 234.407C86.7063 233.718 86.8861 233.046 87.1245 232.392C87.3628 231.737 87.6618 231.111 88.0215 230.513L89.1135 230.955C88.8751 231.332 88.665 231.74 88.483 232.177C88.3053 232.611 88.1558 233.061 88.0345 233.529C87.9131 233.997 87.8221 234.478 87.7615 234.972C87.7051 235.462 87.677 235.956 87.677 236.454C87.677 237.451 87.7961 238.435 88.0345 239.405C88.2771 240.372 88.6368 241.247 89.1135 242.031L88.0215 242.473ZM90.8646 240.978V234.543H93.9326C94.6606 234.543 95.2435 234.682 95.6811 234.959C96.1188 235.237 96.3376 235.653 96.3376 236.207C96.3376 236.467 96.2748 236.699 96.1491 236.903C96.0235 237.102 95.8501 237.269 95.6291 237.403C95.4081 237.538 95.1503 237.635 94.8556 237.696L94.8296 237.377C95.3973 237.455 95.8371 237.644 96.1491 237.943C96.4611 238.242 96.6171 238.621 96.6171 239.08C96.6171 239.47 96.5153 239.808 96.3116 240.094C96.108 240.376 95.8155 240.595 95.4341 240.751C95.0528 240.902 94.5956 240.978 94.0626 240.978H90.8646ZM92.2491 239.919H93.8676C94.2966 239.919 94.626 239.847 94.8556 239.704C95.0896 239.561 95.2066 239.347 95.2066 239.061C95.2066 238.779 95.0918 238.569 94.8621 238.43C94.6325 238.287 94.301 238.216 93.8676 238.216H92.0606V237.195H93.7181C94.1211 237.195 94.4331 237.135 94.6541 237.013C94.8751 236.888 94.9856 236.684 94.9856 236.402C94.9856 236.121 94.8751 235.917 94.6541 235.791C94.4331 235.661 94.1211 235.596 93.7181 235.596H92.2491V239.919ZM100.015 241.173C99.5691 241.173 99.1769 241.091 98.8389 240.926C98.5009 240.757 98.2366 240.521 98.0459 240.218C97.8596 239.91 97.7664 239.548 97.7664 239.132C97.7664 238.781 97.8552 238.465 98.0329 238.183C98.2106 237.897 98.4857 237.661 98.8584 237.475C99.2354 237.288 99.7186 237.165 100.308 237.104C100.897 237.039 101.606 237.048 102.433 237.13L102.459 238.118C101.87 238.036 101.363 238.001 100.938 238.014C100.514 238.027 100.165 238.081 99.8919 238.177C99.6232 238.268 99.4239 238.391 99.2939 238.547C99.1682 238.699 99.1054 238.874 99.1054 239.074C99.1054 239.386 99.2159 239.626 99.4369 239.795C99.6622 239.964 99.9699 240.049 100.36 240.049C100.694 240.049 100.993 239.988 101.257 239.867C101.521 239.745 101.729 239.574 101.881 239.353C102.037 239.132 102.115 238.872 102.115 238.573V236.864C102.115 236.578 102.054 236.331 101.933 236.123C101.812 235.91 101.627 235.746 101.38 235.629C101.133 235.512 100.826 235.453 100.457 235.453C100.119 235.453 99.7857 235.505 99.4564 235.609C99.1271 235.709 98.8129 235.867 98.5139 236.084L98.1109 235.031C98.5139 234.758 98.9342 234.565 99.3719 234.452C99.8096 234.34 100.23 234.283 100.633 234.283C101.231 234.283 101.742 234.379 102.167 234.569C102.596 234.756 102.925 235.039 103.155 235.421C103.385 235.798 103.499 236.274 103.499 236.851V240.978H102.212V240.218C101.996 240.525 101.695 240.762 101.309 240.926C100.923 241.091 100.492 241.173 100.015 241.173ZM105.401 240.978V234.543H106.642H106.681L109.567 238.716L108.95 238.729L111.693 234.543H112.96V240.978H111.66L111.68 236.22L111.946 236.337L109.645 239.698H108.722L106.317 236.331L106.584 236.214L106.603 240.978H105.401ZM115.799 242.473L114.707 242.031C114.945 241.65 115.153 241.243 115.331 240.809C115.513 240.376 115.665 239.925 115.786 239.457C115.907 238.989 115.996 238.508 116.053 238.014C116.113 237.52 116.144 237.026 116.144 236.532C116.144 235.531 116.022 234.548 115.78 233.581C115.541 232.615 115.184 231.74 114.707 230.955L115.799 230.513C116.341 231.415 116.744 232.377 117.008 233.399C117.277 234.422 117.411 235.458 117.411 236.506C117.411 237.204 117.35 237.897 117.229 238.586C117.112 239.271 116.934 239.94 116.696 240.595C116.458 241.249 116.159 241.875 115.799 242.473Z" fill="#1C195B"/>
<path fill-rule="evenodd" clip-rule="evenodd" d="M135.723 332.954L152.857 318.026L139.139 337.88C139.472 338.901 139.652 339.991 139.652 341.124V365.827C139.652 371.602 134.971 376.284 129.195 376.284H15.457C9.68176 376.284 5 371.602 5 365.827V341.124C5 335.348 9.68176 330.667 15.457 330.667H129.195C131.665 330.667 133.934 331.522 135.723 332.954Z" fill="#140D83"/>
<path d="M17.7232 349.25V340.15H23.4432V341.437H19.1792V343.907H20.8367C21.8204 343.907 22.609 344.135 23.2027 344.59C23.7964 345.04 24.0932 345.703 24.0932 346.579C24.0932 347.151 23.9632 347.636 23.7032 348.035C23.4475 348.429 23.0749 348.73 22.5852 348.938C22.0999 349.146 21.5149 349.25 20.8302 349.25H17.7232ZM19.1792 348.106H20.7522C21.3415 348.106 21.7944 347.976 22.1107 347.716C22.4314 347.456 22.5917 347.084 22.5917 346.598C22.5917 346.126 22.4335 345.751 22.1172 345.474C21.8009 345.196 21.3654 345.058 20.8107 345.058H19.1792V348.106ZM28.712 349.445C28.0186 349.445 27.4098 349.304 26.8855 349.023C26.3611 348.737 25.9516 348.338 25.657 347.827C25.3666 347.315 25.2215 346.722 25.2215 346.046C25.2215 345.552 25.306 345.097 25.475 344.681C25.644 344.26 25.8823 343.896 26.19 343.589C26.4976 343.281 26.8573 343.043 27.269 342.874C27.685 342.705 28.1378 342.62 28.6275 342.62C29.1605 342.62 29.635 342.716 30.051 342.906C30.467 343.093 30.8115 343.355 31.0845 343.693C31.3618 344.031 31.5568 344.427 31.6695 344.882C31.7865 345.333 31.806 345.823 31.728 346.351H26.593C26.5843 346.737 26.6688 347.075 26.8465 347.365C27.0241 347.651 27.2776 347.874 27.607 348.035C27.9406 348.195 28.3328 348.275 28.7835 348.275C29.1475 348.275 29.4985 348.221 29.8365 348.113C30.1788 348 30.4886 347.835 30.766 347.619L31.3185 348.646C31.1105 348.815 30.8591 348.96 30.5645 349.081C30.2698 349.198 29.9621 349.287 29.6415 349.348C29.3208 349.413 29.011 349.445 28.712 349.445ZM26.6775 345.298H30.324C30.311 344.813 30.155 344.432 29.856 344.154C29.5613 343.877 29.141 343.738 28.595 343.738C28.0663 343.738 27.6265 343.877 27.2755 344.154C26.9288 344.432 26.7295 344.813 26.6775 345.298ZM35.3844 349.406C35.0247 349.406 34.6781 349.378 34.3444 349.322C34.0107 349.27 33.6966 349.187 33.4019 349.075C33.1072 348.958 32.8407 348.804 32.6024 348.613L33.2264 347.645C33.4994 347.874 33.8222 348.041 34.1949 348.145C34.5676 348.245 34.9467 348.295 35.3324 348.295C35.8567 348.295 36.2706 348.219 36.5739 348.067C36.8772 347.911 37.0289 347.656 37.0289 347.3C37.0289 346.988 36.8686 346.765 36.5479 346.631C36.2316 346.496 35.7701 346.429 35.1634 346.429H33.9804V345.35H35.1244C35.6617 345.35 36.0756 345.29 36.3659 345.168C36.6562 345.043 36.8014 344.83 36.8014 344.531C36.8014 344.354 36.7386 344.206 36.6129 344.089C36.4916 343.972 36.3182 343.883 36.0929 343.823C35.8719 343.762 35.6119 343.732 35.3129 343.732C34.9446 343.732 34.5892 343.786 34.2469 343.894C33.9046 344.003 33.6056 344.169 33.3499 344.395L32.8169 343.439C33.1462 343.166 33.5449 342.958 34.0129 342.815C34.4809 342.668 34.9532 342.594 35.4299 342.594C35.9846 342.594 36.4612 342.664 36.8599 342.802C37.2586 342.941 37.5662 343.14 37.7829 343.4C37.9996 343.66 38.1079 343.974 38.1079 344.343C38.1079 344.672 38.0017 344.958 37.7894 345.201C37.5814 345.443 37.2781 345.619 36.8794 345.727C37.3647 345.836 37.7331 346.026 37.9844 346.299C38.2401 346.572 38.3679 346.915 38.3679 347.326C38.3679 347.76 38.2444 348.132 37.9974 348.444C37.7547 348.752 37.4081 348.99 36.9574 349.159C36.5111 349.324 35.9867 349.406 35.3844 349.406ZM39.9292 349.25V342.815H46.0067V349.25H44.5767V343.998H41.3592V349.25H39.9292ZM50.9288 349.445C50.2354 349.445 49.6266 349.304 49.1023 349.023C48.5779 348.737 48.1684 348.338 47.8738 347.827C47.5834 347.315 47.4383 346.722 47.4383 346.046C47.4383 345.552 47.5228 345.097 47.6918 344.681C47.8608 344.26 48.0991 343.896 48.4068 343.589C48.7144 343.281 49.0741 343.043 49.4858 342.874C49.9018 342.705 50.3546 342.62 50.8443 342.62C51.3773 342.62 51.8518 342.716 52.2678 342.906C52.6838 343.093 53.0283 343.355 53.3013 343.693C53.5786 344.031 53.7736 344.427 53.8863 344.882C54.0033 345.333 54.0228 345.823 53.9448 346.351H48.8098C48.8011 346.737 48.8856 347.075 49.0633 347.365C49.2409 347.651 49.4944 347.874 49.8238 348.035C50.1574 348.195 50.5496 348.275 51.0003 348.275C51.3643 348.275 51.7153 348.221 52.0533 348.113C52.3956 348 52.7054 347.835 52.9828 347.619L53.5353 348.646C53.3273 348.815 53.0759 348.96 52.7813 349.081C52.4866 349.198 52.1789 349.287 51.8583 349.348C51.5376 349.413 51.2278 349.445 50.9288 349.445ZM48.8943 345.298H52.5408C52.5278 344.813 52.3718 344.432 52.0728 344.154C51.7781 343.877 51.3578 343.738 50.8118 343.738C50.2831 343.738 49.8433 343.877 49.4923 344.154C49.1456 344.432 48.9463 344.813 48.8943 345.298ZM59.7072 349.25L57.5752 345.831L59.5577 342.815H61.0852L59.1157 345.766L61.4167 349.25H59.7072ZM55.4302 349.25V342.815H56.8602V345.298H58.7972V346.481H56.8602V349.25H55.4302ZM64.4667 349.445C64.0204 349.445 63.6282 349.363 63.2902 349.198C62.9522 349.029 62.6879 348.793 62.4972 348.49C62.3109 348.182 62.2177 347.82 62.2177 347.404C62.2177 347.053 62.3066 346.737 62.4842 346.455C62.6619 346.169 62.9371 345.933 63.3097 345.747C63.6867 345.56 64.1699 345.437 64.7592 345.376C65.3486 345.311 66.0571 345.32 66.8847 345.402L66.9107 346.39C66.3214 346.308 65.8144 346.273 65.3897 346.286C64.9651 346.299 64.6162 346.353 64.3432 346.449C64.0746 346.54 63.8752 346.663 63.7452 346.819C63.6196 346.971 63.5567 347.146 63.5567 347.346C63.5567 347.658 63.6672 347.898 63.8882 348.067C64.1136 348.236 64.4212 348.321 64.8112 348.321C65.1449 348.321 65.4439 348.26 65.7082 348.139C65.9726 348.017 66.1806 347.846 66.3322 347.625C66.4882 347.404 66.5662 347.144 66.5662 346.845V345.136C66.5662 344.85 66.5056 344.603 66.3842 344.395C66.2629 344.182 66.0787 344.018 65.8317 343.901C65.5847 343.784 65.2771 343.725 64.9087 343.725C64.5707 343.725 64.2371 343.777 63.9077 343.881C63.5784 343.981 63.2642 344.139 62.9652 344.356L62.5622 343.303C62.9652 343.03 63.3856 342.837 63.8232 342.724C64.2609 342.612 64.6812 342.555 65.0842 342.555C65.6822 342.555 66.1936 342.651 66.6182 342.841C67.0472 343.028 67.3766 343.311 67.6062 343.693C67.8359 344.07 67.9507 344.546 67.9507 345.123V349.25H66.6637V348.49C66.4471 348.797 66.1459 349.034 65.7602 349.198C65.3746 349.363 64.9434 349.445 64.4667 349.445ZM70.0601 350.745L68.8641 350.277L73.5961 338.785L74.7856 339.253L70.0601 350.745ZM17.5347 365.25V358.815H18.9647V365.25H17.5347ZM18.2497 357.665C17.994 357.665 17.773 357.582 17.5867 357.418C17.4004 357.253 17.3072 357.036 17.3072 356.768C17.3072 356.503 17.4004 356.289 17.5867 356.124C17.773 355.955 17.994 355.871 18.2497 355.871C18.5054 355.871 18.7264 355.955 18.9127 356.124C19.099 356.289 19.1922 356.503 19.1922 356.768C19.1922 357.036 19.099 357.253 18.9127 357.418C18.7264 357.582 18.5054 357.665 18.2497 357.665ZM20.9497 365.25V358.815H22.3797V361.298H25.6037V358.815H27.0337V365.25H25.6037V362.481H22.3797V365.25H20.9497ZM32.261 367.98V355.89H33.691V367.98H32.261ZM32.963 365.419C32.0616 365.419 31.273 365.291 30.597 365.036C29.9253 364.776 29.4031 364.394 29.0305 363.892C28.6578 363.385 28.4715 362.765 28.4715 362.033C28.4715 361.296 28.6578 360.676 29.0305 360.174C29.4075 359.671 29.9361 359.292 30.6165 359.036C31.2968 358.776 32.0898 358.646 32.9955 358.646C33.9098 358.646 34.7028 358.774 35.3745 359.03C36.0505 359.285 36.5748 359.665 36.9475 360.167C37.3201 360.67 37.5065 361.292 37.5065 362.033C37.5065 362.583 37.3981 363.071 37.1815 363.495C36.9648 363.916 36.655 364.269 36.252 364.555C35.849 364.841 35.3701 365.057 34.8155 365.205C34.2608 365.348 33.6433 365.419 32.963 365.419ZM32.989 364.236C33.652 364.236 34.211 364.154 34.666 363.989C35.1253 363.825 35.4741 363.58 35.7125 363.255C35.9508 362.93 36.07 362.522 36.07 362.033C36.07 361.543 35.9465 361.136 35.6995 360.811C35.4568 360.481 35.1036 360.237 34.64 360.076C34.1806 359.912 33.6238 359.829 32.9695 359.829C32.3195 359.829 31.7648 359.912 31.3055 360.076C30.8461 360.237 30.4951 360.481 30.2525 360.811C30.0098 361.136 29.8885 361.543 29.8885 362.033C29.8885 362.522 30.0098 362.93 30.2525 363.255C30.4995 363.58 30.8526 363.825 31.312 363.989C31.7756 364.154 32.3346 364.236 32.989 364.236ZM38.939 367.98V358.815H40.226V359.719C40.4817 359.394 40.8088 359.129 41.2075 358.926C41.6062 358.722 42.098 358.62 42.683 358.62C43.3113 358.62 43.8682 358.77 44.3535 359.069C44.8432 359.363 45.2245 359.769 45.4975 360.284C45.7705 360.796 45.907 361.378 45.907 362.033C45.907 362.505 45.829 362.949 45.673 363.365C45.517 363.777 45.2938 364.139 45.0035 364.451C44.7175 364.763 44.3752 365.008 43.9765 365.185C43.5822 365.359 43.1445 365.445 42.6635 365.445C42.1608 365.445 41.7188 365.354 41.3375 365.172C40.9562 364.99 40.6312 364.745 40.3625 364.438V367.98H38.939ZM42.423 364.178C42.8217 364.178 43.1748 364.091 43.4825 363.918C43.7945 363.74 44.0372 363.491 44.2105 363.17C44.3882 362.85 44.477 362.47 44.477 362.033C44.477 361.595 44.3882 361.216 44.2105 360.895C44.0328 360.57 43.788 360.321 43.476 360.148C43.1683 359.974 42.8173 359.888 42.423 359.888C42.0243 359.888 41.669 359.974 41.357 360.148C41.0493 360.321 40.8067 360.57 40.629 360.895C40.4513 361.216 40.3625 361.595 40.3625 362.033C40.3625 362.47 40.4513 362.85 40.629 363.17C40.8067 363.491 41.0493 363.74 41.357 363.918C41.669 364.091 42.0243 364.178 42.423 364.178ZM49.1308 365.445C48.6845 365.445 48.2923 365.363 47.9543 365.198C47.6163 365.029 47.352 364.793 47.1613 364.49C46.975 364.182 46.8818 363.82 46.8818 363.404C46.8818 363.053 46.9706 362.737 47.1483 362.455C47.326 362.169 47.6011 361.933 47.9738 361.747C48.3508 361.56 48.834 361.437 49.4233 361.376C50.0126 361.311 50.7211 361.32 51.5488 361.402L51.5748 362.39C50.9855 362.308 50.4785 362.273 50.0538 362.286C49.6291 362.299 49.2803 362.353 49.0073 362.449C48.7386 362.54 48.5393 362.663 48.4093 362.819C48.2836 362.971 48.2208 363.146 48.2208 363.346C48.2208 363.658 48.3313 363.898 48.5523 364.067C48.7776 364.236 49.0853 364.321 49.4753 364.321C49.809 364.321 50.108 364.26 50.3723 364.139C50.6366 364.017 50.8446 363.846 50.9963 363.625C51.1523 363.404 51.2303 363.144 51.2303 362.845V361.136C51.2303 360.85 51.1696 360.603 51.0483 360.395C50.927 360.182 50.7428 360.018 50.4958 359.901C50.2488 359.784 49.9411 359.725 49.5728 359.725C49.2348 359.725 48.9011 359.777 48.5718 359.881C48.2425 359.981 47.9283 360.139 47.6293 360.356L47.2263 359.303C47.6293 359.03 48.0496 358.837 48.4873 358.724C48.925 358.612 49.3453 358.555 49.7483 358.555C50.3463 358.555 50.8576 358.651 51.2823 358.841C51.7113 359.028 52.0406 359.311 52.2703 359.693C52.5 360.07 52.6148 360.546 52.6148 361.123V365.25H51.3278V364.49C51.1111 364.797 50.81 365.034 50.4243 365.198C50.0386 365.363 49.6075 365.445 49.1308 365.445ZM57.4671 365.445C56.7911 365.445 56.1888 365.298 55.6601 365.003C55.1315 364.704 54.7155 364.299 54.4121 363.788C54.1131 363.272 53.9636 362.687 53.9636 362.033C53.9636 361.539 54.0525 361.086 54.2301 360.674C54.4078 360.258 54.6591 359.896 54.9841 359.589C55.3091 359.281 55.6905 359.043 56.1281 358.874C56.5701 358.705 57.049 358.62 57.5646 358.62C57.998 358.62 58.3988 358.679 58.7671 358.796C59.1398 358.908 59.4821 359.084 59.7941 359.322L59.1051 360.414C58.9058 360.237 58.6761 360.104 58.4161 360.018C58.1605 359.931 57.8875 359.888 57.5971 359.888C57.1465 359.888 56.7586 359.972 56.4336 360.141C56.1086 360.31 55.8551 360.555 55.6731 360.876C55.4955 361.192 55.4066 361.576 55.4066 362.026C55.4066 362.698 55.6016 363.224 55.9916 363.606C56.386 363.987 56.9211 364.178 57.5971 364.178C57.9178 364.178 58.2211 364.119 58.5071 364.002C58.7931 363.881 59.0315 363.723 59.2221 363.528L59.9046 364.613C59.5623 364.873 59.181 365.077 58.7606 365.224C58.3403 365.372 57.9091 365.445 57.4671 365.445ZM62.6558 365.25V359.998H60.5433V358.815H66.2048V359.998H64.0858V365.25H62.6558ZM67.5161 367.98V358.815H68.8031V359.719C69.0588 359.394 69.386 359.129 69.7846 358.926C70.1833 358.722 70.6751 358.62 71.2601 358.62C71.8885 358.62 72.4453 358.77 72.9306 359.069C73.4203 359.363 73.8016 359.769 74.0746 360.284C74.3476 360.796 74.4841 361.378 74.4841 362.033C74.4841 362.505 74.4061 362.949 74.2501 363.365C74.0941 363.777 73.871 364.139 73.5806 364.451C73.2946 364.763 72.9523 365.008 72.5536 365.185C72.1593 365.359 71.7216 365.445 71.2406 365.445C70.738 365.445 70.296 365.354 69.9146 365.172C69.5333 364.99 69.2083 364.745 68.9396 364.438V367.98H67.5161ZM71.0001 364.178C71.3988 364.178 71.752 364.091 72.0596 363.918C72.3716 363.74 72.6143 363.491 72.7876 363.17C72.9653 362.85 73.0541 362.47 73.0541 362.033C73.0541 361.595 72.9653 361.216 72.7876 360.895C72.61 360.57 72.3651 360.321 72.0531 360.148C71.7455 359.974 71.3945 359.888 71.0001 359.888C70.6015 359.888 70.2461 359.974 69.9341 360.148C69.6265 360.321 69.3838 360.57 69.2061 360.895C69.0285 361.216 68.9396 361.595 68.9396 362.033C68.9396 362.47 69.0285 362.85 69.2061 363.17C69.3838 363.491 69.6265 363.74 69.9341 363.918C70.2461 364.091 70.6015 364.178 71.0001 364.178ZM76.4095 368.162C76.1755 368.162 75.9458 368.136 75.7205 368.084C75.4951 368.032 75.2741 367.943 75.0575 367.818L75.3825 366.596C75.5168 366.682 75.6641 366.747 75.8245 366.791C75.9848 366.834 76.1278 366.856 76.2535 366.856C76.5568 366.856 76.7951 366.784 76.9685 366.641C77.1418 366.498 77.2783 366.277 77.378 365.978L77.5925 365.354L75.0575 358.815H76.624L78.405 363.807L80.1405 358.815H81.655L78.873 366.18C78.6736 366.695 78.4505 367.096 78.2035 367.382C77.9565 367.673 77.6835 367.874 77.3845 367.987C77.0855 368.104 76.7605 368.162 76.4095 368.162ZM87.0529 365.25L84.9209 361.831L86.9034 358.815H88.4309L86.4614 361.766L88.7624 365.25H87.0529ZM82.7759 365.25V358.815H84.2059V361.298H86.1429V362.481H84.2059V365.25H82.7759ZM91.4614 365.25V359.998H89.3489V358.815H95.0104V359.998H92.8914V365.25H91.4614ZM97.0647 368.162C96.8307 368.162 96.6011 368.136 96.3757 368.084C96.1504 368.032 95.9294 367.943 95.7127 367.818L96.0377 366.596C96.1721 366.682 96.3194 366.747 96.4797 366.791C96.6401 366.834 96.7831 366.856 96.9087 366.856C97.2121 366.856 97.4504 366.784 97.6237 366.641C97.7971 366.498 97.9336 366.277 98.0332 365.978L98.2477 365.354L95.7127 358.815H97.2792L99.0602 363.807L100.796 358.815H102.31L99.5282 366.18C99.3289 366.695 99.1057 367.096 98.8587 367.382C98.6117 367.673 98.3387 367.874 98.0397 367.987C97.7407 368.104 97.4157 368.162 97.0647 368.162ZM103.431 367.98V358.815H104.718V359.719C104.974 359.394 105.301 359.129 105.7 358.926C106.098 358.722 106.59 358.62 107.175 358.62C107.804 358.62 108.36 358.77 108.846 359.069C109.335 359.363 109.717 359.769 109.99 360.284C110.263 360.796 110.399 361.378 110.399 362.033C110.399 362.505 110.321 362.949 110.165 363.365C110.009 363.777 109.786 364.139 109.496 364.451C109.21 364.763 108.867 365.008 108.469 365.185C108.074 365.359 107.637 365.445 107.156 365.445C106.653 365.445 106.211 365.354 105.83 365.172C105.448 364.99 105.123 364.745 104.855 364.438V367.98H103.431ZM106.915 364.178C107.314 364.178 107.667 364.091 107.975 363.918C108.287 363.74 108.529 363.491 108.703 363.17C108.88 362.85 108.969 362.47 108.969 362.033C108.969 361.595 108.88 361.216 108.703 360.895C108.525 360.57 108.28 360.321 107.968 360.148C107.661 359.974 107.31 359.888 106.915 359.888C106.517 359.888 106.161 359.974 105.849 360.148C105.542 360.321 105.299 360.57 105.121 360.895C104.944 361.216 104.855 361.595 104.855 362.033C104.855 362.47 104.944 362.85 105.121 363.17C105.299 363.491 105.542 363.74 105.849 363.918C106.161 364.091 106.517 364.178 106.915 364.178ZM113.623 365.445C113.177 365.445 112.784 365.363 112.446 365.198C112.108 365.029 111.844 364.793 111.653 364.49C111.467 364.182 111.374 363.82 111.374 363.404C111.374 363.053 111.463 362.737 111.64 362.455C111.818 362.169 112.093 361.933 112.466 361.747C112.843 361.56 113.326 361.437 113.915 361.376C114.505 361.311 115.213 361.32 116.041 361.402L116.067 362.39C115.478 362.308 114.971 362.273 114.546 362.286C114.121 362.299 113.772 362.353 113.499 362.449C113.231 362.54 113.031 362.663 112.901 362.819C112.776 362.971 112.713 363.146 112.713 363.346C112.713 363.658 112.823 363.898 113.044 364.067C113.27 364.236 113.577 364.321 113.967 364.321C114.301 364.321 114.6 364.26 114.864 364.139C115.129 364.017 115.337 363.846 115.488 363.625C115.644 363.404 115.722 363.144 115.722 362.845V361.136C115.722 360.85 115.662 360.603 115.54 360.395C115.419 360.182 115.235 360.018 114.988 359.901C114.741 359.784 114.433 359.725 114.065 359.725C113.727 359.725 113.393 359.777 113.064 359.881C112.735 359.981 112.42 360.139 112.121 360.356L111.718 359.303C112.121 359.03 112.542 358.837 112.979 358.724C113.417 358.612 113.837 358.555 114.24 358.555C114.838 358.555 115.35 358.651 115.774 358.841C116.203 359.028 116.533 359.311 116.762 359.693C116.992 360.07 117.107 360.546 117.107 361.123V365.25H115.82V364.49C115.603 364.797 115.302 365.034 114.916 365.198C114.531 365.363 114.1 365.445 113.623 365.445Z" fill="white"/>
<path fill-rule="evenodd" clip-rule="evenodd" d="M200.351 419.24L214.961 406.512L204.944 421.01C207.666 422.898 209.449 426.046 209.449 429.61V437.275C209.449 443.05 204.767 447.732 198.992 447.732H72.0632C66.288 447.732 61.6062 443.05 61.6062 437.275V429.61C61.6062 423.834 66.288 419.153 72.0632 419.153H198.992C199.453 419.153 199.906 419.182 200.351 419.24Z" fill="#140D83"/>
<path d="M74.3321 437.736V428.636H75.7426L79.4541 434.675L78.8886 434.681L82.4636 428.636H83.8481V437.736H82.4246L82.4441 430.573L82.7236 430.671L79.6296 435.773H78.5636L75.4111 430.671L75.6451 430.573L75.6646 437.736H74.3321ZM87.8139 437.931C87.3676 437.931 86.9754 437.849 86.6374 437.684C86.2994 437.515 86.0351 437.279 85.8444 436.976C85.6581 436.668 85.5649 436.306 85.5649 435.89C85.5649 435.539 85.6537 435.223 85.8314 434.941C86.0091 434.655 86.2842 434.419 86.6569 434.233C87.0339 434.046 87.5171 433.923 88.1064 433.862C88.6957 433.797 89.4042 433.806 90.2319 433.888L90.2579 434.876C89.6686 434.794 89.1616 434.759 88.7369 434.772C88.3122 434.785 87.9634 434.839 87.6904 434.935C87.4217 435.026 87.2224 435.149 87.0924 435.305C86.9667 435.457 86.9039 435.632 86.9039 435.832C86.9039 436.144 87.0144 436.384 87.2354 436.553C87.4607 436.722 87.7684 436.807 88.1584 436.807C88.4921 436.807 88.7911 436.746 89.0554 436.625C89.3197 436.503 89.5277 436.332 89.6794 436.111C89.8354 435.89 89.9134 435.63 89.9134 435.331V433.622C89.9134 433.336 89.8527 433.089 89.7314 432.881C89.6101 432.668 89.4259 432.504 89.1789 432.387C88.9319 432.27 88.6242 432.211 88.2559 432.211C87.9179 432.211 87.5842 432.263 87.2549 432.367C86.9256 432.467 86.6114 432.625 86.3124 432.842L85.9094 431.789C86.3124 431.516 86.7327 431.323 87.1704 431.21C87.6081 431.097 88.0284 431.041 88.4314 431.041C89.0294 431.041 89.5407 431.136 89.9654 431.327C90.3944 431.513 90.7237 431.797 90.9534 432.179C91.1831 432.556 91.2979 433.032 91.2979 433.609V437.736H90.0109V436.976C89.7942 437.283 89.4931 437.519 89.1074 437.684C88.7217 437.849 88.2906 437.931 87.8139 437.931ZM93.1993 440.466V431.301H94.4863V432.205C94.7419 431.88 95.0691 431.615 95.4678 431.412C95.8664 431.208 96.3583 431.106 96.9433 431.106C97.5716 431.106 98.1284 431.256 98.6138 431.555C99.1034 431.849 99.4848 432.254 99.7578 432.77C100.031 433.281 100.167 433.864 100.167 434.519C100.167 434.991 100.089 435.435 99.9333 435.851C99.7773 436.263 99.5541 436.625 99.2638 436.937C98.9778 437.249 98.6354 437.493 98.2368 437.671C97.8424 437.844 97.4048 437.931 96.9238 437.931C96.4211 437.931 95.9791 437.84 95.5978 437.658C95.2164 437.476 94.8914 437.231 94.6228 436.924V440.466H93.1993ZM96.6833 436.664C97.0819 436.664 97.4351 436.577 97.7428 436.404C98.0548 436.226 98.2974 435.977 98.4708 435.656C98.6484 435.335 98.7373 434.956 98.7373 434.519C98.7373 434.081 98.6484 433.702 98.4708 433.381C98.2931 433.056 98.0483 432.807 97.7363 432.634C97.4286 432.46 97.0776 432.374 96.6833 432.374C96.2846 432.374 95.9293 432.46 95.6173 432.634C95.3096 432.807 95.0669 433.056 94.8893 433.381C94.7116 433.702 94.6228 434.081 94.6228 434.519C94.6228 434.956 94.7116 435.335 94.8893 435.656C95.0669 435.977 95.3096 436.226 95.6173 436.404C95.9293 436.577 96.2846 436.664 96.6833 436.664ZM105.881 437.736L103.749 434.317L105.731 431.301H107.259L105.289 434.252L107.59 437.736H105.881ZM101.604 437.736V431.301H103.034V433.784H104.971V434.967H103.034V437.736H101.604ZM111.664 437.931C110.97 437.931 110.361 437.79 109.837 437.509C109.313 437.223 108.903 436.824 108.609 436.313C108.318 435.801 108.173 435.208 108.173 434.532C108.173 434.038 108.258 433.583 108.427 433.167C108.596 432.746 108.834 432.382 109.142 432.075C109.449 431.767 109.809 431.529 110.221 431.36C110.637 431.191 111.089 431.106 111.579 431.106C112.112 431.106 112.587 431.201 113.003 431.392C113.419 431.578 113.763 431.841 114.036 432.179C114.313 432.517 114.508 432.913 114.621 433.368C114.738 433.819 114.758 434.308 114.68 434.837H109.545C109.536 435.223 109.62 435.561 109.798 435.851C109.976 436.137 110.229 436.36 110.559 436.521C110.892 436.681 111.284 436.761 111.735 436.761C112.099 436.761 112.45 436.707 112.788 436.599C113.13 436.486 113.44 436.321 113.718 436.105L114.27 437.132C114.062 437.301 113.811 437.446 113.516 437.567C113.221 437.684 112.914 437.773 112.593 437.834C112.272 437.899 111.963 437.931 111.664 437.931ZM109.629 433.784H113.276C113.263 433.299 113.107 432.917 112.808 432.64C112.513 432.363 112.093 432.224 111.547 432.224C111.018 432.224 110.578 432.363 110.227 432.64C109.88 432.917 109.681 433.299 109.629 433.784ZM117.602 437.736V432.484H115.489V431.301H121.151V432.484H119.032V437.736H117.602ZM122.462 437.736V431.301H123.846V435.643L127.337 431.301H128.585V437.736H127.207V433.342L123.684 437.736H122.462ZM130.574 437.736V431.301H132.004V433.784H135.228V431.301H136.658V437.736H135.228V434.967H132.004V437.736H130.574ZM138.648 437.736V431.301H142.886V432.484H140.078V437.736H138.648ZM147.396 437.736V431.301H153.473V437.736H152.043V432.484H148.826V437.736H147.396ZM155.457 440.466V431.301H156.744V432.205C157 431.88 157.327 431.615 157.726 431.412C158.124 431.208 158.616 431.106 159.201 431.106C159.829 431.106 160.386 431.256 160.872 431.555C161.361 431.849 161.743 432.254 162.016 432.77C162.289 433.281 162.425 433.864 162.425 434.519C162.425 434.991 162.347 435.435 162.191 435.851C162.035 436.263 161.812 436.625 161.522 436.937C161.236 437.249 160.893 437.493 160.495 437.671C160.1 437.844 159.663 437.931 159.182 437.931C158.679 437.931 158.237 437.84 157.856 437.658C157.474 437.476 157.149 437.231 156.881 436.924V440.466H155.457ZM158.941 436.664C159.34 436.664 159.693 436.577 160.001 436.404C160.313 436.226 160.555 435.977 160.729 435.656C160.906 435.335 160.995 434.956 160.995 434.519C160.995 434.081 160.906 433.702 160.729 433.381C160.551 433.056 160.306 432.807 159.994 432.634C159.686 432.46 159.335 432.374 158.941 432.374C158.542 432.374 158.187 432.46 157.875 432.634C157.567 432.807 157.325 433.056 157.147 433.381C156.969 433.702 156.881 434.081 156.881 434.519C156.881 434.956 156.969 435.335 157.147 435.656C157.325 435.977 157.567 436.226 157.875 436.404C158.187 436.577 158.542 436.664 158.941 436.664ZM166.856 437.931C166.185 437.931 165.585 437.777 165.056 437.47C164.532 437.158 164.12 436.744 163.821 436.228C163.522 435.708 163.372 435.138 163.372 434.519C163.372 434.059 163.457 433.626 163.626 433.219C163.799 432.807 164.042 432.443 164.354 432.127C164.67 431.81 165.041 431.561 165.465 431.379C165.89 431.197 166.356 431.106 166.863 431.106C167.535 431.106 168.133 431.262 168.657 431.574C169.186 431.882 169.599 432.296 169.898 432.816C170.197 433.331 170.347 433.899 170.347 434.519C170.347 434.974 170.26 435.407 170.087 435.819C169.918 436.23 169.677 436.594 169.365 436.911C169.053 437.227 168.685 437.476 168.26 437.658C167.836 437.84 167.368 437.931 166.856 437.931ZM166.856 436.664C167.255 436.664 167.608 436.577 167.916 436.404C168.228 436.226 168.473 435.977 168.65 435.656C168.828 435.335 168.917 434.956 168.917 434.519C168.917 434.081 168.828 433.702 168.65 433.381C168.473 433.056 168.228 432.807 167.916 432.634C167.608 432.46 167.255 432.374 166.856 432.374C166.458 432.374 166.102 432.46 165.79 432.634C165.483 432.807 165.24 433.056 165.062 433.381C164.889 433.702 164.802 434.081 164.802 434.519C164.802 434.956 164.891 435.335 165.069 435.656C165.247 435.977 165.489 436.226 165.797 436.404C166.109 436.577 166.462 436.664 166.856 436.664ZM174.798 437.931C174.104 437.931 173.493 437.784 172.965 437.489C172.44 437.19 172.031 436.785 171.736 436.274C171.442 435.758 171.294 435.173 171.294 434.519C171.294 434.025 171.381 433.572 171.554 433.16C171.728 432.744 171.975 432.382 172.295 432.075C172.62 431.767 173.002 431.529 173.439 431.36C173.881 431.191 174.364 431.106 174.889 431.106C175.339 431.106 175.76 431.162 176.15 431.275C176.544 431.388 176.906 431.561 177.235 431.795L176.559 432.809C176.343 432.623 176.089 432.484 175.799 432.393C175.508 432.302 175.201 432.257 174.876 432.257C174.403 432.257 174 432.345 173.667 432.523C173.333 432.696 173.077 432.95 172.9 433.284C172.726 433.617 172.64 434.027 172.64 434.512C172.64 434.993 172.726 435.403 172.9 435.741C173.077 436.079 173.331 436.336 173.66 436.514C173.994 436.692 174.399 436.781 174.876 436.781C175.235 436.781 175.573 436.724 175.89 436.612C176.206 436.495 176.473 436.339 176.689 436.144L177.346 437.099C176.986 437.359 176.587 437.563 176.15 437.71C175.712 437.857 175.261 437.931 174.798 437.931ZM172.211 434.98V433.908H176.104V434.98H172.211ZM182.941 437.736L180.809 434.317L182.792 431.301H184.319L182.35 434.252L184.651 437.736H182.941ZM178.664 437.736V431.301H180.094V433.784H182.031V434.967H180.094V437.736H178.664ZM187.35 437.736V432.484H185.237V431.301H190.899V432.484H188.78V437.736H187.35ZM192.953 440.648C192.719 440.648 192.489 440.622 192.264 440.57C192.039 440.518 191.818 440.429 191.601 440.304L191.926 439.082C192.06 439.168 192.208 439.233 192.368 439.277C192.528 439.32 192.671 439.342 192.797 439.342C193.1 439.342 193.339 439.27 193.512 439.127C193.685 438.984 193.822 438.763 193.921 438.464L194.136 437.84L191.601 431.301H193.167L194.948 436.293L196.684 431.301H198.198L195.416 438.666C195.217 439.181 194.994 439.582 194.747 439.868C194.5 440.158 194.227 440.36 193.928 440.473C193.629 440.59 193.304 440.648 192.953 440.648Z" fill="white"/>
<path fill-rule="evenodd" clip-rule="evenodd" d="M313.809 472.076L327.876 459.821L318.278 473.711C321.122 475.58 323 478.799 323 482.457V490.543C323 496.318 318.318 501 312.543 501H180.457C174.682 501 170 496.318 170 490.543V482.457C170 476.682 174.682 472 180.457 472H312.543C312.972 472 313.394 472.026 313.809 472.076Z" fill="url(#paint7_linear_355_18484)"/>
<path d="M184.128 491.241C183.443 491.241 182.819 491.152 182.256 490.974C181.693 490.797 181.201 490.543 180.78 490.214L181.469 489.044C181.781 489.326 182.158 489.547 182.6 489.707C183.042 489.863 183.51 489.941 184.004 489.941C184.446 489.941 184.828 489.878 185.148 489.752C185.473 489.627 185.723 489.451 185.896 489.226C186.074 488.996 186.165 488.728 186.169 488.42C186.169 487.939 186.009 487.575 185.688 487.328C185.372 487.077 184.878 486.951 184.206 486.951H182.431V485.781H184.095C184.464 485.781 184.782 485.727 185.051 485.618C185.32 485.506 185.528 485.348 185.675 485.144C185.822 484.936 185.896 484.687 185.896 484.396C185.896 484.115 185.822 483.879 185.675 483.688C185.532 483.493 185.32 483.346 185.038 483.246C184.761 483.142 184.423 483.09 184.024 483.09C183.595 483.09 183.183 483.161 182.789 483.304C182.395 483.443 182.054 483.638 181.768 483.889L181.079 482.817C181.461 482.475 181.92 482.212 182.457 482.03C182.999 481.844 183.58 481.751 184.199 481.751C184.845 481.751 185.404 481.848 185.876 482.043C186.349 482.234 186.711 482.511 186.962 482.875C187.218 483.235 187.345 483.664 187.345 484.162C187.345 484.448 187.278 484.728 187.144 485.001C187.01 485.27 186.834 485.508 186.617 485.716C186.405 485.92 186.18 486.071 185.941 486.171C186.448 486.331 186.864 486.609 187.189 487.003C187.514 487.393 187.675 487.887 187.67 488.485C187.666 488.996 187.517 489.46 187.222 489.876C186.927 490.292 186.513 490.623 185.98 490.87C185.452 491.117 184.834 491.241 184.128 491.241ZM191.146 491.241C190.7 491.241 190.308 491.159 189.97 490.994C189.632 490.825 189.367 490.589 189.177 490.285C188.99 489.978 188.897 489.616 188.897 489.2C188.897 488.849 188.986 488.533 189.164 488.251C189.341 487.965 189.616 487.729 189.989 487.542C190.366 487.356 190.849 487.233 191.439 487.172C192.028 487.107 192.736 487.116 193.564 487.198L193.59 488.186C193.001 488.104 192.494 488.069 192.069 488.082C191.644 488.095 191.296 488.149 191.023 488.244C190.754 488.335 190.555 488.459 190.425 488.615C190.299 488.767 190.236 488.942 190.236 489.141C190.236 489.453 190.347 489.694 190.568 489.863C190.793 490.032 191.101 490.116 191.491 490.116C191.824 490.116 192.123 490.056 192.388 489.934C192.652 489.813 192.86 489.642 193.012 489.421C193.168 489.2 193.246 488.94 193.246 488.641V486.931C193.246 486.645 193.185 486.398 193.064 486.19C192.942 485.978 192.758 485.813 192.511 485.696C192.264 485.579 191.956 485.521 191.588 485.521C191.25 485.521 190.916 485.573 190.587 485.677C190.258 485.777 189.944 485.935 189.645 486.151L189.242 485.098C189.645 484.825 190.065 484.633 190.503 484.52C190.94 484.407 191.361 484.351 191.764 484.351C192.362 484.351 192.873 484.446 193.298 484.637C193.727 484.823 194.056 485.107 194.286 485.488C194.515 485.865 194.63 486.342 194.63 486.918V491.046H193.343V490.285C193.126 490.593 192.825 490.829 192.44 490.994C192.054 491.159 191.623 491.241 191.146 491.241ZM195.732 491.052L198.059 487.815L195.868 484.611H197.669L199.04 486.788L200.366 484.611H202.121L199.996 487.776L202.303 491.046H200.47L198.988 488.784L197.487 491.033L195.732 491.052ZM203.501 491.046V484.611H204.886V488.953L208.376 484.611H209.624V491.046H208.246V486.652L204.723 491.046H203.501ZM214.564 491.241C213.888 491.241 213.286 491.094 212.757 490.799C212.229 490.5 211.813 490.095 211.509 489.583C211.21 489.068 211.061 488.483 211.061 487.828C211.061 487.334 211.15 486.882 211.327 486.47C211.505 486.054 211.756 485.692 212.081 485.384C212.406 485.077 212.788 484.838 213.225 484.669C213.667 484.5 214.146 484.416 214.662 484.416C215.095 484.416 215.496 484.474 215.864 484.591C216.237 484.704 216.579 484.88 216.891 485.118L216.202 486.21C216.003 486.032 215.773 485.9 215.513 485.813C215.258 485.727 214.985 485.683 214.694 485.683C214.244 485.683 213.856 485.768 213.531 485.937C213.206 486.106 212.952 486.351 212.77 486.671C212.593 486.988 212.504 487.371 212.504 487.822C212.504 488.494 212.699 489.02 213.089 489.401C213.483 489.783 214.018 489.973 214.694 489.973C215.015 489.973 215.318 489.915 215.604 489.798C215.89 489.677 216.129 489.518 216.319 489.323L217.002 490.409C216.66 490.669 216.278 490.873 215.858 491.02C215.438 491.167 215.006 491.241 214.564 491.241ZM218.317 491.046V484.611H219.747V487.094H222.971V484.611H224.401V491.046H222.971V488.277H219.747V491.046H218.317ZM226.391 491.046V484.611H227.775V488.953L231.266 484.611H232.514V491.046H231.136V486.652L227.613 491.046H226.391ZM238.78 491.046L236.648 487.627L238.631 484.611H240.158L238.189 487.562L240.49 491.046H238.78ZM234.503 491.046V484.611H235.933V487.094H237.87V488.277H235.933V491.046H234.503ZM243.54 491.241C243.093 491.241 242.701 491.159 242.363 490.994C242.025 490.825 241.761 490.589 241.57 490.285C241.384 489.978 241.291 489.616 241.291 489.2C241.291 488.849 241.379 488.533 241.557 488.251C241.735 487.965 242.01 487.729 242.383 487.542C242.76 487.356 243.243 487.233 243.832 487.172C244.421 487.107 245.13 487.116 245.958 487.198L245.984 488.186C245.394 488.104 244.887 488.069 244.463 488.082C244.038 488.095 243.689 488.149 243.416 488.244C243.147 488.335 242.948 488.459 242.818 488.615C242.692 488.767 242.63 488.942 242.63 489.141C242.63 489.453 242.74 489.694 242.961 489.863C243.186 490.032 243.494 490.116 243.884 490.116C244.218 490.116 244.517 490.056 244.781 489.934C245.045 489.813 245.253 489.642 245.405 489.421C245.561 489.2 245.639 488.94 245.639 488.641V486.931C245.639 486.645 245.578 486.398 245.457 486.19C245.336 485.978 245.152 485.813 244.905 485.696C244.658 485.579 244.35 485.521 243.982 485.521C243.644 485.521 243.31 485.573 242.981 485.677C242.651 485.777 242.337 485.935 242.038 486.151L241.635 485.098C242.038 484.825 242.458 484.633 242.896 484.52C243.334 484.407 243.754 484.351 244.157 484.351C244.755 484.351 245.266 484.446 245.691 484.637C246.12 484.823 246.449 485.107 246.679 485.488C246.909 485.865 247.024 486.342 247.024 486.918V491.046H245.737V490.285C245.52 490.593 245.219 490.829 244.833 490.994C244.447 491.159 244.016 491.241 243.54 491.241ZM248.925 491.046V484.611H250.166H250.205L253.091 488.784L252.474 488.797L255.217 484.611H256.484V491.046H255.184L255.204 486.288L255.47 486.405L253.169 489.765H252.246L249.841 486.398L250.108 486.281L250.127 491.046H248.925ZM262.048 491.202L261.476 489.863C261.979 489.742 262.432 489.562 262.835 489.323C263.242 489.085 263.613 488.769 263.946 488.374C264.28 487.98 264.588 487.493 264.869 486.912L267.294 481.946H268.977L266.228 487.367C265.925 487.965 265.619 488.485 265.311 488.927C265.004 489.365 264.683 489.735 264.349 490.038C264.016 490.342 263.658 490.587 263.277 490.773C262.9 490.959 262.49 491.102 262.048 491.202ZM264.668 488.186L261.203 481.946H262.978L265.643 486.899L264.668 488.186ZM273.73 491.046L271.598 487.627L273.581 484.611H275.108L273.139 487.562L275.44 491.046H273.73ZM269.453 491.046V484.611H270.883V487.094H272.82V488.277H270.883V491.046H269.453ZM276.702 493.776V484.611H277.989V485.514C278.245 485.189 278.572 484.925 278.971 484.721C279.369 484.518 279.861 484.416 280.446 484.416C281.075 484.416 281.631 484.565 282.117 484.864C282.606 485.159 282.988 485.564 283.261 486.08C283.534 486.591 283.67 487.174 283.67 487.828C283.67 488.301 283.592 488.745 283.436 489.161C283.28 489.573 283.057 489.934 282.767 490.246C282.481 490.558 282.138 490.803 281.74 490.981C281.345 491.154 280.908 491.241 280.427 491.241C279.924 491.241 279.482 491.15 279.101 490.968C278.719 490.786 278.394 490.541 278.126 490.233V493.776H276.702ZM280.186 489.973C280.585 489.973 280.938 489.887 281.246 489.713C281.558 489.536 281.8 489.287 281.974 488.966C282.151 488.645 282.24 488.266 282.24 487.828C282.24 487.391 282.151 487.012 281.974 486.691C281.796 486.366 281.551 486.117 281.239 485.943C280.932 485.77 280.581 485.683 280.186 485.683C279.788 485.683 279.432 485.77 279.12 485.943C278.813 486.117 278.57 486.366 278.392 486.691C278.215 487.012 278.126 487.391 278.126 487.828C278.126 488.266 278.215 488.645 278.392 488.966C278.57 489.287 278.813 489.536 279.12 489.713C279.432 489.887 279.788 489.973 280.186 489.973ZM286.894 491.241C286.448 491.241 286.056 491.159 285.718 490.994C285.38 490.825 285.115 490.589 284.925 490.285C284.738 489.978 284.645 489.616 284.645 489.2C284.645 488.849 284.734 488.533 284.912 488.251C285.089 487.965 285.364 487.729 285.737 487.542C286.114 487.356 286.597 487.233 287.187 487.172C287.776 487.107 288.484 487.116 289.312 487.198L289.338 488.186C288.749 488.104 288.242 488.069 287.817 488.082C287.392 488.095 287.044 488.149 286.771 488.244C286.502 488.335 286.303 488.459 286.173 488.615C286.047 488.767 285.984 488.942 285.984 489.141C285.984 489.453 286.095 489.694 286.316 489.863C286.541 490.032 286.849 490.116 287.239 490.116C287.572 490.116 287.871 490.056 288.136 489.934C288.4 489.813 288.608 489.642 288.76 489.421C288.916 489.2 288.994 488.94 288.994 488.641V486.931C288.994 486.645 288.933 486.398 288.812 486.19C288.69 485.978 288.506 485.813 288.259 485.696C288.012 485.579 287.704 485.521 287.336 485.521C286.998 485.521 286.664 485.573 286.335 485.677C286.006 485.777 285.692 485.935 285.393 486.151L284.99 485.098C285.393 484.825 285.813 484.633 286.251 484.52C286.688 484.407 287.109 484.351 287.512 484.351C288.11 484.351 288.621 484.446 289.046 484.637C289.475 484.823 289.804 485.107 290.034 485.488C290.263 485.865 290.378 486.342 290.378 486.918V491.046H289.091V490.285C288.874 490.593 288.573 490.829 288.188 490.994C287.802 491.159 287.371 491.241 286.894 491.241ZM292.279 491.046V484.611H293.709V491.046H292.279ZM291.896 483.473C291.653 483.473 291.45 483.391 291.285 483.226C291.12 483.062 291.038 482.852 291.038 482.596C291.038 482.336 291.12 482.124 291.285 481.959C291.45 481.794 291.653 481.712 291.896 481.712C292.13 481.712 292.329 481.794 292.494 481.959C292.659 482.124 292.741 482.336 292.741 482.596C292.741 482.852 292.659 483.062 292.494 483.226C292.329 483.391 292.13 483.473 291.896 483.473ZM294.099 483.473C293.861 483.473 293.66 483.391 293.495 483.226C293.33 483.062 293.248 482.852 293.248 482.596C293.248 482.336 293.33 482.124 293.495 481.959C293.66 481.794 293.861 481.712 294.099 481.712C294.338 481.712 294.539 481.794 294.704 481.959C294.869 482.124 294.951 482.336 294.951 482.596C294.951 482.852 294.869 483.062 294.704 483.226C294.539 483.391 294.338 483.473 294.099 483.473ZM295.695 491.046V484.611H297.125V487.094H300.349V484.611H301.779V491.046H300.349V488.277H297.125V491.046H295.695ZM303.769 491.046V484.611H305.153V488.953L308.644 484.611H309.892V491.046H308.514V486.652L304.991 491.046H303.769Z" fill="white"/>
<defs>
<linearGradient id="paint0_linear_355_18484" x1="146.406" y1="117.769" x2="566.733" y2="141.702" gradientUnits="userSpaceOnUse">
<stop stop-color="#544CF9"/>
<stop offset="0.52" stop-color="#8B86FF"/>
<stop offset="1" stop-color="#5D56FF"/>
</linearGradient>
<linearGradient id="paint1_linear_355_18484" x1="146.985" y1="394.609" x2="313.03" y2="7.72831" gradientUnits="userSpaceOnUse">
<stop stop-color="#544CF9"/>
<stop offset="0.52" stop-color="#8B86FF"/>
<stop offset="1" stop-color="#5D56FF"/>
</linearGradient>
<linearGradient id="paint2_linear_355_18484" x1="160.811" y1="103.673" x2="576.78" y2="168.616" gradientUnits="userSpaceOnUse">
<stop stop-color="#544CF9"/>
<stop offset="0.52" stop-color="#8B86FF"/>
<stop offset="1" stop-color="#5D56FF"/>
</linearGradient>
<linearGradient id="paint3_linear_355_18484" x1="320.196" y1="282.85" x2="275.953" y2="454.876" gradientUnits="userSpaceOnUse">
<stop stop-color="#FFE70C"/>
<stop offset="1" stop-color="#227AFF"/>
</linearGradient>
<linearGradient id="paint4_linear_355_18484" x1="261.287" y1="34.4352" x2="590.102" y2="297.358" gradientUnits="userSpaceOnUse">
<stop stop-color="#544CF9"/>
<stop offset="0.52" stop-color="#8B86FF"/>
<stop offset="1" stop-color="#5D56FF"/>
</linearGradient>
<linearGradient id="paint5_linear_355_18484" x1="384.165" y1="24.4611" x2="536.868" y2="416.8" gradientUnits="userSpaceOnUse">
<stop stop-color="#544CF9"/>
<stop offset="0.52" stop-color="#8B86FF"/>
<stop offset="1" stop-color="#5D56FF"/>
</linearGradient>
<linearGradient id="paint6_linear_355_18484" x1="497.305" y1="78.9984" x2="428.545" y2="494.354" gradientUnits="userSpaceOnUse">
<stop stop-color="#544CF9"/>
<stop offset="0.52" stop-color="#8B86FF"/>
<stop offset="1" stop-color="#5D56FF"/>
</linearGradient>
<linearGradient id="paint7_linear_355_18484" x1="158.887" y1="480.431" x2="327.875" y2="480.431" gradientUnits="userSpaceOnUse">
<stop stop-color="#2943DE"/>
<stop offset="1" stop-color="#FFE70C"/>
</linearGradient>
</defs>
</svg>
