<svg width="638" height="554" viewBox="0 0 638 554" fill="none" xmlns="http://www.w3.org/2000/svg">
<mask id="path-1-inside-1_355_18798" fill="white">
<path d="M548.984 210.83C538.138 158.295 507.804 111.816 464.081 80.7389C420.358 49.6619 366.489 36.2927 313.31 43.3198C260.13 50.347 211.583 77.2494 177.433 118.617C143.282 159.984 126.062 212.747 129.234 266.295L341.115 253.743L548.984 210.83Z"/>
</mask>
<path d="M548.984 210.83C538.138 158.295 507.804 111.816 464.081 80.7389C420.358 49.6619 366.489 36.2927 313.31 43.3198C260.13 50.347 211.583 77.2494 177.433 118.617C143.282 159.984 126.062 212.747 129.234 266.295L341.115 253.743L548.984 210.83Z" fill="#4BE05A" stroke="url(#paint0_linear_355_18798)" stroke-width="1.04816" mask="url(#path-1-inside-1_355_18798)"/>
<mask id="path-2-inside-2_355_18798" fill="white">
<path d="M473.023 424.464C503.47 400.361 526.721 368.368 540.245 331.966C553.769 295.564 557.048 256.15 549.724 218.015L341.281 258.046L473.023 424.464Z"/>
</mask>
<path d="M473.023 424.464C503.47 400.361 526.721 368.368 540.245 331.966C553.769 295.564 557.048 256.15 549.724 218.015L341.281 258.046L473.023 424.464Z" fill="#05E9F0" stroke="url(#paint1_linear_355_18798)" stroke-width="1.04816" mask="url(#path-2-inside-2_355_18798)"/>
<mask id="path-3-inside-3_355_18798" fill="white">
<path d="M361.459 469.336C397.409 465.903 431.888 453.355 461.634 432.878L341.282 258.045L361.459 469.336Z"/>
</mask>
<path d="M361.459 469.336C397.409 465.903 431.888 453.355 461.634 432.878L341.282 258.045L361.459 469.336Z" fill="#2943DE" stroke="url(#paint2_linear_355_18798)" stroke-width="1.04816" mask="url(#path-3-inside-3_355_18798)"/>
<mask id="path-4-inside-4_355_18798" fill="white">
<path d="M253.878 451.465C285.044 465.549 319.153 471.893 353.299 469.957L341.282 258.045L253.878 451.465Z"/>
</mask>
<path d="M253.878 451.465C285.044 465.549 319.153 471.893 353.299 469.957L341.282 258.045L253.878 451.465Z" fill="url(#paint3_linear_355_18798)" stroke="url(#paint4_linear_355_18798)" stroke-width="1.04816" mask="url(#path-4-inside-4_355_18798)"/>
<mask id="path-5-inside-5_355_18798" fill="white">
<path d="M168.689 381.587C188.236 408.895 213.984 431.176 243.818 446.597L341.282 258.045L168.689 381.587Z"/>
</mask>
<path d="M168.689 381.587C188.236 408.895 213.984 431.176 243.818 446.597L341.282 258.045L168.689 381.587Z" fill="#8B86FF" stroke="url(#paint5_linear_355_18798)" stroke-width="1.04816" mask="url(#path-5-inside-5_355_18798)"/>
<mask id="path-6-inside-6_355_18798" fill="white">
<path d="M129.814 276.28C132.776 310.621 144.056 343.724 162.68 372.728L341.282 258.044L129.814 276.28Z"/>
</mask>
<path d="M129.814 276.28C132.776 310.621 144.056 343.724 162.68 372.728L341.282 258.044L129.814 276.28Z" fill="#544CF9" stroke="url(#paint6_linear_355_18798)" stroke-width="1.04816" mask="url(#path-6-inside-6_355_18798)"/>
<path d="M296.399 172.593V170.393L307.399 159.393H309.599V170.393H311.799V172.593H309.599V174.793H307.399V172.593H296.399ZM307.399 170.393V162.495L299.501 170.393H307.399ZM326.534 170.393V163.793C326.534 162.583 325.544 161.593 324.334 161.593H317.734C316.524 161.593 315.534 162.583 315.534 163.793V170.393C315.534 171.603 316.524 172.593 317.734 172.593H324.334C325.544 172.593 326.534 171.603 326.534 170.393ZM328.734 163.793V170.393C328.734 172.725 326.798 174.793 324.334 174.793H317.734C315.38 174.793 313.334 172.879 313.334 170.393V163.793C313.334 161.461 315.27 159.393 317.734 159.393H324.334C326.688 159.393 328.668 161.351 328.734 163.793ZM345.68 159.393V161.175L335.054 174.793H333.58V173.099L344.294 159.393H345.68ZM334.68 165.993C335.89 165.993 336.88 165.003 336.88 163.793C336.88 162.583 335.89 161.593 334.68 161.593C333.47 161.593 332.48 162.583 332.48 163.793C332.48 165.003 333.47 165.993 334.68 165.993ZM339.08 163.793C339.08 166.125 337.144 168.193 334.68 168.193C332.326 168.193 330.28 166.279 330.28 163.793C330.28 161.461 332.216 159.393 334.68 159.393C337.034 159.393 339.014 161.351 339.08 163.793ZM344.58 172.593C345.79 172.593 346.78 171.603 346.78 170.393C346.78 169.183 345.79 168.193 344.58 168.193C343.37 168.193 342.38 169.183 342.38 170.393C342.38 171.603 343.37 172.593 344.58 172.593ZM348.98 170.393C348.98 172.725 347.044 174.793 344.58 174.793C342.226 174.793 340.18 172.879 340.18 170.393C340.18 168.061 342.116 165.993 344.58 165.993C346.934 165.993 348.914 167.951 348.98 170.393Z" fill="#1C195B"/>
<path d="M442.814 301.75V302.85H456.014V305.05H440.614V301.75C440.614 299.418 442.55 297.35 445.014 297.35H451.614C452.824 297.35 453.814 296.36 453.814 295.15V294.05C453.814 292.84 452.824 291.85 451.614 291.85H445.014C443.804 291.85 442.814 292.84 442.814 294.05H440.614C440.614 291.718 442.55 289.65 445.014 289.65H451.614C453.924 289.65 456.014 291.608 456.014 294.05V295.15C456.014 297.482 454.078 299.55 451.614 299.55H445.014C443.804 299.55 442.814 300.54 442.814 301.75ZM470.98 300.65V294.05C470.98 292.84 469.99 291.85 468.78 291.85H462.18C460.97 291.85 459.98 292.84 459.98 294.05V300.65C459.98 301.86 460.97 302.85 462.18 302.85H468.78C469.99 302.85 470.98 301.86 470.98 300.65ZM473.18 294.05V300.65C473.18 302.982 471.244 305.05 468.78 305.05H462.18C459.826 305.05 457.78 303.136 457.78 300.65V294.05C457.78 291.718 459.716 289.65 462.18 289.65H468.78C471.134 289.65 473.114 291.608 473.18 294.05ZM490.126 289.65V291.432L479.5 305.05H478.026V303.356L488.74 289.65H490.126ZM479.126 296.25C480.336 296.25 481.326 295.26 481.326 294.05C481.326 292.84 480.336 291.85 479.126 291.85C477.916 291.85 476.926 292.84 476.926 294.05C476.926 295.26 477.916 296.25 479.126 296.25ZM483.526 294.05C483.526 296.382 481.59 298.45 479.126 298.45C476.772 298.45 474.726 296.536 474.726 294.05C474.726 291.718 476.662 289.65 479.126 289.65C481.48 289.65 483.46 291.608 483.526 294.05ZM489.026 302.85C490.236 302.85 491.226 301.86 491.226 300.65C491.226 299.44 490.236 298.45 489.026 298.45C487.816 298.45 486.826 299.44 486.826 300.65C486.826 301.86 487.816 302.85 489.026 302.85ZM493.426 300.65C493.426 302.982 491.49 305.05 489.026 305.05C486.672 305.05 484.626 303.136 484.626 300.65C484.626 298.318 486.562 296.25 489.026 296.25C491.38 296.25 493.36 298.208 493.426 300.65Z" fill="#28368B"/>
<path d="M368.464 378.787L372.064 375.187H373.864V387.787H372.064V377.725L369.202 380.587H368.464V378.787ZM386.291 384.187V378.787C386.291 377.797 385.481 376.987 384.491 376.987H379.091C378.101 376.987 377.291 377.797 377.291 378.787V384.187C377.291 385.177 378.101 385.987 379.091 385.987H384.491C385.481 385.987 386.291 385.177 386.291 384.187ZM388.091 378.787V384.187C388.091 386.095 386.507 387.787 384.491 387.787H379.091C377.165 387.787 375.491 386.221 375.491 384.187V378.787C375.491 376.879 377.075 375.187 379.091 375.187H384.491C386.417 375.187 388.037 376.789 388.091 378.787ZM401.956 375.187V376.645L393.262 387.787H392.056V386.401L400.822 375.187H401.956ZM392.956 380.587C393.946 380.587 394.756 379.777 394.756 378.787C394.756 377.797 393.946 376.987 392.956 376.987C391.966 376.987 391.156 377.797 391.156 378.787C391.156 379.777 391.966 380.587 392.956 380.587ZM396.556 378.787C396.556 380.695 394.972 382.387 392.956 382.387C391.03 382.387 389.356 380.821 389.356 378.787C389.356 376.879 390.94 375.187 392.956 375.187C394.882 375.187 396.502 376.789 396.556 378.787ZM401.056 385.987C402.046 385.987 402.856 385.177 402.856 384.187C402.856 383.197 402.046 382.387 401.056 382.387C400.066 382.387 399.256 383.197 399.256 384.187C399.256 385.177 400.066 385.987 401.056 385.987ZM404.656 384.187C404.656 386.095 403.072 387.787 401.056 387.787C399.13 387.787 397.456 386.221 397.456 384.187C397.456 382.279 399.04 380.587 401.056 380.587C402.982 380.587 404.602 382.189 404.656 384.187Z" fill="white"/>
<path d="M226.669 366.694L230.269 363.094H232.069V375.694H230.269V365.632L227.407 368.494H226.669V366.694ZM244.495 372.094V366.694C244.495 365.704 243.685 364.894 242.695 364.894H237.295C236.305 364.894 235.495 365.704 235.495 366.694V372.094C235.495 373.084 236.305 373.894 237.295 373.894H242.695C243.685 373.894 244.495 373.084 244.495 372.094ZM246.295 366.694V372.094C246.295 374.002 244.711 375.694 242.695 375.694H237.295C235.369 375.694 233.695 374.128 233.695 372.094V366.694C233.695 364.786 235.279 363.094 237.295 363.094H242.695C244.621 363.094 246.241 364.696 246.295 366.694ZM260.16 363.094V364.552L251.466 375.694H250.26V374.308L259.026 363.094H260.16ZM251.16 368.494C252.15 368.494 252.96 367.684 252.96 366.694C252.96 365.704 252.15 364.894 251.16 364.894C250.17 364.894 249.36 365.704 249.36 366.694C249.36 367.684 250.17 368.494 251.16 368.494ZM254.76 366.694C254.76 368.602 253.176 370.294 251.16 370.294C249.234 370.294 247.56 368.728 247.56 366.694C247.56 364.786 249.144 363.094 251.16 363.094C253.086 363.094 254.706 364.696 254.76 366.694ZM259.26 373.894C260.25 373.894 261.06 373.084 261.06 372.094C261.06 371.104 260.25 370.294 259.26 370.294C258.27 370.294 257.46 371.104 257.46 372.094C257.46 373.084 258.27 373.894 259.26 373.894ZM262.86 372.094C262.86 374.002 261.276 375.694 259.26 375.694C257.334 375.694 255.66 374.128 255.66 372.094C255.66 370.186 257.244 368.494 259.26 368.494C261.186 368.494 262.806 370.096 262.86 372.094Z" fill="white"/>
<path d="M187.096 304.59L190.696 300.99H192.496V313.59H190.696V303.528L187.834 306.39H187.096V304.59ZM204.923 309.99V304.59C204.923 303.6 204.113 302.79 203.123 302.79H197.723C196.733 302.79 195.923 303.6 195.923 304.59V309.99C195.923 310.98 196.733 311.79 197.723 311.79H203.123C204.113 311.79 204.923 310.98 204.923 309.99ZM206.723 304.59V309.99C206.723 311.898 205.139 313.59 203.123 313.59H197.723C195.797 313.59 194.123 312.024 194.123 309.99V304.59C194.123 302.682 195.707 300.99 197.723 300.99H203.123C205.049 300.99 206.669 302.592 206.723 304.59ZM220.588 300.99V302.448L211.894 313.59H210.688V312.204L219.454 300.99H220.588ZM211.588 306.39C212.578 306.39 213.388 305.58 213.388 304.59C213.388 303.6 212.578 302.79 211.588 302.79C210.598 302.79 209.788 303.6 209.788 304.59C209.788 305.58 210.598 306.39 211.588 306.39ZM215.188 304.59C215.188 306.498 213.604 308.19 211.588 308.19C209.662 308.19 207.988 306.624 207.988 304.59C207.988 302.682 209.572 300.99 211.588 300.99C213.514 300.99 215.134 302.592 215.188 304.59ZM219.688 311.79C220.678 311.79 221.488 310.98 221.488 309.99C221.488 309 220.678 308.19 219.688 308.19C218.698 308.19 217.888 309 217.888 309.99C217.888 310.98 218.698 311.79 219.688 311.79ZM223.288 309.99C223.288 311.898 221.704 313.59 219.688 313.59C217.762 313.59 216.088 312.024 216.088 309.99C216.088 308.082 217.672 306.39 219.688 306.39C221.614 306.39 223.234 307.992 223.288 309.99Z" fill="white"/>
<path d="M295.919 411.763L299.519 408.163H301.319V420.763H299.519V410.701L296.657 413.563H295.919V411.763ZM313.745 417.163V411.763C313.745 410.773 312.935 409.963 311.945 409.963H306.545C305.555 409.963 304.745 410.773 304.745 411.763V417.163C304.745 418.153 305.555 418.963 306.545 418.963H311.945C312.935 418.963 313.745 418.153 313.745 417.163ZM315.545 411.763V417.163C315.545 419.071 313.961 420.763 311.945 420.763H306.545C304.619 420.763 302.945 419.197 302.945 417.163V411.763C302.945 409.855 304.529 408.163 306.545 408.163H311.945C313.871 408.163 315.491 409.765 315.545 411.763ZM329.41 408.163V409.621L320.716 420.763H319.51V419.377L328.276 408.163H329.41ZM320.41 413.563C321.4 413.563 322.21 412.753 322.21 411.763C322.21 410.773 321.4 409.963 320.41 409.963C319.42 409.963 318.61 410.773 318.61 411.763C318.61 412.753 319.42 413.563 320.41 413.563ZM324.01 411.763C324.01 413.671 322.426 415.363 320.41 415.363C318.484 415.363 316.81 413.797 316.81 411.763C316.81 409.855 318.394 408.163 320.41 408.163C322.336 408.163 323.956 409.765 324.01 411.763ZM328.51 418.963C329.5 418.963 330.31 418.153 330.31 417.163C330.31 416.173 329.5 415.363 328.51 415.363C327.52 415.363 326.71 416.173 326.71 417.163C326.71 418.153 327.52 418.963 328.51 418.963ZM332.11 417.163C332.11 419.071 330.526 420.763 328.51 420.763C326.584 420.763 324.91 419.197 324.91 417.163C324.91 415.255 326.494 413.563 328.51 413.563C330.436 413.563 332.056 415.165 332.11 417.163Z" fill="white"/>
<path fill-rule="evenodd" clip-rule="evenodd" d="M541.709 308.469L524.922 293.844L538.448 313.42C538.157 314.381 538 315.401 538 316.457V324.543C538 330.318 542.682 335 548.457 335H606.543C612.318 335 617 330.318 617 324.543V316.457C617 310.682 612.318 306 606.543 306H548.457C545.885 306 543.53 306.928 541.709 308.469Z" fill="#140D83"/>
<path d="M550.839 325.067V315.967H552.295V325.067H550.839ZM554.484 325.067V318.632H555.914V319.451C556.183 319.092 556.495 318.834 556.85 318.678C557.205 318.518 557.574 318.437 557.955 318.437C558.544 318.437 559.032 318.554 559.418 318.788C559.803 319.022 560.089 319.324 560.276 319.692C560.466 320.06 560.562 320.439 560.562 320.829V325.067H559.132V321.271C559.132 320.812 558.993 320.444 558.716 320.166C558.443 319.889 558.061 319.75 557.572 319.75C557.251 319.75 556.965 319.822 556.714 319.965C556.467 320.108 556.272 320.307 556.129 320.563C555.986 320.814 555.914 321.109 555.914 321.447V325.067H554.484ZM563.954 325.067L561.549 318.632H563.116L564.897 323.839H564.682L566.431 318.632H567.952L565.592 325.067H563.954ZM572.009 325.262C571.316 325.262 570.707 325.122 570.183 324.84C569.658 324.554 569.249 324.155 568.954 323.644C568.664 323.133 568.519 322.539 568.519 321.863C568.519 321.369 568.603 320.914 568.772 320.498C568.941 320.078 569.179 319.714 569.487 319.406C569.795 319.098 570.154 318.86 570.566 318.691C570.982 318.522 571.435 318.437 571.925 318.437C572.458 318.437 572.932 318.533 573.348 318.723C573.764 318.91 574.109 319.172 574.382 319.51C574.659 319.848 574.854 320.244 574.967 320.699C575.084 321.15 575.103 321.64 575.025 322.168H569.89C569.881 322.554 569.966 322.892 570.144 323.182C570.321 323.468 570.575 323.692 570.904 323.852C571.238 324.012 571.63 324.092 572.081 324.092C572.445 324.092 572.796 324.038 573.134 323.93C573.476 323.817 573.786 323.653 574.063 323.436L574.616 324.463C574.408 324.632 574.156 324.777 573.862 324.898C573.567 325.015 573.259 325.104 572.939 325.165C572.618 325.23 572.308 325.262 572.009 325.262ZM569.975 321.115H573.621C573.608 320.63 573.452 320.249 573.153 319.971C572.858 319.694 572.438 319.555 571.892 319.555C571.363 319.555 570.924 319.694 570.573 319.971C570.226 320.249 570.027 320.63 569.975 321.115ZM578.681 325.256C578.148 325.256 577.65 325.18 577.186 325.028C576.723 324.877 576.333 324.673 576.016 324.417L576.556 323.371C576.855 323.605 577.191 323.789 577.563 323.923C577.94 324.058 578.311 324.125 578.675 324.125C579.095 324.125 579.422 324.051 579.656 323.904C579.89 323.757 580.007 323.551 580.007 323.286C580.007 323.035 579.906 322.851 579.702 322.734C579.503 322.613 579.121 322.487 578.558 322.357C577.748 322.188 577.158 321.95 576.79 321.642C576.426 321.33 576.244 320.899 576.244 320.348C576.244 319.963 576.35 319.623 576.562 319.328C576.779 319.029 577.076 318.795 577.453 318.626C577.83 318.457 578.265 318.372 578.759 318.372C579.24 318.372 579.693 318.442 580.118 318.58C580.543 318.715 580.911 318.905 581.223 319.152L580.716 320.205C580.556 320.062 580.369 319.939 580.157 319.835C579.945 319.731 579.719 319.651 579.481 319.594C579.247 319.534 579.013 319.503 578.779 319.503C578.415 319.503 578.118 319.575 577.888 319.718C577.663 319.857 577.55 320.049 577.55 320.296C577.55 320.552 577.659 320.741 577.875 320.862C578.092 320.983 578.465 321.105 578.993 321.226C579.825 321.408 580.421 321.651 580.781 321.954C581.141 322.257 581.32 322.678 581.32 323.215C581.32 323.627 581.21 323.986 580.989 324.294C580.768 324.597 580.458 324.833 580.059 325.002C579.665 325.171 579.206 325.256 578.681 325.256ZM585.638 325.262C585.01 325.262 584.507 325.08 584.13 324.716C583.753 324.352 583.565 323.796 583.565 323.046V316.754H584.995V318.632H586.782V319.815H584.995V322.734C584.995 323.185 585.079 323.503 585.248 323.689C585.422 323.871 585.664 323.962 585.976 323.962C586.128 323.962 586.271 323.945 586.405 323.91C586.54 323.876 586.661 323.83 586.769 323.774L587.023 324.931C586.836 325.026 586.622 325.104 586.379 325.165C586.141 325.23 585.894 325.262 585.638 325.262ZM582.154 319.815V318.632H583.753V319.815H582.154ZM591.414 325.262C590.742 325.262 590.142 325.109 589.613 324.801C589.089 324.489 588.677 324.075 588.378 323.559C588.079 323.039 587.93 322.47 587.93 321.85C587.93 321.391 588.014 320.957 588.183 320.55C588.357 320.138 588.599 319.774 588.911 319.458C589.228 319.142 589.598 318.892 590.023 318.71C590.447 318.528 590.913 318.437 591.42 318.437C592.092 318.437 592.69 318.593 593.214 318.905C593.743 319.213 594.157 319.627 594.456 320.147C594.755 320.663 594.904 321.23 594.904 321.85C594.904 322.305 594.818 322.738 594.644 323.15C594.475 323.562 594.235 323.926 593.923 324.242C593.611 324.558 593.242 324.807 592.818 324.989C592.393 325.171 591.925 325.262 591.414 325.262ZM591.414 323.995C591.812 323.995 592.166 323.908 592.473 323.735C592.785 323.557 593.03 323.308 593.208 322.987C593.385 322.667 593.474 322.288 593.474 321.85C593.474 321.412 593.385 321.033 593.208 320.712C593.03 320.387 592.785 320.138 592.473 319.965C592.166 319.792 591.812 319.705 591.414 319.705C591.015 319.705 590.66 319.792 590.348 319.965C590.04 320.138 589.797 320.387 589.62 320.712C589.446 321.033 589.36 321.412 589.36 321.85C589.36 322.288 589.449 322.667 589.626 322.987C589.804 323.308 590.047 323.557 590.354 323.735C590.666 323.908 591.019 323.995 591.414 323.995ZM596.341 325.067V318.632H597.771V319.523C598.013 319.12 598.308 318.838 598.655 318.678C599.001 318.513 599.374 318.431 599.773 318.431C599.903 318.431 600.026 318.437 600.143 318.45C600.26 318.463 600.373 318.483 600.481 318.509L600.293 319.984C600.163 319.945 600.03 319.915 599.896 319.893C599.762 319.872 599.627 319.861 599.493 319.861C598.995 319.861 598.583 320.015 598.258 320.322C597.933 320.626 597.771 321.04 597.771 321.564V325.067H596.341ZM603.844 325.256C603.311 325.256 602.812 325.18 602.349 325.028C601.885 324.877 601.495 324.673 601.179 324.417L601.718 323.371C602.017 323.605 602.353 323.789 602.726 323.923C603.103 324.058 603.473 324.125 603.837 324.125C604.257 324.125 604.585 324.051 604.819 323.904C605.053 323.757 605.17 323.551 605.17 323.286C605.17 323.035 605.068 322.851 604.864 322.734C604.665 322.613 604.283 322.487 603.72 322.357C602.91 322.188 602.32 321.95 601.952 321.642C601.588 321.33 601.406 320.899 601.406 320.348C601.406 319.963 601.512 319.623 601.725 319.328C601.941 319.029 602.238 318.795 602.615 318.626C602.992 318.457 603.428 318.372 603.922 318.372C604.403 318.372 604.855 318.442 605.28 318.58C605.705 318.715 606.073 318.905 606.385 319.152L605.878 320.205C605.718 320.062 605.531 319.939 605.319 319.835C605.107 319.731 604.881 319.651 604.643 319.594C604.409 319.534 604.175 319.503 603.941 319.503C603.577 319.503 603.28 319.575 603.051 319.718C602.825 319.857 602.713 320.049 602.713 320.296C602.713 320.552 602.821 320.741 603.038 320.862C603.254 320.983 603.627 321.105 604.156 321.226C604.988 321.408 605.583 321.651 605.943 321.954C606.303 322.257 606.483 322.678 606.483 323.215C606.483 323.627 606.372 323.986 606.151 324.294C605.93 324.597 605.62 324.833 605.222 325.002C604.827 325.171 604.368 325.256 603.844 325.256Z" fill="white"/>
<path fill-rule="evenodd" clip-rule="evenodd" d="M415.681 460.492L398.511 445.533L412.39 465.619C412.136 466.522 412 467.473 412 468.457V476.543C412 482.318 416.682 487 422.457 487H502.543C508.318 487 513 482.318 513 476.543V468.457C513 462.682 508.318 458 502.543 458H422.457C419.872 458 417.506 458.938 415.681 460.492Z" fill="#140D83"/>
<path d="M424.428 476.757V467.657H430.31V468.944H425.884V471.401H429.706V472.616H425.884V475.457H430.349V476.757H424.428ZM431.4 476.763L433.727 473.526L431.536 470.322H433.337L434.708 472.499L436.034 470.322H437.789L435.664 473.487L437.971 476.757H436.138L434.656 474.495L433.155 476.744L431.4 476.763ZM439.169 479.487V470.322H440.456V471.225C440.712 470.9 441.039 470.636 441.438 470.432C441.836 470.229 442.328 470.127 442.913 470.127C443.541 470.127 444.098 470.276 444.584 470.575C445.073 470.87 445.455 471.275 445.728 471.791C446.001 472.302 446.137 472.885 446.137 473.539C446.137 474.012 446.059 474.456 445.903 474.872C445.747 475.284 445.524 475.645 445.234 475.957C444.948 476.269 444.605 476.514 444.207 476.692C443.812 476.865 443.375 476.952 442.894 476.952C442.391 476.952 441.949 476.861 441.568 476.679C441.186 476.497 440.861 476.252 440.593 475.944V479.487H439.169ZM442.653 475.684C443.052 475.684 443.405 475.598 443.713 475.424C444.025 475.247 444.267 474.998 444.441 474.677C444.618 474.356 444.707 473.977 444.707 473.539C444.707 473.102 444.618 472.723 444.441 472.402C444.263 472.077 444.018 471.828 443.706 471.654C443.398 471.481 443.047 471.394 442.653 471.394C442.254 471.394 441.899 471.481 441.587 471.654C441.279 471.828 441.037 472.077 440.859 472.402C440.681 472.723 440.593 473.102 440.593 473.539C440.593 473.977 440.681 474.356 440.859 474.677C441.037 474.998 441.279 475.247 441.587 475.424C441.899 475.598 442.254 475.684 442.653 475.684ZM450.575 476.952C449.882 476.952 449.273 476.811 448.748 476.529C448.224 476.243 447.815 475.845 447.52 475.333C447.23 474.822 447.084 474.228 447.084 473.552C447.084 473.058 447.169 472.603 447.338 472.187C447.507 471.767 447.745 471.403 448.053 471.095C448.361 470.788 448.72 470.549 449.132 470.38C449.548 470.211 450.001 470.127 450.49 470.127C451.023 470.127 451.498 470.222 451.914 470.413C452.33 470.599 452.674 470.861 452.947 471.199C453.225 471.537 453.42 471.934 453.532 472.389C453.649 472.84 453.669 473.329 453.591 473.858H448.456C448.447 474.244 448.532 474.582 448.709 474.872C448.887 475.158 449.141 475.381 449.47 475.541C449.804 475.702 450.196 475.782 450.646 475.782C451.01 475.782 451.361 475.728 451.699 475.619C452.042 475.507 452.352 475.342 452.629 475.125L453.181 476.152C452.973 476.321 452.722 476.467 452.427 476.588C452.133 476.705 451.825 476.794 451.504 476.854C451.184 476.919 450.874 476.952 450.575 476.952ZM448.54 472.805H452.187C452.174 472.32 452.018 471.938 451.719 471.661C451.424 471.384 451.004 471.245 450.458 471.245C449.929 471.245 449.489 471.384 449.138 471.661C448.792 471.938 448.592 472.32 448.54 472.805ZM455.076 476.757V470.322H456.506V471.212C456.749 470.809 457.044 470.528 457.39 470.367C457.737 470.203 458.11 470.12 458.508 470.12C458.638 470.12 458.762 470.127 458.879 470.14C458.996 470.153 459.108 470.172 459.217 470.198L459.028 471.674C458.898 471.635 458.766 471.605 458.632 471.583C458.497 471.561 458.363 471.55 458.229 471.55C457.73 471.55 457.319 471.704 456.994 472.012C456.669 472.315 456.506 472.729 456.506 473.253V476.757H455.076ZM463.163 476.952C462.535 476.952 462.032 476.77 461.655 476.406C461.278 476.042 461.09 475.485 461.09 474.735V468.443H462.52V470.322H464.307V471.505H462.52V474.423C462.52 474.874 462.604 475.193 462.773 475.379C462.946 475.561 463.189 475.652 463.501 475.652C463.653 475.652 463.796 475.635 463.93 475.6C464.064 475.565 464.186 475.52 464.294 475.463L464.548 476.62C464.361 476.716 464.147 476.794 463.904 476.854C463.666 476.919 463.419 476.952 463.163 476.952ZM459.679 471.505V470.322H461.278V471.505H459.679ZM471.936 476.952C471.307 476.952 470.805 476.77 470.428 476.406C470.051 476.042 469.862 475.485 469.862 474.735V468.443H471.292V470.322H473.08V471.505H471.292V474.423C471.292 474.874 471.377 475.193 471.546 475.379C471.719 475.561 471.962 475.652 472.274 475.652C472.425 475.652 472.568 475.635 472.703 475.6C472.837 475.565 472.958 475.52 473.067 475.463L473.32 476.62C473.134 476.716 472.919 476.794 472.677 476.854C472.438 476.919 472.191 476.952 471.936 476.952ZM468.452 471.505V470.322H470.051V471.505H468.452ZM477.717 476.952C477.024 476.952 476.415 476.811 475.891 476.529C475.367 476.243 474.957 475.845 474.662 475.333C474.372 474.822 474.227 474.228 474.227 473.552C474.227 473.058 474.311 472.603 474.48 472.187C474.649 471.767 474.888 471.403 475.195 471.095C475.503 470.788 475.863 470.549 476.274 470.38C476.69 470.211 477.143 470.127 477.633 470.127C478.166 470.127 478.64 470.222 479.056 470.413C479.472 470.599 479.817 470.861 480.09 471.199C480.367 471.537 480.562 471.934 480.675 472.389C480.792 472.84 480.811 473.329 480.733 473.858H475.598C475.59 474.244 475.674 474.582 475.852 474.872C476.03 475.158 476.283 475.381 476.612 475.541C476.946 475.702 477.338 475.782 477.789 475.782C478.153 475.782 478.504 475.728 478.842 475.619C479.184 475.507 479.494 475.342 479.771 475.125L480.324 476.152C480.116 476.321 479.865 476.467 479.57 476.588C479.275 476.705 478.968 476.794 478.647 476.854C478.326 476.919 478.016 476.952 477.717 476.952ZM475.683 472.805H479.329C479.316 472.32 479.16 471.938 478.861 471.661C478.567 471.384 478.146 471.245 477.6 471.245C477.072 471.245 476.632 471.384 476.281 471.661C475.934 471.938 475.735 472.32 475.683 472.805ZM484.006 476.952C483.56 476.952 483.168 476.87 482.83 476.705C482.492 476.536 482.228 476.3 482.037 475.996C481.851 475.689 481.757 475.327 481.757 474.911C481.757 474.56 481.846 474.244 482.024 473.962C482.202 473.676 482.477 473.44 482.849 473.253C483.226 473.067 483.71 472.944 484.299 472.883C484.888 472.818 485.597 472.827 486.424 472.909L486.45 473.897C485.861 473.815 485.354 473.78 484.929 473.793C484.505 473.806 484.156 473.86 483.883 473.955C483.614 474.046 483.415 474.17 483.285 474.326C483.159 474.478 483.096 474.653 483.096 474.852C483.096 475.164 483.207 475.405 483.428 475.574C483.653 475.743 483.961 475.827 484.351 475.827C484.685 475.827 484.984 475.767 485.248 475.645C485.512 475.524 485.72 475.353 485.872 475.132C486.028 474.911 486.106 474.651 486.106 474.352V472.642C486.106 472.356 486.045 472.109 485.924 471.901C485.803 471.689 485.618 471.524 485.371 471.407C485.124 471.29 484.817 471.232 484.448 471.232C484.11 471.232 483.777 471.284 483.447 471.388C483.118 471.488 482.804 471.646 482.505 471.862L482.102 470.809C482.505 470.536 482.925 470.344 483.363 470.231C483.801 470.118 484.221 470.062 484.624 470.062C485.222 470.062 485.733 470.157 486.158 470.348C486.587 470.534 486.916 470.818 487.146 471.199C487.376 471.576 487.49 472.053 487.49 472.629V476.757H486.203V475.996C485.987 476.304 485.686 476.54 485.3 476.705C484.914 476.87 484.483 476.952 484.006 476.952ZM489.392 476.757V470.322H490.822V471.206C490.995 470.955 491.194 470.751 491.42 470.595C491.645 470.435 491.883 470.318 492.135 470.244C492.386 470.166 492.642 470.127 492.902 470.127C493.426 470.127 493.862 470.242 494.208 470.471C494.559 470.701 494.806 470.996 494.949 471.355C495.27 470.887 495.643 470.567 496.067 470.393C496.492 470.216 496.919 470.127 497.348 470.127C497.941 470.127 498.416 470.244 498.771 470.478C499.127 470.712 499.382 471.013 499.538 471.381C499.699 471.75 499.779 472.129 499.779 472.519V476.757H498.349V472.935C498.349 472.489 498.225 472.129 497.978 471.856C497.736 471.579 497.38 471.44 496.912 471.44C496.605 471.44 496.329 471.507 496.087 471.641C495.844 471.776 495.651 471.962 495.508 472.2C495.37 472.434 495.3 472.705 495.3 473.013V476.757H493.87V472.935C493.87 472.489 493.749 472.129 493.506 471.856C493.264 471.579 492.906 471.44 492.434 471.44C492.13 471.44 491.855 471.507 491.608 471.641C491.366 471.776 491.173 471.962 491.03 472.2C490.891 472.434 490.822 472.705 490.822 473.013V476.757H489.392Z" fill="white"/>
<path fill-rule="evenodd" clip-rule="evenodd" d="M126.942 222.276L141.315 209.755L131.201 224.393C133.521 226.311 135 229.211 135 232.457V240.543C135 246.318 130.318 251 124.543 251H10.457C4.68176 251 0 246.318 0 240.543V232.457C0 226.682 4.68176 222 10.457 222H124.543C125.368 222 126.172 222.096 126.942 222.276Z" fill="#79F585"/>
<path d="M14.183 240.978V231.878H17.4785C18.1242 231.878 18.694 231.991 19.188 232.216C19.6863 232.437 20.0763 232.758 20.358 233.178C20.6397 233.594 20.7805 234.095 20.7805 234.68C20.7805 235.282 20.6505 235.791 20.3905 236.207C20.1305 236.619 19.7513 236.933 19.253 237.15C18.759 237.362 18.1567 237.468 17.446 237.468H15.639V240.978H14.183ZM15.639 236.22H17.4655C18.0548 236.22 18.512 236.097 18.837 235.85C19.162 235.598 19.3245 235.219 19.3245 234.712C19.3245 234.21 19.1577 233.824 18.824 233.555C18.4903 233.287 18.0418 233.152 17.4785 233.152H15.639V236.22ZM24.0213 241.173C23.5749 241.173 23.1828 241.091 22.8448 240.926C22.5068 240.757 22.2424 240.521 22.0518 240.218C21.8654 239.91 21.7723 239.548 21.7723 239.132C21.7723 238.781 21.8611 238.465 22.0388 238.183C22.2164 237.897 22.4916 237.661 22.8643 237.475C23.2413 237.288 23.7244 237.165 24.3138 237.104C24.9031 237.039 25.6116 237.048 26.4393 237.13L26.4653 238.118C25.8759 238.036 25.3689 238.001 24.9443 238.014C24.5196 238.027 24.1708 238.081 23.8978 238.177C23.6291 238.268 23.4298 238.391 23.2998 238.547C23.1741 238.699 23.1113 238.874 23.1113 239.074C23.1113 239.386 23.2218 239.626 23.4428 239.795C23.6681 239.964 23.9758 240.049 24.3658 240.049C24.6994 240.049 24.9984 239.988 25.2628 239.867C25.5271 239.745 25.7351 239.574 25.8868 239.353C26.0428 239.132 26.1208 238.872 26.1208 238.573V236.864C26.1208 236.578 26.0601 236.331 25.9388 236.123C25.8174 235.91 25.6333 235.746 25.3863 235.629C25.1393 235.512 24.8316 235.453 24.4633 235.453C24.1253 235.453 23.7916 235.505 23.4623 235.609C23.1329 235.709 22.8188 235.867 22.5198 236.084L22.1168 235.031C22.5198 234.758 22.9401 234.565 23.3778 234.452C23.8154 234.34 24.2358 234.283 24.6388 234.283C25.2368 234.283 25.7481 234.379 26.1728 234.569C26.6018 234.756 26.9311 235.039 27.1608 235.421C27.3904 235.798 27.5053 236.274 27.5053 236.851V240.978H26.2183V240.218C26.0016 240.525 25.7004 240.762 25.3148 240.926C24.9291 241.091 24.4979 241.173 24.0213 241.173ZM29.4066 240.978V234.543H30.8366V235.434C31.0793 235.031 31.3739 234.749 31.7206 234.589C32.0673 234.424 32.4399 234.342 32.8386 234.342C32.9686 234.342 33.0921 234.348 33.2091 234.361C33.3261 234.374 33.4388 234.394 33.5471 234.42L33.3586 235.895C33.2286 235.856 33.0964 235.826 32.9621 235.804C32.8278 235.783 32.6934 235.772 32.5591 235.772C32.0608 235.772 31.6491 235.926 31.3241 236.233C30.9991 236.537 30.8366 236.95 30.8366 237.475V240.978H29.4066ZM37.4934 241.173C36.8651 241.173 36.3624 240.991 35.9854 240.627C35.6084 240.263 35.4199 239.706 35.4199 238.957V232.665H36.8499V234.543H38.6374V235.726H36.8499V238.645C36.8499 239.095 36.9344 239.414 37.1034 239.6C37.2768 239.782 37.5194 239.873 37.8314 239.873C37.9831 239.873 38.1261 239.856 38.2604 239.821C38.3948 239.787 38.5161 239.741 38.6244 239.685L38.8779 240.842C38.6916 240.937 38.4771 241.015 38.2344 241.076C37.9961 241.141 37.7491 241.173 37.4934 241.173ZM34.0094 235.726V234.543H35.6084V235.726H34.0094ZM40.3754 240.978V234.543H41.8054V240.978H40.3754ZM41.0904 233.393C40.8347 233.393 40.6137 233.31 40.4274 233.146C40.241 232.981 40.1479 232.764 40.1479 232.496C40.1479 232.231 40.241 232.017 40.4274 231.852C40.6137 231.683 40.8347 231.599 41.0904 231.599C41.346 231.599 41.567 231.683 41.7534 231.852C41.9397 232.017 42.0329 232.231 42.0329 232.496C42.0329 232.764 41.9397 232.981 41.7534 233.146C41.567 233.31 41.346 233.393 41.0904 233.393ZM46.7414 241.173C46.0654 241.173 45.4631 241.026 44.9344 240.731C44.4057 240.432 43.9897 240.027 43.6864 239.516C43.3874 239 43.2379 238.415 43.2379 237.761C43.2379 237.267 43.3267 236.814 43.5044 236.402C43.6821 235.986 43.9334 235.624 44.2584 235.317C44.5834 235.009 44.9647 234.771 45.4024 234.602C45.8444 234.433 46.3232 234.348 46.8389 234.348C47.2722 234.348 47.6731 234.407 48.0414 234.524C48.4141 234.636 48.7564 234.812 49.0684 235.05L48.3794 236.142C48.1801 235.965 47.9504 235.832 47.6904 235.746C47.4347 235.659 47.1617 235.616 46.8714 235.616C46.4207 235.616 46.0329 235.7 45.7079 235.869C45.3829 236.038 45.1294 236.283 44.9474 236.604C44.7697 236.92 44.6809 237.304 44.6809 237.754C44.6809 238.426 44.8759 238.952 45.2659 239.334C45.6602 239.715 46.1954 239.906 46.8714 239.906C47.1921 239.906 47.4954 239.847 47.7814 239.73C48.0674 239.609 48.3057 239.451 48.4964 239.256L49.1789 240.341C48.8366 240.601 48.4552 240.805 48.0349 240.952C47.6146 241.1 47.1834 241.173 46.7414 241.173ZM50.4935 240.978V234.543H51.9235V240.978H50.4935ZM51.2085 233.393C50.9529 233.393 50.7319 233.31 50.5455 233.146C50.3592 232.981 50.266 232.764 50.266 232.496C50.266 232.231 50.3592 232.017 50.5455 231.852C50.7319 231.683 50.9529 231.599 51.2085 231.599C51.4642 231.599 51.6852 231.683 51.8715 231.852C52.0579 232.017 52.151 232.231 52.151 232.496C52.151 232.764 52.0579 232.981 51.8715 233.146C51.6852 233.31 51.4642 233.393 51.2085 233.393ZM53.9086 243.708V234.543H55.1956V235.447C55.4512 235.122 55.7784 234.857 56.1771 234.654C56.5757 234.45 57.0676 234.348 57.6526 234.348C58.2809 234.348 58.8377 234.498 59.3231 234.797C59.8127 235.091 60.1941 235.497 60.4671 236.012C60.7401 236.524 60.8766 237.106 60.8766 237.761C60.8766 238.233 60.7986 238.677 60.6426 239.093C60.4866 239.505 60.2634 239.867 59.9731 240.179C59.6871 240.491 59.3447 240.736 58.9461 240.913C58.5517 241.087 58.1141 241.173 57.6331 241.173C57.1304 241.173 56.6884 241.082 56.3071 240.9C55.9257 240.718 55.6007 240.473 55.3321 240.166V243.708H53.9086ZM57.3926 239.906C57.7912 239.906 58.1444 239.819 58.4521 239.646C58.7641 239.468 59.0067 239.219 59.1801 238.898C59.3577 238.578 59.4466 238.198 59.4466 237.761C59.4466 237.323 59.3577 236.944 59.1801 236.623C59.0024 236.298 58.7576 236.049 58.4456 235.876C58.1379 235.702 57.7869 235.616 57.3926 235.616C56.9939 235.616 56.6386 235.702 56.3266 235.876C56.0189 236.049 55.7762 236.298 55.5986 236.623C55.4209 236.944 55.3321 237.323 55.3321 237.761C55.3321 238.198 55.4209 238.578 55.5986 238.898C55.7762 239.219 56.0189 239.468 56.3266 239.646C56.6386 239.819 56.9939 239.906 57.3926 239.906ZM64.1004 241.173C63.654 241.173 63.2619 241.091 62.9239 240.926C62.5859 240.757 62.3215 240.521 62.1309 240.218C61.9445 239.91 61.8514 239.548 61.8514 239.132C61.8514 238.781 61.9402 238.465 62.1179 238.183C62.2955 237.897 62.5707 237.661 62.9434 237.475C63.3204 237.288 63.8035 237.165 64.3929 237.104C64.9822 237.039 65.6907 237.048 66.5184 237.13L66.5444 238.118C65.955 238.036 65.448 238.001 65.0234 238.014C64.5987 238.027 64.2499 238.081 63.9769 238.177C63.7082 238.268 63.5089 238.391 63.3789 238.547C63.2532 238.699 63.1904 238.874 63.1904 239.074C63.1904 239.386 63.3009 239.626 63.5219 239.795C63.7472 239.964 64.0549 240.049 64.4449 240.049C64.7785 240.049 65.0775 239.988 65.3419 239.867C65.6062 239.745 65.8142 239.574 65.9659 239.353C66.1219 239.132 66.1999 238.872 66.1999 238.573V236.864C66.1999 236.578 66.1392 236.331 66.0179 236.123C65.8965 235.91 65.7124 235.746 65.4654 235.629C65.2184 235.512 64.9107 235.453 64.5424 235.453C64.2044 235.453 63.8707 235.505 63.5414 235.609C63.212 235.709 62.8979 235.867 62.5989 236.084L62.1959 235.031C62.5989 234.758 63.0192 234.565 63.4569 234.452C63.8945 234.34 64.3149 234.283 64.7179 234.283C65.3159 234.283 65.8272 234.379 66.2519 234.569C66.6809 234.756 67.0102 235.039 67.2399 235.421C67.4695 235.798 67.5844 236.274 67.5844 236.851V240.978H66.2974V240.218C66.0807 240.525 65.7795 240.762 65.3939 240.926C65.0082 241.091 64.577 241.173 64.1004 241.173ZM69.4857 240.978V234.543H70.9157V235.362C71.1844 235.003 71.4964 234.745 71.8517 234.589C72.207 234.428 72.5754 234.348 72.9567 234.348C73.546 234.348 74.0335 234.465 74.4192 234.699C74.8049 234.933 75.0909 235.234 75.2772 235.603C75.4679 235.971 75.5632 236.35 75.5632 236.74V240.978H74.1332V237.182C74.1332 236.723 73.9945 236.355 73.7172 236.077C73.4442 235.8 73.0629 235.661 72.5732 235.661C72.2525 235.661 71.9665 235.733 71.7152 235.876C71.4682 236.019 71.2732 236.218 71.1302 236.474C70.9872 236.725 70.9157 237.02 70.9157 237.358V240.978H69.4857ZM80.0608 241.173C79.4325 241.173 78.9298 240.991 78.5528 240.627C78.1758 240.263 77.9873 239.706 77.9873 238.957V232.665H79.4173V234.543H81.2048V235.726H79.4173V238.645C79.4173 239.095 79.5018 239.414 79.6708 239.6C79.8441 239.782 80.0868 239.873 80.3988 239.873C80.5505 239.873 80.6935 239.856 80.8278 239.821C80.9621 239.787 81.0835 239.741 81.1918 239.685L81.4453 240.842C81.259 240.937 81.0445 241.015 80.8018 241.076C80.5635 241.141 80.3165 241.173 80.0608 241.173ZM76.5768 235.726V234.543H78.1758V235.726H76.5768ZM85.1137 241.167C84.5807 241.167 84.0824 241.091 83.6187 240.939C83.1551 240.788 82.7651 240.584 82.4487 240.328L82.9882 239.282C83.2872 239.516 83.6231 239.7 83.9957 239.834C84.3727 239.969 84.7432 240.036 85.1072 240.036C85.5276 240.036 85.8547 239.962 86.0887 239.815C86.3227 239.667 86.4397 239.462 86.4397 239.197C86.4397 238.946 86.3379 238.762 86.1342 238.645C85.9349 238.523 85.5536 238.398 84.9902 238.268C84.1799 238.099 83.5906 237.86 83.2222 237.553C82.8582 237.241 82.6762 236.81 82.6762 236.259C82.6762 235.874 82.7824 235.533 82.9947 235.239C83.2114 234.94 83.5082 234.706 83.8852 234.537C84.2622 234.368 84.6977 234.283 85.1917 234.283C85.6727 234.283 86.1256 234.353 86.5502 234.491C86.9749 234.626 87.3432 234.816 87.6552 235.063L87.1482 236.116C86.9879 235.973 86.8016 235.85 86.5892 235.746C86.3769 235.642 86.1516 235.562 85.9132 235.505C85.6792 235.445 85.4452 235.414 85.2112 235.414C84.8472 235.414 84.5504 235.486 84.3207 235.629C84.0954 235.767 83.9827 235.96 83.9827 236.207C83.9827 236.463 84.0911 236.651 84.3077 236.773C84.5244 236.894 84.8971 237.015 85.4257 237.137C86.2577 237.319 86.8536 237.561 87.2132 237.865C87.5729 238.168 87.7527 238.588 87.7527 239.126C87.7527 239.537 87.6422 239.897 87.4212 240.205C87.2002 240.508 86.8904 240.744 86.4917 240.913C86.0974 241.082 85.6381 241.167 85.1137 241.167ZM94.2041 242.473C93.6668 241.568 93.2638 240.603 92.9951 239.581C92.7264 238.558 92.5921 237.525 92.5921 236.48C92.5921 235.783 92.6506 235.091 92.7676 234.407C92.8889 233.718 93.0688 233.046 93.3071 232.392C93.5454 231.737 93.8444 231.111 94.2041 230.513L95.2961 230.955C95.0578 231.332 94.8476 231.74 94.6656 232.177C94.4879 232.611 94.3384 233.061 94.2171 233.529C94.0958 233.997 94.0048 234.478 93.9441 234.972C93.8878 235.462 93.8596 235.956 93.8596 236.454C93.8596 237.451 93.9788 238.435 94.2171 239.405C94.4598 240.372 94.8194 241.247 95.2961 242.031L94.2041 242.473ZM97.5997 243.89C97.3657 243.89 97.1361 243.864 96.9107 243.812C96.6854 243.76 96.4644 243.671 96.2477 243.546L96.5727 242.324C96.7071 242.41 96.8544 242.475 97.0147 242.519C97.1751 242.562 97.3181 242.584 97.4437 242.584C97.7471 242.584 97.9854 242.512 98.1587 242.369C98.3321 242.226 98.4686 242.005 98.5682 241.706L98.7827 241.082L96.2477 234.543H97.8142L99.5952 239.535L101.331 234.543H102.845L100.063 241.908C99.8639 242.423 99.6407 242.824 99.3937 243.11C99.1467 243.401 98.8737 243.602 98.5747 243.715C98.2757 243.832 97.9507 243.89 97.5997 243.89ZM106.834 241.173C106.163 241.173 105.562 241.019 105.034 240.712C104.509 240.4 104.098 239.986 103.799 239.47C103.5 238.95 103.35 238.38 103.35 237.761C103.35 237.301 103.435 236.868 103.604 236.461C103.777 236.049 104.02 235.685 104.332 235.369C104.648 235.052 105.019 234.803 105.443 234.621C105.868 234.439 106.334 234.348 106.841 234.348C107.512 234.348 108.11 234.504 108.635 234.816C109.163 235.124 109.577 235.538 109.876 236.058C110.175 236.573 110.325 237.141 110.325 237.761C110.325 238.216 110.238 238.649 110.065 239.061C109.896 239.472 109.655 239.836 109.343 240.153C109.031 240.469 108.663 240.718 108.238 240.9C107.814 241.082 107.346 241.173 106.834 241.173ZM106.834 239.906C107.233 239.906 107.586 239.819 107.894 239.646C108.206 239.468 108.451 239.219 108.628 238.898C108.806 238.578 108.895 238.198 108.895 237.761C108.895 237.323 108.806 236.944 108.628 236.623C108.451 236.298 108.206 236.049 107.894 235.876C107.586 235.702 107.233 235.616 106.834 235.616C106.436 235.616 106.08 235.702 105.768 235.876C105.461 236.049 105.218 236.298 105.04 236.623C104.867 236.944 104.78 237.323 104.78 237.761C104.78 238.198 104.869 238.578 105.047 238.898C105.224 239.219 105.467 239.468 105.775 239.646C106.087 239.819 106.44 239.906 106.834 239.906ZM114.244 241.173C113.668 241.173 113.191 241.058 112.814 240.829C112.441 240.595 112.162 240.287 111.976 239.906C111.789 239.524 111.696 239.108 111.696 238.658V234.543H113.126V238.391C113.126 238.833 113.256 239.189 113.516 239.457C113.78 239.722 114.144 239.854 114.608 239.854C114.911 239.854 115.182 239.787 115.421 239.652C115.659 239.514 115.847 239.321 115.986 239.074C116.129 238.827 116.201 238.541 116.201 238.216V234.543H117.631V240.978H116.344V240.218C116.092 240.521 115.793 240.757 115.447 240.926C115.104 241.091 114.703 241.173 114.244 241.173ZM120.471 242.473L119.379 242.031C119.617 241.65 119.825 241.243 120.003 240.809C120.185 240.376 120.337 239.925 120.458 239.457C120.579 238.989 120.668 238.508 120.725 238.014C120.785 237.52 120.816 237.026 120.816 236.532C120.816 235.531 120.694 234.548 120.452 233.581C120.213 232.615 119.856 231.74 119.379 230.955L120.471 230.513C121.013 231.415 121.416 232.377 121.68 233.399C121.949 234.422 122.083 235.458 122.083 236.506C122.083 237.204 122.022 237.897 121.901 238.586C121.784 239.271 121.606 239.94 121.368 240.595C121.13 241.249 120.831 241.875 120.471 242.473Z" fill="#1C195B"/>
<path fill-rule="evenodd" clip-rule="evenodd" d="M132.381 335.865L152.857 318.026L135.074 343.763L134 343.375V365.543C134 371.318 129.318 376 123.543 376H33.4571C27.6818 376 23.0001 371.318 23.0001 365.543V341.457C23.0001 335.682 27.6818 331 33.4571 331H123.543C127.262 331 130.527 332.941 132.381 335.865Z" fill="#140D83"/>
<path d="M37.147 351.195C36.5187 351.195 35.9033 351.106 35.301 350.928C34.703 350.746 34.1982 350.486 33.7865 350.148L34.5015 349.037C34.7182 349.223 34.9695 349.384 35.2555 349.518C35.5458 349.652 35.8535 349.756 36.1785 349.83C36.5035 349.899 36.8285 349.934 37.1535 349.934C37.7472 349.934 38.226 349.821 38.59 349.596C38.9583 349.371 39.1425 349.041 39.1425 348.608C39.1425 348.283 39.0168 348.008 38.7655 347.782C38.5185 347.557 38.0592 347.349 37.3875 347.158L36.4515 346.885C35.5935 346.638 34.9673 346.311 34.573 345.904C34.183 345.497 33.988 344.99 33.988 344.383C33.988 343.98 34.0682 343.616 34.2285 343.291C34.3932 342.966 34.6228 342.684 34.9175 342.446C35.2165 342.208 35.5675 342.026 35.9705 341.9C36.3735 341.774 36.8155 341.711 37.2965 341.711C37.9075 341.711 38.4752 341.8 38.9995 341.978C39.5238 342.156 39.9572 342.394 40.2995 342.693L39.5585 343.772C39.3722 343.603 39.1533 343.458 38.902 343.336C38.655 343.215 38.3885 343.122 38.1025 343.057C37.8165 342.992 37.5262 342.959 37.2315 342.959C36.8675 342.959 36.5447 343.014 36.263 343.122C35.9857 343.226 35.769 343.378 35.613 343.577C35.457 343.776 35.379 344.019 35.379 344.305C35.379 344.513 35.431 344.695 35.535 344.851C35.639 345.007 35.8167 345.15 36.068 345.28C36.3237 345.406 36.6747 345.533 37.121 345.663L38.109 345.956C38.9497 346.203 39.565 346.526 39.955 346.924C40.345 347.319 40.54 347.832 40.54 348.465C40.54 349.007 40.4057 349.483 40.137 349.895C39.8727 350.302 39.487 350.621 38.98 350.85C38.473 351.08 37.862 351.195 37.147 351.195ZM45.0956 351.195C44.4023 351.195 43.7934 351.054 43.2691 350.772C42.7448 350.486 42.3353 350.088 42.0406 349.576C41.7503 349.065 41.6051 348.471 41.6051 347.795C41.6051 347.301 41.6896 346.846 41.8586 346.43C42.0276 346.01 42.2659 345.646 42.5736 345.338C42.8813 345.031 43.2409 344.792 43.6526 344.623C44.0686 344.454 44.5214 344.37 45.0111 344.37C45.5441 344.37 46.0186 344.465 46.4346 344.656C46.8506 344.842 47.1951 345.104 47.4681 345.442C47.7454 345.78 47.9404 346.177 48.0531 346.632C48.1701 347.083 48.1896 347.572 48.1116 348.101H42.9766C42.9679 348.487 43.0524 348.825 43.2301 349.115C43.4078 349.401 43.6613 349.624 43.9906 349.784C44.3243 349.945 44.7164 350.025 45.1671 350.025C45.5311 350.025 45.8821 349.971 46.2201 349.862C46.5624 349.75 46.8723 349.585 47.1496 349.368L47.7021 350.395C47.4941 350.564 47.2428 350.71 46.9481 350.831C46.6534 350.948 46.3458 351.037 46.0251 351.098C45.7044 351.163 45.3946 351.195 45.0956 351.195ZM43.0611 347.048H46.7076C46.6946 346.563 46.5386 346.181 46.2396 345.904C45.9449 345.627 45.5246 345.488 44.9786 345.488C44.4499 345.488 44.0101 345.627 43.6591 345.904C43.3124 346.181 43.1131 346.563 43.0611 347.048ZM52.6115 351.195C51.9355 351.195 51.3332 351.048 50.8045 350.753C50.2758 350.454 49.8598 350.049 49.5565 349.537C49.2575 349.022 49.108 348.437 49.108 347.782C49.108 347.288 49.1968 346.836 49.3745 346.424C49.5522 346.008 49.8035 345.646 50.1285 345.338C50.4535 345.031 50.8348 344.792 51.2725 344.623C51.7145 344.454 52.1933 344.37 52.709 344.37C53.1423 344.37 53.5432 344.428 53.9115 344.545C54.2842 344.658 54.6265 344.834 54.9385 345.072L54.2495 346.164C54.0502 345.986 53.8205 345.854 53.5605 345.767C53.3048 345.681 53.0318 345.637 52.7415 345.637C52.2908 345.637 51.903 345.722 51.578 345.891C51.253 346.06 50.9995 346.305 50.8175 346.625C50.6398 346.942 50.551 347.325 50.551 347.776C50.551 348.448 50.746 348.974 51.136 349.355C51.5303 349.737 52.0655 349.927 52.7415 349.927C53.0622 349.927 53.3655 349.869 53.6515 349.752C53.9375 349.631 54.1758 349.472 54.3665 349.277L55.049 350.363C54.7067 350.623 54.3253 350.827 53.905 350.974C53.4847 351.121 53.0535 351.195 52.6115 351.195ZM58.8466 351.195C58.2703 351.195 57.7936 351.08 57.4166 350.85C57.044 350.616 56.7645 350.309 56.5781 349.927C56.3918 349.546 56.2986 349.13 56.2986 348.679V344.565H57.7286V348.413C57.7286 348.855 57.8586 349.21 58.1186 349.479C58.383 349.743 58.747 349.875 59.2106 349.875C59.514 349.875 59.7848 349.808 60.0231 349.674C60.2615 349.535 60.45 349.342 60.5886 349.095C60.7316 348.848 60.8031 348.562 60.8031 348.237V344.565H62.2331V351H60.9461V350.239C60.6948 350.543 60.3958 350.779 60.0491 350.948C59.7068 351.113 59.306 351.195 58.8466 351.195ZM64.222 351V344.565H65.652V345.455C65.8947 345.052 66.1894 344.771 66.536 344.61C66.8827 344.446 67.2554 344.363 67.654 344.363C67.784 344.363 67.9075 344.37 68.0245 344.383C68.1415 344.396 68.2542 344.415 68.3625 344.441L68.174 345.917C68.044 345.878 67.9119 345.848 67.7775 345.826C67.6432 345.804 67.5089 345.793 67.3745 345.793C66.8762 345.793 66.4645 345.947 66.1395 346.255C65.8145 346.558 65.652 346.972 65.652 347.496V351H64.222ZM69.5541 351V344.565H70.9841V351H69.5541ZM70.2691 343.414C70.0134 343.414 69.7924 343.332 69.6061 343.167C69.4197 343.003 69.3266 342.786 69.3266 342.517C69.3266 342.253 69.4197 342.039 69.6061 341.874C69.7924 341.705 70.0134 341.62 70.2691 341.62C70.5247 341.62 70.7457 341.705 70.9321 341.874C71.1184 342.039 71.2116 342.253 71.2116 342.517C71.2116 342.786 71.1184 343.003 70.9321 343.167C70.7457 343.332 70.5247 343.414 70.2691 343.414ZM75.6731 351.195C75.0448 351.195 74.5421 351.013 74.1651 350.649C73.7881 350.285 73.5996 349.728 73.5996 348.978V342.686H75.0296V344.565H76.8171V345.748H75.0296V348.666C75.0296 349.117 75.1141 349.436 75.2831 349.622C75.4564 349.804 75.6991 349.895 76.0111 349.895C76.1628 349.895 76.3058 349.878 76.4401 349.843C76.5744 349.808 76.6958 349.763 76.8041 349.706L77.0576 350.863C76.8713 350.959 76.6568 351.037 76.4141 351.098C76.1758 351.163 75.9288 351.195 75.6731 351.195ZM72.1891 345.748V344.565H73.7881V345.748H72.1891ZM79.1075 353.912C78.8735 353.912 78.6439 353.886 78.4185 353.834C78.1932 353.782 77.9722 353.693 77.7555 353.568L78.0805 352.346C78.2149 352.432 78.3622 352.497 78.5225 352.541C78.6829 352.584 78.8259 352.606 78.9515 352.606C79.2549 352.606 79.4932 352.534 79.6665 352.391C79.8399 352.248 79.9764 352.027 80.076 351.728L80.2905 351.104L77.7555 344.565H79.322L81.103 349.557L82.8385 344.565H84.353L81.571 351.93C81.3717 352.445 81.1485 352.846 80.9015 353.132C80.6545 353.422 80.3815 353.624 80.0825 353.737C79.7835 353.854 79.4585 353.912 79.1075 353.912ZM85.4281 352.495L84.2321 352.027L88.9641 340.535L90.1536 341.003L85.4281 352.495ZM34.183 367V357.9H35.639V367H34.183ZM37.8285 367V360.565H39.2585V361.384C39.5272 361.024 39.8392 360.766 40.1945 360.61C40.5498 360.45 40.9182 360.37 41.2995 360.37C41.8888 360.37 42.3763 360.487 42.762 360.721C43.1477 360.955 43.4337 361.256 43.62 361.624C43.8107 361.993 43.906 362.372 43.906 362.762V367H42.476V363.204C42.476 362.745 42.3373 362.376 42.06 362.099C41.787 361.822 41.4057 361.683 40.916 361.683C40.5953 361.683 40.3093 361.754 40.058 361.897C39.811 362.04 39.616 362.24 39.473 362.495C39.33 362.747 39.2585 363.041 39.2585 363.379V367H37.8285ZM46.3301 367V359.512C46.3301 358.871 46.5142 358.366 46.8826 357.997C47.2552 357.629 47.7687 357.445 48.4231 357.445C48.6614 357.445 48.8781 357.471 49.0731 357.523C49.2724 357.571 49.4566 357.64 49.6256 357.731L49.3591 358.862C49.2334 358.793 49.1121 358.745 48.9951 358.719C48.8781 358.693 48.7632 358.68 48.6506 358.68C48.3862 358.68 48.1696 358.747 48.0006 358.881C47.8359 359.016 47.7536 359.245 47.7536 359.57V360.565H49.4436V361.748H47.7536V367H46.3301ZM45.0366 361.748V360.565H46.5186V361.748H45.0366ZM50.7396 367V360.565H52.1696V361.455C52.4123 361.052 52.707 360.771 53.0536 360.61C53.4003 360.446 53.773 360.363 54.1716 360.363C54.3016 360.363 54.4251 360.37 54.5421 360.383C54.6591 360.396 54.7718 360.415 54.8801 360.441L54.6916 361.917C54.5616 361.878 54.4295 361.848 54.2951 361.826C54.1608 361.804 54.0265 361.793 53.8921 361.793C53.3938 361.793 52.9821 361.947 52.6571 362.255C52.3321 362.558 52.1696 362.972 52.1696 363.496V367H50.7396ZM57.8591 367.195C57.4128 367.195 57.0206 367.113 56.6826 366.948C56.3446 366.779 56.0803 366.543 55.8896 366.239C55.7033 365.932 55.6101 365.57 55.6101 365.154C55.6101 364.803 55.699 364.487 55.8766 364.205C56.0543 363.919 56.3295 363.683 56.7021 363.496C57.0791 363.31 57.5623 363.187 58.1516 363.126C58.741 363.061 59.4495 363.07 60.2771 363.152L60.3031 364.14C59.7138 364.058 59.2068 364.023 58.7821 364.036C58.3575 364.049 58.0086 364.103 57.7356 364.198C57.467 364.289 57.2676 364.413 57.1376 364.569C57.012 364.721 56.9491 364.896 56.9491 365.095C56.9491 365.407 57.0596 365.648 57.2806 365.817C57.506 365.986 57.8136 366.07 58.2036 366.07C58.5373 366.07 58.8363 366.01 59.1006 365.888C59.365 365.767 59.573 365.596 59.7246 365.375C59.8806 365.154 59.9586 364.894 59.9586 364.595V362.885C59.9586 362.599 59.898 362.352 59.7766 362.144C59.6553 361.932 59.4711 361.767 59.2241 361.65C58.9771 361.533 58.6695 361.475 58.3011 361.475C57.9631 361.475 57.6295 361.527 57.3001 361.631C56.9708 361.731 56.6566 361.889 56.3576 362.105L55.9546 361.052C56.3576 360.779 56.778 360.587 57.2156 360.474C57.6533 360.361 58.0736 360.305 58.4766 360.305C59.0746 360.305 59.586 360.4 60.0106 360.591C60.4396 360.777 60.769 361.061 60.9986 361.442C61.2283 361.819 61.3431 362.296 61.3431 362.872V367H60.0561V366.239C59.8395 366.547 59.5383 366.783 59.1526 366.948C58.767 367.113 58.3358 367.195 57.8591 367.195ZM65.4155 367.189C64.8825 367.189 64.3842 367.113 63.9205 366.961C63.4568 366.809 63.0668 366.606 62.7505 366.35L63.29 365.303C63.589 365.537 63.9248 365.722 64.2975 365.856C64.6745 365.99 65.045 366.057 65.409 366.057C65.8293 366.057 66.1565 365.984 66.3905 365.836C66.6245 365.689 66.7415 365.483 66.7415 365.219C66.7415 364.968 66.6397 364.783 66.436 364.666C66.2367 364.545 65.8553 364.419 65.292 364.289C64.4817 364.12 63.8923 363.882 63.524 363.574C63.16 363.262 62.978 362.831 62.978 362.281C62.978 361.895 63.0842 361.555 63.2965 361.26C63.5132 360.961 63.81 360.727 64.187 360.558C64.564 360.389 64.9995 360.305 65.4935 360.305C65.9745 360.305 66.4273 360.374 66.852 360.513C67.2767 360.647 67.645 360.838 67.957 361.085L67.45 362.138C67.2897 361.995 67.1033 361.871 66.891 361.767C66.6787 361.663 66.4533 361.583 66.215 361.527C65.981 361.466 65.747 361.436 65.513 361.436C65.149 361.436 64.8522 361.507 64.6225 361.65C64.3972 361.789 64.2845 361.982 64.2845 362.229C64.2845 362.485 64.3928 362.673 64.6095 362.794C64.8262 362.916 65.1988 363.037 65.7275 363.158C66.5595 363.34 67.1553 363.583 67.515 363.886C67.8747 364.19 68.0545 364.61 68.0545 365.147C68.0545 365.559 67.944 365.919 67.723 366.226C67.502 366.53 67.1922 366.766 66.7935 366.935C66.3992 367.104 65.9398 367.189 65.4155 367.189ZM72.3723 367.195C71.744 367.195 71.2413 367.013 70.8643 366.649C70.4873 366.285 70.2988 365.728 70.2988 364.978V358.686H71.7288V360.565H73.5163V361.748H71.7288V364.666C71.7288 365.117 71.8133 365.436 71.9823 365.622C72.1557 365.804 72.3983 365.895 72.7103 365.895C72.862 365.895 73.005 365.878 73.1393 365.843C73.2737 365.808 73.395 365.763 73.5033 365.706L73.7568 366.863C73.5705 366.959 73.356 367.037 73.1133 367.098C72.875 367.163 72.628 367.195 72.3723 367.195ZM68.8883 361.748V360.565H70.4873V361.748H68.8883ZM75.2543 367V360.565H76.6843V361.455C76.9269 361.052 77.2216 360.771 77.5683 360.61C77.9149 360.446 78.2876 360.363 78.6863 360.363C78.8163 360.363 78.9398 360.37 79.0568 360.383C79.1738 360.396 79.2864 360.415 79.3948 360.441L79.2063 361.917C79.0763 361.878 78.9441 361.848 78.8098 361.826C78.6754 361.804 78.5411 361.793 78.4068 361.793C77.9084 361.793 77.4968 361.947 77.1718 362.255C76.8468 362.558 76.6843 362.972 76.6843 363.496V367H75.2543ZM83.0693 367.195C82.493 367.195 82.0163 367.08 81.6393 366.85C81.2666 366.616 80.9871 366.309 80.8008 365.927C80.6145 365.546 80.5213 365.13 80.5213 364.679V360.565H81.9513V364.413C81.9513 364.855 82.0813 365.21 82.3413 365.479C82.6056 365.743 82.9696 365.875 83.4333 365.875C83.7366 365.875 84.0075 365.808 84.2458 365.674C84.4841 365.535 84.6726 365.342 84.8113 365.095C84.9543 364.848 85.0258 364.562 85.0258 364.237V360.565H86.4558V367H85.1688V366.239C84.9175 366.543 84.6185 366.779 84.2718 366.948C83.9295 367.113 83.5286 367.195 83.0693 367.195ZM91.3957 367.195C90.7197 367.195 90.1174 367.048 89.5887 366.753C89.06 366.454 88.644 366.049 88.3407 365.537C88.0417 365.022 87.8922 364.437 87.8922 363.782C87.8922 363.288 87.981 362.836 88.1587 362.424C88.3364 362.008 88.5877 361.646 88.9127 361.338C89.2377 361.031 89.619 360.792 90.0567 360.623C90.4987 360.454 90.9775 360.37 91.4932 360.37C91.9265 360.37 92.3274 360.428 92.6957 360.545C93.0684 360.658 93.4107 360.834 93.7227 361.072L93.0337 362.164C92.8344 361.986 92.6047 361.854 92.3447 361.767C92.089 361.681 91.816 361.637 91.5257 361.637C91.075 361.637 90.6872 361.722 90.3622 361.891C90.0372 362.06 89.7837 362.305 89.6017 362.625C89.424 362.942 89.3352 363.325 89.3352 363.776C89.3352 364.448 89.5302 364.974 89.9202 365.355C90.3145 365.737 90.8497 365.927 91.5257 365.927C91.8464 365.927 92.1497 365.869 92.4357 365.752C92.7217 365.631 92.96 365.472 93.1507 365.277L93.8332 366.363C93.4909 366.623 93.1095 366.827 92.6892 366.974C92.2689 367.121 91.8377 367.195 91.3957 367.195ZM97.8518 367.195C97.2235 367.195 96.7208 367.013 96.3438 366.649C95.9668 366.285 95.7783 365.728 95.7783 364.978V358.686H97.2083V360.565H98.9958V361.748H97.2083V364.666C97.2083 365.117 97.2928 365.436 97.4618 365.622C97.6352 365.804 97.8778 365.895 98.1898 365.895C98.3415 365.895 98.4845 365.878 98.6188 365.843C98.7532 365.808 98.8745 365.763 98.9828 365.706L99.2363 366.863C99.05 366.959 98.8355 367.037 98.5928 367.098C98.3545 367.163 98.1075 367.195 97.8518 367.195ZM94.3678 361.748V360.565H95.9668V361.748H94.3678ZM103.217 367.195C102.64 367.195 102.164 367.08 101.787 366.85C101.414 366.616 101.135 366.309 100.948 365.927C100.762 365.546 100.669 365.13 100.669 364.679V360.565H102.099V364.413C102.099 364.855 102.229 365.21 102.489 365.479C102.753 365.743 103.117 365.875 103.581 365.875C103.884 365.875 104.155 365.808 104.393 365.674C104.632 365.535 104.82 365.342 104.959 365.095C105.102 364.848 105.173 364.562 105.173 364.237V360.565H106.603V367H105.316V366.239C105.065 366.543 104.766 366.779 104.419 366.948C104.077 367.113 103.676 367.195 103.217 367.195ZM108.592 367V360.565H110.022V361.455C110.265 361.052 110.559 360.771 110.906 360.61C111.253 360.446 111.625 360.363 112.024 360.363C112.154 360.363 112.278 360.37 112.395 360.383C112.512 360.396 112.624 360.415 112.733 360.441L112.544 361.917C112.414 361.878 112.282 361.848 112.148 361.826C112.013 361.804 111.879 361.793 111.745 361.793C111.246 361.793 110.835 361.947 110.51 362.255C110.185 362.558 110.022 362.972 110.022 363.496V367H108.592ZM116.735 367.195C116.042 367.195 115.433 367.054 114.909 366.772C114.384 366.486 113.975 366.088 113.68 365.576C113.39 365.065 113.245 364.471 113.245 363.795C113.245 363.301 113.329 362.846 113.498 362.43C113.667 362.01 113.906 361.646 114.213 361.338C114.521 361.031 114.881 360.792 115.292 360.623C115.708 360.454 116.161 360.37 116.651 360.37C117.184 360.37 117.658 360.465 118.074 360.656C118.49 360.842 118.835 361.104 119.108 361.442C119.385 361.78 119.58 362.177 119.693 362.632C119.81 363.083 119.829 363.572 119.751 364.101H114.616C114.608 364.487 114.692 364.825 114.87 365.115C115.047 365.401 115.301 365.624 115.63 365.784C115.964 365.945 116.356 366.025 116.807 366.025C117.171 366.025 117.522 365.971 117.86 365.862C118.202 365.75 118.512 365.585 118.789 365.368L119.342 366.395C119.134 366.564 118.882 366.71 118.588 366.831C118.293 366.948 117.985 367.037 117.665 367.098C117.344 367.163 117.034 367.195 116.735 367.195ZM114.701 363.048H118.347C118.334 362.563 118.178 362.181 117.879 361.904C117.585 361.627 117.164 361.488 116.618 361.488C116.09 361.488 115.65 361.627 115.299 361.904C114.952 362.181 114.753 362.563 114.701 363.048Z" fill="white"/>
<path fill-rule="evenodd" clip-rule="evenodd" d="M200.432 419.17L214.961 406.512L204.864 421.126C207.377 423.036 209 426.057 209 429.457V437.543C209 443.318 204.318 448 198.543 448H83.457C77.6818 448 73 443.318 73 437.543V429.457C73 423.682 77.6818 419 83.457 419H198.543C199.188 419 199.819 419.058 200.432 419.17Z" fill="#140D83"/>
<path d="M85.332 437.736V428.636H88.6275C89.2732 428.636 89.843 428.749 90.337 428.974C90.8354 429.195 91.2254 429.516 91.507 429.936C91.7887 430.352 91.9295 430.853 91.9295 431.438C91.9295 432.04 91.7995 432.549 91.5395 432.965C91.2795 433.377 90.9004 433.691 90.402 433.908C89.908 434.12 89.3057 434.226 88.595 434.226H86.788V437.736H85.332ZM86.788 432.978H88.6145C89.2039 432.978 89.661 432.855 89.986 432.608C90.311 432.356 90.4735 431.977 90.4735 431.47C90.4735 430.967 90.3067 430.582 89.973 430.313C89.6394 430.044 89.1909 429.91 88.6275 429.91H86.788V432.978ZM93.3828 437.736V431.301H94.8128V432.192C95.0555 431.789 95.3501 431.507 95.6968 431.347C96.0435 431.182 96.4161 431.1 96.8148 431.1C96.9448 431.1 97.0683 431.106 97.1853 431.119C97.3023 431.132 97.415 431.152 97.5233 431.178L97.3348 432.653C97.2048 432.614 97.0726 432.584 96.9383 432.562C96.804 432.54 96.6696 432.53 96.5353 432.53C96.037 432.53 95.6253 432.683 95.3003 432.991C94.9753 433.294 94.8128 433.708 94.8128 434.233V437.736H93.3828ZM101.519 437.931C100.848 437.931 100.248 437.777 99.7189 437.47C99.1946 437.158 98.7829 436.744 98.4839 436.228C98.1849 435.708 98.0354 435.138 98.0354 434.519C98.0354 434.059 98.1199 433.626 98.2889 433.219C98.4622 432.807 98.7049 432.443 99.0169 432.127C99.3332 431.81 99.7037 431.561 100.128 431.379C100.553 431.197 101.019 431.106 101.526 431.106C102.198 431.106 102.796 431.262 103.32 431.574C103.849 431.882 104.262 432.296 104.561 432.816C104.86 433.331 105.01 433.899 105.01 434.519C105.01 434.974 104.923 435.407 104.75 435.819C104.581 436.23 104.34 436.594 104.028 436.911C103.716 437.227 103.348 437.476 102.923 437.658C102.499 437.84 102.031 437.931 101.519 437.931ZM101.519 436.664C101.918 436.664 102.271 436.577 102.579 436.404C102.891 436.226 103.136 435.977 103.313 435.656C103.491 435.335 103.58 434.956 103.58 434.519C103.58 434.081 103.491 433.702 103.313 433.381C103.136 433.056 102.891 432.807 102.579 432.634C102.271 432.46 101.918 432.374 101.519 432.374C101.121 432.374 100.765 432.46 100.453 432.634C100.146 432.807 99.9031 433.056 99.7254 433.381C99.5521 433.702 99.4654 434.081 99.4654 434.519C99.4654 434.956 99.5542 435.335 99.7319 435.656C99.9096 435.977 100.152 436.226 100.46 436.404C100.772 436.577 101.125 436.664 101.519 436.664ZM105.946 440.661C105.664 440.661 105.417 440.633 105.205 440.577C104.992 440.525 104.795 440.451 104.613 440.356L104.945 439.257C105.053 439.309 105.161 439.35 105.27 439.381C105.378 439.415 105.508 439.433 105.66 439.433C105.946 439.433 106.147 439.352 106.264 439.192C106.386 439.032 106.446 438.793 106.446 438.477V431.301H107.876V438.614C107.876 439.03 107.796 439.389 107.636 439.693C107.48 440 107.257 440.239 106.966 440.408C106.676 440.577 106.336 440.661 105.946 440.661ZM107.161 430.151C106.906 430.151 106.685 430.068 106.498 429.904C106.312 429.739 106.219 429.522 106.219 429.254C106.219 428.989 106.312 428.775 106.498 428.61C106.685 428.441 106.906 428.357 107.161 428.357C107.417 428.357 107.638 428.441 107.824 428.61C108.011 428.775 108.104 428.989 108.104 429.254C108.104 429.522 108.011 429.739 107.824 429.904C107.638 430.068 107.417 430.151 107.161 430.151ZM112.799 437.931C112.106 437.931 111.497 437.79 110.973 437.509C110.448 437.223 110.039 436.824 109.744 436.313C109.454 435.801 109.309 435.208 109.309 434.532C109.309 434.038 109.393 433.583 109.562 433.167C109.731 432.746 109.97 432.382 110.277 432.075C110.585 431.767 110.945 431.529 111.356 431.36C111.772 431.191 112.225 431.106 112.715 431.106C113.248 431.106 113.722 431.201 114.138 431.392C114.554 431.578 114.899 431.841 115.172 432.179C115.449 432.517 115.644 432.913 115.757 433.368C115.874 433.819 115.893 434.308 115.815 434.837H110.68C110.672 435.223 110.756 435.561 110.934 435.851C111.111 436.137 111.365 436.36 111.694 436.521C112.028 436.681 112.42 436.761 112.871 436.761C113.235 436.761 113.586 436.707 113.924 436.599C114.266 436.486 114.576 436.321 114.853 436.105L115.406 437.132C115.198 437.301 114.946 437.446 114.652 437.567C114.357 437.684 114.049 437.773 113.729 437.834C113.408 437.899 113.098 437.931 112.799 437.931ZM110.765 433.784H114.411C114.398 433.299 114.242 432.917 113.943 432.64C113.649 432.363 113.228 432.224 112.682 432.224C112.154 432.224 111.714 432.363 111.363 432.64C111.016 432.917 110.817 433.299 110.765 433.784ZM120.315 437.931C119.639 437.931 119.037 437.784 118.508 437.489C117.98 437.19 117.564 436.785 117.26 436.274C116.961 435.758 116.812 435.173 116.812 434.519C116.812 434.025 116.901 433.572 117.078 433.16C117.256 432.744 117.507 432.382 117.832 432.075C118.157 431.767 118.539 431.529 118.976 431.36C119.418 431.191 119.897 431.106 120.413 431.106C120.846 431.106 121.247 431.165 121.615 431.282C121.988 431.394 122.33 431.57 122.642 431.808L121.953 432.9C121.754 432.722 121.524 432.59 121.264 432.504C121.009 432.417 120.736 432.374 120.445 432.374C119.995 432.374 119.607 432.458 119.282 432.627C118.957 432.796 118.703 433.041 118.521 433.362C118.344 433.678 118.255 434.061 118.255 434.512C118.255 435.184 118.45 435.71 118.84 436.092C119.234 436.473 119.769 436.664 120.445 436.664C120.766 436.664 121.069 436.605 121.355 436.488C121.641 436.367 121.88 436.209 122.07 436.014L122.753 437.099C122.41 437.359 122.029 437.563 121.609 437.71C121.188 437.857 120.757 437.931 120.315 437.931ZM126.771 437.931C126.143 437.931 125.64 437.749 125.263 437.385C124.886 437.021 124.698 436.464 124.698 435.715V429.423H126.128V431.301H127.915V432.484H126.128V435.403C126.128 435.853 126.212 436.172 126.381 436.358C126.555 436.54 126.797 436.631 127.109 436.631C127.261 436.631 127.404 436.614 127.538 436.579C127.673 436.544 127.794 436.499 127.902 436.443L128.156 437.6C127.97 437.695 127.755 437.773 127.512 437.834C127.274 437.899 127.027 437.931 126.771 437.931ZM123.287 432.484V431.301H124.886V432.484H123.287ZM132.84 437.736V431.301H134.27V432.185C134.443 431.934 134.643 431.73 134.868 431.574C135.093 431.414 135.332 431.297 135.583 431.223C135.834 431.145 136.09 431.106 136.35 431.106C136.874 431.106 137.31 431.221 137.656 431.451C138.007 431.68 138.254 431.975 138.397 432.335C138.718 431.867 139.091 431.546 139.515 431.373C139.94 431.195 140.367 431.106 140.796 431.106C141.39 431.106 141.864 431.223 142.219 431.457C142.575 431.691 142.83 431.992 142.986 432.361C143.147 432.729 143.227 433.108 143.227 433.498V437.736H141.797V433.914C141.797 433.468 141.673 433.108 141.426 432.835C141.184 432.558 140.828 432.419 140.36 432.419C140.053 432.419 139.778 432.486 139.535 432.621C139.292 432.755 139.099 432.941 138.956 433.18C138.818 433.414 138.748 433.684 138.748 433.992V437.736H137.318V433.914C137.318 433.468 137.197 433.108 136.954 432.835C136.712 432.558 136.354 432.419 135.882 432.419C135.579 432.419 135.303 432.486 135.056 432.621C134.814 432.755 134.621 432.941 134.478 433.18C134.339 433.414 134.27 433.684 134.27 433.992V437.736H132.84ZM146.942 437.931C146.495 437.931 146.103 437.849 145.765 437.684C145.427 437.515 145.163 437.279 144.972 436.976C144.786 436.668 144.693 436.306 144.693 435.89C144.693 435.539 144.782 435.223 144.959 434.941C145.137 434.655 145.412 434.419 145.785 434.233C146.162 434.046 146.645 433.923 147.234 433.862C147.824 433.797 148.532 433.806 149.36 433.888L149.386 434.876C148.796 434.794 148.289 434.759 147.865 434.772C147.44 434.785 147.091 434.839 146.818 434.935C146.55 435.026 146.35 435.149 146.22 435.305C146.095 435.457 146.032 435.632 146.032 435.832C146.032 436.144 146.142 436.384 146.363 436.553C146.589 436.722 146.896 436.807 147.286 436.807C147.62 436.807 147.919 436.746 148.183 436.625C148.448 436.503 148.656 436.332 148.807 436.111C148.963 435.89 149.041 435.63 149.041 435.331V433.622C149.041 433.336 148.981 433.089 148.859 432.881C148.738 432.668 148.554 432.504 148.307 432.387C148.06 432.27 147.752 432.211 147.384 432.211C147.046 432.211 146.712 432.263 146.383 432.367C146.053 432.467 145.739 432.625 145.44 432.842L145.037 431.789C145.44 431.516 145.861 431.323 146.298 431.21C146.736 431.097 147.156 431.041 147.559 431.041C148.157 431.041 148.669 431.136 149.093 431.327C149.522 431.513 149.852 431.797 150.081 432.179C150.311 432.556 150.426 433.032 150.426 433.609V437.736H149.139V436.976C148.922 437.283 148.621 437.519 148.235 437.684C147.85 437.849 147.418 437.931 146.942 437.931ZM152.327 437.736V431.301H153.757V432.192C154 431.789 154.294 431.507 154.641 431.347C154.988 431.182 155.36 431.1 155.759 431.1C155.889 431.1 156.013 431.106 156.13 431.119C156.247 431.132 156.359 431.152 156.468 431.178L156.279 432.653C156.149 432.614 156.017 432.584 155.883 432.562C155.748 432.54 155.614 432.53 155.48 432.53C154.981 432.53 154.57 432.683 154.245 432.991C153.92 433.294 153.757 433.708 153.757 434.233V437.736H152.327ZM157.659 437.736V428.376H159.089V433.914L161.624 431.301H163.314L161.039 433.765L163.646 437.736H161.936L159.999 434.694L159.089 435.617V437.736H157.659ZM167.719 437.931C167.026 437.931 166.417 437.79 165.893 437.509C165.368 437.223 164.959 436.824 164.664 436.313C164.374 435.801 164.229 435.208 164.229 434.532C164.229 434.038 164.313 433.583 164.482 433.167C164.651 432.746 164.89 432.382 165.197 432.075C165.505 431.767 165.865 431.529 166.276 431.36C166.692 431.191 167.145 431.106 167.635 431.106C168.168 431.106 168.642 431.201 169.058 431.392C169.474 431.578 169.819 431.841 170.092 432.179C170.369 432.517 170.564 432.913 170.677 433.368C170.794 433.819 170.813 434.308 170.735 434.837H165.6C165.592 435.223 165.676 435.561 165.854 435.851C166.031 436.137 166.285 436.36 166.614 436.521C166.948 436.681 167.34 436.761 167.791 436.761C168.155 436.761 168.506 436.707 168.844 436.599C169.186 436.486 169.496 436.321 169.773 436.105L170.326 437.132C170.118 437.301 169.866 437.446 169.572 437.567C169.277 437.684 168.969 437.773 168.649 437.834C168.328 437.899 168.018 437.931 167.719 437.931ZM165.685 433.784H169.331C169.318 433.299 169.162 432.917 168.863 432.64C168.569 432.363 168.148 432.224 167.602 432.224C167.074 432.224 166.634 432.363 166.283 432.64C165.936 432.917 165.737 433.299 165.685 433.784ZM174.861 437.931C174.233 437.931 173.73 437.749 173.353 437.385C172.976 437.021 172.788 436.464 172.788 435.715V429.423H174.218V431.301H176.005V432.484H174.218V435.403C174.218 435.853 174.302 436.172 174.471 436.358C174.645 436.54 174.887 436.631 175.199 436.631C175.351 436.631 175.494 436.614 175.628 436.579C175.763 436.544 175.884 436.499 175.992 436.443L176.246 437.6C176.059 437.695 175.845 437.773 175.602 437.834C175.364 437.899 175.117 437.931 174.861 437.931ZM171.377 432.484V431.301H172.976V432.484H171.377ZM177.743 437.736V431.301H179.173V437.736H177.743ZM178.458 430.151C178.202 430.151 177.981 430.068 177.795 429.904C177.609 429.739 177.516 429.522 177.516 429.254C177.516 428.989 177.609 428.775 177.795 428.61C177.981 428.441 178.202 428.357 178.458 428.357C178.714 428.357 178.935 428.441 179.121 428.61C179.307 428.775 179.401 428.989 179.401 429.254C179.401 429.522 179.307 429.739 179.121 429.904C178.935 430.068 178.714 430.151 178.458 430.151ZM181.158 437.736V431.301H182.588V432.12C182.857 431.76 183.169 431.503 183.524 431.347C183.88 431.186 184.248 431.106 184.629 431.106C185.219 431.106 185.706 431.223 186.092 431.457C186.477 431.691 186.763 431.992 186.95 432.361C187.14 432.729 187.236 433.108 187.236 433.498V437.736H185.806V433.94C185.806 433.481 185.667 433.112 185.39 432.835C185.117 432.558 184.735 432.419 184.246 432.419C183.925 432.419 183.639 432.491 183.388 432.634C183.141 432.777 182.946 432.976 182.803 433.232C182.66 433.483 182.588 433.778 182.588 434.116V437.736H181.158ZM191.691 440.661C191.21 440.661 190.777 440.618 190.391 440.531C190.006 440.449 189.676 440.327 189.403 440.167C189.135 440.007 188.929 439.814 188.786 439.589C188.643 439.363 188.571 439.112 188.571 438.835C188.571 438.614 188.63 438.406 188.747 438.211C188.868 438.016 189.046 437.849 189.28 437.71C189.518 437.567 189.808 437.461 190.151 437.392C189.895 437.262 189.704 437.114 189.579 436.95C189.457 436.785 189.397 436.596 189.397 436.384C189.397 436.202 189.449 436.031 189.553 435.871C189.661 435.706 189.813 435.561 190.008 435.435C190.207 435.305 190.441 435.199 190.71 435.117C190.978 435.034 191.275 434.987 191.6 434.974L191.912 435.598C191.644 435.593 191.414 435.615 191.223 435.663C191.037 435.706 190.892 435.769 190.788 435.851C190.688 435.929 190.638 436.024 190.638 436.137C190.638 436.284 190.723 436.393 190.892 436.462C191.061 436.527 191.299 436.573 191.607 436.599L192.712 436.683C193.253 436.726 193.715 436.815 194.096 436.95C194.482 437.084 194.777 437.272 194.98 437.515C195.188 437.758 195.292 438.065 195.292 438.438C195.292 438.754 195.206 439.047 195.032 439.316C194.863 439.589 194.618 439.825 194.298 440.024C193.981 440.223 193.602 440.379 193.16 440.492C192.718 440.605 192.229 440.661 191.691 440.661ZM191.834 439.673C192.48 439.673 192.987 439.576 193.355 439.381C193.728 439.19 193.914 438.941 193.914 438.633C193.914 438.399 193.791 438.217 193.544 438.087C193.297 437.957 192.92 437.875 192.413 437.84L191.23 437.749C190.952 437.771 190.712 437.823 190.508 437.905C190.309 437.987 190.157 438.094 190.053 438.224C189.949 438.354 189.897 438.501 189.897 438.666C189.897 438.865 189.975 439.04 190.131 439.192C190.287 439.344 190.51 439.461 190.801 439.543C191.091 439.63 191.436 439.673 191.834 439.673ZM191.789 435.695C191.251 435.695 190.768 435.593 190.339 435.39C189.915 435.186 189.579 434.911 189.332 434.564C189.085 434.217 188.961 433.83 188.961 433.401C188.961 432.972 189.085 432.584 189.332 432.237C189.583 431.89 189.921 431.615 190.346 431.412C190.775 431.208 191.256 431.106 191.789 431.106C192.322 431.106 192.801 431.208 193.225 431.412C193.65 431.615 193.986 431.89 194.233 432.237C194.484 432.584 194.61 432.972 194.61 433.401C194.61 433.825 194.486 434.211 194.239 434.558C193.992 434.904 193.656 435.182 193.232 435.39C192.807 435.593 192.326 435.695 191.789 435.695ZM191.789 434.623C192.083 434.623 192.346 434.573 192.575 434.473C192.805 434.369 192.985 434.226 193.115 434.044C193.245 433.858 193.31 433.643 193.31 433.401C193.31 433.037 193.167 432.742 192.881 432.517C192.599 432.287 192.235 432.172 191.789 432.172C191.49 432.172 191.225 432.224 190.996 432.328C190.77 432.432 190.593 432.577 190.463 432.764C190.333 432.946 190.268 433.158 190.268 433.401C190.268 433.76 190.409 434.055 190.69 434.285C190.976 434.51 191.342 434.623 191.789 434.623ZM192.79 432.432L192.257 431.438L195.708 431.301L195.695 432.484L192.79 432.432Z" fill="white"/>
<path fill-rule="evenodd" clip-rule="evenodd" d="M313.809 472.076L327.876 459.821L318.278 473.711C321.122 475.58 323 478.799 323 482.457V490.543C323 496.318 318.318 501 312.543 501H180.457C174.682 501 170 496.318 170 490.543V482.457C170 476.682 174.682 472 180.457 472H312.543C312.972 472 313.394 472.026 313.809 472.076Z" fill="url(#paint7_linear_355_18798)"/>
<path d="M181.613 491.046V481.946H184.46C185.365 481.946 186.165 482.141 186.858 482.531C187.551 482.917 188.093 483.452 188.483 484.136C188.877 484.821 189.075 485.61 189.075 486.502C189.075 487.165 188.962 487.776 188.737 488.335C188.516 488.89 188.199 489.369 187.788 489.772C187.376 490.175 186.888 490.489 186.325 490.714C185.762 490.935 185.14 491.046 184.46 491.046H181.613ZM183.069 489.687H184.284C184.774 489.687 185.218 489.616 185.617 489.473C186.02 489.326 186.364 489.113 186.65 488.836C186.94 488.559 187.164 488.225 187.32 487.835C187.476 487.441 187.554 486.996 187.554 486.502C187.554 485.839 187.417 485.27 187.144 484.793C186.875 484.312 186.496 483.944 186.007 483.688C185.517 483.428 184.943 483.298 184.284 483.298H183.069V489.687ZM193.63 491.241C192.936 491.241 192.327 491.1 191.803 490.818C191.279 490.532 190.869 490.134 190.575 489.622C190.284 489.111 190.139 488.517 190.139 487.841C190.139 487.347 190.224 486.892 190.393 486.476C190.562 486.056 190.8 485.692 191.108 485.384C191.415 485.077 191.775 484.838 192.187 484.669C192.603 484.5 193.055 484.416 193.545 484.416C194.078 484.416 194.553 484.511 194.969 484.702C195.385 484.888 195.729 485.15 196.002 485.488C196.279 485.826 196.474 486.223 196.587 486.678C196.704 487.129 196.724 487.618 196.646 488.147H191.511C191.502 488.533 191.586 488.871 191.764 489.161C191.942 489.447 192.195 489.67 192.525 489.83C192.858 489.991 193.25 490.071 193.701 490.071C194.065 490.071 194.416 490.017 194.754 489.908C195.096 489.796 195.406 489.631 195.684 489.414L196.236 490.441C196.028 490.61 195.777 490.756 195.482 490.877C195.187 490.994 194.88 491.083 194.559 491.143C194.238 491.208 193.929 491.241 193.63 491.241ZM191.595 487.094H195.242C195.229 486.609 195.073 486.227 194.774 485.95C194.479 485.673 194.059 485.534 193.513 485.534C192.984 485.534 192.544 485.673 192.193 485.95C191.846 486.227 191.647 486.609 191.595 487.094ZM198.698 491.046V483.558C198.698 482.917 198.882 482.412 199.251 482.043C199.623 481.675 200.137 481.491 200.791 481.491C201.029 481.491 201.246 481.517 201.441 481.569C201.64 481.617 201.825 481.686 201.994 481.777L201.727 482.908C201.601 482.839 201.48 482.791 201.363 482.765C201.246 482.739 201.131 482.726 201.019 482.726C200.754 482.726 200.538 482.793 200.369 482.927C200.204 483.062 200.122 483.291 200.122 483.616V484.611H201.812V485.794H200.122V491.046H198.698ZM197.405 485.794V484.611H198.887V485.794H197.405ZM205.982 491.241C205.289 491.241 204.68 491.1 204.156 490.818C203.631 490.532 203.222 490.134 202.927 489.622C202.637 489.111 202.492 488.517 202.492 487.841C202.492 487.347 202.576 486.892 202.745 486.476C202.914 486.056 203.152 485.692 203.46 485.384C203.768 485.077 204.127 484.838 204.539 484.669C204.955 484.5 205.408 484.416 205.898 484.416C206.431 484.416 206.905 484.511 207.321 484.702C207.737 484.888 208.082 485.15 208.355 485.488C208.632 485.826 208.827 486.223 208.94 486.678C209.057 487.129 209.076 487.618 208.998 488.147H203.863C203.854 488.533 203.939 488.871 204.117 489.161C204.294 489.447 204.548 489.67 204.877 489.83C205.211 489.991 205.603 490.071 206.054 490.071C206.418 490.071 206.769 490.017 207.107 489.908C207.449 489.796 207.759 489.631 208.036 489.414L208.589 490.441C208.381 490.61 208.129 490.756 207.835 490.877C207.54 490.994 207.232 491.083 206.912 491.143C206.591 491.208 206.281 491.241 205.982 491.241ZM203.948 487.094H207.594C207.581 486.609 207.425 486.227 207.126 485.95C206.831 485.673 206.411 485.534 205.865 485.534C205.336 485.534 204.897 485.673 204.546 485.95C204.199 486.227 204 486.609 203.948 487.094ZM210.484 491.046V484.611H211.914V485.43C212.182 485.07 212.494 484.812 212.85 484.656C213.205 484.496 213.573 484.416 213.955 484.416C214.544 484.416 215.031 484.533 215.417 484.767C215.803 485.001 216.089 485.302 216.275 485.67C216.466 486.039 216.561 486.418 216.561 486.808V491.046H215.131V487.25C215.131 486.791 214.992 486.422 214.715 486.145C214.442 485.868 214.061 485.729 213.571 485.729C213.25 485.729 212.964 485.8 212.713 485.943C212.466 486.086 212.271 486.286 212.128 486.541C211.985 486.793 211.914 487.087 211.914 487.425V491.046H210.484ZM221.153 491.241C220.525 491.241 219.968 491.094 219.483 490.799C218.997 490.5 218.616 490.095 218.339 489.583C218.066 489.068 217.929 488.483 217.929 487.828C217.929 487.356 218.007 486.914 218.163 486.502C218.319 486.086 218.54 485.722 218.826 485.41C219.116 485.098 219.459 484.856 219.853 484.682C220.252 484.505 220.692 484.416 221.173 484.416C221.758 484.416 222.265 484.533 222.694 484.767C223.123 485.001 223.48 485.326 223.766 485.742L223.467 486.06V481.686H224.897V491.046H223.61V489.499L223.818 489.824C223.584 490.231 223.248 490.569 222.811 490.838C222.377 491.107 221.825 491.241 221.153 491.241ZM221.413 489.973C221.812 489.973 222.165 489.887 222.473 489.713C222.785 489.536 223.029 489.287 223.207 488.966C223.385 488.645 223.474 488.266 223.474 487.828C223.474 487.391 223.385 487.012 223.207 486.691C223.029 486.366 222.785 486.117 222.473 485.943C222.165 485.77 221.812 485.683 221.413 485.683C221.014 485.683 220.661 485.77 220.354 485.943C220.046 486.117 219.803 486.366 219.626 486.691C219.448 487.012 219.359 487.391 219.359 487.828C219.359 488.266 219.448 488.645 219.626 488.966C219.803 489.287 220.046 489.536 220.354 489.713C220.666 489.887 221.019 489.973 221.413 489.973ZM229.824 491.241C229.131 491.241 228.522 491.1 227.997 490.818C227.473 490.532 227.064 490.134 226.769 489.622C226.479 489.111 226.333 488.517 226.333 487.841C226.333 487.347 226.418 486.892 226.587 486.476C226.756 486.056 226.994 485.692 227.302 485.384C227.61 485.077 227.969 484.838 228.381 484.669C228.797 484.5 229.25 484.416 229.739 484.416C230.272 484.416 230.747 484.511 231.163 484.702C231.579 484.888 231.923 485.15 232.196 485.488C232.474 485.826 232.669 486.223 232.781 486.678C232.898 487.129 232.918 487.618 232.84 488.147H227.705C227.696 488.533 227.781 488.871 227.958 489.161C228.136 489.447 228.39 489.67 228.719 489.83C229.053 489.991 229.445 490.071 229.895 490.071C230.259 490.071 230.61 490.017 230.948 489.908C231.291 489.796 231.601 489.631 231.878 489.414L232.43 490.441C232.222 490.61 231.971 490.756 231.676 490.877C231.382 490.994 231.074 491.083 230.753 491.143C230.433 491.208 230.123 491.241 229.824 491.241ZM227.789 487.094H231.436C231.423 486.609 231.267 486.227 230.968 485.95C230.673 485.673 230.253 485.534 229.707 485.534C229.178 485.534 228.738 485.673 228.387 485.95C228.041 486.227 227.841 486.609 227.789 487.094ZM234.325 491.046V484.611H235.755V485.501C235.998 485.098 236.293 484.817 236.639 484.656C236.986 484.492 237.359 484.409 237.757 484.409C237.887 484.409 238.011 484.416 238.128 484.429C238.245 484.442 238.358 484.461 238.466 484.487L238.277 485.963C238.147 485.924 238.015 485.894 237.881 485.872C237.747 485.85 237.612 485.839 237.478 485.839C236.98 485.839 236.568 485.993 236.243 486.301C235.918 486.604 235.755 487.018 235.755 487.542V491.046H234.325ZM241.828 491.234C241.295 491.234 240.797 491.159 240.333 491.007C239.87 490.855 239.48 490.652 239.163 490.396L239.703 489.349C240.002 489.583 240.338 489.768 240.71 489.902C241.087 490.036 241.458 490.103 241.822 490.103C242.242 490.103 242.569 490.03 242.803 489.882C243.037 489.735 243.154 489.529 243.154 489.265C243.154 489.014 243.053 488.829 242.849 488.712C242.65 488.591 242.268 488.465 241.705 488.335C240.895 488.166 240.305 487.928 239.937 487.62C239.573 487.308 239.391 486.877 239.391 486.327C239.391 485.941 239.497 485.601 239.709 485.306C239.926 485.007 240.223 484.773 240.6 484.604C240.977 484.435 241.412 484.351 241.906 484.351C242.387 484.351 242.84 484.42 243.265 484.559C243.69 484.693 244.058 484.884 244.37 485.131L243.863 486.184C243.703 486.041 243.516 485.917 243.304 485.813C243.092 485.709 242.866 485.629 242.628 485.573C242.394 485.512 242.16 485.482 241.926 485.482C241.562 485.482 241.265 485.553 241.035 485.696C240.81 485.835 240.697 486.028 240.697 486.275C240.697 486.531 240.806 486.719 241.022 486.84C241.239 486.962 241.612 487.083 242.14 487.204C242.972 487.386 243.568 487.629 243.928 487.932C244.288 488.236 244.467 488.656 244.467 489.193C244.467 489.605 244.357 489.965 244.136 490.272C243.915 490.576 243.605 490.812 243.206 490.981C242.812 491.15 242.353 491.234 241.828 491.234ZM252.199 491.241C251.528 491.241 250.927 491.087 250.399 490.779C249.874 490.467 249.463 490.054 249.164 489.538C248.865 489.018 248.715 488.448 248.715 487.828C248.715 487.369 248.8 486.936 248.969 486.528C249.142 486.117 249.385 485.753 249.697 485.436C250.013 485.12 250.384 484.871 250.808 484.689C251.233 484.507 251.699 484.416 252.206 484.416C252.877 484.416 253.475 484.572 254 484.884C254.528 485.192 254.942 485.605 255.241 486.125C255.54 486.641 255.69 487.209 255.69 487.828C255.69 488.283 255.603 488.717 255.43 489.128C255.261 489.54 255.02 489.904 254.708 490.22C254.396 490.537 254.028 490.786 253.603 490.968C253.179 491.15 252.711 491.241 252.199 491.241ZM252.199 489.973C252.598 489.973 252.951 489.887 253.259 489.713C253.571 489.536 253.816 489.287 253.993 488.966C254.171 488.645 254.26 488.266 254.26 487.828C254.26 487.391 254.171 487.012 253.993 486.691C253.816 486.366 253.571 486.117 253.259 485.943C252.951 485.77 252.598 485.683 252.199 485.683C251.801 485.683 251.445 485.77 251.133 485.943C250.826 486.117 250.583 486.366 250.405 486.691C250.232 487.012 250.145 487.391 250.145 487.828C250.145 488.266 250.234 488.645 250.412 488.966C250.589 489.287 250.832 489.536 251.14 489.713C251.452 489.887 251.805 489.973 252.199 489.973ZM257.693 491.046V483.558C257.693 482.917 257.877 482.412 258.246 482.043C258.618 481.675 259.132 481.491 259.786 481.491C260.025 481.491 260.241 481.517 260.436 481.569C260.636 481.617 260.82 481.686 260.989 481.777L260.722 482.908C260.597 482.839 260.475 482.791 260.358 482.765C260.241 482.739 260.126 482.726 260.014 482.726C259.749 482.726 259.533 482.793 259.364 482.927C259.199 483.062 259.117 483.291 259.117 483.616V484.611H260.807V485.794H259.117V491.046H257.693ZM256.4 485.794V484.611H257.882V485.794H256.4ZM269.098 491.241C268.288 491.241 267.61 491.076 267.064 490.747C266.522 490.418 266.113 489.971 265.835 489.408C265.562 488.84 265.426 488.203 265.426 487.497V481.946H266.882V487.484C266.882 488.286 267.081 488.884 267.48 489.278C267.878 489.668 268.418 489.863 269.098 489.863C269.779 489.863 270.318 489.668 270.717 489.278C271.115 488.884 271.315 488.286 271.315 487.484V481.946H272.777V487.497C272.777 488.199 272.639 488.834 272.361 489.401C272.088 489.965 271.679 490.413 271.133 490.747C270.591 491.076 269.913 491.241 269.098 491.241ZM274.9 491.046V481.686H276.33V487.224L278.865 484.611H280.555L278.28 487.074L280.886 491.046H279.177L277.24 488.004L276.33 488.927V491.046H274.9ZM282.149 491.046V484.611H283.579V485.501C283.821 485.098 284.116 484.817 284.463 484.656C284.809 484.492 285.182 484.409 285.581 484.409C285.711 484.409 285.834 484.416 285.951 484.429C286.068 484.442 286.181 484.461 286.289 484.487L286.101 485.963C285.971 485.924 285.838 485.894 285.704 485.872C285.57 485.85 285.435 485.839 285.301 485.839C284.803 485.839 284.391 485.993 284.066 486.301C283.741 486.604 283.579 487.018 283.579 487.542V491.046H282.149ZM289.268 491.241C288.822 491.241 288.43 491.159 288.092 490.994C287.754 490.825 287.489 490.589 287.299 490.285C287.112 489.978 287.019 489.616 287.019 489.2C287.019 488.849 287.108 488.533 287.286 488.251C287.463 487.965 287.738 487.729 288.111 487.542C288.488 487.356 288.971 487.233 289.561 487.172C290.15 487.107 290.858 487.116 291.686 487.198L291.712 488.186C291.123 488.104 290.616 488.069 290.191 488.082C289.766 488.095 289.418 488.149 289.145 488.244C288.876 488.335 288.677 488.459 288.547 488.615C288.421 488.767 288.358 488.942 288.358 489.141C288.358 489.453 288.469 489.694 288.69 489.863C288.915 490.032 289.223 490.116 289.613 490.116C289.946 490.116 290.245 490.056 290.51 489.934C290.774 489.813 290.982 489.642 291.134 489.421C291.29 489.2 291.368 488.94 291.368 488.641V486.931C291.368 486.645 291.307 486.398 291.186 486.19C291.064 485.978 290.88 485.813 290.633 485.696C290.386 485.579 290.078 485.521 289.71 485.521C289.372 485.521 289.038 485.573 288.709 485.677C288.38 485.777 288.066 485.935 287.767 486.151L287.364 485.098C287.767 484.825 288.187 484.633 288.625 484.52C289.062 484.407 289.483 484.351 289.886 484.351C290.484 484.351 290.995 484.446 291.42 484.637C291.849 484.823 292.178 485.107 292.408 485.488C292.637 485.865 292.752 486.342 292.752 486.918V491.046H291.465V490.285C291.248 490.593 290.947 490.829 290.562 490.994C290.176 491.159 289.745 491.241 289.268 491.241ZM294.653 491.046V484.611H296.083V491.046H294.653ZM295.368 483.46C295.113 483.46 294.892 483.378 294.705 483.213C294.519 483.049 294.426 482.832 294.426 482.563C294.426 482.299 294.519 482.085 294.705 481.92C294.892 481.751 295.113 481.666 295.368 481.666C295.624 481.666 295.845 481.751 296.031 481.92C296.218 482.085 296.311 482.299 296.311 482.563C296.311 482.832 296.218 483.049 296.031 483.213C295.845 483.378 295.624 483.46 295.368 483.46ZM298.069 491.046V484.611H299.499V485.43C299.767 485.07 300.079 484.812 300.435 484.656C300.79 484.496 301.158 484.416 301.54 484.416C302.129 484.416 302.616 484.533 303.002 484.767C303.388 485.001 303.674 485.302 303.86 485.67C304.051 486.039 304.146 486.418 304.146 486.808V491.046H302.716V487.25C302.716 486.791 302.577 486.422 302.3 486.145C302.027 485.868 301.646 485.729 301.156 485.729C300.835 485.729 300.549 485.8 300.298 485.943C300.051 486.086 299.856 486.286 299.713 486.541C299.57 486.793 299.499 487.087 299.499 487.425V491.046H298.069ZM309.005 491.241C308.311 491.241 307.702 491.1 307.178 490.818C306.654 490.532 306.244 490.134 305.95 489.622C305.659 489.111 305.514 488.517 305.514 487.841C305.514 487.347 305.599 486.892 305.768 486.476C305.937 486.056 306.175 485.692 306.483 485.384C306.79 485.077 307.15 484.838 307.562 484.669C307.978 484.5 308.43 484.416 308.92 484.416C309.453 484.416 309.928 484.511 310.344 484.702C310.76 484.888 311.104 485.15 311.377 485.488C311.654 485.826 311.849 486.223 311.962 486.678C312.079 487.129 312.099 487.618 312.021 488.147H306.886C306.877 488.533 306.961 488.871 307.139 489.161C307.317 489.447 307.57 489.67 307.9 489.83C308.233 489.991 308.625 490.071 309.076 490.071C309.44 490.071 309.791 490.017 310.129 489.908C310.471 489.796 310.781 489.631 311.059 489.414L311.611 490.441C311.403 490.61 311.152 490.756 310.857 490.877C310.562 490.994 310.255 491.083 309.934 491.143C309.613 491.208 309.304 491.241 309.005 491.241ZM306.97 487.094H310.617C310.604 486.609 310.448 486.227 310.149 485.95C309.854 485.673 309.434 485.534 308.888 485.534C308.359 485.534 307.919 485.673 307.568 485.95C307.221 486.227 307.022 486.609 306.97 487.094Z" fill="white"/>
<defs>
<linearGradient id="paint0_linear_355_18798" x1="146.406" y1="117.769" x2="566.733" y2="141.702" gradientUnits="userSpaceOnUse">
<stop stop-color="#544CF9"/>
<stop offset="0.52" stop-color="#8B86FF"/>
<stop offset="1" stop-color="#5D56FF"/>
</linearGradient>
<linearGradient id="paint1_linear_355_18798" x1="146.985" y1="394.609" x2="313.03" y2="7.72831" gradientUnits="userSpaceOnUse">
<stop stop-color="#544CF9"/>
<stop offset="0.52" stop-color="#8B86FF"/>
<stop offset="1" stop-color="#5D56FF"/>
</linearGradient>
<linearGradient id="paint2_linear_355_18798" x1="160.811" y1="103.673" x2="576.78" y2="168.616" gradientUnits="userSpaceOnUse">
<stop stop-color="#544CF9"/>
<stop offset="0.52" stop-color="#8B86FF"/>
<stop offset="1" stop-color="#5D56FF"/>
</linearGradient>
<linearGradient id="paint3_linear_355_18798" x1="320.196" y1="282.85" x2="275.953" y2="454.876" gradientUnits="userSpaceOnUse">
<stop stop-color="#FFE70C"/>
<stop offset="1" stop-color="#227AFF"/>
</linearGradient>
<linearGradient id="paint4_linear_355_18798" x1="261.287" y1="34.4352" x2="590.102" y2="297.358" gradientUnits="userSpaceOnUse">
<stop stop-color="#544CF9"/>
<stop offset="0.52" stop-color="#8B86FF"/>
<stop offset="1" stop-color="#5D56FF"/>
</linearGradient>
<linearGradient id="paint5_linear_355_18798" x1="384.165" y1="24.4611" x2="536.868" y2="416.8" gradientUnits="userSpaceOnUse">
<stop stop-color="#544CF9"/>
<stop offset="0.52" stop-color="#8B86FF"/>
<stop offset="1" stop-color="#5D56FF"/>
</linearGradient>
<linearGradient id="paint6_linear_355_18798" x1="497.305" y1="78.9984" x2="428.545" y2="494.354" gradientUnits="userSpaceOnUse">
<stop stop-color="#544CF9"/>
<stop offset="0.52" stop-color="#8B86FF"/>
<stop offset="1" stop-color="#5D56FF"/>
</linearGradient>
<linearGradient id="paint7_linear_355_18798" x1="158.887" y1="480.431" x2="327.875" y2="480.431" gradientUnits="userSpaceOnUse">
<stop stop-color="#2943DE"/>
<stop offset="1" stop-color="#FFE70C"/>
</linearGradient>
</defs>
</svg>
