<svg width="302" height="218" viewBox="0 0 302 218" fill="none" xmlns="http://www.w3.org/2000/svg">
<path fill-rule="evenodd" clip-rule="evenodd" d="M106.498 166.054L117 159L110.391 166.374C111.929 167.011 113.011 168.526 113.011 170.294V177.761C113.011 180.102 111.112 182.001 108.771 182.001H10.24C7.89834 182.001 6.00005 180.102 6.00005 177.761V170.294C6.00005 167.952 7.89834 166.054 10.24 166.054H106.498Z" fill="#140D83"/>
<path d="M11.5902 176.389V169.389H12.6752L15.5302 174.034L15.0952 174.039L17.8452 169.389H18.9102V176.389H17.8152L17.8302 170.879L18.0452 170.954L15.6652 174.879H14.8452L12.4202 170.954L12.6002 170.879L12.6152 176.389H11.5902ZM21.9608 176.539C21.6175 176.539 21.3158 176.476 21.0558 176.349C20.7958 176.219 20.5925 176.038 20.4458 175.804C20.3025 175.568 20.2308 175.289 20.2308 174.969C20.2308 174.699 20.2991 174.456 20.4358 174.239C20.5725 174.019 20.7841 173.838 21.0708 173.694C21.3608 173.551 21.7325 173.456 22.1858 173.409C22.6391 173.359 23.1841 173.366 23.8208 173.429L23.8408 174.189C23.3875 174.126 22.9975 174.099 22.6708 174.109C22.3441 174.119 22.0758 174.161 21.8658 174.234C21.6591 174.304 21.5058 174.399 21.4058 174.519C21.3091 174.636 21.2608 174.771 21.2608 174.924C21.2608 175.164 21.3458 175.349 21.5158 175.479C21.6891 175.609 21.9258 175.674 22.2258 175.674C22.4825 175.674 22.7125 175.628 22.9158 175.534C23.1191 175.441 23.2791 175.309 23.3958 175.139C23.5158 174.969 23.5758 174.769 23.5758 174.539V173.224C23.5758 173.004 23.5291 172.814 23.4358 172.654C23.3425 172.491 23.2008 172.364 23.0108 172.274C22.8208 172.184 22.5841 172.139 22.3008 172.139C22.0408 172.139 21.7841 172.179 21.5308 172.259C21.2775 172.336 21.0358 172.458 20.8058 172.624L20.4958 171.814C20.8058 171.604 21.1291 171.456 21.4658 171.369C21.8025 171.283 22.1258 171.239 22.4358 171.239C22.8958 171.239 23.2891 171.313 23.6158 171.459C23.9458 171.603 24.1991 171.821 24.3758 172.114C24.5525 172.404 24.6408 172.771 24.6408 173.214V176.389H23.6508V175.804C23.4841 176.041 23.2525 176.223 22.9558 176.349C22.6591 176.476 22.3275 176.539 21.9608 176.539ZM26.1034 178.489V171.439H27.0934V172.134C27.29 171.884 27.5417 171.681 27.8484 171.524C28.155 171.368 28.5334 171.289 28.9834 171.289C29.4667 171.289 29.895 171.404 30.2684 171.634C30.645 171.861 30.9384 172.173 31.1484 172.569C31.3584 172.963 31.4634 173.411 31.4634 173.914C31.4634 174.278 31.4034 174.619 31.2834 174.939C31.1634 175.256 30.9917 175.534 30.7684 175.774C30.5484 176.014 30.285 176.203 29.9784 176.339C29.675 176.473 29.3384 176.539 28.9684 176.539C28.5817 176.539 28.2417 176.469 27.9484 176.329C27.655 176.189 27.405 176.001 27.1984 175.764V178.489H26.1034ZM28.7834 175.564C29.09 175.564 29.3617 175.498 29.5984 175.364C29.8384 175.228 30.025 175.036 30.1584 174.789C30.295 174.543 30.3634 174.251 30.3634 173.914C30.3634 173.578 30.295 173.286 30.1584 173.039C30.0217 172.789 29.8334 172.598 29.5934 172.464C29.3567 172.331 29.0867 172.264 28.7834 172.264C28.4767 172.264 28.2034 172.331 27.9634 172.464C27.7267 172.598 27.54 172.789 27.4034 173.039C27.2667 173.286 27.1984 173.578 27.1984 173.914C27.1984 174.251 27.2667 174.543 27.4034 174.789C27.54 175.036 27.7267 175.228 27.9634 175.364C28.2034 175.498 28.4767 175.564 28.7834 175.564ZM35.8582 176.389L34.2182 173.759L35.7432 171.439H36.9182L35.4032 173.709L37.1732 176.389H35.8582ZM32.5682 176.389V171.439H33.6682V173.349H35.1582V174.259H33.6682V176.389H32.5682ZM40.3067 176.539C39.7734 176.539 39.3051 176.431 38.9017 176.214C38.4984 175.994 38.1834 175.688 37.9567 175.294C37.7334 174.901 37.6217 174.444 37.6217 173.924C37.6217 173.544 37.6867 173.194 37.8167 172.874C37.9467 172.551 38.1301 172.271 38.3667 172.034C38.6034 171.798 38.8801 171.614 39.1967 171.484C39.5167 171.354 39.8651 171.289 40.2417 171.289C40.6517 171.289 41.0167 171.363 41.3367 171.509C41.6567 171.653 41.9217 171.854 42.1317 172.114C42.3451 172.374 42.4951 172.679 42.5817 173.029C42.6717 173.376 42.6867 173.753 42.6267 174.159H38.6767C38.6701 174.456 38.7351 174.716 38.8717 174.939C39.0084 175.159 39.2034 175.331 39.4567 175.454C39.7134 175.578 40.0151 175.639 40.3617 175.639C40.6417 175.639 40.9117 175.598 41.1717 175.514C41.4351 175.428 41.6734 175.301 41.8867 175.134L42.3117 175.924C42.1517 176.054 41.9584 176.166 41.7317 176.259C41.5051 176.349 41.2684 176.418 41.0217 176.464C40.7751 176.514 40.5367 176.539 40.3067 176.539ZM38.7417 173.349H41.5467C41.5367 172.976 41.4167 172.683 41.1867 172.469C40.9601 172.256 40.6367 172.149 40.2167 172.149C39.8101 172.149 39.4717 172.256 39.2017 172.469C38.9351 172.683 38.7817 172.976 38.7417 173.349ZM44.8744 176.389V172.349H43.2494V171.439H47.6044V172.349H45.9744V176.389H44.8744ZM48.6131 176.389V171.439H49.6781V174.779L52.3631 171.439H53.3231V176.389H52.2631V173.009L49.5531 176.389H48.6131ZM54.8534 176.389V171.439H55.9534V173.349H58.4334V171.439H59.5334V176.389H58.4334V174.259H55.9534V176.389H54.8534ZM61.0643 176.389V171.439H64.3243V172.349H62.1643V176.389H61.0643ZM67.7928 176.389V171.439H72.4678V176.389H71.3678V172.349H68.8928V176.389H67.7928ZM73.994 178.489V171.439H74.984V172.134C75.1807 171.884 75.4323 171.681 75.739 171.524C76.0457 171.368 76.424 171.289 76.874 171.289C77.3573 171.289 77.7857 171.404 78.159 171.634C78.5357 171.861 78.829 172.173 79.039 172.569C79.249 172.963 79.354 173.411 79.354 173.914C79.354 174.278 79.294 174.619 79.174 174.939C79.054 175.256 78.8823 175.534 78.659 175.774C78.439 176.014 78.1757 176.203 77.869 176.339C77.5657 176.473 77.229 176.539 76.859 176.539C76.4723 176.539 76.1323 176.469 75.839 176.329C75.5457 176.189 75.2957 176.001 75.089 175.764V178.489H73.994ZM76.674 175.564C76.9807 175.564 77.2523 175.498 77.489 175.364C77.729 175.228 77.9157 175.036 78.049 174.789C78.1857 174.543 78.254 174.251 78.254 173.914C78.254 173.578 78.1857 173.286 78.049 173.039C77.9123 172.789 77.724 172.598 77.484 172.464C77.2473 172.331 76.9773 172.264 76.674 172.264C76.3673 172.264 76.094 172.331 75.854 172.464C75.6173 172.598 75.4307 172.789 75.294 173.039C75.1573 173.286 75.089 173.578 75.089 173.914C75.089 174.251 75.1573 174.543 75.294 174.789C75.4307 175.036 75.6173 175.228 75.854 175.364C76.094 175.498 76.3673 175.564 76.674 175.564ZM82.7627 176.539C82.246 176.539 81.7843 176.421 81.3777 176.184C80.9743 175.944 80.6577 175.626 80.4277 175.229C80.1977 174.829 80.0827 174.391 80.0827 173.914C80.0827 173.561 80.1477 173.228 80.2777 172.914C80.411 172.598 80.5977 172.318 80.8377 172.074C81.081 171.831 81.366 171.639 81.6927 171.499C82.0193 171.359 82.3777 171.289 82.7677 171.289C83.2843 171.289 83.7443 171.409 84.1477 171.649C84.5543 171.886 84.8727 172.204 85.1027 172.604C85.3327 173.001 85.4477 173.438 85.4477 173.914C85.4477 174.264 85.381 174.598 85.2477 174.914C85.1177 175.231 84.9327 175.511 84.6927 175.754C84.4527 175.998 84.1693 176.189 83.8427 176.329C83.516 176.469 83.156 176.539 82.7627 176.539ZM82.7627 175.564C83.0693 175.564 83.341 175.498 83.5777 175.364C83.8177 175.228 84.006 175.036 84.1427 174.789C84.2793 174.543 84.3477 174.251 84.3477 173.914C84.3477 173.578 84.2793 173.286 84.1427 173.039C84.006 172.789 83.8177 172.598 83.5777 172.464C83.341 172.331 83.0693 172.264 82.7627 172.264C82.456 172.264 82.1827 172.331 81.9427 172.464C81.706 172.598 81.5193 172.789 81.3827 173.039C81.2493 173.286 81.1827 173.578 81.1827 173.914C81.1827 174.251 81.251 174.543 81.3877 174.789C81.5243 175.036 81.711 175.228 81.9477 175.364C82.1877 175.498 82.4593 175.564 82.7627 175.564ZM88.8714 176.539C88.3381 176.539 87.8681 176.426 87.4614 176.199C87.0581 175.969 86.7431 175.658 86.5164 175.264C86.2898 174.868 86.1764 174.418 86.1764 173.914C86.1764 173.534 86.2431 173.186 86.3764 172.869C86.5098 172.549 86.6998 172.271 86.9464 172.034C87.1964 171.798 87.4898 171.614 87.8264 171.484C88.1664 171.354 88.5381 171.289 88.9414 171.289C89.2881 171.289 89.6114 171.333 89.9114 171.419C90.2148 171.506 90.4931 171.639 90.7464 171.819L90.2264 172.599C90.0598 172.456 89.8648 172.349 89.6414 172.279C89.4181 172.209 89.1814 172.174 88.9314 172.174C88.5681 172.174 88.2581 172.243 88.0014 172.379C87.7448 172.513 87.5481 172.708 87.4114 172.964C87.2781 173.221 87.2114 173.536 87.2114 173.909C87.2114 174.279 87.2781 174.594 87.4114 174.854C87.5481 175.114 87.7431 175.313 87.9964 175.449C88.2531 175.586 88.5648 175.654 88.9314 175.654C89.2081 175.654 89.4681 175.611 89.7114 175.524C89.9548 175.434 90.1598 175.314 90.3264 175.164L90.8314 175.899C90.5548 176.099 90.2481 176.256 89.9114 176.369C89.5748 176.483 89.2281 176.539 88.8714 176.539ZM86.8814 174.269V173.444H89.8764V174.269H86.8814ZM95.1356 176.389L93.4956 173.759L95.0206 171.439H96.1956L94.6806 173.709L96.4506 176.389H95.1356ZM91.8456 176.389V171.439H92.9456V173.349H94.4356V174.259H92.9456V176.389H91.8456ZM98.5267 176.389V172.349H96.9017V171.439H101.257V172.349H99.6267V176.389H98.5267ZM102.837 178.629C102.657 178.629 102.48 178.609 102.307 178.569C102.134 178.529 101.964 178.461 101.797 178.364L102.047 177.424C102.15 177.491 102.264 177.541 102.387 177.574C102.51 177.608 102.62 177.624 102.717 177.624C102.95 177.624 103.134 177.569 103.267 177.459C103.4 177.349 103.505 177.179 103.582 176.949L103.747 176.469L101.797 171.439H103.002L104.372 175.279L105.707 171.439H106.872L104.732 177.104C104.579 177.501 104.407 177.809 104.217 178.029C104.027 178.253 103.817 178.408 103.587 178.494C103.357 178.584 103.107 178.629 102.837 178.629Z" fill="white"/>
<g clip-path="url(#clip0_1146_5)">
<mask id="mask0_1146_5" style="mask-type:luminance" maskUnits="userSpaceOnUse" x="82" y="0" width="172" height="92">
<path d="M253.216 68.8572C248.819 47.5559 236.519 28.71 218.791 16.1094C201.063 3.50873 179.221 -1.91206 157.658 0.937235C136.096 3.78644 116.411 14.6945 102.565 31.4675C88.7178 48.2404 81.7354 69.6342 83.0217 91.3462L168.932 86.2572L253.216 68.8572Z" fill="white"/>
</mask>
<g mask="url(#mask0_1146_5)">
<path d="M253.216 68.8572C248.819 47.5559 236.519 28.71 218.791 16.1094C201.063 3.50873 179.221 -1.91206 157.658 0.937235C136.096 3.78644 116.411 14.6945 102.565 31.4675C88.7178 48.2404 81.7354 69.6342 83.0217 91.3462L168.932 86.2572L253.216 68.8572Z" fill="#4BE05A" stroke="url(#paint0_linear_1146_5)" stroke-width="0.424994"/>
</g>
<mask id="mask1_1146_5" style="mask-type:luminance" maskUnits="userSpaceOnUse" x="169" y="71" width="87" height="85">
<path d="M222.417 155.478C234.762 145.706 244.19 132.733 249.673 117.973C255.157 103.214 256.486 87.2325 253.516 71.7695L169 88.0005L222.417 155.478Z" fill="white"/>
</mask>
<g mask="url(#mask1_1146_5)">
<path d="M222.417 155.478C234.762 145.706 244.19 132.733 249.673 117.973C255.157 103.214 256.486 87.2325 253.516 71.7695L169 88.0005L222.417 155.478Z" fill="#05E9F0" stroke="url(#paint1_linear_1146_5)" stroke-width="0.424994"/>
</g>
<mask id="mask2_1146_5" style="mask-type:luminance" maskUnits="userSpaceOnUse" x="169" y="88" width="49" height="86">
<path d="M177.181 173.672C191.758 172.28 205.738 167.192 217.799 158.889L169 88L177.181 173.672Z" fill="white"/>
</mask>
<g mask="url(#mask2_1146_5)">
<path d="M177.181 173.672C191.758 172.28 205.738 167.192 217.799 158.889L169 88L177.181 173.672Z" fill="#2943DE" stroke="url(#paint2_linear_1146_5)" stroke-width="0.424994"/>
</g>
<mask id="mask3_1146_5" style="mask-type:luminance" maskUnits="userSpaceOnUse" x="133" y="88" width="41" height="87">
<path d="M133.56 166.426C146.198 172.136 160.027 174.708 173.873 173.923L169 88L133.56 166.426Z" fill="white"/>
</mask>
<g mask="url(#mask3_1146_5)">
<path d="M133.56 166.426C146.198 172.136 160.027 174.708 173.873 173.923L169 88L133.56 166.426Z" fill="url(#paint3_linear_1146_5)" stroke="url(#paint4_linear_1146_5)" stroke-width="0.424994"/>
</g>
<mask id="mask4_1146_5" style="mask-type:luminance" maskUnits="userSpaceOnUse" x="99" y="88" width="71" height="77">
<path d="M99.0195 138.093C106.945 149.165 117.385 158.199 129.482 164.452L169 88.001L99.0195 138.093Z" fill="white"/>
</mask>
<g mask="url(#mask4_1146_5)">
<path d="M99.0195 138.093C106.945 149.165 117.385 158.199 129.482 164.452L169 88.001L99.0195 138.093Z" fill="#8B86FF" stroke="url(#paint5_linear_1146_5)" stroke-width="0.424994"/>
</g>
<mask id="mask5_1146_5" style="mask-type:luminance" maskUnits="userSpaceOnUse" x="83" y="88" width="86" height="47">
<path d="M83.257 95.394C84.4578 109.318 89.0315 122.74 96.5828 134.5L169 88L83.257 95.394Z" fill="white"/>
</mask>
<g mask="url(#mask5_1146_5)">
<path d="M83.257 95.394C84.4578 109.318 89.0315 122.74 96.5828 134.5L169 88L83.257 95.394Z" fill="#544CF9" stroke="url(#paint6_linear_1146_5)" stroke-width="0.424994"/>
</g>
<path d="M150.484 55.8V54.6L156.484 48.6H157.684V54.6H158.884V55.8H157.684V57H156.484V55.8H150.484ZM156.484 54.6V50.292L152.176 54.6H156.484ZM166.921 54.6V51C166.921 50.34 166.381 49.8 165.721 49.8H162.121C161.461 49.8 160.921 50.34 160.921 51V54.6C160.921 55.26 161.461 55.8 162.121 55.8H165.721C166.381 55.8 166.921 55.26 166.921 54.6ZM168.121 51V54.6C168.121 55.872 167.065 57 165.721 57H162.121C160.837 57 159.721 55.956 159.721 54.6V51C159.721 49.728 160.777 48.6 162.121 48.6H165.721C167.005 48.6 168.085 49.668 168.121 51ZM177.364 48.6V49.572L171.568 57H170.764V56.076L176.608 48.6H177.364ZM171.364 52.2C172.024 52.2 172.564 51.66 172.564 51C172.564 50.34 172.024 49.8 171.364 49.8C170.704 49.8 170.164 50.34 170.164 51C170.164 51.66 170.704 52.2 171.364 52.2ZM173.764 51C173.764 52.272 172.708 53.4 171.364 53.4C170.08 53.4 168.964 52.356 168.964 51C168.964 49.728 170.02 48.6 171.364 48.6C172.648 48.6 173.728 49.668 173.764 51ZM176.764 55.8C177.424 55.8 177.964 55.26 177.964 54.6C177.964 53.94 177.424 53.4 176.764 53.4C176.104 53.4 175.564 53.94 175.564 54.6C175.564 55.26 176.104 55.8 176.764 55.8ZM179.164 54.6C179.164 55.872 178.108 57 176.764 57C175.48 57 174.364 55.956 174.364 54.6C174.364 53.328 175.42 52.2 176.764 52.2C178.048 52.2 179.128 53.268 179.164 54.6Z" fill="#1C195B"/>
<path d="M209.909 106.314V106.814H215.909V107.814H208.909V106.314C208.909 105.254 209.789 104.314 210.909 104.314H213.909C214.459 104.314 214.909 103.864 214.909 103.314V102.814C214.909 102.264 214.459 101.814 213.909 101.814H210.909C210.359 101.814 209.909 102.264 209.909 102.814H208.909C208.909 101.754 209.789 100.814 210.909 100.814H213.909C214.959 100.814 215.909 101.704 215.909 102.814V103.314C215.909 104.374 215.029 105.314 213.909 105.314H210.909C210.359 105.314 209.909 105.764 209.909 106.314ZM222.712 105.814V102.814C222.712 102.264 222.262 101.814 221.712 101.814H218.712C218.162 101.814 217.712 102.264 217.712 102.814V105.814C217.712 106.364 218.162 106.814 218.712 106.814H221.712C222.262 106.814 222.712 106.364 222.712 105.814ZM223.712 102.814V105.814C223.712 106.874 222.832 107.814 221.712 107.814H218.712C217.642 107.814 216.712 106.944 216.712 105.814V102.814C216.712 101.754 217.592 100.814 218.712 100.814H221.712C222.782 100.814 223.682 101.704 223.712 102.814ZM231.415 100.814V101.624L226.585 107.814H225.915V107.044L230.785 100.814H231.415ZM226.415 103.814C226.965 103.814 227.415 103.364 227.415 102.814C227.415 102.264 226.965 101.814 226.415 101.814C225.865 101.814 225.415 102.264 225.415 102.814C225.415 103.364 225.865 103.814 226.415 103.814ZM228.415 102.814C228.415 103.874 227.535 104.814 226.415 104.814C225.345 104.814 224.415 103.944 224.415 102.814C224.415 101.754 225.295 100.814 226.415 100.814C227.485 100.814 228.385 101.704 228.415 102.814ZM230.915 106.814C231.465 106.814 231.915 106.364 231.915 105.814C231.915 105.264 231.465 104.814 230.915 104.814C230.365 104.814 229.915 105.264 229.915 105.814C229.915 106.364 230.365 106.814 230.915 106.814ZM232.915 105.814C232.915 106.874 232.035 107.814 230.915 107.814C229.845 107.814 228.915 106.944 228.915 105.814C228.915 104.754 229.795 103.814 230.915 103.814C231.985 103.814 232.885 104.704 232.915 105.814Z" fill="#28368B"/>
<path d="M179.639 137.578L181.639 135.578H182.639V142.578H181.639V136.988L180.049 138.578H179.639V137.578ZM189.542 140.578V137.578C189.542 137.028 189.092 136.578 188.542 136.578H185.542C184.992 136.578 184.542 137.028 184.542 137.578V140.578C184.542 141.128 184.992 141.578 185.542 141.578H188.542C189.092 141.578 189.542 141.128 189.542 140.578ZM190.542 137.578V140.578C190.542 141.638 189.662 142.578 188.542 142.578H185.542C184.472 142.578 183.542 141.708 183.542 140.578V137.578C183.542 136.518 184.422 135.578 185.542 135.578H188.542C189.612 135.578 190.512 136.468 190.542 137.578ZM198.245 135.578V136.388L193.415 142.578H192.745V141.808L197.615 135.578H198.245ZM193.245 138.578C193.795 138.578 194.245 138.128 194.245 137.578C194.245 137.028 193.795 136.578 193.245 136.578C192.695 136.578 192.245 137.028 192.245 137.578C192.245 138.128 192.695 138.578 193.245 138.578ZM195.245 137.578C195.245 138.638 194.365 139.578 193.245 139.578C192.175 139.578 191.245 138.708 191.245 137.578C191.245 136.518 192.125 135.578 193.245 135.578C194.315 135.578 195.215 136.468 195.245 137.578ZM197.745 141.578C198.295 141.578 198.745 141.128 198.745 140.578C198.745 140.028 198.295 139.578 197.745 139.578C197.195 139.578 196.745 140.028 196.745 140.578C196.745 141.128 197.195 141.578 197.745 141.578ZM199.745 140.578C199.745 141.638 198.865 142.578 197.745 142.578C196.675 142.578 195.745 141.708 195.745 140.578C195.745 139.518 196.625 138.578 197.745 138.578C198.815 138.578 199.715 139.468 199.745 140.578Z" fill="white"/>
<path d="M117.1 135L119.1 133H120.1V140H119.1V134.41L117.51 136H117.1V135ZM127.004 138V135C127.004 134.45 126.554 134 126.004 134H123.004C122.454 134 122.004 134.45 122.004 135V138C122.004 138.55 122.454 139 123.004 139H126.004C126.554 139 127.004 138.55 127.004 138ZM128.004 135V138C128.004 139.06 127.124 140 126.004 140H123.004C121.934 140 121.004 139.13 121.004 138V135C121.004 133.94 121.884 133 123.004 133H126.004C127.074 133 127.974 133.89 128.004 135ZM135.706 133V133.81L130.876 140H130.206V139.23L135.076 133H135.706ZM130.706 136C131.256 136 131.706 135.55 131.706 135C131.706 134.45 131.256 134 130.706 134C130.156 134 129.706 134.45 129.706 135C129.706 135.55 130.156 136 130.706 136ZM132.706 135C132.706 136.06 131.826 137 130.706 137C129.636 137 128.706 136.13 128.706 135C128.706 133.94 129.586 133 130.706 133C131.776 133 132.676 133.89 132.706 135ZM135.206 139C135.756 139 136.206 138.55 136.206 138C136.206 137.45 135.756 137 135.206 137C134.656 137 134.206 137.45 134.206 138C134.206 138.55 134.656 139 135.206 139ZM137.206 138C137.206 139.06 136.326 140 135.206 140C134.136 140 133.206 139.13 133.206 138C133.206 136.94 134.086 136 135.206 136C136.276 136 137.176 136.89 137.206 138Z" fill="white"/>
<path d="M99.1 106L101.1 104H102.1V111H101.1V105.41L99.51 107H99.1V106ZM109.004 109V106C109.004 105.45 108.554 105 108.004 105H105.004C104.454 105 104.004 105.45 104.004 106V109C104.004 109.55 104.454 110 105.004 110H108.004C108.554 110 109.004 109.55 109.004 109ZM110.004 106V109C110.004 110.06 109.124 111 108.004 111H105.004C103.934 111 103.004 110.13 103.004 109V106C103.004 104.94 103.884 104 105.004 104H108.004C109.074 104 109.974 104.89 110.004 106ZM117.706 104V104.81L112.876 111H112.206V110.23L117.076 104H117.706ZM112.706 107C113.256 107 113.706 106.55 113.706 106C113.706 105.45 113.256 105 112.706 105C112.156 105 111.706 105.45 111.706 106C111.706 106.55 112.156 107 112.706 107ZM114.706 106C114.706 107.06 113.826 108 112.706 108C111.636 108 110.706 107.13 110.706 106C110.706 104.94 111.586 104 112.706 104C113.776 104 114.676 104.89 114.706 106ZM117.206 110C117.756 110 118.206 109.55 118.206 109C118.206 108.45 117.756 108 117.206 108C116.656 108 116.206 108.45 116.206 109C116.206 109.55 116.656 110 117.206 110ZM119.206 109C119.206 110.06 118.326 111 117.206 111C116.136 111 115.206 110.13 115.206 109C115.206 107.94 116.086 107 117.206 107C118.276 107 119.176 107.89 119.206 109Z" fill="white"/>
<path d="M147.1 150L149.1 148H150.1V155H149.1V149.41L147.51 151H147.1V150ZM157.004 153V150C157.004 149.45 156.554 149 156.004 149H153.004C152.454 149 152.004 149.45 152.004 150V153C152.004 153.55 152.454 154 153.004 154H156.004C156.554 154 157.004 153.55 157.004 153ZM158.004 150V153C158.004 154.06 157.124 155 156.004 155H153.004C151.934 155 151.004 154.13 151.004 153V150C151.004 148.94 151.884 148 153.004 148H156.004C157.074 148 157.974 148.89 158.004 150ZM165.706 148V148.81L160.876 155H160.206V154.23L165.076 148H165.706ZM160.706 151C161.256 151 161.706 150.55 161.706 150C161.706 149.45 161.256 149 160.706 149C160.156 149 159.706 149.45 159.706 150C159.706 150.55 160.156 151 160.706 151ZM162.706 150C162.706 151.06 161.826 152 160.706 152C159.636 152 158.706 151.13 158.706 150C158.706 148.94 159.586 148 160.706 148C161.776 148 162.676 148.89 162.706 150ZM165.206 154C165.756 154 166.206 153.55 166.206 153C166.206 152.45 165.756 152 165.206 152C164.656 152 164.206 152.45 164.206 153C164.206 153.55 164.656 154 165.206 154ZM167.206 153C167.206 154.06 166.326 155 165.206 155C164.136 155 163.206 154.13 163.206 153C163.206 151.94 164.086 151 165.206 151C166.276 151 167.176 151.89 167.206 153Z" fill="white"/>
</g>
<path fill-rule="evenodd" clip-rule="evenodd" d="M229.37 147.123L218 138L227.51 150.675V160.761C227.51 163.102 229.408 165.001 231.75 165.001H297.76C300.102 165.001 302 163.102 302 160.761V150.633C302 148.291 300.102 146.393 297.76 146.393H231.75C230.868 146.393 230.049 146.662 229.37 147.123Z" fill="#140D83"/>
<path d="M234.939 158.389V151.389H236.059V158.389H234.939ZM237.743 158.389V153.439H238.843V155.349H241.323V153.439H242.423V158.389H241.323V156.259H238.843V158.389H237.743ZM243.954 158.389V153.439H246.314C246.874 153.439 247.322 153.545 247.659 153.759C247.996 153.972 248.164 154.292 248.164 154.719C248.164 154.919 248.116 155.097 248.019 155.254C247.922 155.407 247.789 155.535 247.619 155.639C247.449 155.742 247.251 155.817 247.024 155.864L247.004 155.619C247.441 155.679 247.779 155.824 248.019 156.054C248.259 156.284 248.379 156.575 248.379 156.929C248.379 157.229 248.301 157.489 248.144 157.709C247.987 157.925 247.762 158.094 247.469 158.214C247.176 158.33 246.824 158.389 246.414 158.389H243.954ZM245.019 157.574H246.264C246.594 157.574 246.847 157.519 247.024 157.409C247.204 157.299 247.294 157.134 247.294 156.914C247.294 156.697 247.206 156.535 247.029 156.429C246.852 156.319 246.597 156.264 246.264 156.264H244.874V155.479H246.149C246.459 155.479 246.699 155.432 246.869 155.339C247.039 155.242 247.124 155.085 247.124 154.869C247.124 154.652 247.039 154.495 246.869 154.399C246.699 154.299 246.459 154.249 246.149 154.249H245.019V157.574ZM251.878 158.539C251.345 158.539 250.876 158.43 250.473 158.214C250.07 157.994 249.755 157.687 249.528 157.294C249.305 156.9 249.193 156.444 249.193 155.924C249.193 155.544 249.258 155.194 249.388 154.874C249.518 154.55 249.701 154.27 249.938 154.034C250.175 153.797 250.451 153.614 250.768 153.484C251.088 153.354 251.436 153.289 251.813 153.289C252.223 153.289 252.588 153.362 252.908 153.509C253.228 153.652 253.493 153.854 253.703 154.114C253.916 154.374 254.066 154.679 254.153 155.029C254.243 155.375 254.258 155.752 254.198 156.159H250.248C250.241 156.455 250.306 156.715 250.443 156.939C250.58 157.159 250.775 157.33 251.028 157.454C251.285 157.577 251.586 157.639 251.933 157.639C252.213 157.639 252.483 157.597 252.743 157.514C253.006 157.427 253.245 157.3 253.458 157.134L253.883 157.924C253.723 158.054 253.53 158.165 253.303 158.259C253.076 158.349 252.84 158.417 252.593 158.464C252.346 158.514 252.108 158.539 251.878 158.539ZM250.313 155.349H253.118C253.108 154.975 252.988 154.682 252.758 154.469C252.531 154.255 252.208 154.149 251.788 154.149C251.381 154.149 251.043 154.255 250.773 154.469C250.506 154.682 250.353 154.975 250.313 155.349ZM257.66 158.539C257.14 158.539 256.676 158.425 256.27 158.199C255.863 157.969 255.543 157.657 255.31 157.264C255.08 156.867 254.965 156.417 254.965 155.914C254.965 155.534 255.033 155.185 255.17 154.869C255.306 154.549 255.5 154.27 255.75 154.034C256 153.797 256.293 153.614 256.63 153.484C256.97 153.354 257.338 153.289 257.735 153.289C258.068 153.289 258.376 153.334 258.66 153.424C258.946 153.51 259.21 153.645 259.45 153.829L258.92 154.669C258.766 154.532 258.59 154.43 258.39 154.364C258.193 154.297 257.983 154.264 257.76 154.264C257.413 154.264 257.115 154.329 256.865 154.459C256.615 154.589 256.42 154.777 256.28 155.024C256.143 155.267 256.075 155.562 256.075 155.909C256.075 156.425 256.225 156.83 256.525 157.124C256.828 157.417 257.24 157.564 257.76 157.564C258.006 157.564 258.24 157.519 258.46 157.429C258.68 157.335 258.863 157.214 259.01 157.064L259.535 157.899C259.271 158.099 258.978 158.255 258.655 158.369C258.331 158.482 258 158.539 257.66 158.539ZM261.651 158.389V154.349H260.026V153.439H264.381V154.349H262.751V158.389H261.651ZM267.645 158.539C267.128 158.539 266.666 158.42 266.26 158.184C265.856 157.944 265.54 157.625 265.31 157.229C265.08 156.829 264.965 156.39 264.965 155.914C264.965 155.56 265.03 155.227 265.16 154.914C265.293 154.597 265.48 154.317 265.72 154.074C265.963 153.83 266.248 153.639 266.575 153.499C266.901 153.359 267.26 153.289 267.65 153.289C268.166 153.289 268.626 153.409 269.03 153.649C269.436 153.885 269.755 154.204 269.985 154.604C270.215 155 270.33 155.437 270.33 155.914C270.33 156.264 270.263 156.597 270.13 156.914C270 157.23 269.815 157.51 269.575 157.754C269.335 157.997 269.051 158.189 268.725 158.329C268.398 158.469 268.038 158.539 267.645 158.539ZM267.645 157.564C267.951 157.564 268.223 157.497 268.46 157.364C268.7 157.227 268.888 157.035 269.025 156.789C269.161 156.542 269.23 156.25 269.23 155.914C269.23 155.577 269.161 155.285 269.025 155.039C268.888 154.789 268.7 154.597 268.46 154.464C268.223 154.33 267.951 154.264 267.645 154.264C267.338 154.264 267.065 154.33 266.825 154.464C266.588 154.597 266.401 154.789 266.265 155.039C266.131 155.285 266.065 155.577 266.065 155.914C266.065 156.25 266.133 156.542 266.27 156.789C266.406 157.035 266.593 157.227 266.83 157.364C267.07 157.497 267.341 157.564 267.645 157.564ZM271.434 160.489V153.439H272.424V154.134C272.621 153.884 272.873 153.68 273.179 153.524C273.486 153.367 273.864 153.289 274.314 153.289C274.798 153.289 275.226 153.404 275.599 153.634C275.976 153.86 276.269 154.172 276.479 154.569C276.689 154.962 276.794 155.41 276.794 155.914C276.794 156.277 276.734 156.619 276.614 156.939C276.494 157.255 276.323 157.534 276.099 157.774C275.879 158.014 275.616 158.202 275.309 158.339C275.006 158.472 274.669 158.539 274.299 158.539C273.913 158.539 273.573 158.469 273.279 158.329C272.986 158.189 272.736 158 272.529 157.764V160.489H271.434ZM274.114 157.564C274.421 157.564 274.693 157.497 274.929 157.364C275.169 157.227 275.356 157.035 275.489 156.789C275.626 156.542 275.694 156.25 275.694 155.914C275.694 155.577 275.626 155.285 275.489 155.039C275.353 154.789 275.164 154.597 274.924 154.464C274.688 154.33 274.418 154.264 274.114 154.264C273.808 154.264 273.534 154.33 273.294 154.464C273.058 154.597 272.871 154.789 272.734 155.039C272.598 155.285 272.529 155.577 272.529 155.914C272.529 156.25 272.598 156.542 272.734 156.789C272.871 157.035 273.058 157.227 273.294 157.364C273.534 157.497 273.808 157.564 274.114 157.564ZM279.274 158.539C278.931 158.539 278.629 158.475 278.369 158.349C278.109 158.219 277.906 158.037 277.759 157.804C277.616 157.567 277.544 157.289 277.544 156.969C277.544 156.699 277.613 156.455 277.749 156.239C277.886 156.019 278.098 155.837 278.384 155.694C278.674 155.55 279.046 155.455 279.499 155.409C279.953 155.359 280.498 155.365 281.134 155.429L281.154 156.189C280.701 156.125 280.311 156.099 279.984 156.109C279.658 156.119 279.389 156.16 279.179 156.234C278.973 156.304 278.819 156.399 278.719 156.519C278.623 156.635 278.574 156.77 278.574 156.924C278.574 157.164 278.659 157.349 278.829 157.479C279.003 157.609 279.239 157.674 279.539 157.674C279.796 157.674 280.026 157.627 280.229 157.534C280.433 157.44 280.593 157.309 280.709 157.139C280.829 156.969 280.889 156.769 280.889 156.539V155.224C280.889 155.004 280.843 154.814 280.749 154.654C280.656 154.49 280.514 154.364 280.324 154.274C280.134 154.184 279.898 154.139 279.614 154.139C279.354 154.139 279.098 154.179 278.844 154.259C278.591 154.335 278.349 154.457 278.119 154.624L277.809 153.814C278.119 153.604 278.443 153.455 278.779 153.369C279.116 153.282 279.439 153.239 279.749 153.239C280.209 153.239 280.603 153.312 280.929 153.459C281.259 153.602 281.513 153.82 281.689 154.114C281.866 154.404 281.954 154.77 281.954 155.214V158.389H280.964V157.804C280.798 158.04 280.566 158.222 280.269 158.349C279.973 158.475 279.641 158.539 279.274 158.539ZM283.417 158.389V153.439H284.372H284.402L286.622 156.649L286.147 156.659L288.257 153.439H289.232V158.389H288.232L288.247 154.729L288.452 154.819L286.682 157.404H285.972L284.122 154.814L284.327 154.724L284.342 158.389H283.417Z" fill="white"/>
<path fill-rule="evenodd" clip-rule="evenodd" d="M184.463 176.721L200.919 163.997L191.013 176.721H229.619C231.961 176.721 233.859 178.619 233.859 180.961V202.857C233.859 205.198 231.961 207.097 229.619 207.097H158.24C155.898 207.097 154 205.198 154 202.857V180.961C154 178.619 155.898 176.721 158.24 176.721H184.463Z" fill="#140D83"/>
<path d="M162.769 189.097V182.097H167.294V183.087H163.889V184.977H166.829V185.912H163.889V188.097H167.324V189.097H162.769ZM172.037 189.097L170.397 186.467L171.922 184.147H173.097L171.582 186.417L173.352 189.097H172.037ZM168.747 189.097V184.147H169.847V186.057H171.337V186.967H169.847V189.097H168.747ZM176.495 189.247C175.975 189.247 175.512 189.133 175.105 188.907C174.699 188.677 174.379 188.365 174.145 187.972C173.915 187.575 173.8 187.125 173.8 186.622C173.8 186.242 173.869 185.893 174.005 185.577C174.142 185.257 174.335 184.978 174.585 184.742C174.835 184.505 175.129 184.322 175.465 184.192C175.805 184.062 176.174 183.997 176.57 183.997C176.904 183.997 177.212 184.042 177.495 184.132C177.782 184.218 178.045 184.353 178.285 184.537L177.755 185.377C177.602 185.24 177.425 185.138 177.225 185.072C177.029 185.005 176.819 184.972 176.595 184.972C176.249 184.972 175.95 185.037 175.7 185.167C175.45 185.297 175.255 185.485 175.115 185.732C174.979 185.975 174.91 186.27 174.91 186.617C174.91 187.133 175.06 187.538 175.36 187.832C175.664 188.125 176.075 188.272 176.595 188.272C176.842 188.272 177.075 188.227 177.295 188.137C177.515 188.043 177.699 187.922 177.845 187.772L178.37 188.607C178.107 188.807 177.814 188.963 177.49 189.077C177.167 189.19 176.835 189.247 176.495 189.247ZM179.382 189.097V184.147H184.057V189.097H182.957V185.057H180.482V189.097H179.382ZM187.843 189.247C187.31 189.247 186.841 189.138 186.438 188.922C186.035 188.702 185.72 188.395 185.493 188.002C185.27 187.608 185.158 187.152 185.158 186.632C185.158 186.252 185.223 185.902 185.353 185.582C185.483 185.258 185.666 184.978 185.903 184.742C186.14 184.505 186.416 184.322 186.733 184.192C187.053 184.062 187.401 183.997 187.778 183.997C188.188 183.997 188.553 184.07 188.873 184.217C189.193 184.36 189.458 184.562 189.668 184.822C189.881 185.082 190.031 185.387 190.118 185.737C190.208 186.083 190.223 186.46 190.163 186.867H186.213C186.206 187.163 186.271 187.423 186.408 187.647C186.545 187.867 186.74 188.038 186.993 188.162C187.25 188.285 187.551 188.347 187.898 188.347C188.178 188.347 188.448 188.305 188.708 188.222C188.971 188.135 189.21 188.008 189.423 187.842L189.848 188.632C189.688 188.762 189.495 188.873 189.268 188.967C189.041 189.057 188.805 189.125 188.558 189.172C188.311 189.222 188.073 189.247 187.843 189.247ZM186.278 186.057H189.083C189.073 185.683 188.953 185.39 188.723 185.177C188.496 184.963 188.173 184.857 187.753 184.857C187.346 184.857 187.008 184.963 186.738 185.177C186.471 185.39 186.318 185.683 186.278 186.057ZM191.306 191.197V184.147H192.296V184.842C192.492 184.592 192.744 184.388 193.051 184.232C193.357 184.075 193.736 183.997 194.186 183.997C194.669 183.997 195.097 184.112 195.471 184.342C195.847 184.568 196.141 184.88 196.351 185.277C196.561 185.67 196.666 186.118 196.666 186.622C196.666 186.985 196.606 187.327 196.486 187.647C196.366 187.963 196.194 188.242 195.971 188.482C195.751 188.722 195.487 188.91 195.181 189.047C194.877 189.18 194.541 189.247 194.171 189.247C193.784 189.247 193.444 189.177 193.151 189.037C192.857 188.897 192.607 188.708 192.401 188.472V191.197H191.306ZM193.986 188.272C194.292 188.272 194.564 188.205 194.801 188.072C195.041 187.935 195.227 187.743 195.361 187.497C195.497 187.25 195.566 186.958 195.566 186.622C195.566 186.285 195.497 185.993 195.361 185.747C195.224 185.497 195.036 185.305 194.796 185.172C194.559 185.038 194.289 184.972 193.986 184.972C193.679 184.972 193.406 185.038 193.166 185.172C192.929 185.305 192.742 185.497 192.606 185.747C192.469 185.993 192.401 186.285 192.401 186.622C192.401 186.958 192.469 187.25 192.606 187.497C192.742 187.743 192.929 187.935 193.166 188.072C193.406 188.205 193.679 188.272 193.986 188.272ZM198.875 189.097V185.057H197.25V184.147H201.605V185.057H199.975V189.097H198.875ZM202.614 189.097V184.147H203.714V186.057H206.194V184.147H207.294V189.097H206.194V186.967H203.714V189.097H202.614ZM208.825 189.097V184.147H209.925V189.097H208.825ZM209.375 183.262C209.178 183.262 209.008 183.198 208.865 183.072C208.722 182.945 208.65 182.778 208.65 182.572C208.65 182.368 208.722 182.203 208.865 182.077C209.008 181.947 209.178 181.882 209.375 181.882C209.572 181.882 209.742 181.947 209.885 182.077C210.028 182.203 210.1 182.368 210.1 182.572C210.1 182.778 210.028 182.945 209.885 183.072C209.742 183.198 209.572 183.262 209.375 183.262ZM211.452 189.097V184.147H212.517V187.487L215.202 184.147H216.162V189.097H215.102V185.717L212.392 189.097H211.452ZM213.807 183.297C213.437 183.297 213.112 183.22 212.832 183.067C212.552 182.913 212.335 182.702 212.182 182.432C212.029 182.162 211.957 181.852 211.967 181.502H212.887C212.874 181.808 212.95 182.057 213.117 182.247C213.287 182.433 213.517 182.527 213.807 182.527C214.097 182.527 214.325 182.433 214.492 182.247C214.659 182.057 214.734 181.808 214.717 181.502H215.642C215.649 181.848 215.574 182.157 215.417 182.427C215.264 182.697 215.047 182.91 214.767 183.067C214.49 183.22 214.17 183.297 213.807 183.297ZM165.914 201.097L164.274 198.467L165.799 196.147H166.974L165.459 198.417L167.229 201.097H165.914ZM162.624 201.097V196.147H163.724V198.057H165.214V198.967H163.724V201.097H162.624ZM170.357 201.247C169.841 201.247 169.379 201.128 168.972 200.892C168.569 200.652 168.252 200.333 168.022 199.937C167.792 199.537 167.677 199.098 167.677 198.622C167.677 198.268 167.742 197.935 167.872 197.622C168.006 197.305 168.192 197.025 168.432 196.782C168.676 196.538 168.961 196.347 169.287 196.207C169.614 196.067 169.972 195.997 170.362 195.997C170.879 195.997 171.339 196.117 171.742 196.357C172.149 196.593 172.467 196.912 172.697 197.312C172.927 197.708 173.042 198.145 173.042 198.622C173.042 198.972 172.976 199.305 172.842 199.622C172.712 199.938 172.527 200.218 172.287 200.462C172.047 200.705 171.764 200.897 171.437 201.037C171.111 201.177 170.751 201.247 170.357 201.247ZM170.357 200.272C170.664 200.272 170.936 200.205 171.172 200.072C171.412 199.935 171.601 199.743 171.737 199.497C171.874 199.25 171.942 198.958 171.942 198.622C171.942 198.285 171.874 197.993 171.737 197.747C171.601 197.497 171.412 197.305 171.172 197.172C170.936 197.038 170.664 196.972 170.357 196.972C170.051 196.972 169.777 197.038 169.537 197.172C169.301 197.305 169.114 197.497 168.977 197.747C168.844 197.993 168.777 198.285 168.777 198.622C168.777 198.958 168.846 199.25 168.982 199.497C169.119 199.743 169.306 199.935 169.542 200.072C169.782 200.205 170.054 200.272 170.357 200.272ZM174.147 201.097V196.147H175.102H175.132L177.352 199.357L176.877 199.367L178.987 196.147H179.962V201.097H178.962L178.977 197.437L179.182 197.527L177.412 200.112H176.702L174.852 197.522L175.057 197.432L175.072 201.097H174.147ZM182.866 201.247C182.523 201.247 182.221 201.183 181.961 201.057C181.701 200.927 181.498 200.745 181.351 200.512C181.208 200.275 181.136 199.997 181.136 199.677C181.136 199.407 181.204 199.163 181.341 198.947C181.478 198.727 181.689 198.545 181.976 198.402C182.266 198.258 182.638 198.163 183.091 198.117C183.544 198.067 184.089 198.073 184.726 198.137L184.746 198.897C184.293 198.833 183.903 198.807 183.576 198.817C183.249 198.827 182.981 198.868 182.771 198.942C182.564 199.012 182.411 199.107 182.311 199.227C182.214 199.343 182.166 199.478 182.166 199.632C182.166 199.872 182.251 200.057 182.421 200.187C182.594 200.317 182.831 200.382 183.131 200.382C183.388 200.382 183.618 200.335 183.821 200.242C184.024 200.148 184.184 200.017 184.301 199.847C184.421 199.677 184.481 199.477 184.481 199.247V197.932C184.481 197.712 184.434 197.522 184.341 197.362C184.248 197.198 184.106 197.072 183.916 196.982C183.726 196.892 183.489 196.847 183.206 196.847C182.946 196.847 182.689 196.887 182.436 196.967C182.183 197.043 181.941 197.165 181.711 197.332L181.401 196.522C181.711 196.312 182.034 196.163 182.371 196.077C182.708 195.99 183.031 195.947 183.341 195.947C183.801 195.947 184.194 196.02 184.521 196.167C184.851 196.31 185.104 196.528 185.281 196.822C185.458 197.112 185.546 197.478 185.546 197.922V201.097H184.556V200.512C184.389 200.748 184.158 200.93 183.861 201.057C183.564 201.183 183.233 201.247 182.866 201.247ZM187.009 201.097V196.147H188.109V198.057H190.589V196.147H191.689V201.097H190.589V198.967H188.109V201.097H187.009ZM196.815 201.097V197.057H194.815V197.712C194.815 198.162 194.788 198.568 194.735 198.932C194.681 199.295 194.586 199.615 194.45 199.892C194.313 200.165 194.121 200.392 193.875 200.572C193.631 200.752 193.32 200.883 192.94 200.967L192.67 200.222C192.986 200.145 193.225 200.002 193.385 199.792C193.545 199.582 193.651 199.305 193.705 198.962C193.761 198.615 193.79 198.198 193.79 197.712V196.147H197.915V201.097H196.815ZM192.67 202.597V200.222L193.35 200.292L193.52 200.187H198.91V202.597H197.905V201.097H193.675V202.597H192.67ZM199.88 201.097V196.147H200.98V201.097H199.88ZM200.43 195.262C200.233 195.262 200.063 195.198 199.92 195.072C199.776 194.945 199.705 194.778 199.705 194.572C199.705 194.368 199.776 194.203 199.92 194.077C200.063 193.947 200.233 193.882 200.43 193.882C200.626 193.882 200.796 193.947 200.94 194.077C201.083 194.203 201.155 194.368 201.155 194.572C201.155 194.778 201.083 194.945 200.94 195.072C200.796 195.198 200.626 195.262 200.43 195.262Z" fill="white"/>
<path fill-rule="evenodd" clip-rule="evenodd" d="M131.587 65.1675L143 57.0004L133.509 68.2825C133.525 68.4309 133.533 68.5816 133.533 68.7341V76.7594C133.533 79.1011 131.635 80.9994 129.293 80.9994H41.24C38.8983 80.9994 37 79.1011 37 76.7594V68.7341C37 66.3924 38.8983 64.4941 41.24 64.4941H129.293C130.138 64.4941 130.926 64.7414 131.587 65.1675Z" fill="#79F585"/>
<path d="M44.7452 75.5087L44.3052 74.4787C44.6918 74.3853 45.0402 74.247 45.3502 74.0637C45.6635 73.8803 45.9485 73.637 46.2052 73.3337C46.4618 73.0303 46.6985 72.6553 46.9152 72.2087L48.7802 68.3887H50.0752L47.9602 72.5587C47.7268 73.0187 47.4918 73.4187 47.2552 73.7587C47.0185 74.0953 46.7718 74.3803 46.5152 74.6137C46.2585 74.847 45.9835 75.0353 45.6902 75.1787C45.4002 75.322 45.0852 75.432 44.7452 75.5087ZM46.7602 73.1887L44.0952 68.3887H45.4602L47.5102 72.1987L46.7602 73.1887ZM53.4732 75.3887V73.4537C53.2399 73.5137 53.0182 73.5587 52.8082 73.5887C52.6016 73.6187 52.3832 73.6337 52.1532 73.6337C51.7099 73.6337 51.3366 73.5653 51.0332 73.4287C50.7299 73.292 50.5016 73.0853 50.3482 72.8087C50.1949 72.532 50.1182 72.1837 50.1182 71.7637V70.4387H51.2182V71.6087C51.2182 71.962 51.3032 72.2303 51.4732 72.4137C51.6432 72.597 51.9332 72.6887 52.3432 72.6887C52.5799 72.6887 52.7866 72.6787 52.9632 72.6587C53.1432 72.6353 53.3132 72.607 53.4732 72.5737V70.4387H54.5732V75.3887H53.4732ZM57.4803 75.5387C57.137 75.5387 56.8353 75.4753 56.5753 75.3487C56.3153 75.2187 56.112 75.037 55.9653 74.8037C55.822 74.567 55.7503 74.2887 55.7503 73.9687C55.7503 73.6987 55.8187 73.4553 55.9553 73.2387C56.092 73.0187 56.3037 72.837 56.5903 72.6937C56.8803 72.5503 57.252 72.4553 57.7053 72.4087C58.1587 72.3587 58.7037 72.3653 59.3403 72.4287L59.3603 73.1887C58.907 73.1253 58.517 73.0987 58.1903 73.1087C57.8637 73.1187 57.5953 73.1603 57.3853 73.2337C57.1787 73.3037 57.0253 73.3987 56.9253 73.5187C56.8287 73.6353 56.7803 73.7703 56.7803 73.9237C56.7803 74.1637 56.8653 74.3487 57.0353 74.4787C57.2087 74.6087 57.4453 74.6737 57.7453 74.6737C58.002 74.6737 58.232 74.627 58.4353 74.5337C58.6387 74.4403 58.7987 74.3087 58.9153 74.1387C59.0353 73.9687 59.0953 73.7687 59.0953 73.5387V72.2237C59.0953 72.0037 59.0487 71.8137 58.9553 71.6537C58.862 71.4903 58.7203 71.3637 58.5303 71.2737C58.3403 71.1837 58.1037 71.1387 57.8203 71.1387C57.5603 71.1387 57.3037 71.1787 57.0503 71.2587C56.797 71.3353 56.5553 71.457 56.3253 71.6237L56.0153 70.8137C56.3253 70.6037 56.6487 70.4553 56.9853 70.3687C57.322 70.282 57.6453 70.2387 57.9553 70.2387C58.4153 70.2387 58.8087 70.312 59.1353 70.4587C59.4653 70.602 59.7187 70.8203 59.8953 71.1137C60.072 71.4037 60.1603 71.7703 60.1603 72.2137V75.3887H59.1703V74.8037C59.0037 75.0403 58.772 75.222 58.4753 75.3487C58.1787 75.4753 57.847 75.5387 57.4803 75.5387ZM63.8929 75.5387C63.3729 75.5387 62.9096 75.4253 62.5029 75.1987C62.0962 74.9687 61.7762 74.657 61.5429 74.2637C61.3129 73.867 61.1979 73.417 61.1979 72.9137C61.1979 72.5337 61.2662 72.1853 61.4029 71.8687C61.5396 71.5487 61.7329 71.2703 61.9829 71.0337C62.2329 70.797 62.5262 70.6137 62.8629 70.4837C63.2029 70.3537 63.5712 70.2887 63.9679 70.2887C64.3012 70.2887 64.6096 70.3337 64.8929 70.4237C65.1796 70.5103 65.4429 70.6453 65.6829 70.8287L65.1529 71.6687C64.9996 71.532 64.8229 71.4303 64.6229 71.3637C64.4262 71.297 64.2162 71.2637 63.9929 71.2637C63.6462 71.2637 63.3479 71.3287 63.0979 71.4587C62.8479 71.5887 62.6529 71.777 62.5129 72.0237C62.3762 72.267 62.3079 72.562 62.3079 72.9087C62.3079 73.4253 62.4579 73.8303 62.7579 74.1237C63.0612 74.417 63.4729 74.5637 63.9929 74.5637C64.2396 74.5637 64.4729 74.5187 64.6929 74.4287C64.9129 74.3353 65.0962 74.2137 65.2429 74.0637L65.7679 74.8987C65.5046 75.0987 65.2112 75.2553 64.8879 75.3687C64.5646 75.482 64.2329 75.5387 63.8929 75.5387ZM66.7792 75.3887V70.4387H67.8792V72.3487H70.3592V70.4387H71.4592V75.3887H70.3592V73.2587H67.8792V75.3887H66.7792ZM72.9901 75.3887V70.4387H74.0551V73.7787L76.7401 70.4387H77.7001V75.3887H76.6401V72.0087L73.9301 75.3887H72.9901ZM82.5203 75.3887L80.8803 72.7587L82.4053 70.4387H83.5803L82.0653 72.7087L83.8353 75.3887H82.5203ZM79.2303 75.3887V70.4387H80.3303V72.3487H81.8203V73.2587H80.3303V75.3887H79.2303ZM86.1815 75.5387C85.8382 75.5387 85.5365 75.4753 85.2765 75.3487C85.0165 75.2187 84.8132 75.037 84.6665 74.8037C84.5232 74.567 84.4515 74.2887 84.4515 73.9687C84.4515 73.6987 84.5198 73.4553 84.6565 73.2387C84.7932 73.0187 85.0048 72.837 85.2915 72.6937C85.5815 72.5503 85.9532 72.4553 86.4065 72.4087C86.8598 72.3587 87.4048 72.3653 88.0415 72.4287L88.0615 73.1887C87.6082 73.1253 87.2182 73.0987 86.8915 73.1087C86.5648 73.1187 86.2965 73.1603 86.0865 73.2337C85.8798 73.3037 85.7265 73.3987 85.6265 73.5187C85.5298 73.6353 85.4815 73.7703 85.4815 73.9237C85.4815 74.1637 85.5665 74.3487 85.7365 74.4787C85.9098 74.6087 86.1465 74.6737 86.4465 74.6737C86.7032 74.6737 86.9332 74.627 87.1365 74.5337C87.3398 74.4403 87.4998 74.3087 87.6165 74.1387C87.7365 73.9687 87.7965 73.7687 87.7965 73.5387V72.2237C87.7965 72.0037 87.7498 71.8137 87.6565 71.6537C87.5632 71.4903 87.4215 71.3637 87.2315 71.2737C87.0415 71.1837 86.8048 71.1387 86.5215 71.1387C86.2615 71.1387 86.0048 71.1787 85.7515 71.2587C85.4982 71.3353 85.2565 71.457 85.0265 71.6237L84.7165 70.8137C85.0265 70.6037 85.3498 70.4553 85.6865 70.3687C86.0232 70.282 86.3465 70.2387 86.6565 70.2387C87.1165 70.2387 87.5098 70.312 87.8365 70.4587C88.1665 70.602 88.4198 70.8203 88.5965 71.1137C88.7732 71.4037 88.8615 71.7703 88.8615 72.2137V75.3887H87.8715V74.8037C87.7048 75.0403 87.4732 75.222 87.1765 75.3487C86.8798 75.4753 86.5482 75.5387 86.1815 75.5387ZM90.3241 75.3887V70.4387H91.2791H91.3091L93.5291 73.6487L93.0541 73.6587L95.1641 70.4387H96.1391V75.3887H95.1391L95.1541 71.7287L95.3591 71.8187L93.5891 74.4037H92.8791L91.0291 71.8137L91.2341 71.7237L91.2491 75.3887H90.3241ZM101.389 76.5387C100.976 75.842 100.666 75.1003 100.459 74.3137C100.252 73.527 100.149 72.732 100.149 71.9287C100.149 71.392 100.194 70.8603 100.284 70.3337C100.377 69.8037 100.516 69.287 100.699 68.7837C100.882 68.2803 101.112 67.7987 101.389 67.3387L102.229 67.6787C102.046 67.9687 101.884 68.282 101.744 68.6187C101.607 68.952 101.492 69.2987 101.399 69.6587C101.306 70.0187 101.236 70.3887 101.189 70.7687C101.146 71.1453 101.124 71.5253 101.124 71.9087C101.124 72.6753 101.216 73.432 101.399 74.1787C101.586 74.922 101.862 75.5953 102.229 76.1987L101.389 76.5387ZM103.576 75.3887V70.4387H105.936C106.496 70.4387 106.944 70.5453 107.281 70.7587C107.618 70.972 107.786 71.292 107.786 71.7187C107.786 71.9187 107.738 72.097 107.641 72.2537C107.544 72.407 107.411 72.5353 107.241 72.6387C107.071 72.742 106.873 72.817 106.646 72.8637L106.626 72.6187C107.063 72.6787 107.401 72.8237 107.641 73.0537C107.881 73.2837 108.001 73.5753 108.001 73.9287C108.001 74.2287 107.923 74.4887 107.766 74.7087C107.609 74.9253 107.384 75.0937 107.091 75.2137C106.798 75.3303 106.446 75.3887 106.036 75.3887H103.576ZM104.641 74.5737H105.886C106.216 74.5737 106.469 74.5187 106.646 74.4087C106.826 74.2987 106.916 74.1337 106.916 73.9137C106.916 73.697 106.828 73.5353 106.651 73.4287C106.474 73.3187 106.219 73.2637 105.886 73.2637H104.496V72.4787H105.771C106.081 72.4787 106.321 72.432 106.491 72.3387C106.661 72.242 106.746 72.0853 106.746 71.8687C106.746 71.652 106.661 71.4953 106.491 71.3987C106.321 71.2987 106.081 71.2487 105.771 71.2487H104.641V74.5737ZM110.615 75.5387C110.272 75.5387 109.97 75.4753 109.71 75.3487C109.45 75.2187 109.247 75.037 109.1 74.8037C108.957 74.567 108.885 74.2887 108.885 73.9687C108.885 73.6987 108.953 73.4553 109.09 73.2387C109.227 73.0187 109.438 72.837 109.725 72.6937C110.015 72.5503 110.387 72.4553 110.84 72.4087C111.293 72.3587 111.838 72.3653 112.475 72.4287L112.495 73.1887C112.042 73.1253 111.652 73.0987 111.325 73.1087C110.998 73.1187 110.73 73.1603 110.52 73.2337C110.313 73.3037 110.16 73.3987 110.06 73.5187C109.963 73.6353 109.915 73.7703 109.915 73.9237C109.915 74.1637 110 74.3487 110.17 74.4787C110.343 74.6087 110.58 74.6737 110.88 74.6737C111.137 74.6737 111.367 74.627 111.57 74.5337C111.773 74.4403 111.933 74.3087 112.05 74.1387C112.17 73.9687 112.23 73.7687 112.23 73.5387V72.2237C112.23 72.0037 112.183 71.8137 112.09 71.6537C111.997 71.4903 111.855 71.3637 111.665 71.2737C111.475 71.1837 111.238 71.1387 110.955 71.1387C110.695 71.1387 110.438 71.1787 110.185 71.2587C109.932 71.3353 109.69 71.457 109.46 71.6237L109.15 70.8137C109.46 70.6037 109.783 70.4553 110.12 70.3687C110.457 70.282 110.78 70.2387 111.09 70.2387C111.55 70.2387 111.943 70.312 112.27 70.4587C112.6 70.602 112.853 70.8203 113.03 71.1137C113.207 71.4037 113.295 71.7703 113.295 72.2137V75.3887H112.305V74.8037C112.138 75.0403 111.907 75.222 111.61 75.3487C111.313 75.4753 110.982 75.5387 110.615 75.5387ZM114.758 75.3887V70.4387H115.713H115.743L117.963 73.6487L117.488 73.6587L119.598 70.4387H120.573V75.3887H119.573L119.588 71.7287L119.793 71.8187L118.023 74.4037H117.313L115.463 71.8137L115.668 71.7237L115.683 75.3887H114.758ZM122.756 76.5387L121.916 76.1987C122.1 75.9053 122.26 75.592 122.396 75.2587C122.536 74.9253 122.653 74.5787 122.746 74.2187C122.84 73.8587 122.908 73.4887 122.951 73.1087C122.998 72.7287 123.021 72.3487 123.021 71.9687C123.021 71.1987 122.928 70.442 122.741 69.6987C122.558 68.9553 122.283 68.282 121.916 67.6787L122.756 67.3387C123.173 68.032 123.483 68.772 123.686 69.5587C123.893 70.3453 123.996 71.142 123.996 71.9487C123.996 72.4853 123.95 73.0187 123.856 73.5487C123.766 74.0753 123.63 74.5903 123.446 75.0937C123.263 75.597 123.033 76.0787 122.756 76.5387Z" fill="#1C195B"/>
<path fill-rule="evenodd" clip-rule="evenodd" d="M104.608 116.035L116.951 106L106.507 120.106V144.76C106.507 147.102 104.608 149 102.267 149H4.23997C1.8983 149 0 147.102 0 144.76V119.57C0 117.229 1.8983 115.33 4.23997 115.33H102.267C103.132 115.33 103.937 115.59 104.608 116.035Z" fill="#140D83"/>
<path d="M7.91 128V121H12.31V121.99H9.03V123.89H10.305C11.0617 123.89 11.6683 124.065 12.125 124.415C12.5817 124.762 12.81 125.272 12.81 125.945C12.81 126.385 12.71 126.758 12.51 127.065C12.3133 127.368 12.0267 127.6 11.65 127.76C11.2767 127.92 10.8267 128 10.3 128H7.91ZM9.03 127.12H10.24C10.6933 127.12 11.0417 127.02 11.285 126.82C11.5317 126.62 11.655 126.333 11.655 125.96C11.655 125.597 11.5333 125.308 11.29 125.095C11.0467 124.882 10.7117 124.775 10.285 124.775H9.03V127.12ZM16.3629 128.15C15.8296 128.15 15.3612 128.042 14.9579 127.825C14.5546 127.605 14.2396 127.298 14.0129 126.905C13.7896 126.512 13.6779 126.055 13.6779 125.535C13.6779 125.155 13.7429 124.805 13.8729 124.485C14.0029 124.162 14.1862 123.882 14.4229 123.645C14.6596 123.408 14.9362 123.225 15.2529 123.095C15.5729 122.965 15.9212 122.9 16.2979 122.9C16.7079 122.9 17.0729 122.973 17.3929 123.12C17.7129 123.263 17.9779 123.465 18.1879 123.725C18.4012 123.985 18.5512 124.29 18.6379 124.64C18.7279 124.987 18.7429 125.363 18.6829 125.77H14.7329C14.7262 126.067 14.7912 126.327 14.9279 126.55C15.0646 126.77 15.2596 126.942 15.5129 127.065C15.7696 127.188 16.0712 127.25 16.4179 127.25C16.6979 127.25 16.9679 127.208 17.2279 127.125C17.4912 127.038 17.7296 126.912 17.9429 126.745L18.3679 127.535C18.2079 127.665 18.0146 127.777 17.7879 127.87C17.5612 127.96 17.3246 128.028 17.0779 128.075C16.8312 128.125 16.5929 128.15 16.3629 128.15ZM14.7979 124.96H17.6029C17.5929 124.587 17.4729 124.293 17.2429 124.08C17.0162 123.867 16.6929 123.76 16.2729 123.76C15.8662 123.76 15.5279 123.867 15.2579 124.08C14.9912 124.293 14.8379 124.587 14.7979 124.96ZM21.4955 128.12C21.2189 128.12 20.9522 128.098 20.6955 128.055C20.4389 128.015 20.1972 127.952 19.9705 127.865C19.7439 127.775 19.5389 127.657 19.3555 127.51L19.8355 126.765C20.0455 126.942 20.2939 127.07 20.5805 127.15C20.8672 127.227 21.1589 127.265 21.4555 127.265C21.8589 127.265 22.1772 127.207 22.4105 127.09C22.6439 126.97 22.7605 126.773 22.7605 126.5C22.7605 126.26 22.6372 126.088 22.3905 125.985C22.1472 125.882 21.7922 125.83 21.3255 125.83H20.4155V125H21.2955C21.7089 125 22.0272 124.953 22.2505 124.86C22.4739 124.763 22.5855 124.6 22.5855 124.37C22.5855 124.233 22.5372 124.12 22.4405 124.03C22.3472 123.94 22.2139 123.872 22.0405 123.825C21.8705 123.778 21.6705 123.755 21.4405 123.755C21.1572 123.755 20.8839 123.797 20.6205 123.88C20.3572 123.963 20.1272 124.092 19.9305 124.265L19.5205 123.53C19.7739 123.32 20.0805 123.16 20.4405 123.05C20.8005 122.937 21.1639 122.88 21.5305 122.88C21.9572 122.88 22.3239 122.933 22.6305 123.04C22.9372 123.147 23.1739 123.3 23.3405 123.5C23.5072 123.7 23.5905 123.942 23.5905 124.225C23.5905 124.478 23.5089 124.698 23.3455 124.885C23.1855 125.072 22.9522 125.207 22.6455 125.29C23.0189 125.373 23.3022 125.52 23.4955 125.73C23.6922 125.94 23.7905 126.203 23.7905 126.52C23.7905 126.853 23.6955 127.14 23.5055 127.38C23.3189 127.617 23.0522 127.8 22.7055 127.93C22.3622 128.057 21.9589 128.12 21.4955 128.12ZM24.9916 128V123.05H29.6666V128H28.5666V123.96H26.0916V128H24.9916ZM33.4527 128.15C32.9194 128.15 32.4511 128.042 32.0477 127.825C31.6444 127.605 31.3294 127.298 31.1027 126.905C30.8794 126.512 30.7677 126.055 30.7677 125.535C30.7677 125.155 30.8327 124.805 30.9627 124.485C31.0927 124.162 31.2761 123.882 31.5127 123.645C31.7494 123.408 32.0261 123.225 32.3427 123.095C32.6627 122.965 33.0111 122.9 33.3877 122.9C33.7977 122.9 34.1627 122.973 34.4827 123.12C34.8027 123.263 35.0677 123.465 35.2777 123.725C35.4911 123.985 35.6411 124.29 35.7277 124.64C35.8177 124.987 35.8327 125.363 35.7727 125.77H31.8227C31.8161 126.067 31.8811 126.327 32.0177 126.55C32.1544 126.77 32.3494 126.942 32.6027 127.065C32.8594 127.188 33.1611 127.25 33.5077 127.25C33.7877 127.25 34.0577 127.208 34.3177 127.125C34.5811 127.038 34.8194 126.912 35.0327 126.745L35.4577 127.535C35.2977 127.665 35.1044 127.777 34.8777 127.87C34.6511 127.96 34.4144 128.028 34.1677 128.075C33.9211 128.125 33.6827 128.15 33.4527 128.15ZM31.8877 124.96H34.6927C34.6827 124.587 34.5627 124.293 34.3327 124.08C34.1061 123.867 33.7827 123.76 33.3627 123.76C32.9561 123.76 32.6177 123.867 32.3477 124.08C32.0811 124.293 31.9277 124.587 31.8877 124.96ZM40.2054 128L38.5654 125.37L40.0904 123.05H41.2654L39.7504 125.32L41.5204 128H40.2054ZM36.9154 128V123.05H38.0154V124.96H39.5054V125.87H38.0154V128H36.9154ZM43.8666 128.15C43.5232 128.15 43.2216 128.087 42.9616 127.96C42.7016 127.83 42.4982 127.648 42.3516 127.415C42.2082 127.178 42.1366 126.9 42.1366 126.58C42.1366 126.31 42.2049 126.067 42.3416 125.85C42.4782 125.63 42.6899 125.448 42.9766 125.305C43.2666 125.162 43.6382 125.067 44.0916 125.02C44.5449 124.97 45.0899 124.977 45.7266 125.04L45.7466 125.8C45.2932 125.737 44.9032 125.71 44.5766 125.72C44.2499 125.73 43.9816 125.772 43.7716 125.845C43.5649 125.915 43.4116 126.01 43.3116 126.13C43.2149 126.247 43.1666 126.382 43.1666 126.535C43.1666 126.775 43.2516 126.96 43.4216 127.09C43.5949 127.22 43.8316 127.285 44.1316 127.285C44.3882 127.285 44.6182 127.238 44.8216 127.145C45.0249 127.052 45.1849 126.92 45.3016 126.75C45.4216 126.58 45.4816 126.38 45.4816 126.15V124.835C45.4816 124.615 45.4349 124.425 45.3416 124.265C45.2482 124.102 45.1066 123.975 44.9166 123.885C44.7266 123.795 44.4899 123.75 44.2066 123.75C43.9466 123.75 43.6899 123.79 43.4366 123.87C43.1832 123.947 42.9416 124.068 42.7116 124.235L42.4016 123.425C42.7116 123.215 43.0349 123.067 43.3716 122.98C43.7082 122.893 44.0316 122.85 44.3416 122.85C44.8016 122.85 45.1949 122.923 45.5216 123.07C45.8516 123.213 46.1049 123.432 46.2816 123.725C46.4582 124.015 46.5466 124.382 46.5466 124.825V128H45.5566V127.415C45.3899 127.652 45.1582 127.833 44.8616 127.96C44.5649 128.087 44.2332 128.15 43.8666 128.15ZM48.1691 129.15L47.2491 128.79L50.8891 119.95L51.8041 120.31L48.1691 129.15ZM7.765 141V136.05H8.865V141H7.765ZM8.315 135.165C8.11833 135.165 7.94833 135.102 7.805 134.975C7.66167 134.848 7.59 134.682 7.59 134.475C7.59 134.272 7.66167 134.107 7.805 133.98C7.94833 133.85 8.11833 133.785 8.315 133.785C8.51167 133.785 8.68167 133.85 8.825 133.98C8.96833 134.107 9.04 134.272 9.04 134.475C9.04 134.682 8.96833 134.848 8.825 134.975C8.68167 135.102 8.51167 135.165 8.315 135.165ZM10.392 141V136.05H11.492V137.96H13.972V136.05H15.072V141H13.972V138.87H11.492V141H10.392ZM19.0929 143.1V133.8H20.1929V143.1H19.0929ZM19.6329 141.13C18.9396 141.13 18.3329 141.032 17.8129 140.835C17.2962 140.635 16.8946 140.342 16.6079 139.955C16.3212 139.565 16.1779 139.088 16.1779 138.525C16.1779 137.958 16.3212 137.482 16.6079 137.095C16.8979 136.708 17.3046 136.417 17.8279 136.22C18.3512 136.02 18.9612 135.92 19.6579 135.92C20.3612 135.92 20.9712 136.018 21.4879 136.215C22.0079 136.412 22.4112 136.703 22.6979 137.09C22.9846 137.477 23.1279 137.955 23.1279 138.525C23.1279 138.948 23.0446 139.323 22.8779 139.65C22.7112 139.973 22.4729 140.245 22.1629 140.465C21.8529 140.685 21.4846 140.852 21.0579 140.965C20.6312 141.075 20.1562 141.13 19.6329 141.13ZM19.6529 140.22C20.1629 140.22 20.5929 140.157 20.9429 140.03C21.2962 139.903 21.5646 139.715 21.7479 139.465C21.9312 139.215 22.0229 138.902 22.0229 138.525C22.0229 138.148 21.9279 137.835 21.7379 137.585C21.5512 137.332 21.2796 137.143 20.9229 137.02C20.5696 136.893 20.1412 136.83 19.6379 136.83C19.1379 136.83 18.7112 136.893 18.3579 137.02C18.0046 137.143 17.7346 137.332 17.5479 137.585C17.3612 137.835 17.2679 138.148 17.2679 138.525C17.2679 138.902 17.3612 139.215 17.5479 139.465C17.7379 139.715 18.0096 139.903 18.3629 140.03C18.7196 140.157 19.1496 140.22 19.6529 140.22ZM24.2298 143.1V136.05H25.2198V136.745C25.4165 136.495 25.6682 136.292 25.9748 136.135C26.2815 135.978 26.6598 135.9 27.1098 135.9C27.5932 135.9 28.0215 136.015 28.3948 136.245C28.7715 136.472 29.0648 136.783 29.2748 137.18C29.4848 137.573 29.5898 138.022 29.5898 138.525C29.5898 138.888 29.5298 139.23 29.4098 139.55C29.2898 139.867 29.1182 140.145 28.8948 140.385C28.6748 140.625 28.4115 140.813 28.1048 140.95C27.8015 141.083 27.4648 141.15 27.0948 141.15C26.7082 141.15 26.3682 141.08 26.0748 140.94C25.7815 140.8 25.5315 140.612 25.3248 140.375V143.1H24.2298ZM26.9098 140.175C27.2165 140.175 27.4882 140.108 27.7248 139.975C27.9648 139.838 28.1515 139.647 28.2848 139.4C28.4215 139.153 28.4898 138.862 28.4898 138.525C28.4898 138.188 28.4215 137.897 28.2848 137.65C28.1482 137.4 27.9598 137.208 27.7198 137.075C27.4832 136.942 27.2132 136.875 26.9098 136.875C26.6032 136.875 26.3298 136.942 26.0898 137.075C25.8532 137.208 25.6665 137.4 25.5298 137.65C25.3932 137.897 25.3248 138.188 25.3248 138.525C25.3248 138.862 25.3932 139.153 25.5298 139.4C25.6665 139.647 25.8532 139.838 26.0898 139.975C26.3298 140.108 26.6032 140.175 26.9098 140.175ZM32.0697 141.15C31.7264 141.15 31.4247 141.087 31.1647 140.96C30.9047 140.83 30.7014 140.648 30.5547 140.415C30.4114 140.178 30.3397 139.9 30.3397 139.58C30.3397 139.31 30.408 139.067 30.5447 138.85C30.6814 138.63 30.893 138.448 31.1797 138.305C31.4697 138.162 31.8414 138.067 32.2947 138.02C32.748 137.97 33.293 137.977 33.9297 138.04L33.9497 138.8C33.4964 138.737 33.1064 138.71 32.7797 138.72C32.453 138.73 32.1847 138.772 31.9747 138.845C31.768 138.915 31.6147 139.01 31.5147 139.13C31.418 139.247 31.3697 139.382 31.3697 139.535C31.3697 139.775 31.4547 139.96 31.6247 140.09C31.798 140.22 32.0347 140.285 32.3347 140.285C32.5914 140.285 32.8214 140.238 33.0247 140.145C33.228 140.052 33.388 139.92 33.5047 139.75C33.6247 139.58 33.6847 139.38 33.6847 139.15V137.835C33.6847 137.615 33.638 137.425 33.5447 137.265C33.4514 137.102 33.3097 136.975 33.1197 136.885C32.9297 136.795 32.693 136.75 32.4097 136.75C32.1497 136.75 31.893 136.79 31.6397 136.87C31.3864 136.947 31.1447 137.068 30.9147 137.235L30.6047 136.425C30.9147 136.215 31.238 136.067 31.5747 135.98C31.9114 135.893 32.2347 135.85 32.5447 135.85C33.0047 135.85 33.398 135.923 33.7247 136.07C34.0547 136.213 34.308 136.432 34.4847 136.725C34.6614 137.015 34.7497 137.382 34.7497 137.825V141H33.7597V140.415C33.593 140.652 33.3614 140.833 33.0647 140.96C32.768 141.087 32.4364 141.15 32.0697 141.15ZM38.4823 141.15C37.9623 141.15 37.4989 141.037 37.0923 140.81C36.6856 140.58 36.3656 140.268 36.1323 139.875C35.9023 139.478 35.7873 139.028 35.7873 138.525C35.7873 138.145 35.8556 137.797 35.9923 137.48C36.1289 137.16 36.3223 136.882 36.5723 136.645C36.8223 136.408 37.1156 136.225 37.4523 136.095C37.7923 135.965 38.1606 135.9 38.5573 135.9C38.8906 135.9 39.1989 135.945 39.4823 136.035C39.7689 136.122 40.0323 136.257 40.2723 136.44L39.7423 137.28C39.5889 137.143 39.4123 137.042 39.2123 136.975C39.0156 136.908 38.8056 136.875 38.5823 136.875C38.2356 136.875 37.9373 136.94 37.6873 137.07C37.4373 137.2 37.2423 137.388 37.1023 137.635C36.9656 137.878 36.8973 138.173 36.8973 138.52C36.8973 139.037 37.0473 139.442 37.3473 139.735C37.6506 140.028 38.0623 140.175 38.5823 140.175C38.8289 140.175 39.0623 140.13 39.2823 140.04C39.5023 139.947 39.6856 139.825 39.8323 139.675L40.3573 140.51C40.0939 140.71 39.8006 140.867 39.4773 140.98C39.1539 141.093 38.8223 141.15 38.4823 141.15ZM42.4735 141V136.96H40.8485V136.05H45.2035V136.96H43.5735V141H42.4735ZM46.2123 143.1V136.05H47.2023V136.745C47.3989 136.495 47.6506 136.292 47.9573 136.135C48.2639 135.978 48.6423 135.9 49.0923 135.9C49.5756 135.9 50.0039 136.015 50.3773 136.245C50.7539 136.472 51.0473 136.783 51.2573 137.18C51.4673 137.573 51.5723 138.022 51.5723 138.525C51.5723 138.888 51.5123 139.23 51.3923 139.55C51.2723 139.867 51.1006 140.145 50.8773 140.385C50.6573 140.625 50.3939 140.813 50.0873 140.95C49.7839 141.083 49.4473 141.15 49.0773 141.15C48.6906 141.15 48.3506 141.08 48.0573 140.94C47.7639 140.8 47.5139 140.612 47.3073 140.375V143.1H46.2123ZM48.8923 140.175C49.1989 140.175 49.4706 140.108 49.7073 139.975C49.9473 139.838 50.1339 139.647 50.2673 139.4C50.4039 139.153 50.4723 138.862 50.4723 138.525C50.4723 138.188 50.4039 137.897 50.2673 137.65C50.1306 137.4 49.9423 137.208 49.7023 137.075C49.4656 136.942 49.1956 136.875 48.8923 136.875C48.5856 136.875 48.3123 136.942 48.0723 137.075C47.8356 137.208 47.6489 137.4 47.5123 137.65C47.3756 137.897 47.3073 138.188 47.3073 138.525C47.3073 138.862 47.3756 139.153 47.5123 139.4C47.6489 139.647 47.8356 139.838 48.0723 139.975C48.3123 140.108 48.5856 140.175 48.8923 140.175ZM53.0533 143.24C52.8733 143.24 52.6966 143.22 52.5233 143.18C52.3499 143.14 52.1799 143.072 52.0133 142.975L52.2633 142.035C52.3666 142.102 52.4799 142.152 52.6033 142.185C52.7266 142.218 52.8366 142.235 52.9333 142.235C53.1666 142.235 53.3499 142.18 53.4833 142.07C53.6166 141.96 53.7216 141.79 53.7983 141.56L53.9633 141.08L52.0133 136.05H53.2183L54.5883 139.89L55.9233 136.05H57.0883L54.9483 141.715C54.7949 142.112 54.6233 142.42 54.4333 142.64C54.2433 142.863 54.0333 143.018 53.8033 143.105C53.5733 143.195 53.3233 143.24 53.0533 143.24ZM61.2405 141L59.6005 138.37L61.1255 136.05H62.3005L60.7855 138.32L62.5555 141H61.2405ZM57.9505 141V136.05H59.0505V137.96H60.5405V138.87H59.0505V141H57.9505ZM64.6317 141V136.96H63.0067V136.05H67.3617V136.96H65.7317V141H64.6317ZM68.942 143.24C68.762 143.24 68.5853 143.22 68.412 143.18C68.2386 143.14 68.0686 143.072 67.902 142.975L68.152 142.035C68.2553 142.102 68.3686 142.152 68.492 142.185C68.6153 142.218 68.7253 142.235 68.822 142.235C69.0553 142.235 69.2386 142.18 69.372 142.07C69.5053 141.96 69.6103 141.79 69.687 141.56L69.852 141.08L67.902 136.05H69.107L70.477 139.89L71.812 136.05H72.977L70.837 141.715C70.6836 142.112 70.512 142.42 70.322 142.64C70.132 142.863 69.922 143.018 69.692 143.105C69.462 143.195 69.212 143.24 68.942 143.24ZM73.8392 143.1V136.05H74.8292V136.745C75.0259 136.495 75.2776 136.292 75.5842 136.135C75.8909 135.978 76.2692 135.9 76.7192 135.9C77.2026 135.9 77.6309 136.015 78.0042 136.245C78.3809 136.472 78.6742 136.783 78.8842 137.18C79.0942 137.573 79.1992 138.022 79.1992 138.525C79.1992 138.888 79.1392 139.23 79.0192 139.55C78.8992 139.867 78.7276 140.145 78.5042 140.385C78.2842 140.625 78.0209 140.813 77.7142 140.95C77.4109 141.083 77.0742 141.15 76.7042 141.15C76.3176 141.15 75.9776 141.08 75.6842 140.94C75.3909 140.8 75.1409 140.612 74.9342 140.375V143.1H73.8392ZM76.5192 140.175C76.8259 140.175 77.0976 140.108 77.3342 139.975C77.5742 139.838 77.7609 139.647 77.8942 139.4C78.0309 139.153 78.0992 138.862 78.0992 138.525C78.0992 138.188 78.0309 137.897 77.8942 137.65C77.7576 137.4 77.5692 137.208 77.3292 137.075C77.0926 136.942 76.8226 136.875 76.5192 136.875C76.2126 136.875 75.9392 136.942 75.6992 137.075C75.4626 137.208 75.2759 137.4 75.1392 137.65C75.0026 137.897 74.9342 138.188 74.9342 138.525C74.9342 138.862 75.0026 139.153 75.1392 139.4C75.2759 139.647 75.4626 139.838 75.6992 139.975C75.9392 140.108 76.2126 140.175 76.5192 140.175ZM81.6791 141.15C81.3357 141.15 81.0341 141.087 80.7741 140.96C80.5141 140.83 80.3107 140.648 80.1641 140.415C80.0207 140.178 79.9491 139.9 79.9491 139.58C79.9491 139.31 80.0174 139.067 80.1541 138.85C80.2907 138.63 80.5024 138.448 80.7891 138.305C81.0791 138.162 81.4507 138.067 81.9041 138.02C82.3574 137.97 82.9024 137.977 83.5391 138.04L83.5591 138.8C83.1057 138.737 82.7157 138.71 82.3891 138.72C82.0624 138.73 81.7941 138.772 81.5841 138.845C81.3774 138.915 81.2241 139.01 81.1241 139.13C81.0274 139.247 80.9791 139.382 80.9791 139.535C80.9791 139.775 81.0641 139.96 81.2341 140.09C81.4074 140.22 81.6441 140.285 81.9441 140.285C82.2007 140.285 82.4307 140.238 82.6341 140.145C82.8374 140.052 82.9974 139.92 83.1141 139.75C83.2341 139.58 83.2941 139.38 83.2941 139.15V137.835C83.2941 137.615 83.2474 137.425 83.1541 137.265C83.0607 137.102 82.9191 136.975 82.7291 136.885C82.5391 136.795 82.3024 136.75 82.0191 136.75C81.7591 136.75 81.5024 136.79 81.2491 136.87C80.9957 136.947 80.7541 137.068 80.5241 137.235L80.2141 136.425C80.5241 136.215 80.8474 136.067 81.1841 135.98C81.5207 135.893 81.8441 135.85 82.1541 135.85C82.6141 135.85 83.0074 135.923 83.3341 136.07C83.6641 136.213 83.9174 136.432 84.0941 136.725C84.2707 137.015 84.3591 137.382 84.3591 137.825V141H83.3691V140.415C83.2024 140.652 82.9707 140.833 82.6741 140.96C82.3774 141.087 82.0457 141.15 81.6791 141.15Z" fill="white"/>
<path fill-rule="evenodd" clip-rule="evenodd" d="M146.347 187.494L153.519 173.999L149.032 188.025C150.335 188.748 151.217 190.138 151.217 191.734V213.76C151.217 216.102 149.319 218 146.977 218H74.24C71.8983 218 70 216.102 70 213.76V191.734C70 189.392 71.8983 187.494 74.24 187.494H146.347Z" fill="url(#paint7_linear_1146_5)"/>
<path d="M78.845 201.15C78.3183 201.15 77.8383 201.082 77.405 200.945C76.9717 200.808 76.5933 200.613 76.27 200.36L76.8 199.46C77.04 199.677 77.33 199.847 77.67 199.97C78.01 200.09 78.37 200.15 78.75 200.15C79.09 200.15 79.3833 200.102 79.63 200.005C79.88 199.908 80.0717 199.773 80.205 199.6C80.3417 199.423 80.4117 199.217 80.415 198.98C80.415 198.61 80.2917 198.33 80.045 198.14C79.8017 197.947 79.4217 197.85 78.905 197.85H77.54V196.95H78.82C79.1033 196.95 79.3483 196.908 79.555 196.825C79.7617 196.738 79.9217 196.617 80.035 196.46C80.1483 196.3 80.205 196.108 80.205 195.885C80.205 195.668 80.1483 195.487 80.035 195.34C79.925 195.19 79.7617 195.077 79.545 195C79.3317 194.92 79.0717 194.88 78.765 194.88C78.435 194.88 78.1183 194.935 77.815 195.045C77.5117 195.152 77.25 195.302 77.03 195.495L76.5 194.67C76.7933 194.407 77.1467 194.205 77.56 194.065C77.9767 193.922 78.4233 193.85 78.9 193.85C79.3967 193.85 79.8267 193.925 80.19 194.075C80.5533 194.222 80.8317 194.435 81.025 194.715C81.2217 194.992 81.32 195.322 81.32 195.705C81.32 195.925 81.2683 196.14 81.165 196.35C81.0617 196.557 80.9267 196.74 80.76 196.9C80.5967 197.057 80.4233 197.173 80.24 197.25C80.63 197.373 80.95 197.587 81.2 197.89C81.45 198.19 81.5733 198.57 81.57 199.03C81.5667 199.423 81.4517 199.78 81.225 200.1C80.9983 200.42 80.68 200.675 80.27 200.865C79.8633 201.055 79.3883 201.15 78.845 201.15ZM84.2435 201.15C83.9002 201.15 83.5985 201.087 83.3385 200.96C83.0785 200.83 82.8752 200.648 82.7285 200.415C82.5852 200.178 82.5135 199.9 82.5135 199.58C82.5135 199.31 82.5818 199.067 82.7185 198.85C82.8552 198.63 83.0668 198.448 83.3535 198.305C83.6435 198.162 84.0152 198.067 84.4685 198.02C84.9218 197.97 85.4668 197.977 86.1035 198.04L86.1235 198.8C85.6702 198.737 85.2802 198.71 84.9535 198.72C84.6268 198.73 84.3585 198.772 84.1485 198.845C83.9418 198.915 83.7885 199.01 83.6885 199.13C83.5918 199.247 83.5435 199.382 83.5435 199.535C83.5435 199.775 83.6285 199.96 83.7985 200.09C83.9718 200.22 84.2085 200.285 84.5085 200.285C84.7652 200.285 84.9952 200.238 85.1985 200.145C85.4018 200.052 85.5618 199.92 85.6785 199.75C85.7985 199.58 85.8585 199.38 85.8585 199.15V197.835C85.8585 197.615 85.8118 197.425 85.7185 197.265C85.6252 197.102 85.4835 196.975 85.2935 196.885C85.1035 196.795 84.8668 196.75 84.5835 196.75C84.3235 196.75 84.0668 196.79 83.8135 196.87C83.5602 196.947 83.3185 197.068 83.0885 197.235L82.7785 196.425C83.0885 196.215 83.4118 196.067 83.7485 195.98C84.0852 195.893 84.4085 195.85 84.7185 195.85C85.1785 195.85 85.5718 195.923 85.8985 196.07C86.2285 196.213 86.4818 196.432 86.6585 196.725C86.8352 197.015 86.9235 197.382 86.9235 197.825V201H85.9335V200.415C85.7668 200.652 85.5352 200.833 85.2385 200.96C84.9418 201.087 84.6102 201.15 84.2435 201.15ZM87.7711 201.005L89.5611 198.515L87.8761 196.05H89.2611L90.3161 197.725L91.3361 196.05H92.6861L91.0511 198.485L92.8261 201H91.4161L90.2761 199.26L89.1211 200.99L87.7711 201.005ZM93.7474 201V196.05H94.8124V199.39L97.4974 196.05H98.4574V201H97.3974V197.62L94.6874 201H93.7474ZM102.258 201.15C101.738 201.15 101.274 201.037 100.868 200.81C100.461 200.58 100.141 200.268 99.9077 199.875C99.6777 199.478 99.5627 199.028 99.5627 198.525C99.5627 198.145 99.631 197.797 99.7677 197.48C99.9043 197.16 100.098 196.882 100.348 196.645C100.598 196.408 100.891 196.225 101.228 196.095C101.568 195.965 101.936 195.9 102.333 195.9C102.666 195.9 102.974 195.945 103.258 196.035C103.544 196.122 103.808 196.257 104.048 196.44L103.518 197.28C103.364 197.143 103.188 197.042 102.988 196.975C102.791 196.908 102.581 196.875 102.358 196.875C102.011 196.875 101.713 196.94 101.463 197.07C101.213 197.2 101.018 197.388 100.878 197.635C100.741 197.878 100.673 198.173 100.673 198.52C100.673 199.037 100.823 199.442 101.123 199.735C101.426 200.028 101.838 200.175 102.358 200.175C102.604 200.175 102.838 200.13 103.058 200.04C103.278 199.947 103.461 199.825 103.608 199.675L104.133 200.51C103.869 200.71 103.576 200.867 103.253 200.98C102.929 201.093 102.598 201.15 102.258 201.15ZM105.144 201V196.05H106.244V197.96H108.724V196.05H109.824V201H108.724V198.87H106.244V201H105.144ZM111.355 201V196.05H112.42V199.39L115.105 196.05H116.065V201H115.005V197.62L112.295 201H111.355ZM120.885 201L119.245 198.37L120.77 196.05H121.945L120.43 198.32L122.2 201H120.885ZM117.595 201V196.05H118.695V197.96H120.185V198.87H118.695V201H117.595ZM124.546 201.15C124.203 201.15 123.901 201.087 123.641 200.96C123.381 200.83 123.178 200.648 123.031 200.415C122.888 200.178 122.816 199.9 122.816 199.58C122.816 199.31 122.885 199.067 123.021 198.85C123.158 198.63 123.37 198.448 123.656 198.305C123.946 198.162 124.318 198.067 124.771 198.02C125.225 197.97 125.77 197.977 126.406 198.04L126.426 198.8C125.973 198.737 125.583 198.71 125.256 198.72C124.93 198.73 124.661 198.772 124.451 198.845C124.245 198.915 124.091 199.01 123.991 199.13C123.895 199.247 123.846 199.382 123.846 199.535C123.846 199.775 123.931 199.96 124.101 200.09C124.275 200.22 124.511 200.285 124.811 200.285C125.068 200.285 125.298 200.238 125.501 200.145C125.705 200.052 125.865 199.92 125.981 199.75C126.101 199.58 126.161 199.38 126.161 199.15V197.835C126.161 197.615 126.115 197.425 126.021 197.265C125.928 197.102 125.786 196.975 125.596 196.885C125.406 196.795 125.17 196.75 124.886 196.75C124.626 196.75 124.37 196.79 124.116 196.87C123.863 196.947 123.621 197.068 123.391 197.235L123.081 196.425C123.391 196.215 123.715 196.067 124.051 195.98C124.388 195.893 124.711 195.85 125.021 195.85C125.481 195.85 125.875 195.923 126.201 196.07C126.531 196.213 126.785 196.432 126.961 196.725C127.138 197.015 127.226 197.382 127.226 197.825V201H126.236V200.415C126.07 200.652 125.838 200.833 125.541 200.96C125.245 201.087 124.913 201.15 124.546 201.15ZM128.689 201V196.05H129.644H129.674L131.894 199.26L131.419 199.27L133.529 196.05H134.504V201H133.504L133.519 197.34L133.724 197.43L131.954 200.015H131.244L129.394 197.425L129.599 197.335L129.614 201H128.689ZM77.065 213.12L76.625 212.09C77.0117 211.997 77.36 211.858 77.67 211.675C77.9833 211.492 78.2683 211.248 78.525 210.945C78.7817 210.642 79.0183 210.267 79.235 209.82L81.1 206H82.395L80.28 210.17C80.0467 210.63 79.8117 211.03 79.575 211.37C79.3383 211.707 79.0917 211.992 78.835 212.225C78.5783 212.458 78.3033 212.647 78.01 212.79C77.72 212.933 77.405 213.043 77.065 213.12ZM79.08 210.8L76.415 206H77.78L79.83 209.81L79.08 210.8ZM86.0511 213L84.4111 210.37L85.9361 208.05H87.1111L85.5961 210.32L87.3661 213H86.0511ZM82.7611 213V208.05H83.8611V209.96H85.3511V210.87H83.8611V213H82.7611ZM88.3373 215.1V208.05H89.3273V208.745C89.5239 208.495 89.7756 208.292 90.0823 208.135C90.3889 207.978 90.7673 207.9 91.2173 207.9C91.7006 207.9 92.1289 208.015 92.5023 208.245C92.8789 208.472 93.1723 208.783 93.3823 209.18C93.5923 209.573 93.6973 210.022 93.6973 210.525C93.6973 210.888 93.6373 211.23 93.5173 211.55C93.3973 211.867 93.2256 212.145 93.0023 212.385C92.7823 212.625 92.5189 212.813 92.2123 212.95C91.9089 213.083 91.5723 213.15 91.2023 213.15C90.8156 213.15 90.4756 213.08 90.1823 212.94C89.8889 212.8 89.6389 212.612 89.4323 212.375V215.1H88.3373ZM91.0173 212.175C91.3239 212.175 91.5956 212.108 91.8323 211.975C92.0723 211.838 92.2589 211.647 92.3923 211.4C92.5289 211.153 92.5973 210.862 92.5973 210.525C92.5973 210.188 92.5289 209.897 92.3923 209.65C92.2556 209.4 92.0673 209.208 91.8273 209.075C91.5906 208.942 91.3206 208.875 91.0173 208.875C90.7106 208.875 90.4373 208.942 90.1973 209.075C89.9606 209.208 89.7739 209.4 89.6373 209.65C89.5006 209.897 89.4323 210.188 89.4323 210.525C89.4323 210.862 89.5006 211.153 89.6373 211.4C89.7739 211.647 89.9606 211.838 90.1973 211.975C90.4373 212.108 90.7106 212.175 91.0173 212.175ZM96.1771 213.15C95.8338 213.15 95.5321 213.087 95.2721 212.96C95.0121 212.83 94.8088 212.648 94.6621 212.415C94.5188 212.178 94.4471 211.9 94.4471 211.58C94.4471 211.31 94.5154 211.067 94.6521 210.85C94.7888 210.63 95.0004 210.448 95.2871 210.305C95.5771 210.162 95.9488 210.067 96.4021 210.02C96.8554 209.97 97.4004 209.977 98.0371 210.04L98.0571 210.8C97.6038 210.737 97.2138 210.71 96.8871 210.72C96.5604 210.73 96.2921 210.772 96.0821 210.845C95.8754 210.915 95.7221 211.01 95.6221 211.13C95.5254 211.247 95.4771 211.382 95.4771 211.535C95.4771 211.775 95.5621 211.96 95.7321 212.09C95.9054 212.22 96.1421 212.285 96.4421 212.285C96.6988 212.285 96.9288 212.238 97.1321 212.145C97.3354 212.052 97.4954 211.92 97.6121 211.75C97.7321 211.58 97.7921 211.38 97.7921 211.15V209.835C97.7921 209.615 97.7454 209.425 97.6521 209.265C97.5588 209.102 97.4171 208.975 97.2271 208.885C97.0371 208.795 96.8004 208.75 96.5171 208.75C96.2571 208.75 96.0004 208.79 95.7471 208.87C95.4938 208.947 95.2521 209.068 95.0221 209.235L94.7121 208.425C95.0221 208.215 95.3454 208.067 95.6821 207.98C96.0188 207.893 96.3421 207.85 96.6521 207.85C97.1121 207.85 97.5054 207.923 97.8321 208.07C98.1621 208.213 98.4154 208.432 98.5921 208.725C98.7688 209.015 98.8571 209.382 98.8571 209.825V213H97.8671V212.415C97.7004 212.652 97.4688 212.833 97.1721 212.96C96.8754 213.087 96.5438 213.15 96.1771 213.15ZM100.32 213V208.05H101.42V213H100.32ZM100.025 207.175C99.838 207.175 99.6814 207.112 99.5547 206.985C99.428 206.858 99.3647 206.697 99.3647 206.5C99.3647 206.3 99.428 206.137 99.5547 206.01C99.6814 205.883 99.838 205.82 100.025 205.82C100.205 205.82 100.358 205.883 100.485 206.01C100.611 206.137 100.675 206.3 100.675 206.5C100.675 206.697 100.611 206.858 100.485 206.985C100.358 207.112 100.205 207.175 100.025 207.175ZM101.72 207.175C101.536 207.175 101.381 207.112 101.255 206.985C101.128 206.858 101.065 206.697 101.065 206.5C101.065 206.3 101.128 206.137 101.255 206.01C101.381 205.883 101.536 205.82 101.72 205.82C101.903 205.82 102.058 205.883 102.185 206.01C102.311 206.137 102.375 206.3 102.375 206.5C102.375 206.697 102.311 206.858 102.185 206.985C102.058 207.112 101.903 207.175 101.72 207.175ZM102.947 213V208.05H104.047V209.96H106.527V208.05H107.627V213H106.527V210.87H104.047V213H102.947ZM109.158 213V208.05H110.223V211.39L112.908 208.05H113.868V213H112.808V209.62L110.098 213H109.158Z" fill="white"/>
<defs>
<linearGradient id="paint0_linear_1146_5" x1="89.9844" y1="31.1238" x2="260.413" y2="40.8278" gradientUnits="userSpaceOnUse">
<stop stop-color="#544CF9"/>
<stop offset="0.52" stop-color="#8B86FF"/>
<stop offset="1" stop-color="#5D56FF"/>
</linearGradient>
<linearGradient id="paint1_linear_1146_5" x1="90.2192" y1="143.373" x2="157.545" y2="-13.4947" gradientUnits="userSpaceOnUse">
<stop stop-color="#544CF9"/>
<stop offset="0.52" stop-color="#8B86FF"/>
<stop offset="1" stop-color="#5D56FF"/>
</linearGradient>
<linearGradient id="paint2_linear_1146_5" x1="95.8253" y1="25.4075" x2="264.487" y2="51.7397" gradientUnits="userSpaceOnUse">
<stop stop-color="#544CF9"/>
<stop offset="0.52" stop-color="#8B86FF"/>
<stop offset="1" stop-color="#5D56FF"/>
</linearGradient>
<linearGradient id="paint3_linear_1146_5" x1="160.45" y1="98.058" x2="142.511" y2="167.808" gradientUnits="userSpaceOnUse">
<stop stop-color="#FFE70C"/>
<stop offset="1" stop-color="#227AFF"/>
</linearGradient>
<linearGradient id="paint4_linear_1146_5" x1="136.565" y1="-2.66621" x2="269.888" y2="103.94" gradientUnits="userSpaceOnUse">
<stop stop-color="#544CF9"/>
<stop offset="0.52" stop-color="#8B86FF"/>
<stop offset="1" stop-color="#5D56FF"/>
</linearGradient>
<linearGradient id="paint5_linear_1146_5" x1="186.388" y1="-6.70982" x2="248.304" y2="152.371" gradientUnits="userSpaceOnUse">
<stop stop-color="#544CF9"/>
<stop offset="0.52" stop-color="#8B86FF"/>
<stop offset="1" stop-color="#5D56FF"/>
</linearGradient>
<linearGradient id="paint6_linear_1146_5" x1="232.262" y1="15.4026" x2="204.382" y2="183.815" gradientUnits="userSpaceOnUse">
<stop stop-color="#544CF9"/>
<stop offset="0.52" stop-color="#8B86FF"/>
<stop offset="1" stop-color="#5D56FF"/>
</linearGradient>
<linearGradient id="paint7_linear_1146_5" x1="70" y1="196" x2="153.519" y2="196" gradientUnits="userSpaceOnUse">
<stop stop-color="#2943DE"/>
<stop offset="1" stop-color="#FFE70C"/>
</linearGradient>
<clipPath id="clip0_1146_5">
<rect width="172" height="174" fill="white" transform="translate(83)"/>
</clipPath>
</defs>
</svg>
